<?xml version="1.0" encoding="utf-8"?>
<!-- Generator: Adobe Illustrator 26.5.0, SVG Export Plug-In . SVG Version: 6.00 Build 0)  -->
<svg version="1.1" id="Layer_1" xmlns="http://www.w3.org/2000/svg" xmlns:xlink="http://www.w3.org/1999/xlink" x="0px" y="0px"
	 viewBox="0 0 160 190" style="enable-background:new 0 0 160 190;" xml:space="preserve">
<style type="text/css">
	.st0{fill:#B68148;}
	.st1{fill:#C29666;}
	.st2{fill:#D6D6D6;}
	.st3{fill:#B2B2B2;}
	.st4{fill:#FFCD2E;}
	.st5{fill:#FDDE64;}
	.st6{fill:#DCA97A;}
	.st7{fill:#D6A076;}
	.st8{fill:#F5871F;}
	.st9{fill:#DD2E44;}
	.st10{fill:#77B255;}
	.st11{fill:#662113;}
	.st12{fill:#F57E16;}
	.st13{fill:#FFB300;}
	.st14{fill:#006633;}
	.st15{fill:#65882A;}
	.st16{fill:#697D17;}
	.st17{fill:#EDB980;}
	.st18{fill:#E5A157;}
	.st19{fill:#FFD983;}
	.st20{fill:#9E9083;}
	.st21{fill:#F16236;}
	.st22{fill:#CB3F14;}
	.st23{fill:#685A4D;}
	.st24{fill:#FFFFFF;}
</style>
<g>
	<path class="st0" d="M79.9,100.6l-10.4,0.2l-1-55.5c0-2.9,2.3-5.2,5.1-5.3c2.9,0,5.2,2.3,5.3,5.1L79.9,100.6L79.9,100.6z"/>
	<path class="st1" d="M71.3,45.5c0-2.6,1.8-4.8,4.3-5.2c-0.6-0.2-1.3-0.4-2-0.3c-2.9,0-5.2,2.4-5.1,5.3l1,55.5l2.8,0L71.3,45.5z"/>
	<path class="st2" d="M115.1,72v-5.2h11.3v5.2c3.9,2,6.4,6.3,6.4,11v23.7h-23.4V86.8C109.4,82.2,111.2,74,115.1,72z"/>
	<path class="st3" d="M123.2,72v-5.2h3.2v5.2c3.9,2,6.4,6.3,6.4,11v23.7h-3.2V82.9C129.6,78.2,127.1,74,123.2,72z"/>
	<g>
		<path class="st4" d="M123.3,59.8H115v7h8.3V59.8z"/>
	</g>
	<g>
		<path class="st5" d="M126.5,59.8h-3.2v7h3.2V59.8z"/>
	</g>
	<g>
		<path class="st6" d="M21.9,57.5c-2,3.9-1.9,8.6-0.8,12.9c1.1,4.2,3.2,8.2,5,12.1c1.2,2.4,2.2,5,3.5,7.3c1.6,3,3.6,5.8,5.6,8.6
			c3.5,4.8,6.9,9.6,11,14c1.4,1.4,2.8,2.8,4.7,3.6c1.8,0.8,4,1,5.7,0c1.2-0.8,2.1-2.1,2.6-3.5c0.8-2.4,0.4-5.1,0-7.7
			c-0.9-5.8-3-11.9-5.9-17.2c-2.4-4.4-5-7.4-7.2-11.2c0,0-2.4-3.3-3.6-5.1c-1.2-1.9-3.6-5-5.8-6.8c-2.2-1.7-7-7.5-7.2-8
			c-0.2-0.4-0.1-1-0.1-1c-0.3-0.2-0.6-0.3-0.9-0.5s-0.7-0.3-1.1-0.4l0,0c0,0-0.4,0.1-1.4-0.2c-0.2,0-0.4,0-0.6,0
			c0,0.3-0.3,0.9-1.8,0.7C22.9,55.8,22.3,56.7,21.9,57.5z"/>
	</g>
	<g>
		<path class="st7" d="M49.9,84.1c-0.1-0.1-0.1-0.2-0.2-0.4c0,0.1,0,0-0.1,0c0.1,0.1,0.1,0,0.1,0.3c0.1,0,0.1,0.1,0.1,0.1
			c0,0,0,0,0,0.1c-0.1-0.1-0.2-0.3-0.3-0.5c0-0.1,0-0.1,0.1-0.1c-0.1-0.1-0.1,0-0.1,0.1c0,0.1,0,0.3,0.1,0.3c-0.1,0.2-0.1,0.1-0.2,0
			c0-0.1-0.1-0.3-0.2-0.5c0,0.1,0,0.2,0,0.3c0,0,0,0,0-0.1c0,0.2,0.1,0.5,0.2,0.6C49.5,83.9,49.9,84.5,49.9,84.1z M50.4,82.9
			C50.4,82.9,50.4,82.9,50.4,82.9c-0.1,0-0.1,0-0.2,0c0.1-0.1,0-0.2-0.1-0.1c0,0,0.1,0.2,0.2,0.2c0,0,0,0.1,0,0.1
			c-0.1-0.1-0.1,0-0.1,0c0,0,0-0.1,0-0.2c0-0.1-0.1-0.1-0.2,0c0,0,0-0.1,0.1-0.1c-0.1-0.1-0.1,0-0.1,0c0,0-0.1,0-0.1-0.1
			c0-0.1,0.2,0.1,0.2-0.1c-0.1,0-0.2-0.1-0.2,0c0,0-0.1-0.3-0.2-0.2c0,0,0,0.1,0,0.1c0.1,0.1,0.2,0.6,0.4,0.5c0,0.1,0,0.1,0,0.3
			c0.3,0.2,0.3,0,0.5,0c0,0,0-0.1,0-0.1C50.3,83.1,50.4,83.1,50.4,82.9z M49.4,82.5c0,0,0.1,0.2,0.1,0.4
			C49.6,82.8,49.5,82.6,49.4,82.5z M50,84.6C50,84.5,49.8,84.5,50,84.6c-0.1,0-0.1,0-0.1-0.2c0-0.1,0,0,0.1,0c0,0,0-0.1-0.1-0.2
			c-0.1,0,0,0.2,0,0.4C49.9,84.7,49.9,84.7,50,84.6z M48.7,84c-0.1,0,0,0.1-0.1,0.2C48.7,84.2,48.8,84.2,48.7,84z M48.9,83.9
			c0.1,0.2,0.1-0.1,0.1-0.2C48.9,83.7,49,83.8,48.9,83.9z M49.1,84.9c0.1-0.1-0.1-0.4,0-0.5c-0.1,0,0,0.2-0.1,0.3
			C49.1,84.7,49,84.8,49.1,84.9z M48.4,85.7c0-0.1,0.1-0.1,0.1-0.2c0-0.1,0,0.1-0.1,0C48.4,85.5,48.4,85.6,48.4,85.7
			C48.4,85.7,48.4,85.6,48.4,85.7C48.5,85.8,48.5,85.6,48.4,85.7z M50.2,84.4c0-0.2,0.2-0.1,0-0.4C50.2,84.2,50.2,84.3,50.2,84.4
			c-0.1-0.1-0.1-0.1-0.1-0.1C50,84.3,50.2,84.5,50.2,84.4z M49,85.4C49,85.4,49,85.4,49,85.4C49.2,85.4,49,85.2,49,85.4
			C49,85.2,49,85.3,49,85.4C49,85.3,49,85.3,49,85.4z M49.7,86.9c0,0.1-0.1,0.1,0,0.3c0,0,0,0,0.1,0C49.8,87.1,49.6,87.1,49.7,86.9z
			 M48.9,83.7C48.6,83.6,48.7,83.2,48.9,83.7L48.9,83.7z M49.7,86.7c0,0-0.1-0.1-0.1-0.2c0,0,0-0.1-0.1-0.1
			C49.6,86.5,49.6,86.8,49.7,86.7z M50.6,85.8c0-0.2,0,0-0.1-0.1c0,0,0.1,0.4,0.2,0.4C50.6,85.9,50.4,85.8,50.6,85.8z M50,82.5
			c0-0.1,0-0.1,0-0.2c0,0,0-0.1-0.1-0.1c0,0.1,0.1,0.4,0.2,0.5C50.2,82.7,50,82.4,50,82.5z M50,86c0.1,0.2,0.1,0.4,0.3,0.4
			c0-0.2-0.3-0.3-0.1-0.4C50.1,85.9,50,86,50,86z M50.7,85.5c0-0.1,0-0.4-0.2-0.5C50.6,85.2,50.6,85.4,50.7,85.5z M45,79.4
			C44.9,79.4,44.9,79.4,45,79.4c-0.1,0-0.1,0-0.1,0c0,0,0.1,0.1,0.2,0.2C45.1,79.6,44.9,79.4,45,79.4z M51,86.7
			C51,86.8,51.1,86.8,51,86.7c0.1-0.2,0-0.1,0-0.3C50.9,86.6,50.9,86.6,51,86.7z M44.6,79.8c-0.2-0.1,0-0.3,0-0.3
			c-0.1-0.1-0.2-0.1-0.3,0c0,0,0,0,0-0.1C44.1,79.4,44.5,79.6,44.6,79.8C44.5,79.8,44.6,79.9,44.6,79.8
			C44.6,79.9,44.6,79.8,44.6,79.8C44.5,79.8,44.6,79.8,44.6,79.8z M50.7,87.7c0.1,0.1,0-0.2,0-0.3C50.6,87.5,50.8,87.7,50.7,87.7z
			 M44.7,79.5c0,0-0.1,0.1,0,0.2c0-0.1,0-0.1,0.1-0.1C44.8,79.6,44.8,79.6,44.7,79.5z M48.7,83.1c0,0.1,0.1,0.3,0,0.3
			c0.2,0.2,0-0.1,0.1-0.2C48.8,83.1,48.8,83,48.7,83.1z M43.9,80.1c-0.1,0,0.1,0.2,0.1,0.2c0,0,0.1,0,0.1,0c0-0.1-0.1-0.1-0.2-0.1
			C44,80.2,44,80.2,43.9,80.1z M43.7,80.3c0,0.1,0,0.2-0.1,0.2c0.1,0.1,0.2,0.1,0.3,0.1C43.7,80.5,43.8,80.3,43.7,80.3z M44,79.8
			c-0.1-0.1-0.2-0.1-0.3-0.2C43.6,79.7,43.9,80.1,44,79.8z M49.2,82.9C49.2,82.9,49.2,83,49.2,82.9c0.1,0.2,0.1,0.2,0.1,0.2
			c0,0.1-0.1,0-0.1,0.2c0,0,0.1,0,0.1-0.1c-0.1-0.2-0.1-0.4-0.2-0.5C49.1,82.6,49.4,83,49.2,82.9z M49,83c0,0.2,0.2,0,0.2,0
			C49.1,82.8,49.1,83.2,49,83z M50.9,85.7c0,0,0,0.2,0,0.3C51,86,50.9,85.8,50.9,85.7z M44.9,79.8c0,0.1,0.1,0.3,0.2,0.2
			C45,79.8,45,79.9,44.9,79.8z M50.9,83.7C50.9,83.7,50.9,83.7,50.9,83.7c-0.1,0-0.1-0.1-0.1-0.2l0,0c0,0,0,0.1,0,0.1
			c0.1,0,0.1,0.2,0.1,0.3c0-0.1,0.1,0,0.1,0.1c0.1,0,0-0.1,0-0.2C50.9,83.8,50.9,83.8,50.9,83.7z M49.7,81.9
			C49.7,81.9,49.7,81.9,49.7,81.9C49.7,81.9,49.7,81.9,49.7,81.9z M49.9,82.1L49.9,82.1C49.8,82.1,49.8,82.1,49.9,82.1
			C49.8,82.1,49.8,82.2,49.9,82.1z M49.5,81.6L49.5,81.6C49.4,81.6,49.4,81.6,49.5,81.6C49.5,81.7,49.5,81.6,49.5,81.6z M49.5,82.3
			c0,0,0-0.1,0-0.1c0,0,0,0,0.1,0C49.6,82.2,49.6,82.3,49.5,82.3c0.2-0.1,0.3,0,0.3,0.1c0.1,0,0-0.1-0.1-0.3c0,0.3-0.2-0.1-0.4,0
			C49.3,82.3,49.4,82.2,49.5,82.3z M46.3,80.6c0.1,0.1,0.1,0.2,0.1,0.2C46.6,81,46.4,80.5,46.3,80.6z M46.1,80.9
			c0,0.1,0,0.1-0.1,0.1c0,0,0.1,0,0.1,0.1C46.1,81.1,46.2,81.1,46.1,80.9z M45.6,82.1C45.6,82,45.6,82.1,45.6,82.1
			c-0.1-0.1-0.2-0.2-0.2-0.2C45.5,81.9,45.6,82.2,45.6,82.1z M45.9,81.2c0,0.1,0.1,0.1,0.2,0.1C46.1,81.3,46.1,81.3,45.9,81.2
			L45.9,81.2z M48.5,84.3c0.2,0.2,0.2,0.6,0.4,0.6c-0.1-0.2-0.2-0.5-0.3-0.8C48.4,84.2,48.6,84.3,48.5,84.3z M46.6,80.3
			c-0.1-0.1-0.1-0.2-0.2-0.4c0,0-0.1,0-0.1,0.1C46.3,80,46.4,80.2,46.6,80.3z M45.9,79.5c0,0.1,0.1,0.2,0.2,0.3
			C46.1,79.8,46,79.7,45.9,79.5c0.2,0.1,0.1-0.1,0.2,0.1c0,0,0-0.1,0-0.1C46,79.4,46,79.5,45.9,79.5z M45.9,80.4
			c0,0.1,0.1,0.2,0.2,0.3c0-0.1,0-0.2,0-0.2c0-0.1-0.1-0.1-0.2-0.3c0.1,0,0.1,0.1,0.2,0c0-0.1-0.1-0.1-0.1,0c0-0.1-0.1-0.2-0.2-0.3
			c0,0,0,0.1-0.1,0.1C45.8,80.2,45.8,80.3,45.9,80.4z M45.6,81.6C45.6,81.7,45.6,81.7,45.6,81.6c0,0.2,0,0.1,0.1,0.2
			C45.8,81.8,45.7,81.7,45.6,81.6z M46.6,82.5c0-0.1,0-0.1,0-0.2c0,0,0.1,0,0.1,0.1c0-0.1-0.1-0.2,0-0.2c0-0.2-0.1,0-0.2-0.1
			c0,0,0.1,0.1,0.1,0.2c0,0-0.1-0.1-0.2,0C46.5,82.3,46.5,82.5,46.6,82.5C46.5,82.5,46.5,82.4,46.6,82.5z M45.7,82.5
			C45.9,82.6,46.1,82.2,45.7,82.5L45.7,82.5z M46,81.6C46,81.6,46,81.6,46,81.6C46.1,81.6,46.1,81.6,46,81.6
			C46,81.7,46.1,81.7,46,81.6l0.1,0.1L46,81.6c0.1-0.1,0.1,0,0.2,0c0,0.1,0,0.1,0,0.2c0,0,0,0,0.1,0c0-0.1,0-0.2,0-0.3
			c0.1,0,0.1-0.1,0.3,0c-0.1-0.2-0.2,0-0.3,0c0,0,0-0.1-0.1-0.1C46.2,81.6,46.1,81.4,46,81.6C46,81.5,46,81.6,46,81.6z M46.6,81.8
			C46.6,81.8,46.6,81.9,46.6,81.8c0,0.1,0.1,0.3,0.2,0.2c0-0.1,0-0.1-0.1,0C46.6,81.8,46.7,81.8,46.6,81.8
			C46.5,81.6,46.5,81.7,46.6,81.8z M46.4,81.2C46.3,81.2,46.3,81.2,46.4,81.2C46.4,81.4,46.3,81.3,46.4,81.2
			C46.4,81.2,46.4,81.2,46.4,81.2C46.3,81.1,46.3,81.2,46.4,81.2z M46.4,82.9c0-0.1-0.2,0-0.2-0.1C46.1,83,46.4,82.9,46.4,82.9z
			 M46.4,81.1l0.1,0.2C46.7,81.3,46.6,80.9,46.4,81.1z M46.7,81.4C46.7,81.4,46.7,81.4,46.7,81.4L46.7,81.4c0,0,0,0,0,0.1
			C46.8,81.6,46.6,81.4,46.7,81.4z M45.7,81.5c0,0,0-0.1,0.1-0.1c0-0.1,0,0-0.1-0.1C45.6,81.3,45.6,81.4,45.7,81.5z M47.5,83.3
			C47.4,83.4,47.6,83.5,47.5,83.3c0,0,0-0.1,0-0.1C47.3,83,47.6,83.5,47.5,83.3z M47.6,82.4c-0.1,0.1,0.1,0.4,0.1,0.6
			c0,0,0-0.1,0.1,0c0,0,0-0.2-0.1-0.3c0-0.1-0.1-0.2,0-0.2C47.8,82.5,47.6,82.5,47.6,82.4z M47.5,83c0,0,0.1,0.1,0.1,0.1
			C47.6,83,47.6,83,47.5,83c0-0.1,0-0.1,0-0.1C47.4,82.9,47.6,83,47.5,83z M48,82.9c0.1,0.2,0.1-0.1,0.1,0.1c0-0.1-0.1-0.2-0.1-0.3
			C48,82.8,48,82.9,48,82.9z M48.3,83.9c0-0.2-0.2-0.2-0.2-0.3C48,83.7,48.2,83.6,48.3,83.9z M48.8,81.5c0,0-0.1-0.2-0.1-0.2
			C48.6,81.3,48.8,81.6,48.8,81.5z M48.2,83.4c0.1,0-0.2-0.2-0.1-0.2c-0.1-0.1,0,0.1,0,0.1C48.1,83.3,48.1,83.4,48.2,83.4z
			 M48.5,83.2c0-0.1-0.1-0.3-0.2-0.4C48.3,83,48.4,83,48.5,83.2z M47.1,83c0,0.1,0.1,0.1,0.2,0C47.2,82.9,47.1,83,47.1,83z
			 M46.7,83.4C46.7,83.4,46.7,83.3,46.7,83.4C46.7,83.5,46.7,83.4,46.7,83.4c0,0,0-0.1,0-0.2C46.6,83.3,46.7,83.4,46.7,83.4z
			 M46.9,81.7c0.2,0.2,0,0.2,0.1,0.3C47.1,82,47.1,81.5,46.9,81.7z M46.8,81.9c0,0,0,0.1,0,0.1C46.8,82.2,46.9,82,46.8,81.9z
			 M46.9,82.9c0,0,0-0.1,0-0.1C46.8,82.7,46.8,82.8,46.9,82.9c-0.1-0.1-0.1-0.1-0.2-0.2C46.7,82.8,46.8,83,46.9,82.9z M46.6,80.4
			c0,0,0,0.2,0,0.2c0,0,0.1,0,0.1,0C46.8,80.6,46.7,80.5,46.6,80.4z M47,83.2c0,0,0.1,0,0.2,0.1C47.1,83.2,47,83.2,47,83.2
			C47,83.1,47,83.2,47,83.2z M47.3,83c0,0.2,0,0.2,0.1,0.1C47.4,82.9,47.3,83,47.3,83z M47.2,82.3c0.1,0,0-0.2,0.1,0c0,0,0,0,0,0
			C47.3,82.2,47.1,82.1,47.2,82.3z M38.8,69.1c-0.1-0.1-0.4-0.1-0.2-0.3c-0.1-0.1-0.1,0-0.2-0.1c0.2,0.3,0.4,0.4,0.4,0.6
			C38.9,69.3,38.8,69.2,38.8,69.1z M35.3,68.5c-0.2,0,0-0.1-0.3-0.3C35,68.3,35,68.3,35,68.4c0.2,0,0.2,0.1,0.3,0.2
			C35.3,68.6,35.3,68.5,35.3,68.5z M35.5,68.6C35.4,68.5,35.4,68.7,35.5,68.6c0,0.2,0,0.1,0.1,0.2C35.6,68.7,35.3,68.7,35.5,68.6z
			 M36.9,68.3c0.2,0.1,0.1-0.1,0.1-0.2C36.9,68.1,37.1,68.3,36.9,68.3z M36.5,67.3c0,0.1,0,0.1-0.1,0c-0.1,0-0.2,0-0.2,0
			c0.2,0.1,0.2,0.3,0.3,0.4c0-0.2,0-0.2,0-0.4c0,0,0.2,0.1,0.2,0L36.5,67.3z M36,69C36,68.9,36,68.9,36,69C36,68.8,36,68.9,36,69
			c-0.1,0-0.2-0.2-0.2-0.2c0,0,0,0.1,0,0.2C35.9,68.9,35.9,68.8,36,69z M42.2,75.2c0.3,0.1,0.6,0.7,0.9,0.8c0-0.1,0-0.4-0.2-0.4
			c0.1,0,0.1,0.1,0.1,0.2c-0.1-0.1-0.2,0-0.3-0.2c0-0.1,0.2,0,0.2-0.2c-0.1,0-0.2,0.1-0.4,0.1c-0.1-0.2-0.1-0.2-0.2-0.4
			C42.3,75.1,42.3,75.2,42.2,75.2z M42.7,75.9c0.1,0,0.2,0.1,0.3,0.1C42.9,75.9,42.8,75.8,42.7,75.9z M35.8,67.5
			C35.7,67.4,35.7,67.5,35.8,67.5c0,0.1,0,0.1,0.1,0.2C36,67.6,35.7,67.5,35.8,67.5z M35.8,66.8c0,0.1,0,0.1,0,0.2
			c0.1,0,0.1,0,0.2,0C36,66.8,35.9,66.8,35.8,66.8z M38.1,71.7c0.1,0,0.2,0.2,0.3,0.1C38.3,71.8,38.2,71.7,38.1,71.7z M38.3,70.9
			c0.1,0.1,0.1,0.2,0.1,0.3c0.1,0,0.3,0.1,0.3,0.1c-0.1-0.1-0.4-0.2-0.2-0.4C38.5,70.9,38.5,70.8,38.3,70.9
			C38.4,70.8,38.4,70.8,38.3,70.9z M36.5,69.2c-0.1-0.1-0.2-0.1-0.2,0C36.4,69.3,36.5,69.3,36.5,69.2z M38.5,70.6
			c0.1,0,0-0.1,0.1-0.1c0,0-0.1-0.1-0.2-0.1C38.4,70.4,38.5,70.6,38.5,70.6z M37,69.8c0,0,0.1,0.1,0.2,0.2c0,0,0-0.1,0-0.1
			C37.1,69.8,37.1,69.8,37,69.8z M39.1,69.8c0.1,0.1,0.1,0.1,0.2,0.2c0.1-0.1,0-0.1,0-0.2C39.2,69.7,39.1,69.8,39.1,69.8z
			 M39.2,69.5c-0.1-0.1,0,0-0.1-0.2c0,0-0.1,0.1-0.1,0C38.7,69.2,39.2,69.7,39.2,69.5z M39.1,70.5c0,0,0,0.1-0.1,0.1
			c0.2,0.1,0.3,0.3,0.4,0C39.3,70.5,39.2,70.6,39.1,70.5z M38.8,70.2c-0.1-0.1-0.2,0.1-0.1,0.1C38.9,70.4,38.8,70.3,38.8,70.2z
			 M23.3,60.4C23.5,60.5,23.5,60.4,23.3,60.4C23.3,60.3,23.4,60.4,23.3,60.4z M22.9,59.8c0.1,0,0.2,0,0.3,0
			C23.1,59.8,22.9,59.7,22.9,59.8z M23.1,55.8L23.1,55.8C23.1,55.8,23.1,55.8,23.1,55.8C23.1,55.8,23.1,55.8,23.1,55.8z M25.5,62.1
			c0,0,0.1,0,0.1,0C25.5,61.9,24.9,61.7,25.5,62.1z M25.5,62.6C25.3,62.7,25.1,62.3,25.5,62.6L25.5,62.6z M24.4,61.1
			C24.8,61.1,24.6,61.3,24.4,61.1L24.4,61.1z M26.1,62.5c0.1,0,0.1,0,0.2,0c0,0-0.1-0.1-0.2-0.2C26,62.4,26.2,62.4,26.1,62.5z
			 M26.2,62.8c-0.2,0.1,0.8,0.6,1.1,0.5c0-0.1-0.3,0-0.3-0.2c-0.1,0-0.4-0.2-0.5,0C26.4,62.9,26.2,62.8,26.2,62.8z M45.7,78.9
			c0,0,0-0.4-0.2-0.3C45.7,78.7,45.6,78.8,45.7,78.9z M49.2,82C49.2,81.9,49.2,81.9,49.2,82c0.2,0,0,0,0-0.2l-0.1,0
			C49.1,81.9,49.1,81.9,49.2,82z M46.7,79.8c0.1,0.1,0.1,0.2,0.2,0.3s0.1,0.2,0.2,0.3c0-0.1-0.1-0.2-0.2-0.4c0-0.1,0.1,0,0.1,0
			c-0.1-0.1,0-0.2-0.1-0.3c0,0,0,0.1,0,0.1C46.8,79.9,46.8,79.8,46.7,79.8C46.7,79.8,46.7,79.8,46.7,79.8
			C46.6,79.6,46.8,79.8,46.7,79.8z M43.3,75.9c0.1,0,0.1,0.1,0.2,0C43.5,75.9,43.4,75.9,43.3,75.9z M22.4,57.5
			c-0.1,0-0.2-0.1-0.3-0.2c0-0.1,0.1-0.2,0.1-0.3c0,0.1-0.1,0.1-0.1,0.2c0,0.1,0.2,0.3,0.1,0.4C22.3,57.7,22.5,57.6,22.4,57.5z
			 M23,55.9c0,0.1-0.1,0.2,0,0.3c0.2,0,0.1-0.1,0.2-0.2C23.1,56,23.1,55.9,23,55.9C23,55.9,23,55.9,23,55.9z M22.6,57
			c-0.1-0.1-0.1,0.1-0.2,0C22.4,57.1,22.6,57.1,22.6,57z M23.2,55.8c0.1,0,0.1,0,0.2-0.1c-0.1,0-0.1,0-0.2-0.1l0,0
			C23.3,55.7,23.3,55.7,23.2,55.8z M27.7,54.9c0,0,0,0,0.3,0.2C27.8,54.9,27.7,54.9,27.7,54.9z M37.8,70.1L37.8,70.1
			c0-0.2-0.1-0.3-0.2-0.3C37.5,69.9,37.7,69.9,37.8,70.1z M39.8,72.4c-0.1-0.1-0.1-0.2-0.2-0.2c-0.1,0,0,0.2,0,0.3
			C39.7,72.5,39.8,72.5,39.8,72.4z M41.6,75.1c-0.1-0.1-0.2-0.3-0.4-0.5c0,0,0.1,0.2,0,0.2c0,0,0.1,0.1,0.2,0
			c-0.1,0.1,0.1,0.1,0,0.2c0,0,0,0,0,0C41.4,75,41.5,75.1,41.6,75.1z M42.4,76.4c0,0-0.1-0.1-0.1,0c0,0.1,0.1,0.2,0.2,0.3
			C42.4,76.5,42.4,76.4,42.4,76.4z M41.5,74.7c0.1,0.1,0.1,0,0.1-0.1C41.5,74.4,41.6,74.7,41.5,74.7z M40,71.2
			C39.9,71.2,39.9,71.1,40,71.2C39.6,71.3,39.8,71.3,40,71.2z M40.2,73.6c0,0,0.1,0,0.1,0c0-0.1,0-0.2-0.1-0.3
			c0.2,0.2,0-0.2-0.1-0.3c0,0.1,0.1,0.1,0.1,0.2c-0.1,0-0.2-0.1-0.3,0c0-0.1,0-0.1,0,0c0,0,0-0.1-0.1-0.1c0,0.1-0.2,0.1-0.3,0
			c0,0.1,0.1,0.2,0.2,0.2c0.1,0.1,0.1,0.1,0.1,0.3c0.1,0,0.4,0.2,0.3,0.3c0.1,0.1,0.1,0,0.2,0C40.5,73.8,40.3,73.6,40.2,73.6
			C40.2,73.7,40.2,73.6,40.2,73.6z M40.9,74c-0.1-0.1-0.1-0.1-0.2-0.1C40.7,74,40.8,74.1,40.9,74z M39.9,71.5c0-0.1-0.2-0.2-0.3-0.1
			C39.7,71.6,39.8,71.4,39.9,71.5z M41.6,73.9c0,0-0.2,0-0.1-0.1c-0.1-0.1-0.2,0-0.4,0c0,0.2,0.2,0.3,0.1,0.4c0,0,0.1,0,0.1,0
			c0-0.1,0-0.1-0.1-0.2c0.1,0,0.1,0,0.2,0c0.1,0.2,0.1,0.1,0.3,0.2C41.7,74.1,41.5,74,41.6,73.9z M42.5,78.8
			c0.3,0.1,0.3-0.3,0.5-0.2c0,0-0.1-0.1-0.2,0c-0.1,0,0,0.1,0,0.2s0,0-0.1,0c0-0.1,0-0.1-0.1-0.2c0-0.1,0-0.1,0.1-0.1
			c0-0.1-0.1-0.1-0.2,0c0.1,0.1,0.1,0.2,0.1,0.3c0,0-0.1,0-0.1-0.1C42.4,78.6,42.5,78.6,42.5,78.8z M42.1,76.3c-0.1,0-0.2,0-0.1,0.1
			C42.1,76.4,42.2,76.4,42.1,76.3z M42.3,77c0-0.1-0.1-0.2-0.2-0.2c0,0,0.1,0,0.1,0c-0.1-0.2-0.3,0.1-0.4-0.2c0,0-0.1,0-0.1,0.1
			c0,0-0.1,0-0.2-0.1c0,0.1,0.1,0.3,0.2,0.3c0-0.2,0.2,0.1,0.3,0c0,0.2,0.2,0.4,0,0.5c0,0-0.1-0.2-0.2-0.1c0,0.1,0.1,0.1,0.1,0.2
			C42.4,77.4,42.2,77.1,42.3,77z M43.4,79.7c-0.2-0.1,0,0.2,0.1,0.1C43.5,79.8,43.4,79.8,43.4,79.7z M42.1,74.7c0-0.1,0.2,0,0-0.3
			C42.1,74.5,42.1,74.6,42.1,74.7c-0.1-0.1-0.1-0.2-0.2-0.2c0,0,0,0.1,0,0.2C42,74.8,42,74.7,42.1,74.7c0,0.1,0,0.1,0,0.2
			c-0.1,0-0.1-0.2-0.2,0c0.1,0.1,0.3,0.1,0.5,0.2c0,0,0-0.1,0-0.1C42.2,74.8,42.1,74.8,42.1,74.7z M42.3,76.2c0-0.2-0.3-0.3-0.5-0.6
			c0,0.1-0.2,0-0.2,0.1c0.2,0.1,0.3,0.5,0.5,0.5c0,0,0,0,0,0c0,0-0.1-0.1-0.1-0.2C42.1,75.9,42.2,76.2,42.3,76.2z M41.9,75.3
			c0,0-0.1-0.1-0.2-0.1c0,0.1,0.1,0.3,0.2,0.3c0.1,0,0.1-0.1,0.1-0.2c-0.1-0.1,0-0.1-0.1-0.2C41.8,75.1,42,75.3,41.9,75.3z
			 M42.3,74.7c0.1,0.2,0.1,0,0.2,0C42.3,74.5,42.4,74.7,42.3,74.7z M38.2,69.6C38.2,69.6,38.2,69.5,38.2,69.6
			c-0.1-0.2-0.1-0.1-0.2,0C38.1,69.7,38.1,69.5,38.2,69.6z M44.9,80.4C44.9,80.3,44.9,80.3,44.9,80.4L44.9,80.4c0,0.1,0,0.1,0,0.2
			C45,80.5,44.9,80.4,44.9,80.4z M38.3,71.1c0,0.1-0.1,0.2-0.1,0.3c0.2-0.1,0.2,0.4,0.4,0.3c-0.2,0-0.1-0.3-0.3-0.4
			c0-0.1,0.1,0,0.1,0C38.5,71.2,38.4,71.2,38.3,71.1z M37.3,71c0,0-0.1-0.2,0-0.2C37.1,70.7,37.1,70.9,37.3,71z M38.4,68.6
			c0.1,0.1,0.2-0.1,0.3,0.1c0.1,0-0.1-0.1-0.1-0.2C38.4,68.5,38.5,68.5,38.4,68.6z M45.8,79.1c0.1,0.1,0.1,0.2,0.2,0.3
			c0-0.2-0.1-0.4-0.1-0.6C45.8,78.9,45.9,79.1,45.8,79.1z M40.5,73.7C40.9,73.8,40.5,73.9,40.5,73.7L40.5,73.7z M37.6,69.4
			c0,0.1,0,0.2,0.1,0.3C37.7,69.7,37.6,69.5,37.6,69.4z M37.8,68.8c0,0,0,0.1,0,0.1c0,0,0.1,0,0.1,0.1c0,0,0-0.1,0-0.1
			C37.9,68.8,37.9,68.8,37.8,68.8C37.8,68.8,37.8,68.8,37.8,68.8z M38.2,70.2c0-0.1-0.2-0.2-0.2-0.1C38,70.1,38.1,70.2,38.2,70.2z
			 M37.8,68.2c0.1,0,0.1-0.2,0.2,0c0,0,0-0.1,0-0.2c0.1,0,0.2,0.1,0.3,0.2c0,0-0.1-0.2-0.1-0.2c0,0-0.1,0-0.1,0
			c-0.2,0.1-0.3,0.3-0.3,0.5c0,0.1,0.2,0.1,0.1,0c0,0,0.1,0.1,0.1,0c0,0.1,0,0.2-0.1,0.2c0,0,0,0,0.1,0c0,0,0,0.1,0.1,0.1
			c-0.1-0.2,0.2,0,0.1-0.1c0.1,0,0.1,0,0.2,0.1C38.3,68.6,38,68.5,37.8,68.2z M38.8,69.4c-0.2-0.1-0.2,0.1-0.4,0.1
			c0.1,0.2,0.2-0.1,0.3,0.1C38.8,69.6,38.8,69.5,38.8,69.4z M39.5,71.3c-0.2-0.1-0.5-0.3-0.7-0.2c0.1,0.1,0.1,0.2,0,0.2
			c0,0,0.1,0.1,0.1,0.2c0.1,0,0-0.1,0-0.2c0,0,0.1,0,0.1-0.1c0,0,0.1,0,0.1,0c0.1,0.1-0.1,0.1,0,0.2c0.1,0.1,0-0.2,0.2,0
			C39.5,71.4,39.4,71.3,39.5,71.3z M37.4,68.8c0.1,0.1,0.1,0.1,0.2,0.2C37.7,68.9,37.4,68.8,37.4,68.8
			C37.4,68.6,37.5,68.8,37.4,68.8z M37.5,69.2c0,0-0.1-0.1-0.1-0.1l-0.1,0.1C37.4,69.2,37.5,69.3,37.5,69.2z M37.4,68.4L37.4,68.4
			c-0.1-0.2-0.1,0.1-0.2,0c0,0.1,0.2,0,0.3,0.1C37.6,68.6,37.5,68.5,37.4,68.4z M37.9,70.2c0,0.1,0,0.2-0.1,0.3
			c0.1,0,0.1-0.2,0.2-0.3C38,70.1,38,70.4,37.9,70.2z M37.3,68.9c0,0-0.2,0-0.1-0.2c-0.1,0-0.2,0.5,0,0.4
			C37.1,69,37.3,68.9,37.3,68.9z M37,69.6c-0.1,0-0.1-0.1-0.2-0.2c0,0,0,0-0.1,0.1c0.1,0.1,0.1,0.1,0.2,0.3
			C37,69.7,36.9,69.6,37,69.6z M31.7,66.2c0.1,0,0-0.1-0.1-0.2c0,0,0,0-0.1,0C31.4,66.1,31.7,66.1,31.7,66.2z M32,66.6
			c0,0,0.1,0,0.1-0.1c-0.1-0.1-0.2,0-0.3-0.1C31.8,66.4,32,66.5,32,66.6z M33,67c-0.1-0.1-0.1,0-0.2-0.1C32.7,67,32.9,67.1,33,67
			C33,67.1,32.9,67.1,33,67z M33.3,66.9C33.3,66.8,33.3,66.8,33.3,66.9C33.3,66.7,33.1,66.7,33.3,66.9
			C33.2,66.9,33.2,66.9,33.3,66.9z M31.4,66.1c0-0.1-0.1-0.1,0-0.2c0,0-0.1-0.1-0.2-0.1c0,0,0.1,0.1,0.1,0.1c-0.1,0-0.2-0.1-0.4-0.1
			c0,0,0.2,0.1,0.2,0.2C31.1,65.8,31.2,66.2,31.4,66.1z M32.8,66.5C32.7,66.5,32.7,66.6,32.8,66.5C32.7,66.5,32.7,66.6,32.8,66.5
			c0,0.1-0.1,0.1-0.1,0.1c0-0.1-0.1-0.2-0.2-0.2c0,0.1,0.3,0.2,0.4,0.3c0,0,0,0-0.1,0c0,0,0,0.1,0,0.1c0,0,0,0,0,0
			C32.8,66.8,32.6,66.6,32.8,66.5z M47.7,82.1L47.7,82.1C47.7,82.1,47.7,82.1,47.7,82.1z M41.6,72.4c0,0,0,0.1,0,0.2c0,0,0,0,0.1,0
			C41.7,72.4,41.6,72.4,41.6,72.4z M45.3,79.9c0,0,0.1,0.2,0.1,0.1c-0.1,0,0-0.2-0.1-0.3C45.2,79.7,45.4,79.9,45.3,79.9z M47.7,82.3
			L47.7,82.3L47.7,82.3z M33.2,67.2c0-0.1,0.1,0,0.2,0.1c0.1-0.1-0.2-0.2-0.1-0.2c-0.1,0-0.2,0-0.2,0.1c0.1,0.1,0.3,0.1,0.2,0.2
			c0.1,0.1,0.1,0,0.2,0.1C33.5,67.4,33.3,67.2,33.2,67.2z M35.1,67.6L35.1,67.6L35.1,67.6L35.1,67.6z M35.1,67.6
			C35.1,67.6,35.2,67.6,35.1,67.6C35.2,67.6,35.2,67.6,35.1,67.6z M48.8,81.8c-0.1-0.1,0,0.3-0.1,0.3c0,0,0.1,0,0,0
			c0.1,0,0.1,0,0.2,0.1c0,0,0.1-0.1,0.1-0.1c0,0-0.1,0-0.2,0C48.8,82,48.7,81.9,48.8,81.8z M47,82.3c0,0.1-0.1,0.1-0.2,0
			c0,0.1,0.1,0.2,0.1,0.3c0,0,0,0-0.1,0c0,0,0-0.1,0-0.1c0,0-0.1,0-0.1-0.1c-0.1,0.1,0.1,0.2,0.1,0.3c0-0.1,0.1-0.2,0.1-0.3
			c0.1,0.1,0.1,0,0.2,0C47.1,82.2,47.1,82.4,47,82.3z M46.8,81c0,0-0.1,0-0.1,0c0,0,0,0.1,0,0.2c0-0.3,0.2,0.1,0.3,0.3
			C46.9,81.3,46.8,81,46.8,81C46.7,80.9,46.8,80.9,46.8,81z M46.3,79.2c0.1,0.1,0.2,0.3,0.3,0.4c0-0.1-0.1-0.3-0.2-0.5L46.3,79.2z
			 M47.8,81.6C47.9,81.7,47.9,81.6,47.8,81.6c0.1,0,0,0.1,0.1,0.2c0-0.1,0.1,0,0,0c0,0.1,0-0.1,0.1,0c0-0.2-0.2-0.6-0.4-0.6
			C47.7,81.4,47.9,81.6,47.8,81.6z M46.3,79.1L46.3,79.1C46.3,79.1,46.3,79.1,46.3,79.1z M46.5,79.8C46.5,79.8,46.5,79.7,46.5,79.8
			C46.5,79.7,46.5,79.7,46.5,79.8c-0.1-0.1-0.1-0.3-0.2-0.3c0.1,0,0.1,0.1,0.2,0.1c0,0,0-0.1,0-0.1c-0.1,0-0.1-0.1-0.2-0.4
			c0,0,0,0,0-0.1c0.1,0.3,0,0.3,0,0.5c0,0.1,0.1,0.1,0.1,0.1C46.2,79.5,46.4,79.9,46.5,79.8z M33.8,67.7c0-0.1,0,0,0-0.2
			C33.7,67.4,33.7,67.7,33.8,67.7z M51.9,85.3c-0.1-0.1-0.1-0.2-0.2-0.4l0,0c0,0.2,0,0.1,0.1,0.3C51.8,85.3,51.9,85.4,51.9,85.3z
			 M48.5,81.8c-0.1,0-0.1,0,0,0.2C48.5,81.9,48.5,81.9,48.5,81.8z M33.8,67.2c0,0,0.1,0,0.1,0C33.8,67.1,33.7,67.1,33.8,67.2
			L33.8,67.2C33.8,67.2,33.8,67.2,33.8,67.2z M48.2,82.5c0-0.1-0.1-0.1-0.2-0.2c0.1,0,0.1,0.2,0.2,0c-0.1,0-0.2,0-0.1-0.2
			c0,0.1-0.1,0-0.2,0c0,0.1,0.1,0.2,0.2,0.3c0.1,0.1,0.2,0.2,0.2,0.4C48.3,82.7,48.3,82.6,48.2,82.5z M49.1,82.5
			c0-0.1-0.2,0-0.2-0.2c0,0,0,0.2,0.1,0.1c0,0,0,0.1,0,0.2c-0.1,0,0-0.2-0.2-0.1c0,0.1,0.1,0.1,0.2,0.3c0,0,0.1,0,0.1,0
			C49,82.8,48.9,82.4,49.1,82.5z M27.1,62.4c0.1,0,0.1,0,0.1-0.1c0,0-0.1,0-0.1,0C26.6,61.8,26.9,62.1,27.1,62.4
			c-0.1-0.1-0.3-0.2-0.2,0c-0.2,0,0-0.1-0.1-0.2v0.1c-0.2-0.1-0.4-0.2-0.6-0.4c-0.2-0.1-0.5-0.3-0.8-0.4c0.2,0.1,0.4,0.3,0.7,0.5
			c0.3,0.1,0.6,0.3,0.8,0.5c0,0,0,0.1,0,0.1c0.1,0.2,0.4,0.2,0.6,0.2c0.1,0.1-0.1,0,0,0.1c0.1,0.1,0.1,0,0.3,0.1
			C27.5,62.6,27.3,62.5,27.1,62.4z M27.4,61.6c-0.1,0-0.3-0.1-0.5-0.2c0,0,0.1-0.1,0.2,0c0,0-0.2-0.1-0.2-0.2c-0.2,0-0.5-0.1-0.6,0
			c0.1,0.1,0.2,0.1,0.4,0.2c0-0.1-0.1-0.1,0-0.2c0.1,0.1,0.3,0.3,0.3,0.4c0.1,0.1,0.2,0,0.2-0.1C27,61.5,27.3,61.7,27.4,61.6z
			 M27.4,61.9c0.1,0,0.3,0,0.4,0.1c0-0.1-0.3-0.4-0.4-0.3c0.1,0,0.1,0,0.2,0.1c0,0,0,0.1,0.1,0.1c-0.1,0-0.2,0-0.4-0.2
			C27.2,61.7,27.5,61.8,27.4,61.9z M26.1,60.9c-0.1,0,0,0.1,0,0.2c0,0,0.1,0,0.1,0c0,0,0-0.1,0,0C26.3,61,26.1,61,26.1,60.9z
			 M25.9,60.9c0.1,0,0.1,0,0.2,0C26.1,60.8,25.9,60.8,25.9,60.9z M26,60.8c0,0-0.2-0.1-0.3-0.2c0,0,0,0.1,0,0c0,0,0,0,0,0
			c0,0,0,0.1,0,0.1C25.8,60.8,25.8,60.8,26,60.8C25.9,60.8,25.9,60.7,26,60.8z M25.7,60.4c0,0,0.2,0.1,0.1,0.1
			c0.2,0,0.4,0.2,0.5,0.1C26.1,60.7,26,60.5,25.7,60.4z M25.5,60.4c-0.1,0-0.1-0.1-0.2-0.1c0,0.1,0.1,0.3,0.2,0.3
			C25.4,60.4,25.6,60.6,25.5,60.4z M25.6,59.8c-0.1,0-0.2-0.1-0.3-0.1C25.4,59.7,25.7,59.9,25.6,59.8z M25.2,59.6
			c-0.3-0.1-0.6-0.2-0.8-0.6c-0.1,0-0.2-0.1-0.2,0C24.5,59.2,24.7,59.5,25.2,59.6C25,59.6,25.1,59.6,25.2,59.6
			C25.2,59.7,25.2,59.7,25.2,59.6z M24.6,58.8c-0.1,0-0.1,0-0.1,0c0.1,0,0.3,0.2,0.1,0.1c0.1,0.1,0.3,0,0.4,0.2
			C25.2,59.1,24.5,59,24.6,58.8z M25.8,54.7c-0.1,0,0.1,0.1,0.2,0.2C26.1,54.8,25.8,54.7,25.8,54.7z M24,58.8
			C24,58.9,24,58.8,24,58.8c0.1,0.1,0,0.2,0.1,0.3c0-0.1,0,0,0-0.1C24,58.9,24.2,58.8,24,58.8z M23.7,58.6c0-0.1,0.1,0,0.1,0
			c-0.1,0-0.1,0-0.3-0.1C23.5,58.5,23.6,58.6,23.7,58.6c-0.2,0.1-0.1,0-0.2-0.1c-0.1,0,0,0.1,0,0.1c0,0-0.1-0.1-0.1-0.2
			c-0.1-0.1-0.1,0.1-0.2,0c-0.1,0,0,0.3,0,0.5c0,0,0.1,0,0.1,0c0,0,0,0-0.1,0c0.1,0.1,0.1,0.2,0.4,0.4c0,0-0.1-0.1-0.2-0.2
			c0.3,0-0.3-0.5,0.1-0.4c0.1,0.1-0.1,0.1,0.1,0.2c0,0,0-0.1,0-0.1c0.2,0.2,0.5,0.4,0.9,0.7c-0.2-0.2-0.4-0.5-0.8-0.7
			C23.6,58.7,23.6,58.7,23.7,58.6c0,0,0.1,0.1,0.2,0.2C24,58.7,23.8,58.6,23.7,58.6z M23.9,56.1C23.8,56.1,23.8,56,23.9,56.1
			C23.6,56,23.9,56.1,23.9,56.1C23.9,56.3,24,56.2,23.9,56.1z M23.9,55.9c0,0-0.1,0-0.1,0c0,0,0,0,0,0.1
			C23.7,55.9,23.9,56,23.9,55.9z M23.3,56.3c0.1,0,0.3,0.1,0.2,0.2c0.2,0,0.1-0.2,0.1-0.4C23.5,56.2,23.4,56.3,23.3,56.3z
			 M23.1,56.9c0,0,0,0.1,0,0.2c0.1,0,0.1,0,0.2,0.1c0,0,0-0.1,0-0.1c0,0-0.1,0-0.1,0C23.1,56.9,23.1,56.9,23.1,56.9z M22.9,57.4
			c0,0.1,0,0.2,0.1,0.3c0,0,0-0.2,0.1-0.1c0,0,0,0,0-0.1C23.1,57.4,23.1,57.3,22.9,57.4z M23.6,60.1c0.1,0.1,0.2,0.2,0.4,0.3
			c0,0-0.1-0.1,0-0.2c-0.2-0.1-0.2-0.2-0.3-0.2C23.5,60,23.7,60.2,23.6,60.1z M24.6,59.9c0,0,0,0.2,0.2,0.3c0.1,0.1,0.4,0.3,0.5,0.3
			c0-0.1-0.3-0.2-0.1-0.2c-0.1-0.1-0.2-0.1-0.4-0.3c0.1,0.1,0,0-0.1,0c-0.1,0,0.1,0,0-0.1C24.7,60,24.6,59.9,24.6,59.9
			C24.5,59.9,24.6,59.9,24.6,59.9z M28.2,62.3C28.2,62.3,28.3,62.3,28.2,62.3c0-0.2-0.2-0.3-0.3-0.3c0,0,0,0.1,0,0
			C27.9,62.1,28.1,62.2,28.2,62.3z M29.1,62.8c0-0.1-0.4-0.1-0.3-0.3c0,0-0.1,0-0.1,0c0,0,0-0.1-0.1-0.2c0,0,0,0,0,0.1
			c0,0,0-0.1-0.1-0.1C28.6,62.6,28.8,62.7,29.1,62.8z M29.4,63.2c0.2,0,0.1,0.1,0.3,0.3c0.1,0-0.3-0.3,0-0.1c0-0.1-0.3-0.2-0.3-0.3
			c0,0,0,0-0.1,0C29.3,63.1,29.4,63.1,29.4,63.2z M29.8,62.3c0,0,0,0.1,0,0.1c0,0,0.1,0.1,0.1,0.1C29.9,62.5,29.8,62.5,29.8,62.3
			c0.1,0.1,0.1,0.1,0.1,0.1C30,62.4,29.8,62.4,29.8,62.3z M30.1,64c0,0,0,0-0.1,0c-0.1,0,0.2,0.1,0.1,0.1
			C30.2,64.2,30.2,64.2,30.1,64C30.1,64.1,30.1,64,30.1,64c0-0.1,0.1-0.1,0.1-0.1c0,0-0.1-0.1-0.1-0.1c0,0,0,0,0,0
			c-0.1,0-0.1-0.1-0.2-0.1c0,0,0,0.1,0,0.1c-0.1-0.1-0.2-0.1-0.3-0.2C29.7,63.8,29.9,63.9,30.1,64z M30.4,64.1
			C30.4,64.1,30.4,64.1,30.4,64.1c0,0,0.1,0.1,0.2,0c-0.1,0-0.1-0.1-0.2-0.2C30.3,63.9,30.3,64,30.4,64.1z M30.6,65
			C30.5,64.9,30.5,64.9,30.6,65c-0.1-0.1-0.2,0-0.3-0.1C30.3,65,30.5,65.1,30.6,65z M30.9,65.4c0-0.1,0-0.1,0.1,0
			c0.1-0.1,0-0.2-0.2-0.3c0.1,0.2-0.1,0-0.3-0.1C30.4,65.2,30.8,65.3,30.9,65.4z M31.3,65c-0.1,0-0.2-0.2-0.2-0.3
			c0,0,0.1,0.1,0.1,0.1c0,0,0.1,0.1,0.1,0c0,0,0,0,0,0c0,0,0,0,0-0.1c-0.1,0-0.1,0-0.3-0.1c0,0.1,0.2,0.4-0.1,0.1
			c0,0.1,0.1,0.2,0.2,0.3C31.1,64.8,31.2,65.1,31.3,65z M30.6,64.8c0,0.1,0.2,0.1,0.3,0.2c0,0,0-0.1-0.1-0.2
			C30.8,64.9,30.7,64.9,30.6,64.8z M31,64C30.9,63.9,31.1,64.1,31,64c0,0.2,0.1,0.1,0.1,0.1C31.2,64,31,64,31,64z M32,65.1
			C32.1,65,32,65,32,65.1C32,65,32.1,65,32,65.1l-0.1-0.3C31.8,64.9,31.9,65,32,65.1z M32.2,65.8c0.1,0.1,0.1,0.1,0.2,0.1
			C32.4,65.9,32.4,65.8,32.2,65.8C32.3,65.7,32.3,65.8,32.2,65.8z M32.9,65.6C33,65.6,32.9,65.5,32.9,65.6c0.1,0,0.1,0.1,0.3,0.1
			c-0.1-0.1-0.1-0.2-0.2-0.3C33,65.5,32.7,65.4,32.9,65.6z M33,66.1c0-0.1,0,0,0.1,0c0-0.2-0.2-0.1-0.3-0.2C32.8,66.1,33,66,33,66.1
			z M33.1,66.2c-0.1-0.1-0.1,0-0.2,0C32.8,66.3,33.1,66.3,33.1,66.2z M33,66.5C33,66.4,33.1,66.4,33,66.5
			C33.1,66.4,33.1,66.4,33,66.5c0-0.2-0.1-0.2-0.2-0.2C32.9,66.3,32.9,66.4,33,66.5z M33.6,66.3c0,0,0-0.1,0-0.2
			C33.6,66.1,33.6,66.2,33.6,66.3C33.5,66.2,33.6,66.2,33.6,66.3z M33.8,66.4c0-0.1,0.5,0.2,0.4,0.4c0.1,0.1,0.2,0.1,0.2,0.2
			c0,0,0.2,0,0.1,0.1c0,0,0.1,0,0.1,0c0.1,0,0,0.1,0.1,0.2c0,0,0,0,0,0c0,0.1,0.1,0,0-0.1c0.1,0,0.2,0,0.2,0c0.1,0,0-0.1,0-0.2
			c-0.1,0,0-0.1-0.1-0.2c-0.1,0.1-0.1,0.1-0.1,0c0,0,0.1,0.2,0.1,0.2c0-0.1-0.2,0-0.3,0c0-0.1-0.1-0.2,0-0.3c-0.1,0-0.1,0.1-0.2,0
			c-0.1-0.1,0.3,0,0-0.1c0-0.1,0.2,0,0.2,0c-0.2-0.1-0.3-0.2-0.5-0.1c0,0,0-0.2,0.1-0.1c-0.1-0.2-0.3,0-0.1,0.2
			c-0.1,0-0.1-0.1-0.3-0.2C33.7,66.3,33.7,66.4,33.8,66.4z M34,66.9c0-0.1-0.1-0.1-0.2-0.1C33.8,66.8,34,67,34,66.9z M34.6,67.6
			c0-0.1-0.2-0.1-0.2-0.2c0-0.1,0.2,0,0.2,0c-0.1-0.1-0.3,0-0.4-0.2c0.1,0,0.1,0,0.1,0.1c0-0.1-0.1-0.1-0.2-0.2c0.1,0.1,0,0-0.1,0.1
			C34.2,67.4,34.3,67.6,34.6,67.6z M35.2,67.3c0-0.2,0.2-0.2,0.3,0c0-0.2-0.2-0.2-0.5-0.5c0,0,0,0,0,0.1C35,66.8,35,67.1,35.2,67.3z
			 M34.9,66.5c0,0-0.1,0-0.1,0c0,0.1,0,0.2,0.1,0.3C35,66.7,34.8,66.6,34.9,66.5z M35.8,66.5c0-0.1-0.1-0.2,0-0.2
			c-0.1,0-0.2-0.2-0.2-0.1c0-0.1-0.2-0.3,0-0.3c-0.2-0.2-0.3-0.2-0.5-0.4c0,0.1,0.2,0.2,0.2,0.3c0.1,0.1,0.1,0,0.2,0
			c0,0.1,0,0.2,0.1,0.3c0,0-0.1-0.1-0.1,0c0,0-0.1-0.1-0.1-0.1c-0.1-0.1,0,0.1,0,0.1c0,0-0.1,0-0.1,0.1c0,0-0.1-0.1-0.1-0.1
			c-0.1,0,0.1,0.2,0.3,0.3c-0.2-0.1,0,0,0,0.1c-0.1,0-0.1,0-0.2-0.1c0,0.1,0.2,0.4,0.3,0.5c0,0,0,0,0-0.1c0,0-0.1,0-0.1-0.1
			c0,0,0-0.1,0-0.1c0.1,0.1,0.3-0.1,0.1-0.3c0,0,0.1,0,0.2,0C35.7,66.3,35.6,66.4,35.8,66.5z M34.8,65.2c0,0,0.1,0.1,0.1,0.2
			c0,0,0.1,0,0.1,0C34.9,65.2,34.9,65.3,34.8,65.2z M36,66.4C36,66.5,36.1,66.4,36,66.4C36,66.4,36.1,66.4,36,66.4
			c0.1,0,0.1-0.1,0.1-0.1c0,0-0.1,0-0.1-0.1C35.9,66.3,36,66.4,36,66.4z M38.2,67.6C38.2,67.6,38.2,67.6,38.2,67.6
			c0,0,0.2,0.1,0.2,0c0,0.2,0.2,0.4,0.4,0.4c-0.1-0.1-0.1-0.1-0.1,0c-0.1-0.1,0-0.1,0-0.2c-0.1,0,0,0-0.2-0.2l-0.1,0.1
			c0,0-0.1-0.1,0-0.2c-0.1-0.1-0.1-0.1-0.3-0.2c0,0.2-0.2,0-0.2-0.1C37.6,67.2,38.2,67.6,38.2,67.6z M38.6,67.6c0,0,0.1,0.1,0,0.1
			S38.6,67.5,38.6,67.6c-0.2-0.1-0.4-0.2-0.8-0.5c0,0.1,0.2,0.3,0.4,0.4c0.2,0.1,0.4,0.3,0.6,0.4C38.7,67.7,38.8,67.7,38.6,67.6z
			 M39.1,68.5c0,0,0.1,0,0.1,0c0-0.1-0.2-0.1-0.3-0.2C38.9,68.3,39.1,68.4,39.1,68.5z M39.3,69C39.3,69,39.4,69.1,39.3,69
			C39.5,69,39.4,69,39.3,69L39.3,69C39.3,69.1,39.3,69.1,39.3,69z M40.1,70.9c0.1,0,0.3,0,0.3,0c0.1,0.1,0-0.1,0.1-0.2
			c-0.1-0.1-0.1,0-0.2-0.2c-0.1,0.1-0.3,0-0.5,0C39.8,70.8,40.1,70.7,40.1,70.9z M40.7,70.5c-0.1-0.1-0.1-0.1-0.2-0.2
			c0,0,0,0.1,0,0.2C40.6,70.6,40.7,70.6,40.7,70.5z M40.9,70.3c-0.1-0.1-0.2-0.2-0.3-0.1c0,0.1,0.2,0.1,0.1,0.2
			C40.8,70.4,40.8,70.3,40.9,70.3z M40.7,70.9c0,0,0.1,0.1,0.1,0.1c0.1,0.1,0-0.1,0-0.1c-0.1-0.1-0.1-0.2-0.2-0.2
			C40.6,70.8,40.6,70.9,40.7,70.9z M40.6,71.4c0.1,0.1,0.2,0,0.3,0.1c0.1,0.2,0,0.3,0,0.4c0,0.1,0.1,0.1,0.2,0.2
			c0.1,0,0-0.1,0.1-0.1c0-0.1-0.1-0.1-0.1,0c-0.1-0.1,0.1-0.2,0.1-0.4C40.9,71.4,40.6,71.2,40.6,71.4z M40.5,71.9
			c-0.1,0-0.2,0-0.3,0c0.1,0.1,0.1,0.3,0,0.3c0.2,0,0.4,0.1,0.7,0.3l0.1-0.1c-0.1-0.1-0.3-0.2-0.4-0.2c0,0,0-0.2-0.1-0.2
			c0.2,0,0.5,0.3,0.5,0.1C40.9,72.1,40.7,72.2,40.5,71.9z M40.3,72.7c0.1,0,0-0.1,0-0.1c0,0-0.1,0-0.2-0.1c0,0,0,0-0.1,0
			C40,72.5,40.2,72.6,40.3,72.7z M40.6,73.1c0,0-0.1-0.1-0.2-0.1C40.4,73.1,40.6,73.2,40.6,73.1z M41,72.9c0.1-0.2,0,0,0.1,0.2
			c0,0,0,0,0.1,0c0.1,0.1,0,0.2,0.2,0.3c0,0,0-0.1,0-0.2c-0.2-0.1-0.3-0.5-0.5-0.4L41,72.9z M42,73.5c0-0.1,0.1,0,0.2-0.1
			c-0.1-0.2-0.4-0.3-0.6-0.7c0,0,0,0-0.1,0c-0.1,0,0.1,0.1,0,0.1c0,0,0-0.1,0-0.1c0.1,0,0.2,0,0.2,0c0.1,0.1,0.2,0.3,0.3,0.3
			c0,0.2,0.1,0.2,0.3,0.5c0-0.2-0.1-0.4-0.2-0.5l0.1,0c0.1,0.1,0,0.1,0.1,0.2c0,0,0.1-0.1,0-0.1c0,0,0,0,0.1,0
			c0.1,0.1,0,0.2,0.2,0.3c0-0.1,0.1-0.2,0-0.4c0,0,0,0.1,0,0.1c-0.1,0-0.1-0.1-0.2-0.2c-0.2,0-0.3-0.1-0.5-0.1c0-0.1,0-0.1,0-0.2
			c0,0,0,0.1,0,0.2c0,0,0,0,0-0.1c0,0,0-0.1,0-0.1c-0.1-0.2-0.3-0.2-0.4-0.5c0,0,0,0,0,0.1c-0.1,0-0.1,0-0.1,0.1
			c0,0,0.2,0.1,0.2,0.2c-0.1,0-0.2,0.2-0.1,0.3c-0.1,0-0.2-0.1-0.3-0.2c0.1,0.3,0.5,0.7,0.9,0.7c0,0.1,0,0,0.1,0.1c0,0-0.1,0-0.1,0
			C41.8,73.3,41.9,73.4,42,73.5z M42.3,73.6c0-0.1-0.1-0.2-0.2-0.1C42.2,73.5,42.2,73.6,42.3,73.6z M42.3,73.5
			c0.1,0.1,0.1-0.2,0-0.2C42.2,73.4,42.4,73.5,42.3,73.5z M42.8,73.5c0.1,0.1,0,0.1,0.1,0.2c0.1,0,0.2,0.1,0.2,0
			C43.2,73.6,42.8,73.6,42.8,73.5c0,0,0,0-0.1-0.2c-0.2,0.2-0.3-0.3-0.5-0.2c0,0.2,0.2,0.3,0.3,0.4C42.6,73.5,42.7,73.5,42.8,73.5z
			 M43,74.2c0,0-0.1-0.1,0-0.1c0,0-0.1-0.2-0.2-0.1C42.9,74.1,42.9,74.2,43,74.2z M42.3,72.4c0,0.1,0.1,0.2,0.2,0.3
			C42.6,72.6,42.4,72.5,42.3,72.4z M42.2,72c0.1,0.2,0.1,0,0.2,0.1C42.5,72,42.3,72,42.2,72z M42.1,72.2
			C42.1,72.1,42.1,72.1,42.1,72.2c0,0-0.1,0-0.2-0.1c0,0.1,0.1,0.1,0.1,0.2C42.2,72.3,42.1,72.1,42.1,72.2
			C42.1,72.2,42.1,72.2,42.1,72.2z M42.2,71.8c-0.2-0.1-0.1-0.2-0.3-0.3c0,0,0,0.1,0,0.2c0,0-0.1-0.1-0.2-0.2c0,0.2-0.2,0.1-0.4-0.1
			c0,0,0,0.2,0.1,0.2c0,0.1-0.1-0.1-0.1,0c0.1,0.2,0.2,0.1,0.3,0.2c0,0,0-0.1,0-0.2c0.1,0,0.1,0.1,0.1,0.2c0.1,0,0.2-0.1,0.3,0.1
			c0.1,0,0-0.2,0.1,0C42.2,71.9,42.2,71.8,42.2,71.8z M41.5,70.9c0,0.1-0.2-0.2-0.3-0.1c0.1,0.2,0.1,0.1,0.2,0.3c0-0.1,0.2,0,0.1,0
			c0.1,0.1,0-0.1,0.1-0.1C41.5,71,41.6,71,41.5,70.9z M41,71.3c0.1,0,0.2,0.2,0.3,0.2c0,0-0.1-0.1,0-0.1c-0.1-0.1-0.2-0.2-0.3-0.3
			C40.9,71.1,41.1,71.3,41,71.3z M40.1,70c-0.1,0,0,0.1-0.1,0.1C40.1,70.2,40.3,70.1,40.1,70z M43.3,75.4c0-0.1,0-0.2,0-0.3
			c-0.1,0,0,0.2-0.1,0.1C43.2,75.3,43.3,75.3,43.3,75.4z M43.6,74.9c0-0.1-0.1,0-0.1-0.1C43.4,74.8,43.5,74.9,43.6,74.9
			C43.5,75,43.5,74.9,43.6,74.9z M43.8,74.8c0,0,0-0.1-0.1-0.1C43.4,74.7,43.6,74.7,43.8,74.8C43.7,74.9,43.7,74.9,43.8,74.8z
			 M43.7,75.6C43.7,75.7,43.8,75.6,43.7,75.6c0-0.1-0.1-0.3-0.2-0.2C43.6,75.5,43.8,75.5,43.7,75.6z M44.1,75c0,0,0.1,0,0.1,0
			c0-0.1-0.2-0.1-0.1-0.2C44,74.7,44,74.9,44.1,75z M43.9,75.8c0,0,0,0,0.1,0.1c0,0,0,0,0-0.1C44,75.8,44,75.8,43.9,75.8
			C43.9,75.7,43.9,75.8,43.9,75.8S43.9,75.8,43.9,75.8z M44,77.1c0.2,0.2,0.2,0.2,0.4,0.4c0,0.1,0,0.2,0.1,0.4c0,0,0-0.3,0.2-0.1
			c0-0.1-0.1-0.3-0.2-0.2c0,0,0-0.1,0-0.1l-0.1,0c0,0,0-0.1,0-0.1c0,0,0,0-0.1,0c-0.1-0.2-0.2-0.2-0.2-0.4C44,77,44,77,44,77.1z
			 M43.7,77.4c0,0.1-0.1,0.1-0.1,0.2c0.2,0.1,0.1-0.2,0.3,0C43.8,77.4,43.8,77.5,43.7,77.4z M43.4,78.2c0,0-0.1,0,0,0.1
			C43.3,78.3,43.3,78.3,43.4,78.2c-0.1,0.1,0,0.2,0.1,0.1C43.4,78.3,43.4,78.2,43.4,78.2z M43.7,78.3c-0.2-0.2-0.2,0.3,0,0.3
			C43.7,78.5,43.6,78.4,43.7,78.3z M43.5,79.1c0.1,0-0.1-0.2,0-0.2c0,0.2,0.1,0.3,0.2,0.6c0.1,0,0.3,0,0.1-0.1c-0.1,0,0,0.1-0.1,0
			c0-0.1,0-0.1,0-0.2c0,0,0.1,0,0.2,0c0,0,0,0.1,0,0.1c0,0,0-0.1,0.1-0.1c0,0-0.1-0.2-0.1-0.2c-0.1,0-0.6-0.1-0.5-0.3
			c0,0-0.1,0-0.2,0c0-0.1,0.1-0.1,0.1-0.1c-0.1-0.1-0.2-0.1-0.3-0.1C43.3,78.7,43.3,78.9,43.5,79.1z M44.5,78.3c0,0.1,0,0.2,0,0.2
			C44.6,78.5,44.5,78.3,44.5,78.3c0-0.1-0.1-0.2-0.2-0.2C44.4,78.1,44.4,78.2,44.5,78.3z M44.5,79c0-0.1,0-0.2-0.1-0.2
			C44.4,78.9,44.5,79.1,44.5,79z M44.8,78.3c0.1,0.1,0.1,0.3,0.2,0.2C45,78.5,45,78.5,44.8,78.3c0.1,0,0.1-0.1,0.1-0.2
			c0.1,0,0.1,0,0.2,0c0,0,0-0.1,0-0.1c-0.1,0-0.1-0.2-0.1,0c-0.1-0.1-0.1-0.2-0.2-0.2c0,0,0,0.1,0,0.1c0,0,0.1,0,0.1,0.1
			c0,0.1-0.1,0-0.1,0C44.9,78.2,44.8,78.2,44.8,78.3z M44.9,78.9C44.9,78.8,45,78.7,44.9,78.9c0.2,0,0-0.1,0.1-0.2c0,0,0,0,0,0
			c0,0-0.1,0-0.2-0.1C44.6,78.7,44.8,78.8,44.9,78.9z M45.3,79c0-0.1,0-0.2-0.1-0.3C45.1,78.8,45.3,78.9,45.3,79z M45.3,77
			c-0.1,0.1-0.1-0.1-0.2,0C45.1,76.9,45.2,77,45.3,77c0,0.2,0,0,0,0.1c0,0.1,0.1,0.1,0,0.2C45.5,77.3,45.4,77.1,45.3,77z M44.9,76.6
			c0.1,0.1,0.2,0.2,0.4,0.2C45.1,76.7,45.1,76.6,44.9,76.6z M44.7,78c0,0-0.1-0.1-0.1,0C44.6,78,44.6,77.9,44.7,78
			C44.7,78,44.6,78,44.7,78C44.7,78.1,44.6,78,44.7,78z M45.1,77.3C45,77.3,45,77.3,45.1,77.3C45,77.3,45,77.3,45.1,77.3
			c-0.1-0.1-0.1-0.1-0.1-0.1l0,0C45,77.4,45.1,77.5,45.1,77.3z M45,77.6C45,77.8,45.2,77.7,45,77.6C45,77.5,45.1,77.5,45,77.6z
			 M44.5,77.2c0.1,0.2,0.2,0.1,0.3,0.3c0,0.1-0.1-0.2-0.2,0c0,0.1,0.1,0.1,0.1,0.2c0.1,0,0-0.2,0.1-0.3c-0.1-0.2-0.1,0-0.1-0.2
			C44.6,77.3,44.5,77.2,44.5,77.2z M44.3,77.1C44.3,77.1,44.4,77.1,44.3,77.1c0.1,0,0,0,0.1,0.1c0,0,0.1-0.1,0.1-0.2
			C44.4,76.9,44.3,77,44.3,77.1z M44.6,76.2c0.1,0.1,0,0.1,0.2,0.2C44.9,76.4,44.7,76.2,44.6,76.2z M43.7,76.4
			c-0.1,0.1,0.1,0.1,0.1,0.2c0,0,0.1,0,0.1,0C43.8,76.5,43.7,76.5,43.7,76.4z M43.1,77.1c-0.1-0.1,0,0-0.2,0c0.1,0.1,0,0.1,0.1,0.3
			C43.1,77.3,43,77.2,43.1,77.1z M46.2,77.3c0,0,0.1,0,0.1,0c-0.1,0-0.3-0.4-0.4-0.4C46,76.9,46.1,77.1,46.2,77.3z M46.6,78.2
			C46.6,78.2,46.6,78.2,46.6,78.2C46.6,78.2,46.6,78.2,46.6,78.2z M46.5,78.5c0,0.1,0.1,0.3,0.2,0.4c0-0.1,0.1-0.2,0-0.3
			C46.6,78.8,46.6,78.6,46.5,78.5z M46.8,79.2c0-0.1,0-0.2-0.1-0.2c0-0.1,0.1-0.1,0.1-0.1c0-0.2-0.1-0.2-0.2-0.4
			c0,0.1,0.1,0.1,0.2,0.3c0,0.1-0.1-0.1-0.1,0C46.8,78.9,46.7,79,46.8,79.2z M47.3,79.8C47.4,79.8,47.4,79.7,47.3,79.8
			c0.1-0.1,0-0.2,0-0.2c-0.1,0.1-0.1-0.3-0.3-0.3C47.1,79.5,47.1,79.6,47.3,79.8z M47.5,80.1c0-0.1-0.1-0.1,0-0.2
			C47.3,79.7,47.4,80.2,47.5,80.1z M47.2,80.1c0.1,0.2,0.1,0.3,0.2,0.4C47.5,80.4,47.3,80.1,47.2,80.1z M47.9,80.9
			c0-0.2-0.3-0.4-0.4-0.7C47.6,80.4,47.8,80.8,47.9,80.9z M48.2,80.6C48.2,80.7,48.2,80.7,48.2,80.6L48.2,80.6v-0.2
			C48.1,80.5,48.2,80.6,48.2,80.6z M48,81.3c0.1,0.1,0.2,0,0.2,0.1c0,0,0-0.1,0-0.2c0-0.1-0.1-0.1-0.2-0.2c0,0,0,0.1,0,0.1
			c-0.1,0-0.1,0-0.2-0.1C47.9,81.1,48,81.3,48,81.3z M48.5,81c0-0.1-0.1,0-0.1-0.2c0,0-0.1,0.1-0.1,0.1C48.4,81.1,48.4,80.8,48.5,81
			z M48.3,80.7c0,0.1-0.1,0-0.1,0.2C48.3,80.8,48.4,80.8,48.3,80.7z M47.7,79.6c0,0,0,0.1,0,0.2c0,0,0.1,0.1,0.2,0.1
			C47.8,79.7,47.7,79.7,47.7,79.6z M47.3,78.8c0,0,0,0.2,0,0.3c0-0.1,0.1,0.2,0.2,0.1C47.4,79.1,47.4,79.1,47.3,78.8z M47,78.3
			c0-0.1,0-0.1,0-0.2c0,0.1,0,0.3,0.1,0.4C47.1,78.4,47.1,78.3,47,78.3z M46.8,78.3c0.1,0.1,0.1,0.1,0.1,0.2
			C47,78.5,46.9,78.2,46.8,78.3z M47,80.8c0,0,0.1,0.4,0.2,0.4C47.1,81,47,81,47,80.8z M28.7,63.7c0,0,0-0.1,0-0.1
			c0.1,0,0.2,0.2,0.2,0.1c-0.1,0,0-0.1-0.1-0.2c-0.1-0.1-0.1,0-0.2-0.1c0,0.1-0.2,0-0.2,0c0,0,0.1,0,0.1,0c-0.1,0,0,0.1-0.1,0
			c0-0.1-0.1-0.1-0.1-0.2c-0.2-0.1-0.5-0.2-0.7-0.3c0.1,0,0.2,0.1,0.2,0.2c0,0-0.2-0.1-0.2-0.1c0.2,0.1,0.4,0.3,0.5,0.4
			c-0.1,0-0.4-0.1-0.6-0.3c-0.2-0.1-0.3-0.3-0.2-0.3c-0.3-0.3-0.7-0.4-1.1-0.6c-0.2-0.2-0.7-0.4-1-0.6c-0.2-0.1-0.3-0.3-0.5-0.6
			c-0.1-0.1-0.2-0.1-0.3-0.2c-0.1-0.1-0.2-0.1-0.2-0.2c-0.1,0-0.6-0.3-0.8-0.5c0-0.3-0.1-1-0.7-1.2c0-0.1-0.1-0.3-0.1-0.5
			c-0.1,0-0.2-0.1-0.3-0.2c0-0.2,0.5-0.1,0.3-0.4c0.2,0.1,0.6,0,0.4-0.1c0,0-0.1,0-0.2,0c0.1-0.1,0-0.2,0-0.3c0,0,0,0,0,0
			s0,0.1,0.1,0.1c-0.1,0.1-0.2,0-0.3,0c0.1,0,0.1-0.2,0-0.3c0.2,0.1,0.3,0,0.2-0.1c0.1,0.1,0.2,0,0.2,0c0,0,0-0.1-0.1-0.2
			c-0.1,0-0.2,0-0.3-0.1c0.2,0,0-0.2,0-0.3c0,0-0.1,0-0.1,0c0,0,0-0.1,0-0.2c0,0,0,0,0,0l0,0c0,0.2,0.1,0,0.2,0
			c0,0.1,0.4,0.3,0.3,0.5c0,0,0,0,0,0c-0.2-0.2,0.2-0.3-0.2-0.5c0.4,0,0-0.4,0.3-0.4c0,0.1-0.1,0.2,0,0.3c0-0.1,0-0.2,0.1-0.2
			c-0.1,0-0.1,0.1,0,0.2c0.1-0.1,0-0.3,0.1-0.4c-0.2,0-0.1,0-0.1-0.1c0,0-0.1,0-0.1,0c0,0,0.1-0.1,0.1-0.1c0.1,0,0.1,0.1,0.2,0.1
			c0-0.1,0-0.2,0-0.2c0,0,0.1-0.1,0.2-0.1c1-0.7,2.3-0.8,3.5-0.5c0,0,0,0,0.1,0l0,0h0c0,0,0,0.1,0,0.2c0.3,0.2,0.6,0.4,0.8,0.4
			c0,0.1,0.3,0.2,0.4,0.2c-0.2-0.2,0,0,0-0.2c0.1,0.2,0.3,0.3,0.5,0.1c0,0,0,0.1,0,0.1c0.1,0,0.1,0,0.2,0c1.1,0.7,2,1.6,2.9,2.5
			c5.2,5.4,9.7,11.4,13.4,17.8c0.1,0.2,0.3,0.5,0.4,0.7c0,0.1,0.1,0.3,0.2,0.3c0,0,0,0,0,0c0.7,1.1,1.4,2.2,2.2,3.2c0,0,0,0,0,0.1
			l0,0c0.2,0.2,0.3,0.5,0.5,0.8c0,0-0.1,0-0.2,0c0,0.1,0.2,0.2,0,0.2c0.1,0.1,0.2,0.3,0.3,0.5c0.1,0,0-0.1,0-0.2c0,0-0.1,0-0.1,0
			c0-0.2,0.1,0.1,0.2,0c-0.1-0.1-0.2-0.2-0.3-0.2c0-0.1,0.1,0,0.2,0c0,0,0,0,0,0c0,0,0.1,0.1,0.1,0.2c0,0.1,0,0.2,0,0.1
			c0.1,0,0,0.1,0.1,0.2c0,0,0.1,0,0.1,0c0,0.1,0.1,0.2,0,0.2c-0.1-0.1,0,0.1,0,0.1c-0.2-0.1-0.2,0-0.3-0.1c0-0.2-0.2-0.1-0.3-0.3
			c0,0-0.1,0-0.1,0.1c0.1,0,0.1,0.1,0.1,0.2c0-0.1,0.1,0,0.1,0.1c-0.1,0,0,0,0,0.1s0.1,0.2,0,0.2c-0.1-0.2-0.3-0.6-0.4-0.7
			c0,0.1,0.1,0,0.1,0c-0.2-0.1,0.1,0,0.1-0.2c-0.1,0-0.1,0-0.2,0c0-0.1,0-0.3-0.1-0.2c-0.1-0.1,0-0.1,0-0.2c0,0-0.1-0.2-0.1-0.2
			c0,0.1,0,0.5-0.1,0.3c0,0,0.1-0.1,0-0.2c0,0-0.1,0-0.1,0c0,0.1,0,0,0.1,0.1c0,0.2-0.2-0.2-0.2,0c0.1,0.1,0.2,0.2,0.3,0.4
			c0,0-0.1,0,0,0.1c-0.2,0-0.2-0.1-0.3,0.1c0,0,0.1,0,0,0.1c0-0.1,0,0-0.1,0c0-0.1-0.3-0.3-0.2-0.4c0,0,0,0.2,0.1,0.2
			c0-0.2-0.3-0.2-0.4-0.5c0,0,0,0.1,0.1,0.1c-0.1,0-0.1-0.1-0.2-0.1c0.1,0.2,0.1,0.5,0.2,0.6c0.2,0.5-0.1-0.1-0.2-0.3
			c0,0,0-0.1,0-0.1c0,0-0.1,0-0.1,0c0.1,0.2,0.2,0.3,0.2,0.5c0-0.4-0.1,0.1-0.2-0.1c0-0.1-0.2-0.5-0.2-0.5c0,0.2,0.1,0.3,0.2,0.5
			c0.1,0.1,0.1,0.2,0.2,0.4c0,0,0,0.2,0,0.2c-0.1-0.2-0.1-0.2-0.2-0.3c0.1-0.1-0.2-0.3-0.3-0.3c0.1,0,0.1,0,0.2,0
			c-0.1-0.2-0.3-0.2-0.5-0.5c0-0.1,0.1,0.1,0.2,0c-0.1-0.3-0.2-0.3-0.2-0.2c0-0.1,0-0.2,0-0.4c-0.1,0-0.1-0.2-0.1-0.3c0,0,0,0,0,0
			c0-0.1-0.2-0.2-0.1-0.2c0,0,0,0,0,0c0.1,0,0.1,0,0.1,0c0,0,0,0,0,0c0,0,0,0,0,0.1c0,0.1-0.2,0.1-0.2,0.1c0,0,0.2,0,0.2,0.2
			c0,0,0-0.1,0-0.1c0.1,0.4,0.2-0.2,0.2,0.1c-0.1,0,0,0.5,0.1,0.5c0-0.1,0-0.2,0.1,0c0,0-0.1-0.1-0.1,0c0.1,0,0.1,0.2,0.2,0.3h0
			c0-0.1-0.1-0.1-0.1-0.3c0.1,0,0.2,0.2,0.3,0c-0.1,0-0.1,0-0.1-0.2c0,0-0.1,0-0.2,0c0-0.1-0.1-0.1-0.2-0.3c0.1,0,0-0.1,0-0.1
			c0,0.3,0,0,0.1,0c0.1,0.2,0.2,0.3,0.4,0.6c0-0.2-0.2-0.3-0.1-0.3c-0.1-0.1-0.1,0.1-0.1,0c0.1-0.2-0.3-0.2-0.2-0.4
			c-0.1-0.1-0.1-0.1-0.1,0c0-0.1-0.1-0.1-0.1-0.2c0,0,0.1,0.1,0.1,0c0-0.1-0.1-0.2-0.2-0.3c0.1,0,0-0.1,0.1-0.1
			c0.1,0.2,0,0.2,0.1,0.3c0.1,0,0-0.2,0.1,0C47.1,79.9,47,80,47,79.7c0,0-0.1,0-0.1,0c0-0.2-0.1-0.4-0.3-0.6c0,0.2,0.1,0.3,0.2,0.4
			c0,0-0.1,0-0.1,0c0,0.2,0.2,0.2,0.2,0.3c-0.1,0-0.1-0.2-0.3-0.3c0.1,0,0-0.1,0-0.2c-0.1,0-0.2-0.3-0.3-0.4c0,0,0.1,0,0.1,0
			c-0.1-0.1-0.1,0-0.2-0.1c0,0,0,0.1,0,0.1c-0.1,0-0.2,0-0.3-0.1c0.1,0,0.3,0,0.4-0.1c0.1,0,0,0.1,0.1,0.1c0-0.1-0.1-0.2-0.1-0.4
			c0,0,0,0,0.1,0c0-0.1,0-0.1,0-0.2c-0.2-0.2,0-0.3-0.2-0.2c0,0.1,0.1,0.3,0,0.1c0,0-0.1-0.2-0.2-0.1c0,0.1,0.1,0.1,0.1,0.2
			c0,0,0.1,0.1,0.1,0.1c0,0.1-0.1-0.1-0.2-0.1c0,0.1,0.1,0.1,0,0.1c0,0,0,0,0-0.1c0,0,0,0-0.1,0l0.1,0.2c-0.1,0-0.1-0.2-0.1-0.3
			c-0.1-0.1-0.3-0.3-0.4-0.5c0.1-0.2,0.3,0.2,0.4,0.2c0,0.1,0,0.2,0.1,0.3c0,0,0.1,0,0.1,0c-0.1-0.2-0.1-0.3-0.2-0.4
			c0.1,0.1,0-0.2,0-0.2c-0.1,0,0.1,0.3,0,0.1c-0.1-0.2-0.2-0.2-0.3-0.2c0.1,0.1,0,0.2,0,0.1c0.1-0.1,0,0-0.1-0.1
			c0.1-0.1,0.2,0,0.1-0.1c-0.1-0.1-0.2,0.1-0.3,0.1c0.1,0.1,0.1,0,0.2,0.2c-0.1,0-0.1,0-0.1,0.1c0.2,0.1,0.1,0.3,0.2,0.4
			c0,0,0,0,0.1,0c0,0.1,0.1,0.3,0.2,0.4c-0.1,0-0.2-0.2-0.3-0.2c0,0.1,0.2,0.4,0.2,0.4c-0.2-0.1-0.5-0.5-0.6-0.6c0,0,0,0-0.1,0
			c0,0.1,0.1,0.2,0.1,0.3c0,0-0.1-0.2-0.1-0.1c0,0,0,0,0,0c0,0.1-0.1,0.1,0.1,0.3c0,0,0.1-0.1,0.1,0c0,0.1-0.1,0-0.1,0.1
			c0.1,0,0.3,0.5,0.3,0.2c0,0,0,0,0,0.1c0,0,0,0,0,0c-0.1,0,0,0.3-0.1,0.1c-0.1-0.2-0.2-0.4-0.4-0.4c0,0,0,0.1,0,0.1
			c0.1-0.1,0,0.2,0.1,0.2c-0.1,0-0.1,0.1-0.2,0c0,0,0-0.1,0-0.1c0,0-0.1-0.1-0.2,0c0.1,0.2,0,0-0.1,0c0,0.1,0.1,0.1,0.1,0.2
			c-0.1,0,0,0.1-0.1,0.2c-0.1-0.1-0.2-0.1-0.2,0c-0.1-0.1-0.1-0.2-0.2-0.2c0,0,0,0.1,0,0.1c-0.1,0-0.1-0.1-0.1,0
			c-0.1-0.1-0.2-0.5-0.4-0.4c0.1,0,0,0.1,0,0.2c0,0.1,0.1,0,0.1,0.2c-0.2,0-0.1,0.2-0.1,0.3c-0.1,0-0.1,0-0.1,0.1
			c-0.1,0-0.1-0.1-0.2-0.1c0,0.1,0.1,0.1,0,0.2c-0.1-0.2-0.2-0.4-0.3-0.5c-0.1-0.1-0.2-0.3-0.4-0.5c0-0.1,0-0.3-0.1-0.3
			c0,0,0,0,0-0.1c0,0,0.1,0,0.1,0c0-0.1-0.1-0.1-0.1-0.3c0.1-0.1,0.1,0.1,0.2,0.1c0-0.1-0.1-0.2,0-0.2c0.1,0.2,0.2,0.3,0.3,0.2
			c0-0.1,0-0.1,0-0.2c0,0-0.1,0-0.1,0.1c-0.1-0.1,0.1-0.1,0-0.2c-0.1,0,0,0.2-0.1,0.1c-0.1-0.1,0.1-0.1,0-0.2c0,0,0,0-0.1,0
			c0,0.1,0,0.1-0.1,0.2c-0.1-0.2,0.1,0,0-0.1c0,0-0.1,0-0.1,0c0,0.1,0.1,0.3,0.2,0.3c0,0-0.1,0-0.2,0c0,0,0-0.1,0-0.1
			c0,0-0.1-0.2-0.1-0.2c0,0.1,0,0.1-0.1,0c0,0.1,0,0.2-0.1,0.3c0.1,0,0,0,0.1-0.1c0.1,0.1,0,0.1,0.1,0.2c0.2-0.1,0.2,0,0.1,0
			c-0.3-0.3,0-0.5-0.2-0.9c0.1,0,0.1-0.1,0.1-0.2c0,0.1,0.2,0.2,0.2,0c0-0.1-0.1,0-0.1-0.1c0,0,0,0,0-0.1c0.1,0,0.2,0.1,0.3,0
			c-0.1-0.1,0-0.1-0.2-0.3c0,0,0.1,0,0.2,0c-0.1,0-0.2-0.2-0.3-0.2c0-0.1-0.3-0.4-0.5-0.6c0.2,0,0.3,0.2,0.5,0.4
			c0.1,0.2,0.3,0.3,0.4,0.2c0,0,0.1,0.1,0.1,0.1c0,0,0-0.1,0-0.1c0-0.1-0.2,0-0.1-0.1c0.1,0,0.4,0.2,0.4,0.4c0,0-0.1-0.1-0.2-0.1
			c0,0.1,0,0.2,0,0.2c0,0-0.1-0.1-0.2,0c0,0,0.1,0,0.1,0.1c0,0-0.2-0.2-0.2-0.1c0.2,0.1,0.2,0.5,0.4,0.6c0-0.1,0.1-0.1,0.1-0.2
			c-0.1,0.1,0-0.3-0.2-0.3c0,0,0-0.1,0.1-0.1c0.1,0,0,0.2,0.1,0.1l0.1,0c-0.2-0.1,0.1-0.2-0.1-0.3c0.1,0,0.1,0,0-0.1
			c0.1-0.1,0.2,0,0.3-0.1c0,0.2,0.3,0.2,0.3,0.4c0.1,0,0-0.1,0.1-0.2c0,0,0.1,0.1,0.1,0.1c-0.1-0.1,0.1-0.1,0-0.2
			c-0.1-0.2-0.1,0.1-0.2,0c0,0,0.1,0,0-0.1c-0.1,0-0.1,0.1-0.2,0.2c0-0.2-0.2-0.3-0.3-0.4c0,0,0.1,0,0.1,0c-0.1-0.1,0-0.2,0-0.2
			c0,0,0,0-0.1,0c0,0.2-0.1,0.1-0.3,0c0,0.1,0.1,0.1,0.1,0.1c-0.1,0-0.1-0.1-0.2-0.1l0.1-0.1c0.1,0,0,0.2,0.2,0.1
			c-0.1-0.3-0.4-0.3-0.4-0.5c0,0-0.1,0-0.2,0c0.1,0.1,0.2,0.1,0.3,0.3c0,0-0.1,0.2-0.1,0c0.1-0.1-0.2-0.2-0.2-0.2c0,0,0,0.2-0.1,0.1
			c0,0,0,0,0-0.1c-0.1,0.1,0-0.1-0.2-0.1c0.1,0,0-0.1-0.1-0.1c0.1-0.1,0.2,0.1,0.3,0.1c0-0.1,0-0.2,0-0.2c0,0,0,0-0.1,0
			c0.1,0,0-0.1,0-0.2c0-0.1,0.1,0,0.2,0c0,0-0.1,0-0.1,0.1c0.1,0.1,0.1,0.2,0.2,0.2c0-0.2,0-0.3,0.1-0.5c-0.2-0.2-0.6-0.4-0.9-0.6
			c0.2,0.2,0.5,0.5,0.7,0.5c0,0.1,0,0.2,0,0.2c0-0.1-0.1-0.1-0.2-0.1c-0.2-0.3-0.3-0.3-0.5-0.5c0,0.1,0.2,0.2,0,0.2
			c0.1,0,0.1,0.2,0,0.1c0,0,0,0,0,0c0-0.1-0.1,0-0.2-0.1c0.1,0,0-0.1,0-0.2c0,0,0-0.1,0-0.2c-0.1-0.1-0.2-0.1-0.3-0.1
			c0,0.1,0.2,0.1,0.1,0.2c-0.1-0.1-0.1,0-0.2-0.2c0,0,0-0.1,0-0.1c-0.1-0.1-0.2-0.2-0.3-0.2c-0.1-0.1,0-0.2,0-0.3
			c-0.1-0.1-0.4,0-0.3,0c-0.1,0.1-0.2-0.1-0.2-0.1c0,0.1-0.1,0.1,0,0.2c-0.1,0,0,0.1-0.1,0.1c-0.1-0.1-0.2-0.2-0.3-0.3
			c0,0,0.1,0,0.1,0c0,0,0-0.1-0.1-0.1c-0.2,0-0.3-0.1-0.4-0.2c-0.1,0,0,0.2,0,0.2c-0.1-0.1-0.1-0.2,0-0.4c0,0,0.1,0.1,0.1,0
			c0-0.1,0-0.2,0-0.3c0,0,0,0-0.1,0c0.1-0.1,0-0.3,0.2-0.2c-0.1-0.1-0.2-0.2-0.2-0.3c0,0,0.1,0,0.1,0c0,0,0.1,0.2,0.2,0.2
			c0,0,0,0,0-0.1c0,0-0.1,0-0.1-0.1c0.1,0,0.1,0,0.3-0.1c0.1,0.1,0.3,0.3,0.4,0.3c0-0.1-0.1-0.2-0.2-0.2c0-0.2-0.1-0.3-0.2-0.5
			c0-0.1,0.1,0.1,0.2,0.1c-0.1-0.1-0.1-0.2-0.1-0.3c0,0.1-0.3-0.1-0.2,0.1c-0.1,0-0.3-0.4-0.4-0.2c-0.1-0.2-0.3-0.2-0.1-0.3
			c0,0-0.1,0-0.1-0.1c0.1-0.1,0.1-0.3,0-0.3c0-0.1,0.2-0.2,0.3-0.1c0-0.1,0-0.2,0.1-0.3c-0.1-0.2-0.3-0.4-0.5-0.4c0,0.1,0,0-0.1,0
			c0.1,0.1,0.1,0.2,0.2,0.2c0,0-0.1-0.1,0-0.1c0,0,0,0,0,0h0c-0.1,0.1,0.2,0.2,0.1,0.3c-0.2-0.2-0.1,0-0.2,0
			c-0.1-0.1-0.2-0.2-0.2-0.1c-0.1-0.2-0.1-0.4-0.3-0.5c0,0,0,0.1,0,0c0-0.1-0.2,0-0.2-0.2c0.1,0,0.1,0,0-0.2
			c0.1,0.1,0.2,0.2,0.3,0.1c-0.1-0.2-0.2-0.2-0.4-0.4c0-0.1,0.2,0.1,0.2,0c-0.1-0.1-0.2-0.1-0.3-0.1c0.1,0,0-0.1,0-0.1
			c0,0,0,0.2,0,0c0-0.1,0-0.1,0-0.2c-0.1,0.1-0.3-0.2-0.5-0.3c0,0,0,0,0-0.1c0,0-0.1-0.2-0.2-0.1c0,0.1,0.2,0.2,0.1,0.2
			c-0.1-0.2-0.1,0-0.3-0.1c0-0.1,0.1-0.1,0.1-0.2c0,0,0,0-0.1,0c0,0.2-0.1,0-0.3,0c0.1,0.2,0.2,0.2,0.3,0.5
			c-0.2-0.1-0.3-0.2-0.4-0.2c0,0.1-0.1,0.2,0,0.3c-0.1,0.1-0.2-0.3-0.4-0.1c0,0,0-0.1,0-0.1c0.1-0.1,0.2,0,0.3,0
			c-0.1-0.1-0.1-0.3-0.3-0.2c0.2,0,0.1-0.2,0.3-0.2c-0.1-0.1,0-0.1,0-0.2c0,0,0,0-0.1,0c0,0.1,0,0.1-0.1,0.1c0.1,0.1,0.1,0.2,0,0.2
			c-0.1-0.1-0.1,0-0.2-0.1c0.2-0.1,0,0-0.1-0.2c0,0,0.1,0.1,0.2,0c0-0.1,0.1-0.1,0-0.2c-0.1,0,0,0-0.1,0.1c-0.1,0-0.1-0.2-0.3-0.2
			c0.1,0.1,0,0.1,0,0.1c0,0.1,0.1,0.1,0.1,0.1c-0.1,0,0,0.1,0,0.2c0,0.1-0.2,0.1-0.1,0c0,0,0.1,0.1,0.1,0c-0.1-0.1-0.2-0.1-0.4-0.2
			c-0.1,0,0,0.2,0,0.2c-0.1-0.1-0.1-0.3-0.1-0.4c0.1,0.1,0.1,0,0.2,0c-0.2-0.1,0-0.1,0-0.2c-0.2,0-0.2,0-0.3,0c-0.1,0,0-0.1,0-0.1
			c-0.1,0-0.1,0-0.1,0.1c-0.1-0.1-0.1,0.1-0.3-0.1c0,0.1-0.1,0.1,0,0.2c0.2,0.1,0.2,0.3,0.5,0.4c0,0,0.1,0.3,0,0.2
			c0,0,0-0.2-0.1-0.2c0,0,0.1,0.2,0,0.1c0-0.1-0.2-0.4-0.3-0.4c0.2,0.1,0,0.2,0,0.2c-0.1-0.1,0,0.1-0.2,0c0,0,0,0.1,0,0.2
			c0,0,0.1,0.1,0.2,0.1c0,0-0.1,0.1-0.2,0c0-0.1-0.1-0.1-0.2-0.2c0.1-0.1,0.1,0.1,0.2,0c-0.2-0.1-0.2-0.3-0.4-0.2
			c0.2,0.1,0,0.2,0.2,0.3c0,0-0.1,0.1,0,0.1c0.4,0.1,0.1,0.3,0.5,0.6c0.1-0.1,0.3-0.2,0.2-0.5c-0.1,0-0.3,0-0.3-0.1
			c0.1-0.1,0.3,0.2,0.5,0.3c0.1-0.1-0.1-0.1,0-0.2c0.2,0.1,0.1-0.2,0.3-0.1c0,0.1,0,0.1,0,0.2c0,0,0.1,0,0.1,0c0,0,0-0.1,0-0.1
			c0.1,0.1,0,0.1,0.2,0.1c-0.1,0-0.1,0.2-0.1,0.1c0,0,0-0.1,0-0.1c-0.1,0-0.1,0-0.2,0c0.1,0.1-0.1,0.1,0,0.2c0.1,0,0.2,0.1,0.2,0.2
			c0,0,0-0.1,0-0.1c0.1,0.1,0.1,0,0.2,0.1c0,0-0.1,0,0,0.1c0.3,0.1,0.6,0.9,0.8,0.6c0,0.1,0.1,0.2,0.1,0.2c-0.2-0.2-0.2,0.2,0,0.2
			c0,0.1-0.1,0-0.2,0.1c0,0-0.1-0.1-0.1-0.1c0,0,0.1-0.1,0.1-0.2c-0.2-0.1-0.3-0.2-0.5-0.4c0-0.3-0.3-0.4-0.4-0.4
			c0.2,0,0-0.2-0.1-0.2c0-0.1,0-0.2-0.2-0.3c0,0.1,0,0.2-0.2,0.2c0.1,0.1,0.1,0.1,0.1,0.2c0.1,0,0.1,0,0.2,0.1
			c-0.1,0,0.2,0.2,0.1,0.3c-0.2-0.1-0.4-0.3-0.5-0.5c-0.1-0.1-0.1-0.2-0.2-0.2c-0.1,0-0.2-0.1-0.3-0.1c0.1-0.1-0.2-0.3-0.3-0.3
			c0.1,0.1,0.1,0.2,0.1,0.2c-0.1,0-0.2,0-0.3-0.1c0,0,0,0,0-0.1c-0.3-0.3-0.8-0.7-1-1c-0.1,0.1-0.1,0.1-0.1,0.3c0,0,0,0-0.1,0
			c0,0-0.1-0.1-0.1-0.2c0-0.2,0.3-0.1,0.2-0.3c-0.1,0-0.1,0-0.2,0c0-0.1-0.1-0.4-0.1-0.4c0.1,0.1,0,0.2,0.1,0.3c-0.1,0-0.1,0-0.3,0
			c-0.2-0.3-0.6-0.2-0.7-0.4c0.5,0.2,0-0.2-0.1-0.4c0,0,0,0-0.1,0c0,0,0.1,0.1,0,0.1c-0.1,0-0.2-0.1-0.2-0.2c0,0,0.1,0,0.1,0
			c-0.1-0.1,0-0.1-0.1-0.2c0,0-0.1,0-0.1,0c0.1,0.1,0.1,0.2,0.1,0.3c-0.2-0.1-0.2-0.1-0.4-0.2c0.1,0.1,0.2,0.1,0.2,0.2
			c0.1-0.1,0,0,0,0c0.1,0,0.1-0.1,0.2,0c0,0.1-0.1,0-0.1,0c0.2,0.1,0.3,0.2,0.4,0.2c-0.1,0.1,0.2,0.2,0.1,0.3c0,0-0.1-0.1-0.1,0
			c0.1,0.1,0.2,0.2,0.3,0.2c0,0,0.2,0.3,0.1,0.2c-0.1-0.2-0.7-0.5-0.8-0.6c0.1,0,0-0.1,0.2-0.1c-0.4-0.3-0.5-0.4-0.8-0.5
			c0,0,0-0.1,0-0.2c0,0-0.1,0-0.2,0c0.1,0.1,0.3,0.2,0.2,0.2c-0.1,0-0.2,0-0.3,0c-0.1-0.2-0.2-0.2-0.2-0.4c0.1,0.1,0.1,0.1,0.3,0.2
			c0,0,0.1,0,0.1,0c-0.2-0.2-0.3-0.3-0.5-0.4l0,0c-0.1-0.2-0.3-0.1-0.4-0.4c0,0,0.1,0.1,0,0.1c-0.1-0.1,0-0.1,0-0.2
			c0.1,0,0,0.2,0.2,0.2c0-0.1-0.1-0.4-0.3-0.6c-0.1-0.2-0.4-0.3-0.6-0.3c0.1,0.1-0.1,0-0.2,0c0-0.1,0.3,0.1,0.3,0
			c-0.1-0.1-0.3-0.1-0.3-0.2c0.2,0,0.1-0.1,0.3,0c0,0-0.1,0-0.1-0.1c0,0.1,0,0,0,0.1c-0.2-0.1-0.1-0.1-0.3-0.3c0,0,0.1,0,0.2,0
			c-0.2-0.1-0.3-0.2-0.4-0.3c0-0.1,0-0.2-0.1-0.4c0.1,0.1,0,0.1-0.1,0c0,0,0-0.1,0-0.1c-0.2,0-0.5-0.3-0.7-0.5c0,0,0.1,0,0.1,0
			c-0.1,0-0.1-0.1-0.2-0.1c0,0.1-0.1,0-0.1,0c0,0.2,0.3,0.2,0.4,0.4c-0.2-0.1-0.4-0.3-0.5-0.4c0,0-0.2,0-0.2,0c0,0,0.2,0,0.1,0
			c-0.3-0.2-0.1,0-0.4-0.1c0.1,0.2,0.5,0.3,0.7,0.5c-0.2,0-0.3-0.2-0.4-0.1c0.1,0,0.1,0.1,0.1,0.1c0,0,0,0,0-0.1
			c0.3,0.3,0.8,0.2,1,0.4c-0.2,0,0.2,0.1,0.3,0.3c-0.2,0-0.2,0-0.4-0.1c0,0.1-0.1,0-0.1,0c0.2,0.1,0.3,0.2,0.4,0.3c0.1,0,0,0,0-0.1
			c0.1,0,0.3,0.3,0.3,0.1l0.1,0.1c-0.1,0.2-0.3-0.1-0.4-0.1c0.2,0.2,0.3,0.2,0.4,0.4c-0.3-0.2-0.1,0.1,0,0.2
			C28.9,63.7,28.8,63.8,28.7,63.7z"/>
	</g>
	<path class="st8" d="M31.9,85.3c0-1.7,0.8-3.3,1.6-4.8c1-2,2.2-4.9,4-6.3c1.6-1.3,1.6,0.8,1.4,2c-0.4,1.9-1.6,3.7-2.7,5.3
		c-0.6,0.9-1.2,1.6-1.9,2.4C32.1,86.2,31.9,85.3,31.9,85.3z M52,106.5L52,106.5C52,106.5,51.9,106.5,52,106.5
		C52,106.6,51.9,106.6,52,106.5C51.9,106.5,52,106.5,52,106.5z M52,106.5C52,106.4,52,106.5,52,106.5C52,106.5,52,106.4,52,106.5
		C52,106.4,52,106.4,52,106.5z M51.9,106.8C51.9,106.9,51.8,106.9,51.9,106.8C51.8,106.8,51.8,106.8,51.9,106.8z M51.7,107.1
		C51.8,107.1,51.7,107.1,51.7,107.1L51.7,107.1C51.8,107.1,51.7,107.1,51.7,107.1z M51.6,107.5C51.6,107.5,51.6,107.5,51.6,107.5
		L51.6,107.5L51.6,107.5C51.6,107.5,51.6,107.5,51.6,107.5C51.6,107.5,51.6,107.6,51.6,107.5C51.6,107.5,51.6,107.5,51.6,107.5z
		 M51.6,107.3C51.6,107.3,51.6,107.3,51.6,107.3C51.7,107.2,51.6,107.2,51.6,107.3C51.7,107.3,51.6,107.3,51.6,107.3z M51.6,107.4
		L51.6,107.4C51.6,107.4,51.6,107.4,51.6,107.4C51.6,107.4,51.6,107.4,51.6,107.4z M51,108.8C51,108.9,50.9,109,51,108.8L51,108.8z
		 M51.8,107C51.7,107,51.7,107,51.8,107L51.8,107C51.8,107,51.7,107,51.8,107C51.8,107,51.8,106.9,51.8,107
		C51.8,107,51.9,107,51.8,107C51.8,107,51.8,107,51.8,107z M51.7,107.1C51.7,107.1,51.7,107.1,51.7,107.1
		C51.7,107.1,51.7,107.1,51.7,107.1C51.7,107.1,51.7,107.1,51.7,107.1C51.7,107.1,51.7,107.2,51.7,107.1
		C51.6,107.1,51.6,107.1,51.7,107.1L51.7,107.1L51.7,107.1C51.7,107.1,51.7,107.1,51.7,107.1C51.6,107.1,51.7,107.1,51.7,107.1z
		 M51.6,106.9C51.7,106.9,51.6,107,51.6,106.9L51.6,106.9C51.6,107,51.6,107,51.6,106.9z M52.9,105C53,105,52.9,104.9,52.9,105
		L52.9,105z M51.1,108.4c0,0,0,0.3-0.1,0.2c0,0,0,0,0,0C51,108.6,51,108.5,51.1,108.4C51.1,108.5,51,108.4,51.1,108.4z M53.2,104.7
		L53.2,104.7C53.2,104.6,53.2,104.7,53.2,104.7C53.2,104.6,53.2,104.6,53.2,104.7C53.2,104.6,53.3,104.6,53.2,104.7
		C53.3,104.6,53.2,104.7,53.2,104.7z M53,105L53,105C53,105,53,105,53,105z M52.7,105.7C52.7,105.6,52.7,105.6,52.7,105.7
		C52.7,105.6,52.7,105.7,52.7,105.7z M52.5,105.9C52.5,106,52.5,106,52.5,105.9C52.5,106,52.5,105.9,52.5,105.9z M50.9,108.6
		C50.9,108.7,50.9,108.7,50.9,108.6C50.9,108.7,50.9,108.7,50.9,108.6C50.9,108.7,50.9,108.6,50.9,108.6z M53.4,104.6L53.4,104.6
		L53.4,104.6C53.5,104.6,53.4,104.6,53.4,104.6C53.3,104.7,53.4,104.6,53.4,104.6C53.4,104.6,53.4,104.5,53.4,104.6
		C53.4,104.5,53.4,104.5,53.4,104.6z M50.8,108.8C50.7,109,50.8,108.8,50.8,108.8C50.8,108.8,50.8,108.8,50.8,108.8z M49.5,109.5
		C49.5,109.5,49.6,109.5,49.5,109.5C49.6,109.4,49.7,109.5,49.5,109.5C49.6,109.5,49.5,109.5,49.5,109.5
		C49.4,109.5,49.4,109.5,49.5,109.5c-0.1,0-0.1,0-0.1,0C49.4,109.5,49.5,109.5,49.5,109.5z M50.6,109.1
		C50.6,109,50.6,109,50.6,109.1L50.6,109.1z M50.5,109.3C50.4,109.3,50.4,109.3,50.5,109.3C50.4,109.2,50.5,109.2,50.5,109.3z
		 M50.3,109.4C50.3,109.4,50.3,109.3,50.3,109.4C50.3,109.3,50.3,109.4,50.3,109.4z M54.2,102.7C54.2,102.7,54.1,102.7,54.2,102.7
		C54.1,102.7,54.1,102.7,54.2,102.7z M51.7,106.8C51.7,106.8,51.7,106.8,51.7,106.8C51.7,106.8,51.7,106.8,51.7,106.8L51.7,106.8
		C51.7,106.8,51.7,106.8,51.7,106.8z M53.2,104.8L53.2,104.8C53.2,104.8,53.2,104.8,53.2,104.8C53.2,104.8,53.2,104.8,53.2,104.8
		C53.2,104.8,53.1,104.8,53.2,104.8C53.1,104.8,53.2,104.8,53.2,104.8C53.2,104.7,53.2,104.7,53.2,104.8z M53.5,104.4L53.5,104.4
		C53.4,104.5,53.5,104.4,53.5,104.4z M54.5,102.3L54.5,102.3C54.5,102.2,54.5,102.2,54.5,102.3z M54,103.7
		C54,103.7,54.1,103.8,54,103.7L54,103.7c0.1,0,0.1,0,0.1,0v0C54.1,103.7,54.1,103.9,54,103.7C54,103.8,54,103.8,54,103.7
		C54,103.8,54,103.7,54,103.7z M54.4,102.9L54.4,102.9L54.4,102.9C54.4,102.9,54.4,102.9,54.4,102.9
		C54.3,102.9,54.3,102.9,54.4,102.9C54.3,102.9,54.3,102.8,54.4,102.9C54.4,102.8,54.3,102.9,54.4,102.9
		C54.4,102.8,54.4,102.8,54.4,102.9C54.4,102.9,54.4,102.9,54.4,102.9C54.4,102.9,54.4,103,54.4,102.9z M54.3,102.5
		C54.3,102.5,54.3,102.6,54.3,102.5C54.2,102.5,54.2,102.5,54.3,102.5C54.2,102.5,54.3,102.5,54.3,102.5z M54.4,102.5
		C54.4,102.4,54.4,102.4,54.4,102.5C54.4,102.4,54.5,102.5,54.4,102.5z M54.4,102.5C54.4,102.5,54.3,102.5,54.4,102.5
		C54.3,102.5,54.4,102.4,54.4,102.5L54.4,102.5z M54.4,102.7C54.5,102.7,54.5,102.7,54.4,102.7C54.4,102.7,54.4,102.7,54.4,102.7z
		 M54,103.2C54,103.2,54,103.3,54,103.2c0.1,0,0.1,0,0.1,0C54,103.2,54,103.3,54,103.2L54,103.2C53.9,103.3,54,103.3,54,103.2
		C54,103.3,54,103.3,54,103.2z M54,103C54,103,54.1,102.9,54,103C54.1,103,54,103.1,54,103C54.1,103.1,54,103.1,54,103
		C54,103.1,54,103.1,54,103C54,103,54,103.1,54,103z M54.2,103.6L54.2,103.6L54.2,103.6C54.1,103.6,54.1,103.6,54.2,103.6
		C54.2,103.6,54.2,103.5,54.2,103.6z M54,103.6C54,103.7,54,103.7,54,103.6C54,103.7,54,103.7,54,103.6C54,103.6,54,103.6,54,103.6z
		 M54.5,102.3C54.5,102.2,54.5,102.3,54.5,102.3c0,0,0-0.1,0-0.1C54.6,102.2,54.5,102.2,54.5,102.3z M54.8,101.4
		C54.8,101.4,54.8,101.3,54.8,101.4C54.8,101.3,54.8,101.4,54.8,101.4z M54.5,102.1C54.5,102.1,54.4,102.1,54.5,102.1
		C54.5,102.2,54.5,102,54.5,102.1C54.6,102.1,54.5,102.1,54.5,102.1z M54.7,102.1C54.7,102.1,54.6,102.1,54.7,102.1
		C54.7,102.1,54.7,102,54.7,102.1C54.7,102,54.7,102,54.7,102.1L54.7,102.1z M54.9,102.2L54.9,102.2
		C54.9,102.2,54.8,102.2,54.9,102.2L54.9,102.2C54.8,102.2,54.9,102.2,54.9,102.2C54.9,102.2,54.9,102.2,54.9,102.2z M54.1,104
		C54.1,103.9,54.1,103.9,54.1,104C54.2,103.9,54.2,104,54.1,104z M54.6,101.7C54.7,101.8,54.6,101.7,54.6,101.7
		C54.7,101.7,54.7,101.7,54.6,101.7L54.6,101.7z M54.9,101.7C54.9,101.7,54.9,101.7,54.9,101.7L54.9,101.7
		C54.9,101.7,54.9,101.7,54.9,101.7z M54.4,103.3L54.4,103.3C54.3,103.3,54.4,103.2,54.4,103.3L54.4,103.3z M54.4,102.7L54.4,102.7
		C54.5,102.6,54.5,102.7,54.4,102.7C54.5,102.6,54.4,102.7,54.4,102.7z M54,103.6L54,103.6C54,103.5,54,103.6,54,103.6z M54.5,103.2
		C54.5,103.3,54.5,103.3,54.5,103.2L54.5,103.2L54.5,103.2z M54.2,103.2L54.2,103.2L54.2,103.2C54.2,103.2,54.2,103.2,54.2,103.2z
		 M54.3,103.2C54.2,103.2,54.3,103.1,54.3,103.2L54.3,103.2c0-0.1,0-0.1,0-0.2c0,0,0,0,0,0c0,0,0,0,0,0s0,0,0,0
		C54.3,103.1,54.3,103.1,54.3,103.2C54.3,103.2,54.2,103.2,54.3,103.2L54.3,103.2L54.3,103.2C54.3,103.2,54.3,103.2,54.3,103.2
		C54.3,103.2,54.3,103.2,54.3,103.2L54.3,103.2L54.3,103.2z M54.4,102.6c0,0-0.1,0.1-0.1,0.1v0C54.3,102.7,54.3,102.6,54.4,102.6
		C54.3,102.6,54.4,102.6,54.4,102.6z M54.1,103L54.1,103L54.1,103C54.2,103,54.2,103,54.1,103L54.1,103z M54.1,103.2
		C54.1,103.2,54.1,103.2,54.1,103.2L54.1,103.2C54.1,103.2,54.1,103.2,54.1,103.2z M54,103.4C54,103.4,54,103.5,54,103.4
		C54,103.4,54,103.5,54,103.4C54,103.5,54,103.5,54,103.4z M53.9,103.6L53.9,103.6C53.9,103.6,54,103.6,53.9,103.6
		C54,103.6,54,103.6,53.9,103.6L53.9,103.6z M54.1,103.1L54.1,103.1C54.2,103.1,54.2,103.1,54.1,103.1
		C54.1,103.2,54.2,103.2,54.1,103.1C54.1,103.1,54.1,103.2,54.1,103.1z M54,103.2C54,103.2,54,103.1,54,103.2
		C54,103.1,54,103.2,54,103.2z M54.8,101.8C54.8,101.8,54.8,101.8,54.8,101.8C54.9,101.8,54.8,101.8,54.8,101.8z M54.5,102.8
		C54.5,102.8,54.4,102.7,54.5,102.8C54.5,102.8,54.5,102.8,54.5,102.8z M54.4,103C54.3,103,54.3,103,54.4,103
		C54.3,103,54.3,103,54.4,103C54.3,103,54.2,103,54.4,103C54.3,103,54.3,103,54.4,103L54.4,103C54.4,103,54.4,103,54.4,103L54.4,103
		C54.4,103,54.4,103,54.4,103z M54.5,102.8C54.5,102.8,54.5,102.8,54.5,102.8S54.5,102.8,54.5,102.8L54.5,102.8z M54.3,103
		C54.3,103,54.2,103,54.3,103C54.2,102.9,54.3,102.9,54.3,103z M54.5,102.9C54.5,102.9,54.5,103,54.5,102.9
		C54.5,102.9,54.5,102.9,54.5,102.9C54.4,102.9,54.4,102.9,54.5,102.9C54.4,102.9,54.5,102.9,54.5,102.9z M54.1,103.1L54.1,103.1
		C54,103.1,54.1,103.1,54.1,103.1z M54.2,103C54.2,103,54.3,103,54.2,103C54.3,103,54.3,103,54.2,103C54.3,103,54.3,103,54.2,103
		C54.3,103,54.2,103.1,54.2,103z M54.2,102.9C54.2,102.9,54.2,102.9,54.2,102.9C54.1,102.9,54.2,102.9,54.2,102.9z M54.3,102.8
		C54.3,102.9,54.2,102.8,54.3,102.8C54.2,102.8,54.2,102.8,54.3,102.8C54.2,102.8,54.3,102.8,54.3,102.8z M54.6,103
		C54.6,103,54.6,103.1,54.6,103C54.6,103.1,54.5,103,54.6,103z M54.4,102.7C54.4,102.7,54.4,102.7,54.4,102.7L54.4,102.7
		C54.4,102.7,54.3,102.6,54.4,102.7C54.4,102.6,54.4,102.7,54.4,102.7z M54.4,104C54.3,103.9,54.3,103.9,54.4,104
		C54.3,103.9,54.3,103.9,54.4,104C54.4,103.9,54.4,103.9,54.4,104z M54.3,103.8C54.3,103.8,54.2,103.8,54.3,103.8
		C54.2,103.8,54.3,103.8,54.3,103.8S54.3,103.9,54.3,103.8C54.2,103.9,54.2,103.8,54.3,103.8z M54.2,104
		C54.3,104,54.2,104.1,54.2,104C54.2,104,54.2,104,54.2,104z M54.6,103.2C54.5,103.2,54.4,103.2,54.6,103.2L54.6,103.2z M54.2,103.3
		C54.3,103.3,54.2,103.3,54.2,103.3C54.3,103.3,54.3,103.2,54.2,103.3C54.3,103.3,54.3,103.3,54.2,103.3z M54.1,104.3
		C54,104.3,54,104.4,54.1,104.3L54.1,104.3c-0.1,0-0.1,0-0.1,0c0,0,0,0,0,0C54,104.3,54,104.4,54.1,104.3
		C54,104.3,54,104.3,54.1,104.3C54,104.3,54,104.3,54.1,104.3C54,104.2,54,104.3,54.1,104.3l-0.1-0.1C54,104.3,54,104.3,54.1,104.3z
		 M54.6,102.9C54.6,102.9,54.6,102.9,54.6,102.9C54.6,102.9,54.6,102.9,54.6,102.9C54.6,102.9,54.6,102.9,54.6,102.9
		C54.6,102.9,54.7,102.9,54.6,102.9z M53.5,104.5C53.5,104.6,53.5,104.5,53.5,104.5C53.5,104.5,53.5,104.5,53.5,104.5z M53.6,104.5
		C53.6,104.5,53.6,104.4,53.6,104.5c0.1,0,0.1-0.1,0.2,0c0,0,0,0,0,0s0,0,0,0C53.7,104.4,53.7,104.5,53.6,104.5
		C53.7,104.5,53.6,104.6,53.6,104.5c0.1,0.1,0,0.1,0,0.1C53.6,104.6,53.7,104.6,53.6,104.5L53.6,104.5
		C53.7,104.6,53.5,104.5,53.6,104.5C53.6,104.5,53.6,104.5,53.6,104.5z M49.5,109.3C49.5,109.3,49.6,109.3,49.5,109.3
		C49.6,109.3,49.6,109.3,49.5,109.3C49.6,109.3,49.6,109.3,49.5,109.3z M49.9,109L49.9,109L49.9,109C49.9,109,49.9,109,49.9,109
		L49.9,109z M49.8,109.2C49.9,109.2,49.8,109.2,49.8,109.2C49.9,109.2,49.9,109.1,49.8,109.2C49.9,109.2,49.8,109.2,49.8,109.2
		L49.8,109.2c0.1,0,0.2-0.1,0.2-0.1C50,109.1,49.9,109.2,49.8,109.2c0.1,0,0.1,0,0.1,0C50,109.2,49.9,109.2,49.8,109.2
		c0.1,0.2,0.2,0,0.2,0.1l0,0c0,0-0.1,0-0.1,0.1c0,0,0,0,0,0c0,0,0,0,0,0c0,0-0.1,0-0.1,0c0,0,0,0,0,0c0,0,0,0,0,0h0c0,0,0.1,0,0,0h0
		C49.8,109.2,49.8,109.2,49.8,109.2z M50.2,109C50.3,108.9,50.3,109,50.2,109C50.3,108.9,50.3,108.9,50.2,109
		C50.3,108.9,50.3,108.9,50.2,109c0.1,0,0.1-0.1,0.1-0.1C50.4,108.9,50.3,109,50.2,109C50.2,109,50.2,109,50.2,109
		C50.2,109,50.2,109,50.2,109z M50.4,108.7L50.4,108.7C50.4,108.7,50.4,108.8,50.4,108.7C50.4,108.7,50.4,108.7,50.4,108.7
		C50.4,108.7,50.4,108.7,50.4,108.7L50.4,108.7L50.4,108.7z M50.4,108.7C50.4,108.7,50.4,108.7,50.4,108.7
		C50.4,108.7,50.4,108.7,50.4,108.7z M50.5,108.7L50.5,108.7C50.4,108.6,50.4,108.6,50.5,108.7C50.4,108.6,50.5,108.6,50.5,108.7
		C50.5,108.6,50.5,108.6,50.5,108.7z M50.4,108.5C50.5,108.5,50.5,108.5,50.4,108.5C50.5,108.6,50.5,108.6,50.4,108.5
		C50.4,108.6,50.4,108.5,50.4,108.5C50.5,108.5,50.4,108.4,50.4,108.5C50.5,108.5,50.5,108.5,50.4,108.5c0-0.1,0.1-0.1,0.1-0.2
		C50.6,108.3,50.5,108.4,50.4,108.5c0.1-0.1,0.2,0,0.1,0C50.5,108.5,50.5,108.5,50.4,108.5z M50.6,108.4
		C50.6,108.3,50.6,108.3,50.6,108.4C50.6,108.3,50.6,108.3,50.6,108.4C50.5,108.3,50.5,108.3,50.6,108.4c0-0.1,0-0.1,0-0.1
		C50.6,108.3,50.6,108.3,50.6,108.4C50.6,108.3,50.6,108.4,50.6,108.4z M50.4,109.2C50.4,109.2,50.4,109.2,50.4,109.2
		C50.4,109.2,50.4,109.2,50.4,109.2C50.4,109.2,50.4,109.2,50.4,109.2C50.3,109.2,50.4,109.2,50.4,109.2z M50.6,108.2
		C50.6,108.2,50.6,108.2,50.6,108.2C50.6,108.2,50.6,108.1,50.6,108.2L50.6,108.2C50.7,108.2,50.6,108.2,50.6,108.2z M50.7,108.1
		C50.7,108.1,50.7,108.1,50.7,108.1C50.7,108.1,50.7,108.1,50.7,108.1C50.7,108.1,50.7,108.1,50.7,108.1
		C50.7,108.1,50.7,108.1,50.7,108.1L50.7,108.1c0.1-0.1,0.1-0.1,0.1-0.1c0,0,0,0,0,0C50.8,108,50.8,108.1,50.7,108.1z M50.8,107.9
		C50.9,107.9,50.9,107.8,50.8,107.9C50.8,107.9,50.9,107.8,50.8,107.9C50.9,107.9,50.8,107.9,50.8,107.9
		C50.9,107.9,50.9,107.9,50.8,107.9C50.9,107.9,50.9,107.9,50.8,107.9z M51,107.8L51,107.8L51,107.8C51,107.7,51,107.7,51,107.8
		L51,107.8c0.1,0,0.1,0,0.1,0s0,0,0,0c0,0,0,0,0,0v0C51.1,107.8,51.1,107.9,51,107.8C51,107.8,51,107.8,51,107.8
		C51,107.8,51,107.8,51,107.8z M51.2,107.5C51.2,107.5,51.2,107.5,51.2,107.5L51.2,107.5C51.2,107.5,51.2,107.5,51.2,107.5
		L51.2,107.5C51.3,107.5,51.2,107.5,51.2,107.5C51.2,107.5,51.2,107.5,51.2,107.5C51.2,107.5,51.3,107.5,51.2,107.5c0.1,0,0,0,0.1,0
		H51.2C51.3,107.5,51.2,107.5,51.2,107.5z M51.3,107.6L51.3,107.6C51.3,107.6,51.3,107.6,51.3,107.6
		C51.3,107.6,51.3,107.6,51.3,107.6z M51.4,107.2C51.4,107.2,51.5,107.2,51.4,107.2C51.5,107.2,51.5,107.2,51.4,107.2
		C51.5,107.2,51.4,107.2,51.4,107.2z M51.6,107C51.6,107,51.6,107,51.6,107C51.6,107,51.6,107,51.6,107C51.6,107,51.6,107,51.6,107
		C51.6,107.1,51.5,107,51.6,107z M51.5,107L51.5,107L51.5,107z M51.7,106.8C51.7,106.7,51.8,106.7,51.7,106.8
		C51.8,106.7,51.7,106.7,51.7,106.8z M53.4,104.2L53.4,104.2C53.4,104.2,53.4,104.2,53.4,104.2C53.4,104.2,53.5,104.2,53.4,104.2
		c0.1-0.1,0.1-0.1,0.1,0C53.5,104.2,53.4,104.2,53.4,104.2C53.4,104.3,53.4,104.3,53.4,104.2C53.4,104.3,53.4,104.3,53.4,104.2
		C53.4,104.3,53.4,104.2,53.4,104.2C53.4,104.2,53.4,104.2,53.4,104.2z M53.6,104.1C53.6,104.1,53.6,104,53.6,104.1
		C53.6,104.1,53.6,104.1,53.6,104.1C53.6,104.1,53.6,104.1,53.6,104.1z M53.6,104.3C53.6,104.3,53.6,104.3,53.6,104.3
		C53.7,104.3,53.6,104.3,53.6,104.3C53.6,104.3,53.5,104.3,53.6,104.3z M53.8,103.8C53.7,103.8,53.7,103.8,53.8,103.8
		C53.7,103.8,53.7,103.8,53.8,103.8C53.7,103.8,53.7,103.7,53.8,103.8z M53.8,103.6C53.8,103.6,53.8,103.7,53.8,103.6L53.8,103.6
		L53.8,103.6C53.7,103.6,53.8,103.6,53.8,103.6C53.7,103.6,53.8,103.6,53.8,103.6z M53.8,103.5L53.8,103.5L53.8,103.5L53.8,103.5z
		 M50.1,108.8C50.1,108.8,50.1,108.7,50.1,108.8C50.2,108.8,50.1,108.8,50.1,108.8C50.1,108.8,50.1,108.8,50.1,108.8z M50,109.1
		C50,109.2,49.9,109.1,50,109.1C49.9,109.2,49.9,109.1,50,109.1C49.9,109.1,50,109.1,50,109.1L50,109.1z M50.1,108.9
		c0,0.1-0.1,0.1-0.1,0.2c0,0,0,0,0,0C50.1,109,50.1,108.9,50.1,108.9C50.1,108.9,50.1,108.8,50.1,108.9L50.1,108.9z M53.4,104.2
		L53.4,104.2L53.4,104.2z M51.1,107.7C51.1,107.7,51,107.7,51.1,107.7C51.1,107.6,51.1,107.6,51.1,107.7
		C51.1,107.6,51.1,107.7,51.1,107.7L51.1,107.7z M50.3,108.8C50.4,108.8,50.4,108.8,50.3,108.8C50.4,108.8,50.3,108.9,50.3,108.8
		C50.3,108.8,50.3,108.8,50.3,108.8z M50.4,108.6C50.4,108.7,50.4,108.7,50.4,108.6C50.3,108.7,50.4,108.8,50.4,108.6
		C50.3,108.7,50.4,108.6,50.4,108.6z M50.7,108.4L50.7,108.4C50.8,108.4,50.8,108.4,50.7,108.4c0.1,0,0.1-0.1,0.1-0.1c0,0,0,0,0,0
		C50.9,108.4,50.9,108.3,50.7,108.4C50.8,108.4,50.8,108.5,50.7,108.4C50.8,108.5,50.8,108.5,50.7,108.4c0,0.2-0.1,0.4-0.2,0.4
		C50.6,108.7,50.7,108.6,50.7,108.4L50.7,108.4C50.7,108.5,50.7,108.5,50.7,108.4C50.7,108.5,50.8,108.4,50.7,108.4
		C50.7,108.5,50.7,108.5,50.7,108.4z M51.3,107.7L51.3,107.7C51.4,107.7,51.4,107.7,51.3,107.7C51.4,107.7,51.3,107.7,51.3,107.7z
		 M51.4,107.7C51.4,107.6,51.4,107.6,51.4,107.7c0-0.1,0-0.1,0-0.1C51.4,107.6,51.4,107.6,51.4,107.7
		C51.4,107.6,51.4,107.7,51.4,107.7z M53.9,103.8C53.9,103.8,53.9,103.8,53.9,103.8C53.8,103.8,53.9,103.8,53.9,103.8z M53.8,104
		C53.9,104.1,53.9,104,53.8,104C53.9,104.1,53.8,104.1,53.8,104z M53.8,104.1L53.8,104.1C53.9,104.1,53.9,104.2,53.8,104.1
		C53.9,104.1,53.9,104.1,53.8,104.1L53.8,104.1z M53.9,103.9C54,103.9,54,103.9,53.9,103.9C54,103.9,54,103.9,53.9,103.9L53.9,103.9
		L53.9,103.9L53.9,103.9C54,103.9,54,103.9,53.9,103.9C54,103.8,54,103.9,53.9,103.9c0,0.1,0,0.1,0,0.1c0,0,0,0,0,0
		c0,0,0,0.1-0.1,0.1c0,0,0,0,0-0.1c0,0,0,0,0,0l0,0C54,104.1,53.9,103.9,53.9,103.9z M48.6,109.8c0.2,0.1,0.6,0,0.8-0.3
		c0,0,0.1-0.1,0.1-0.1s0,0,0,0c0,0,0,0,0,0l0,0c0,0,0,0,0,0c0,0,0,0,0.1,0c0,0,0,0,0-0.1c0,0,0,0,0,0l0,0c0,0,0,0,0.1,0v0
		c0,0,0.1,0,0,0.1c0.1,0,0,0,0.1,0.1c0,0,0,0,0-0.1c0,0,0.1,0,0.1,0c0-0.1,0.2-0.1,0.3-0.1c0,0,0.1-0.1,0.1-0.2c0,0,0-0.1,0.1-0.1
		s0.1,0,0.1-0.1c0,0,0.1-0.1,0.1-0.2c0-0.1,0-0.2,0.1-0.2c0,0.1,0.1-0.1,0.1-0.2c0,0,0,0-0.1,0.1v0c0,0,0,0,0,0c0,0,0-0.1,0-0.1
		c0,0,0,0,0,0c0,0,0,0,0,0c0,0,0,0,0,0c0,0,0-0.1,0,0v0h0v0h0c0,0,0,0,0-0.1c0,0-0.1,0,0,0c0,0,0,0-0.1,0.1c0,0,0-0.1,0-0.1v0
		c0,0,0,0,0,0h0c0,0,0,0,0,0.1c0,0,0,0,0,0c0,0,0,0,0-0.1c0,0,0,0.1,0,0c0,0,0,0.1,0,0.2c0,0,0,0,0,0c0,0,0,0,0,0c0,0,0,0,0-0.1
		c0,0,0,0.1-0.1,0.1c0,0,0,0,0-0.1v0c0,0,0,0,0,0c0,0,0,0,0.1-0.1c0,0,0,0.1-0.1,0.1v0c0,0,0,0,0,0l0,0c0,0,0.1-0.1,0.1-0.1h0
		c0,0,0,0,0,0c0,0,0,0,0.1,0c0,0,0,0,0-0.1v0c0,0,0,0,0,0c0,0,0,0,0,0l0,0c0,0,0,0,0,0.1c0,0,0,0,0-0.1c0,0,0,0,0,0.1v0
		c0-0.1,0.1-0.2,0.2-0.2c0,0,0,0,0,0c0,0,0,0,0,0s0,0,0,0c0,0,0,0,0.1-0.1h0c0,0,0,0,0.1-0.1v0c0,0,0,0,0,0c0,0,0,0,0.1,0
		c0,0,0,0,0-0.1c0,0,0,0,0,0v0c0,0,0,0,0,0c0,0,0-0.1,0.1-0.2c0,0,0,0,0,0c0,0,0-0.2,0.1-0.2h0c0,0,0,0,0,0.1v0c0,0,0,0,0,0
		c0,0,0,0,0,0.1v0c0,0,0,0,0,0s0,0,0,0c0,0,0,0,0,0c0,0,0,0,0-0.1c0,0,0,0-0.1,0v0c0,0,0,0,0,0v0c0,0,0,0,0,0h0l0,0
		c0,0,0.1-0.1,0.1,0c0,0,0-0.1,0-0.2c0,0,0,0,0-0.1l0,0c0,0,0,0,0,0c0,0,0,0,0,0v0c0,0,0,0,0,0c0,0,0,0.1,0.1,0c0,0,0,0,0,0l0,0
		c0,0,0,0-0.1,0c0,0,0.1-0.2,0.2-0.2c0,0,0,0,0,0c0,0,0,0,0-0.1l0,0c0-0.1,0.1-0.1,0.1-0.2v0h0c0,0,0,0,0,0l0,0
		c0.1-0.2,0.3-0.4,0.4-0.6c0,0,0,0,0.1,0c0,0,0.1,0,0-0.1c0,0,0,0-0.1,0.1l0,0c0.1-0.1,0.1-0.2,0.2-0.4c0,0,0,0,0,0h0c0,0,0,0,0,0
		s0,0,0,0c0,0,0,0,0,0.1c0,0,0,0,0,0c0,0,0,0,0,0c0,0,0,0,0,0.1c0,0,0-0.1,0.1-0.1c0,0,0-0.1,0-0.1c0,0,0,0,0,0c0,0,0,0,0,0
		c0,0,0,0,0,0c0,0,0,0,0,0c0,0,0,0-0.1,0c0,0,0,0,0,0c0-0.1,0.1-0.2,0.1-0.3l0,0l0,0c0,0,0-0.1,0-0.1l0,0v0c0-0.1,0.1-0.2,0.2-0.3
		l0,0l0,0c0,0,0-0.1,0-0.1c0,0,0,0,0,0c0.1,0-0.1,0.2,0,0.3c0,0,0-0.1,0.1-0.1c0,0,0,0,0-0.1c0,0,0,0,0,0c0,0,0,0,0,0c0,0,0,0,0,0.1
		c0,0,0,0,0,0v0c0,0,0,0,0,0c0,0,0,0,0.1,0c0.1,0,0.1,0,0.2-0.1c0,0,0,0,0,0c0,0,0,0,0,0c0,0,0,0,0,0c0,0,0,0-0.1,0c0,0,0,0,0,0
		c0,0,0,0,0,0h0v0l0,0v0c0,0,0,0,0,0c0,0,0,0-0.1,0c0,0,0,0,0,0c0,0,0,0,0.1,0c0,0,0,0,0,0s0,0,0,0c0,0,0,0,0,0c0,0,0,0,0,0
		c0,0,0,0,0,0.1h0c0,0,0,0,0,0s0,0,0,0s0,0,0,0c0,0,0,0,0,0c0,0,0,0,0.1,0c0-0.1,0.1-0.2,0.1-0.2c0,0,0,0,0,0c0,0,0,0,0-0.1
		c0,0,0,0,0,0c0,0-0.1,0-0.1,0c0,0,0,0,0,0s0,0,0,0c0,0,0-0.1,0-0.1c0,0,0,0,0,0c0,0,0,0,0,0c0,0,0,0,0-0.1c0,0,0,0,0,0h0
		c0,0,0,0,0,0c0,0,0-0.1,0,0c0,0,0,0,0,0h0c0,0,0,0,0,0c0-0.1,0.1-0.3,0.2-0.5l0,0l0,0c0,0,0,0,0-0.1c0,0,0,0,0,0c0-0.1,0-0.1,0-0.2
		c0,0,0,0,0,0c0,0,0-0.1,0-0.1c0,0,0,0,0-0.1h0c0,0,0,0,0,0c0-0.1,0.1-0.2,0.1-0.3l0,0l0,0c0,0,0,0,0-0.1c0,0,0,0,0,0v0l0,0v0
		c0.7-1.6,1.3-3.9-0.6-2.6c-0.4,0.3-0.7,0.7-0.9,1.1c-1.7,2.6-3.2,5.4-4.4,8.3C48.4,109.2,48.3,109.7,48.6,109.8z M29.9,60.4
		c0,0.2-0.1,0.5-0.2,0.7c-1.4,2.5-3.1,5.1-5.5,6.7c-0.4-1.1,0-2.3,0.5-3.3C25.1,63.8,29.8,58.5,29.9,60.4z M27.4,76.3
		c-0.2,0.2-0.5,0.4-0.8,0.2c-0.8-0.5,4.6-10.7,6.7-9.9C36.3,67.9,28.3,75.5,27.4,76.3z M40.9,90.5c-1,1.3-2.1,2.6-3.7,2.8
		c0-2.9,1.7-5.5,3.4-7.8c0.6-0.8,3.8-5.3,4-2.3C44.8,85.6,42.3,88.7,40.9,90.5z M49.3,90.8c-1.7-1.1-4.8,4.7-5.3,5.8
		c-0.5,0.9-0.9,1.8-1,2.7c0,0.4,0.1,1,0.5,1.1c0.2,0,0.5,0,0.7-0.1c1.1-0.6,1.9-1.7,2.7-2.7C47.5,96.6,51.3,92.1,49.3,90.8z"/>
	<g>
		<path class="st9" d="M86.7,82.5c-2.6,0-2.6,0.9-5.3,0.9c-2.6,0-2.6-0.9-5.3-0.9c-3.6,0-8,1.8-8,7.9c0,9.7,5.3,17.7,8.8,17.7
			c2.6,0,2.6-0.9,4.4-0.9s1.8,0.9,4.4,0.9c3.6,0,8.8-7.9,8.8-17.7C94.6,84.2,90.2,82.5,86.7,82.5z"/>
	</g>
	<g>
		<path class="st10" d="M82.3,82.5c0,0,2.6-3.6,7.1-3.6c3.6,0,5.3,1.8,5.3,1.8s-3.6,2.6-6.2,2.6C85.8,83.4,82.3,82.5,82.3,82.5z"/>
	</g>
	<g>
		<path class="st11" d="M81.3,85.2c-0.5,0-0.9-0.4-0.9-0.9c0-3,1.1-5.9,2.9-7.7c0.3-0.3,0.9-0.3,1.2,0c0.3,0.3,0.3,0.9,0,1.2
			c-1.5,1.5-2.4,3.8-2.4,6.4C82.3,84.7,81.8,85.2,81.3,85.2z"/>
	</g>
	<path class="st12" d="M93.8,101.6c1.7,6.4,8.5,10.1,15.2,8.3c6.7-1.8,10.7-8.4,8.9-14.8c-1.7-6.4-8.5-10.1-15.2-8.3
		C96,88.6,92,95.2,93.8,101.6z"/>
	<path class="st13" d="M117.7,95.2c-2.1-7.9-10.2-10.1-15.9-7.6c-9.6,4.2-6.3,19,3.1,20.7C111.4,109.5,119.1,104.6,117.7,95.2z"/>
	<path class="st12" d="M101.7,88.7c0.5,0.4,1.6,0.8,2.4,0.5c0.7-0.2,2.1-1.3,1.7-1.7C105.7,87.2,100.7,87.9,101.7,88.7z"/>
	<path class="st14" d="M106,85.9c-1.9,0.2-2.3,1.1-2.6,1.5c0,0,0.3,0.4,0.5,0.2c0,0,0.2-1.3,2.2-1.4c1.1,1.2,3.4,1.7,5.3,0.5
		c1.6-1.1,1.3-3.1,2-4.1c-1.7,0-2.8-0.9-4.8-0.4C106.7,82.7,105.6,84.9,106,85.9z"/>
	<path class="st15" d="M104.6,86.6c0.4-0.2,0.9-0.4,1.5-0.4l0,0l0,0c1.1,1.2,3.3,1.8,5.3,0.5l0,0c1-0.7,1.3-1.8,1.5-2.7
		c0.1-0.5,0.2-1,0.5-1.4c-0.7,0-1.2-0.1-1.8-0.2c-0.9-0.2-1.8-0.4-2.9-0.1c-0.4,0.1-0.7,0.2-1.1,0.4c-1.2,0.8-1.9,2.4-1.6,3.2l0,0
		l0,0c-0.7,0.1-1.3,0.3-1.7,0.5c-0.4,0.2-0.6,0.5-0.7,0.8c0,0-0.1,0.1-0.1,0.1c0,0,0.3,0.4,0.5,0.2l0,0
		C103.9,87.6,104,87,104.6,86.6z M111.4,86.7c-0.5,0.3-1,0.5-1.5,0.6c-0.5,0.1-1,0.1-1.4,0c-0.9-0.1-1.8-0.5-2.3-1.2
		c-0.6,0-1.1,0.1-1.5,0.4c-0.6,0.4-0.7,1-0.7,1l0,0l0,0l0,0c-0.2,0.1-0.5-0.2-0.5-0.2l0,0l0,0c0,0,0-0.1,0.1-0.1
		c0.1-0.2,0.3-0.5,0.8-0.8c0.4-0.3,1-0.4,1.7-0.5c-0.1-0.4,0-1,0.2-1.6c0.3-0.7,0.8-1.2,1.4-1.6c0.3-0.2,0.7-0.4,1.1-0.5
		c1.2-0.3,2.1-0.1,2.9,0.1c0.6,0.1,1.2,0.3,1.8,0.2l0,0l0,0c-0.2,0.3-0.3,0.9-0.5,1.4C112.7,85,112.4,86.1,111.4,86.7L111.4,86.7z"
		/>
	<path class="st16" d="M107.8,85.7h0.1c0.8,0.7,1.8,0.7,3.2,0.6c-1.8,0-2.2-0.1-3-0.7l0,0c0.6-0.2,1.1-0.5,1.5-0.7
		c1.2,0.4,1.4,0.4,2.4,0.1c-1,0.3-1.7,0-2.4-0.2c0.1-0.1,0.3-0.2,0.4-0.3c0.3-0.3,0.8-0.5,1.3-0.8c0.3,0.1,0.8,0.4,1.2,0
		c-0.5,0.3-0.9,0.1-1.2,0l0,0c0.5-0.2,1.1-0.5,1.6-0.8c-0.8,0.4-1.8,0.7-3,1.5c-0.1-0.7,0.2-1.3,0.4-1.5c-0.4,0.4-0.7,0.9-0.7,1.7
		c0,0-0.6,0.4-0.9,0.5c0-1,0.2-1.5,0.9-2.4c-1.2,1.2-1.2,2.4-1.2,2.4c-0.6,0.3-1.2,0.5-1.7,0.6c0-0.9,0-1.3,1.6-2.8
		c-1.4,1.2-1.8,1.7-1.8,2.9l-0.9,0.3C106.4,86.1,107.3,85.9,107.8,85.7z"/>
	<path class="st14" d="M102.7,84.7c1.7,2,1.2,3.9,0.9,4c0,0-0.2-1-0.6-1.6c-0.4-0.8-1.4-2.2-1.4-2.3
		C101.6,84.4,102.5,84.3,102.7,84.7z"/>
	<path class="st17" d="M56,106.8c2.9,6.2,8.3,8.2,10.8,7c2.5-1.2,4.4-6.6,1.5-12.8L53.8,70c-2.9-6.2-8.3-8.2-10.8-7
		c-2.5,1.2-4.4,6.6-1.5,12.8L56,106.8z"/>
	<path class="st18" d="M52,73.8c-2.5,1.2-4.6,2.3-5.2,1c-0.1-0.2-0.1-0.5-0.1-0.8c0,0,0.1-0.1,0.1-0.1c0.7-1.3,4.5-3.4,7-3.9l0,0
		l1.2,2.4C54.1,72.9,53.1,73.3,52,73.8z M55.5,81.3c-2.5,1.2-4.6,2.3-5.2,1c-0.1-0.2-0.1-0.5-0.1-0.8c0,0,0.1-0.1,0.1-0.1
		c0.6-1.3,4.5-3.4,7-3.9l1.2,2.5C57.6,80.3,56.6,80.7,55.5,81.3z M59,88.7c-2.5,1.2-4.6,2.3-5.2,1c-0.1-0.2-0.1-0.5-0.1-0.8
		c0,0,0.1-0.1,0.1-0.1c0.7-1.3,4.5-3.4,7-3.9l1.2,2.5C61.1,87.7,60.1,88.1,59,88.7z M62.5,96.1c-2.5,1.2-4.6,2.3-5.2,1
		c-0.1-0.2-0.1-0.5-0.1-0.8c0,0,0.1-0.1,0.1-0.1c0.6-1.3,4.5-3.4,7-3.9l1.2,2.5C64.7,95.1,63.6,95.6,62.5,96.1z M66,103.5
		c-2.5,1.2-4.6,2.3-5.2,1c-0.1-0.2-0.1-0.5-0.1-0.8c0,0,0.1-0.1,0.1-0.1c0.7-1.3,4.5-3.4,7-3.9l0.6,1.3c0.2,0.4,0.3,0.8,0.5,1.2
		C68.1,102.6,67.1,103,66,103.5z"/>
	<path class="st19" d="M53.1,68.8c0.1,0.2,0.5,1,0.6,1.2c-2.5,0.6-6.3,2.6-7,3.9c0,0,0,0.1-0.1,0.1c-0.2,0.2-0.4,0.2-0.7,0.2l0,0
		c-0.3-0.1-0.4-0.5-0.3-0.9C46.5,71.6,50.2,69.5,53.1,68.8z M56.7,76.1l0.6,1.2c-2.5,0.6-6.3,2.6-7,3.9c0,0,0,0.1-0.1,0.1
		c-0.2,0.2-0.4,0.3-0.7,0.2l0,0c-0.3-0.1-0.4-0.5-0.3-0.9C50,79,53.8,76.9,56.7,76.1z M60.2,83.6l0.6,1.2c-2.5,0.6-6.3,2.6-7,3.9
		c0,0,0,0.1-0.1,0.1C53.5,89,53.3,89.1,53,89l0,0c-0.3-0.1-0.4-0.5-0.3-0.9C53.5,86.4,57.3,84.3,60.2,83.6z M63.7,91l0.6,1.2
		c-2.5,0.6-6.3,2.6-7,3.9c0,0,0,0.1-0.1,0.1c-0.2,0.2-0.4,0.2-0.7,0.2l0,0c-0.3-0.1-0.4-0.5-0.3-0.9C57,93.8,60.8,91.7,63.7,91z
		 M67.2,98.4l0.6,1.2c-2.5,0.6-6.3,2.6-7,3.9c0,0,0,0.1-0.1,0.1c-0.2,0.2-0.4,0.2-0.7,0.2c0,0,0,0,0,0c-0.3-0.1-0.4-0.5-0.3-0.9
		C60.5,101.3,64.3,99.1,67.2,98.4z"/>
	<path class="st20" d="M124.1,118.7l-1.3,59.3c0,0,0.1,2.7-0.4,4.4c-0.6,1.9-1.4,2.9-2.6,4.6c-0.7,1.1-1.2,1.5-2.2,2.4
		c-0.3,0.3-0.9,0.7-0.9,0.7h-74c0,0-0.6-0.2-0.9-0.4c-0.9-1-1.4-1.7-2.2-2.8c-1.2-1.7-1.7-2.7-2.4-4.8c-0.5-1.6-0.6-4.4-0.6-4.4
		l-1.1-58.9L124.1,118.7L124.1,118.7z"/>
	<path class="st21" d="M27.9,104.4c0-1.4,1.2-2.6,2.6-2.6h101.9v16.9H30.5c-1.4,0-2.6-1.2-2.6-2.6V104.4z"/>
	<path class="st22" d="M132.4,101.8h4.8c1.4,0,2.6,1.2,2.6,2.6v11.7c0,1.4-1.2,2.6-2.6,2.6h-4.8V101.8z"/>
	<path class="st23" d="M124.1,118.8h8.1l-1.9,59.8c0,0-0.6,6-2.3,8.2c-1.1,1.4-2.9,2.9-2.9,2.9H117c0,0,3.9-3.3,4.9-6.3
		c0.6-1.8,0.8-4.9,0.8-4.9L124.1,118.8z"/>
	<path class="st24" d="M74.9,101.6c1.4,0,2.3,1.7,1.3,2.8l-20.4,25.9c-0.7,0.9-2,0.9-2.7,0l-20.4-25.9c-0.9-1.2-0.1-2.8,1.3-2.8
		H74.9z"/>
	<path class="st23" d="M69.5,101.6H81l-24.9,32.6l-5.9-7.6L69.5,101.6z"/>
	<path class="st24" d="M69.1,158.2c-1.8,0-3.5-0.3-4.9-1c-1.4-0.6-2.5-1.5-3.4-2.6c-0.8-1.2-1.2-2.4-1.3-3.9h5.4
		c0,0.6,0.2,1.2,0.6,1.6c0.4,0.5,0.9,0.8,1.5,1.1c0.6,0.2,1.3,0.4,2.1,0.4c0.8,0,1.5-0.1,2.2-0.4c0.6-0.3,1.1-0.7,1.5-1.2
		c0.3-0.5,0.5-1.1,0.5-1.8s-0.2-1.3-0.6-1.8s-0.9-1-1.6-1.2c-0.7-0.3-1.5-0.4-2.4-0.4h-2.4v-4h2.4c0.8,0,1.5-0.1,2.2-0.4
		c0.6-0.3,1.1-0.7,1.4-1.2c0.3-0.5,0.5-1.1,0.5-1.8c0-0.6-0.1-1.2-0.5-1.7c-0.3-0.5-0.7-0.9-1.2-1.2c-0.5-0.3-1.2-0.4-1.9-0.4
		s-1.4,0.1-2,0.4c-0.6,0.2-1.1,0.6-1.4,1.1c-0.4,0.5-0.6,1.1-0.6,1.7H60c0-1.5,0.4-2.7,1.2-3.9c0.8-1.1,1.9-2,3.3-2.6
		c1.4-0.6,2.9-1,4.7-1c1.7,0,3.3,0.3,4.6,1c1.3,0.6,2.3,1.5,3.1,2.6c0.7,1.1,1.1,2.3,1.1,3.6c0,1.4-0.4,2.6-1.3,3.6
		c-0.9,1-2,1.5-3.5,1.8v0.2c1.9,0.2,3.3,0.9,4.3,2c1,1.1,1.5,2.4,1.4,3.9c0,1.4-0.4,2.7-1.2,3.9c-0.8,1.1-2,2-3.5,2.6
		C72.6,157.9,70.9,158.2,69.1,158.2z"/>
	<path class="st24" d="M92.5,158.4c-2.1,0-3.9-0.5-5.5-1.6c-1.5-1.1-2.7-2.5-3.5-4.6c-0.8-2-1.2-4.4-1.2-7.1c0-2.8,0.4-5.1,1.2-7.1
		s2-3.5,3.5-4.5c1.5-1,3.4-1.5,5.5-1.5c2.1,0,3.9,0.5,5.5,1.5c1.5,1,2.7,2.5,3.6,4.5c0.8,2,1.2,4.3,1.2,7.1c0,2.8-0.4,5.2-1.2,7.1
		c-0.8,2-2,3.5-3.5,4.6C96.5,157.9,94.7,158.4,92.5,158.4z M92.5,154c1.4,0,2.6-0.7,3.5-2.2c0.9-1.5,1.3-3.6,1.3-6.6
		c0-1.9-0.2-3.6-0.6-4.8c-0.4-1.3-1-2.3-1.6-2.9c-0.7-0.6-1.5-1-2.5-1c-1.4,0-2.6,0.7-3.5,2.2s-1.3,3.6-1.3,6.5c0,2,0.2,3.6,0.6,4.9
		c0.4,1.3,1,2.3,1.7,2.9C90.8,153.6,91.6,154,92.5,154z"/>
	<path class="st24" d="M67.5,179.6c0,2.8-1,4.5-3.1,5.2c-0.5,0.2-1,0.2-1.5,0.2c-0.9,0-1.7-0.2-2.5-0.6v-1.3
		c0.8,0.4,1.6,0.6,2.4,0.6c0.6,0,1.2-0.1,1.7-0.4c1.1-0.6,1.6-1.8,1.6-3.6v-8l1.5-0.8L67.5,179.6L67.5,179.6z"/>
	<path class="st24" d="M75.4,180.7c-1.3,0-2.3-0.4-3-1.2c-0.6-0.7-0.9-1.6-0.9-2.7v-10l1.5-0.8v10.7c0,1.7,0.8,2.6,2.5,2.6h0.8v1.4
		L75.4,180.7L75.4,180.7z"/>
	<path class="st24" d="M79.8,167.8c-0.6,0-0.9-0.3-0.9-1c0-0.6,0.3-0.9,0.9-0.9c0.6,0,0.9,0.3,0.9,0.9
		C80.7,167.5,80.3,167.8,79.8,167.8z M83.3,179.3h0.8v1.4h-1c-1.4,0-2.4-0.5-3.1-1.4c-0.7,0.9-1.7,1.4-3.1,1.4h-1v-1.4h0.8
		c1.7,0,2.5-0.9,2.5-2.6v-5l1.5-0.8v5.8C80.8,178.4,81.6,179.3,83.3,179.3z"/>
	<path class="st24" d="M83.7,180.7v-1.4h0.8c1.7,0,2.5-0.9,2.5-2.6v-5l1.5-0.8v5.8c0,1.3-0.4,2.3-1.1,3c-0.7,0.7-1.6,1-2.7,1H83.7z
		 M84.4,185c-0.6,0-0.9-0.3-0.9-1c0-0.6,0.3-0.9,0.9-0.9c0.6,0,0.9,0.3,0.9,0.9C85.3,184.6,85,185,84.4,185z M87,185
		c-0.6,0-0.9-0.3-0.9-1c0-0.6,0.3-0.9,0.9-0.9c0.6,0,0.9,0.3,0.9,0.9C87.9,184.6,87.6,185,87,185z"/>
	<path class="st24" d="M90.8,180.7l0.7-1.4h4.3c0.7,0,1.2-0.2,1.4-0.5c0.3-0.3,0.4-1,0.4-1.8c0-2.3-1-3.9-2.9-5l0.7-1.2
		c2.5,1.4,3.7,3.6,3.7,6.3c0,2.5-1.1,3.7-3.2,3.7L90.8,180.7L90.8,180.7z"/>
	<path class="st20" d="M59.2,131.1h45.6v29.1H59.2V131.1z"/>
	<path class="st24" d="M72.6,132.3v28.3h-5.9V138h-0.1l-6.4,4.1v-5.3l7-4.4L72.6,132.3L72.6,132.3z"/>
	<path class="st24" d="M89.6,161c-1.9,0-3.6-0.3-5.2-1.1c-1.5-0.7-2.7-1.7-3.6-3c-0.9-1.2-1.3-2.7-1.4-4.3h5.8c0,1.1,0.5,2,1.4,2.7
		c0.9,0.7,1.9,1,3,1c0.9,0,1.8-0.2,2.5-0.6c0.7-0.4,1.3-1,1.7-1.8c0.4-0.8,0.6-1.6,0.6-2.6c0-1-0.2-1.9-0.6-2.6
		c-0.4-0.8-1-1.3-1.7-1.8c-0.7-0.4-1.6-0.6-2.5-0.7c-0.8,0-1.6,0.2-2.4,0.5c-0.8,0.3-1.4,0.8-1.8,1.4l-5.3-1l1.3-14.9h17.2v4.9H86.3
		l-0.7,7.1h0.1c0.5-0.7,1.2-1.3,2.3-1.7c1-0.5,2.1-0.7,3.4-0.7c1.7,0,3.2,0.4,4.5,1.2c1.3,0.8,2.4,1.9,3.2,3.3
		c0.8,1.4,1.2,3,1.2,4.8c0,1.9-0.4,3.6-1.3,5.1c-0.9,1.5-2.1,2.6-3.7,3.5C93.5,160.6,91.6,161,89.6,161z"/>
</g>
</svg>
