<?xml version="1.0" encoding="utf-8"?>
<!-- Generator: Adobe Illustrator 26.5.0, SVG Export Plug-In . SVG Version: 6.00 Build 0)  -->
<svg version="1.1" id="Layer_1" xmlns="http://www.w3.org/2000/svg" xmlns:xlink="http://www.w3.org/1999/xlink" x="0px" y="0px"
	 viewBox="0 0 160 190" style="enable-background:new 0 0 160 190;" xml:space="preserve">
<style type="text/css">
	.st0{fill:#D6D6D6;}
	.st1{fill:#B2B2B2;}
	.st2{fill:#FFCD2E;}
	.st3{fill:#FDDE64;}
	.st4{fill:#DCA97A;}
	.st5{fill:#D6A076;}
	.st6{fill:#F5871F;}
	.st7{fill:#9E9083;}
	.st8{fill:#F16236;}
	.st9{fill:#CB3F14;}
	.st10{fill:#685A4D;}
	.st11{fill:#FFFFFF;}
</style>
<path class="st0" d="M86.1,94.3V89h11.7v5.3c4,2.1,6.6,6.5,6.6,11.3v24.4H80.2v-20.4C80.2,104.9,82.1,96.4,86.1,94.3z"/>
<path class="st1" d="M94.5,94.3V89h3.3v5.3c4,2.1,6.6,6.5,6.6,11.3v24.4h-3.3v-24.4C101.1,100.8,98.5,96.4,94.5,94.3z"/>
<g>
	<path class="st2" d="M94.5,81.8H86V89h8.5V81.8z"/>
</g>
<g>
	<path class="st3" d="M97.8,81.8h-3.3V89h3.3V81.8z"/>
</g>
<g>
	<path class="st4" d="M42.4,82.9c-2.1,4-2,8.9-0.8,13.3c1.1,4.4,3.3,8.4,5.2,12.5c1.2,2.5,2.3,5.1,3.6,7.6c1.7,3.1,3.7,6,5.8,8.9
		c3.6,5,7.1,9.9,11.3,14.4c1.4,1.5,2.9,2.9,4.8,3.8c1.9,0.8,4.2,1,5.9,0c1.3-0.8,2.2-2.1,2.7-3.6c0.8-2.5,0.4-5.3,0-7.9
		c-0.9-5.9-3.1-12.2-6-17.7c-2.4-4.5-5.1-7.6-7.5-11.5c0,0-2.4-3.4-3.7-5.3c-1.3-2-3.7-5.2-5.9-7c-2.2-1.8-7.2-7.8-7.4-8.2
		c-0.2-0.4-0.1-1-0.1-1c-0.3-0.2-0.6-0.3-0.9-0.5c-0.3-0.1-0.7-0.3-1.1-0.4l0,0c0,0-0.4,0.1-1.4-0.2c-0.2,0-0.4,0-0.6,0
		c0,0.3-0.3,0.9-1.9,0.7C43.4,81.2,42.8,82.1,42.4,82.9z"/>
</g>
<g>
	<path class="st5" d="M71.3,110.3c-0.1-0.1-0.1-0.2-0.2-0.4c0,0.1,0,0-0.1,0c0.1,0.1,0.1,0,0.1,0.3c0.1,0,0.1,0.1,0.1,0.1
		c0,0,0,0,0,0.1c-0.1-0.1-0.2-0.3-0.3-0.5c0-0.1,0-0.1,0.1-0.1c-0.1-0.1-0.1,0-0.1,0.1c0,0.1,0,0.3,0.1,0.3c-0.1,0.2-0.1,0.1-0.2,0
		c0-0.1-0.1-0.3-0.2-0.5c0,0.1,0,0.2,0,0.3c0,0,0,0,0-0.1c0,0.2,0.1,0.5,0.2,0.6C70.9,110.2,71.2,110.7,71.3,110.3z M71.7,109.1
		C71.7,109.1,71.7,109,71.7,109.1c-0.1,0-0.1,0-0.2,0c0.1-0.1,0-0.2-0.1-0.1c0,0,0.1,0.2,0.2,0.2c0,0,0,0.1,0,0.1
		c-0.1-0.1-0.1,0-0.1,0c0,0,0-0.1,0-0.2c0-0.1-0.1-0.1-0.2,0c0-0.1,0-0.2,0-0.2c-0.1-0.1-0.1,0-0.1,0c0,0-0.1,0-0.1-0.1
		c0-0.1,0.2,0.1,0.2-0.1c-0.1,0-0.2-0.1-0.2,0c0,0-0.1-0.3-0.2-0.2c0,0,0,0.1,0,0.1c0.1,0.1,0.2,0.6,0.4,0.5c0,0.1,0,0.1,0,0.3
		c0.3,0.2,0.3,0,0.5,0c0,0,0-0.1,0-0.1C71.7,109.3,71.8,109.3,71.7,109.1z M70.7,108.7c0,0,0.1,0.2,0.1,0.4
		C70.9,109,70.8,108.7,70.7,108.7z M71.3,110.9C71.3,110.8,71.2,110.7,71.3,110.9c-0.1,0-0.1,0-0.1-0.2c0-0.1,0,0,0.1,0
		c0,0,0-0.1-0.1-0.2c-0.1,0,0,0.2,0,0.4C71.2,110.9,71.2,110.9,71.3,110.9z M70,110.2c-0.1,0,0,0.1-0.1,0.2
		C70,110.4,70.1,110.5,70,110.2z M70.2,110.1c0.1,0.2,0.1-0.1,0.1-0.2C70.2,109.9,70.3,110,70.2,110.1z M70.4,111.1
		c0.1-0.1-0.1-0.4,0-0.5c-0.1,0,0,0.2-0.1,0.3C70.4,111,70.3,111.1,70.4,111.1z M69.7,112c0-0.1,0.1-0.1,0.1-0.2c0-0.1,0,0.1-0.1,0
		C69.7,111.8,69.7,111.9,69.7,112C69.7,112,69.7,111.9,69.7,112C69.8,112.1,69.8,111.9,69.7,112z M71.6,110.7c0-0.2,0.1-0.1,0-0.4
		C71.6,110.4,71.6,110.5,71.6,110.7c-0.1-0.1-0.1-0.1-0.1-0.1C71.4,110.5,71.5,110.7,71.6,110.7z M70.3,111.6
		C70.3,111.7,70.3,111.6,70.3,111.6C70.5,111.7,70.3,111.5,70.3,111.6C70.3,111.4,70.3,111.5,70.3,111.6
		C70.3,111.6,70.3,111.6,70.3,111.6z M71,113.2c0,0.1-0.1,0.1,0,0.3c0,0,0,0,0.1,0C71.1,113.4,71,113.4,71,113.2z M70.2,109.9
		C69.9,109.8,70,109.4,70.2,109.9L70.2,109.9z M71,113c0,0-0.1-0.1-0.1-0.2c0,0,0-0.1-0.1-0.1C70.9,112.8,70.9,113.1,71,113z
		 M72,112.1c0-0.2,0,0-0.1-0.1c0,0,0.1,0.4,0.2,0.4C72,112.2,71.8,112.1,72,112.1z M71.3,108.7c0-0.1,0-0.1,0-0.2c0,0,0-0.1-0.1-0.1
		c0,0.1,0.1,0.4,0.2,0.5C71.5,108.9,71.4,108.6,71.3,108.7z M71.3,112.3c0.1,0.2,0.1,0.4,0.3,0.4c0-0.2-0.3-0.3-0.1-0.4
		C71.4,112.2,71.4,112.3,71.3,112.3z M72.1,111.8c0-0.1,0-0.4-0.2-0.5C72,111.4,72,111.7,72.1,111.8z M66.2,105.5
		C66.1,105.4,66.1,105.5,66.2,105.5c0,0-0.1,0-0.1,0c0,0,0.1,0.1,0.2,0.2C66.3,105.7,66.1,105.5,66.2,105.5z M72.4,113.1
		C72.4,113.1,72.5,113.1,72.4,113.1c0.1-0.2,0-0.1,0-0.3C72.3,112.8,72.3,112.9,72.4,113.1z M65.8,105.9c-0.2-0.1,0-0.3,0-0.3
		c-0.1-0.1-0.2-0.1-0.3,0c0,0,0,0,0-0.1C65.2,105.5,65.7,105.7,65.8,105.9C65.7,105.9,65.8,106,65.8,105.9
		C65.8,106,65.8,105.9,65.8,105.9C65.7,105.9,65.8,105.9,65.8,105.9z M72.1,114c0.1,0.1,0-0.2,0-0.3C72,113.8,72.2,114,72.1,114z
		 M65.9,105.6c0,0-0.1,0.1,0,0.2c0-0.1,0-0.1,0.1-0.1C66,105.7,66,105.7,65.9,105.6z M70,109.3c0,0.1,0.1,0.3,0,0.3
		c0.2,0.2,0-0.1,0.1-0.2C70.1,109.3,70.1,109.3,70,109.3z M65.1,106.2c-0.1,0,0.1,0.2,0.1,0.2c0,0,0.1,0,0.1,0
		c0-0.1-0.1-0.1-0.2-0.1C65.1,106.3,65.1,106.3,65.1,106.2z M64.8,106.4c0,0.1,0,0.2-0.1,0.2c0.1,0.1,0.2,0.1,0.3,0.1
		C64.9,106.6,65,106.4,64.8,106.4z M65.1,106c-0.1-0.1-0.2-0.1-0.3-0.2C64.7,105.8,65.1,106.2,65.1,106z M70.5,109
		C70.5,109.1,70.6,109.2,70.5,109c0.1,0.2,0.1,0.2,0.1,0.2c0,0.1-0.1,0-0.1,0.2c0,0,0.1,0,0.1-0.1c-0.1-0.2-0.1-0.4-0.2-0.5
		C70.4,108.8,70.7,109.2,70.5,109z M70.3,109.2c0,0.2,0.2,0,0.2,0C70.4,109,70.4,109.4,70.3,109.2z M72.3,112c0,0,0,0.2,0,0.3
		C72.4,112.3,72.3,112.1,72.3,112z M66.1,105.9c0,0.1,0.1,0.3,0.2,0.2C66.2,105.9,66.2,106,66.1,105.9z M72.3,109.9
		C72.3,109.9,72.3,109.9,72.3,109.9c0,0-0.1-0.1-0.1-0.2l0,0c0,0,0,0.1,0,0.1c0.1,0,0.1,0.2,0.1,0.3c0-0.1,0.1,0,0.1,0.1
		c0.1,0,0-0.1,0-0.2C72.3,110,72.3,110,72.3,109.9z M71.1,108.1C71.1,108,71,108,71.1,108.1C71,108,71,108.1,71.1,108.1z
		 M71.2,108.3L71.2,108.3C71.2,108.2,71.2,108.3,71.2,108.3C71.2,108.3,71.2,108.3,71.2,108.3z M70.8,107.8L70.8,107.8
		C70.8,107.7,70.8,107.7,70.8,107.8L70.8,107.8z M70.8,108.5c0,0,0-0.1,0-0.1c0,0,0,0,0.1,0C70.9,108.4,70.9,108.4,70.8,108.5
		c0.2-0.1,0.3,0,0.3,0.1c0.1,0,0-0.1-0.1-0.3c0,0.3-0.2-0.1-0.4,0C70.7,108.4,70.7,108.4,70.8,108.5z M67.5,106.7
		c0.1,0.1,0.1,0.2,0.1,0.2C67.8,107.1,67.6,106.6,67.5,106.7z M67.4,107.1c0,0.1,0,0.1-0.1,0.1c0,0,0.1,0,0.1,0.1
		C67.4,107.2,67.5,107.2,67.4,107.1z M66.9,108.3C66.9,108.2,66.8,108.3,66.9,108.3c-0.1-0.1-0.2-0.2-0.2-0.2
		C66.7,108.1,66.8,108.3,66.9,108.3z M67.2,107.4c0,0.1,0.1,0.1,0.2,0.1C67.3,107.5,67.3,107.4,67.2,107.4L67.2,107.4z M69.8,110.5
		c0.2,0.2,0.2,0.6,0.4,0.6c-0.1-0.2-0.2-0.5-0.3-0.8C69.7,110.4,69.9,110.6,69.8,110.5z M67.8,106.4c-0.1-0.1-0.1-0.2-0.2-0.4
		c0,0-0.1,0-0.1,0.1C67.6,106.2,67.7,106.4,67.8,106.4z M67.1,105.6c0,0.1,0.1,0.2,0.2,0.3C67.4,105.9,67.3,105.8,67.1,105.6
		c0.2,0.1,0.1-0.1,0.2,0.1c0,0,0-0.1,0-0.1C67.3,105.4,67.3,105.6,67.1,105.6z M67.1,106.5c0,0.1,0.1,0.2,0.2,0.3c0-0.1,0-0.2,0-0.2
		c0-0.1-0.1-0.1-0.2-0.3c0.1,0,0.1,0.1,0.2,0c0-0.1-0.1-0.1-0.1,0c0-0.1-0.1-0.2-0.2-0.3c0,0,0,0.1-0.1,0.1
		C67,106.3,67.1,106.4,67.1,106.5z M66.9,107.7C66.9,107.8,66.8,107.8,66.9,107.7c0,0.2,0,0.1,0.1,0.2
		C67,107.9,66.9,107.8,66.9,107.7z M67.8,108.7c0-0.1,0-0.1,0-0.2c0,0,0.1,0,0.1,0.1c0-0.1-0.1-0.2,0-0.2c0-0.2-0.1,0-0.2-0.1
		c0,0,0.1,0.1,0.1,0.2c0,0-0.1-0.1-0.2,0C67.7,108.5,67.8,108.6,67.8,108.7C67.7,108.7,67.8,108.6,67.8,108.7z M67,108.6
		C67.2,108.7,67.3,108.4,67,108.6L67,108.6z M67.2,107.7C67.2,107.7,67.3,107.7,67.2,107.7C67.3,107.7,67.3,107.7,67.2,107.7
		C67.3,107.8,67.3,107.8,67.2,107.7l0.1,0.1L67.2,107.7c0.1-0.1,0.1,0,0.2,0c0,0.1,0,0.1,0,0.2c0,0,0,0,0.1,0c0-0.1,0-0.2,0-0.3
		c0.1,0,0.1-0.1,0.3,0c-0.1-0.2-0.2,0-0.3,0c0,0,0-0.1-0.1-0.1C67.4,107.7,67.3,107.5,67.2,107.7C67.2,107.6,67.3,107.7,67.2,107.7z
		 M67.8,107.9C67.9,107.9,67.9,108,67.8,107.9c0,0.1,0.1,0.3,0.2,0.2c0-0.1,0-0.1-0.1,0C67.8,108,67.9,107.9,67.8,107.9
		C67.8,107.7,67.8,107.8,67.8,107.9z M67.6,107.4C67.5,107.4,67.5,107.4,67.6,107.4C67.6,107.5,67.6,107.4,67.6,107.4
		C67.6,107.4,67.7,107.4,67.6,107.4C67.6,107.3,67.6,107.3,67.6,107.4z M67.7,109.1c0-0.1-0.2,0-0.2-0.1
		C67.4,109.1,67.6,109,67.7,109.1z M67.7,107.2l0.1,0.2C67.9,107.4,67.8,107.1,67.7,107.2z M68,107.5C68,107.5,67.9,107.5,68,107.5
		L68,107.5c0,0,0,0,0,0.1C68.1,107.7,67.9,107.5,68,107.5z M66.9,107.6c0,0,0-0.1,0.1-0.1c0-0.1,0,0-0.1-0.1
		C66.8,107.4,66.9,107.5,66.9,107.6z M68.7,109.5C68.7,109.6,68.8,109.7,68.7,109.5c0,0,0-0.1,0-0.1
		C68.6,109.2,68.9,109.7,68.7,109.5z M68.8,108.6c-0.1,0.1,0.1,0.4,0.1,0.6c0,0,0-0.1,0.1,0c0,0,0-0.2-0.1-0.3c0-0.1-0.1-0.2,0-0.2
		C69,108.7,68.9,108.6,68.8,108.6z M68.8,109.2c0,0,0.1,0.1,0.1,0.1C68.9,109.2,68.8,109.2,68.8,109.2c0-0.1,0-0.1,0-0.1
		C68.6,109.1,68.8,109.2,68.8,109.2z M69.3,109.1c0.1,0.2,0.1-0.1,0.1,0.1c0-0.1-0.1-0.2-0.1-0.3C69.2,108.9,69.3,109,69.3,109.1z
		 M69.6,110.1c0-0.2-0.2-0.2-0.2-0.3C69.3,110,69.5,109.8,69.6,110.1z M70.1,107.6c0,0-0.1-0.2-0.1-0.2
		C69.9,107.5,70.1,107.7,70.1,107.6z M69.5,109.6c0.1,0-0.2-0.2-0.1-0.2c-0.1-0.1,0,0,0,0.1C69.4,109.5,69.4,109.6,69.5,109.6z
		 M69.8,109.4c0-0.1-0.1-0.3-0.2-0.4C69.6,109.1,69.7,109.2,69.8,109.4z M68.4,109.2c0,0.1,0.1,0.1,0.2,0
		C68.5,109.1,68.4,109.2,68.4,109.2z M68,109.7C67.9,109.7,67.9,109.6,68,109.7C67.9,109.7,68,109.7,68,109.7c0,0,0-0.1,0-0.2
		C67.8,109.5,68,109.6,68,109.7z M68.2,107.8c0.2,0.2,0,0.2,0.1,0.3C68.4,108.1,68.4,107.7,68.2,107.8z M68.1,108c0,0,0,0.1,0,0.1
		C68.1,108.3,68.2,108.1,68.1,108z M68.2,109.1c0,0,0-0.1,0-0.1C68.1,108.8,68.1,108.9,68.2,109.1c-0.1-0.1-0.1-0.1-0.2-0.2
		C67.9,108.9,68.1,109.1,68.2,109.1z M67.9,106.5c0,0,0,0.2,0,0.2c0,0,0.1,0,0.1,0C68.1,106.8,67.9,106.6,67.9,106.5z M68.3,109.4
		c0.1,0,0.1,0,0.2,0.1C68.4,109.4,68.3,109.4,68.3,109.4C68.3,109.4,68.3,109.4,68.3,109.4z M68.5,109.1c0,0.2,0,0.1,0.1,0.1
		C68.7,109.1,68.6,109.1,68.5,109.1z M68.5,108.5c0.1,0,0-0.2,0.1,0c0,0,0,0,0,0C68.6,108.3,68.4,108.3,68.5,108.5z M59.8,94.9
		c-0.1-0.1-0.4-0.1-0.2-0.3c-0.1-0.1-0.1,0-0.2-0.1c0.2,0.3,0.4,0.4,0.4,0.6C59.9,95,59.8,95,59.8,94.9z M56.2,94.2
		c-0.2,0,0-0.1-0.3-0.3c-0.1,0.1-0.1,0.1-0.1,0.2c0.2,0,0.2,0.1,0.3,0.2C56.2,94.3,56.2,94.2,56.2,94.2z M56.4,94.3
		C56.3,94.2,56.3,94.4,56.4,94.3c0,0.2,0,0.1,0.1,0.2C56.5,94.4,56.2,94.4,56.4,94.3z M57.8,94c0.1,0.1,0.1-0.1,0.1-0.2
		C57.9,93.8,58,94,57.8,94z M57.5,93c0,0.1,0,0.1-0.1,0c-0.1,0-0.2,0-0.2,0c0.2,0.1,0.2,0.3,0.3,0.4c0-0.2,0-0.2,0-0.4
		c0,0,0.2,0.1,0.2,0L57.5,93z M56.9,94.7C56.9,94.7,56.9,94.7,56.9,94.7C56.9,94.6,56.9,94.6,56.9,94.7c-0.1,0-0.2-0.2-0.2-0.2
		c0,0,0,0.1,0,0.2C56.8,94.7,56.8,94.6,56.9,94.7z M63.4,101.2c0.3,0.1,0.6,0.7,0.9,0.8c0-0.1,0-0.4-0.2-0.4c0.1,0,0.1,0.1,0.1,0.2
		c-0.1-0.1-0.2,0-0.3-0.2c0-0.1,0.2,0,0.2-0.2c-0.1,0-0.2,0.1-0.4,0.1c-0.1-0.2-0.1-0.2-0.2-0.4C63.4,101.1,63.5,101.1,63.4,101.2z
		 M63.8,101.8c0.1,0,0.2,0.1,0.3,0.1C64,101.9,63.9,101.8,63.8,101.8z M56.7,93.2C56.6,93.2,56.6,93.2,56.7,93.2
		c0,0.1,0,0.1,0.1,0.2C56.9,93.3,56.6,93.3,56.7,93.2z M56.7,92.5c0,0.1,0,0.1,0,0.2c0.1,0,0.1,0,0.2,0
		C56.9,92.6,56.8,92.5,56.7,92.5z M59.1,97.6c0.1,0,0.2,0.2,0.3,0.1C59.3,97.7,59.2,97.6,59.1,97.6z M59.3,96.7
		c0.1,0.1,0.1,0.2,0.1,0.3c0.1,0,0.3,0.1,0.3,0.1c-0.1-0.1-0.4-0.2-0.2-0.4C59.5,96.7,59.4,96.6,59.3,96.7
		C59.4,96.6,59.3,96.6,59.3,96.7z M57.5,95c-0.1-0.1-0.2-0.1-0.2,0C57.4,95,57.4,95.1,57.5,95z M59.5,96.4c0.1,0,0-0.1,0.1-0.1
		c0,0-0.1-0.1-0.2-0.1C59.3,96.2,59.4,96.4,59.5,96.4z M57.9,95.6c0,0,0.1,0.1,0.2,0.2c0,0,0-0.1,0-0.1C58.1,95.6,58,95.5,57.9,95.6
		z M60.1,95.6c0.1,0.1,0.1,0.1,0.2,0.2c0.1-0.1,0-0.1,0-0.2C60.2,95.5,60.1,95.6,60.1,95.6z M60.2,95.3c-0.1-0.1,0,0-0.1-0.2
		c0,0-0.1,0.1-0.1,0C59.7,95,60.2,95.5,60.2,95.3z M60.1,96.3c0,0,0,0.1-0.1,0.1c0.2,0.1,0.3,0.3,0.4,0
		C60.3,96.4,60.2,96.4,60.1,96.3z M59.8,96c-0.1-0.1-0.2,0.1-0.1,0.1C59.9,96.2,59.8,96.1,59.8,96z M43.9,85.9
		C44,86,44.1,85.9,43.9,85.9C43.9,85.8,44,85.9,43.9,85.9z M43.4,85.2c0.1,0,0.2,0,0.3,0C43.7,85.2,43.4,85.2,43.4,85.2z M43.7,81.2
		L43.7,81.2C43.6,81.1,43.6,81.2,43.7,81.2C43.6,81.2,43.6,81.2,43.7,81.2z M46.1,87.6c0,0,0.1,0,0.1,0
		C46.1,87.5,45.5,87.3,46.1,87.6z M46.1,88.1C45.9,88.2,45.6,87.8,46.1,88.1L46.1,88.1z M45,86.6C45.3,86.6,45.2,86.8,45,86.6
		L45,86.6z M46.7,88c0.1,0,0.1,0,0.2,0c0,0-0.1-0.1-0.2-0.2C46.6,87.9,46.8,88,46.7,88z M46.8,88.4c-0.2,0.1,0.8,0.6,1.1,0.5
		c0-0.1-0.3,0-0.3-0.2c-0.1,0-0.4-0.2-0.5,0C47,88.5,46.8,88.4,46.8,88.4z M67,104.9c0,0,0-0.4-0.2-0.3
		C66.9,104.7,66.9,104.8,67,104.9z M70.5,108.1C70.5,108,70.6,108.1,70.5,108.1c0.2,0,0,0,0-0.2l-0.1,0
		C70.4,108,70.4,108.1,70.5,108.1z M67.9,105.9c0.1,0.1,0.1,0.2,0.2,0.3c0,0.1,0.1,0.2,0.2,0.3c0-0.1-0.1-0.2-0.2-0.4
		c0-0.1,0.1,0,0.1,0c-0.1-0.1,0-0.2-0.1-0.3c0,0,0,0.1,0,0.1C68,106,68,105.9,67.9,105.9C68,105.9,68,105.9,67.9,105.9
		C67.9,105.7,68,105.9,67.9,105.9z M64.4,101.9c0.1,0,0.1,0.1,0.2,0C64.6,101.9,64.5,101.9,64.4,101.9z M42.9,82.9
		c-0.1,0-0.2-0.1-0.3-0.2c0-0.1,0.1-0.2,0.1-0.3c0,0.1-0.1,0.1-0.1,0.2c0,0.1,0.2,0.3,0.1,0.4C42.8,83.1,43,83.1,42.9,82.9z
		 M43.5,81.3c0,0.1-0.1,0.2,0,0.3c0.2,0,0.1-0.1,0.2-0.2C43.6,81.3,43.6,81.3,43.5,81.3C43.5,81.2,43.5,81.3,43.5,81.3z M43.1,82.4
		c-0.1-0.1-0.1,0.1-0.2,0C42.9,82.5,43.1,82.5,43.1,82.4z M43.8,81.1c0.1,0,0.1,0,0.2-0.1c-0.1,0-0.1,0-0.2-0.1l0,0
		C43.9,81.1,43.9,81.1,43.8,81.1z M48.3,80.2c0,0,0,0,0.3,0.2C48.5,80.3,48.4,80.2,48.3,80.2z M58.8,95.9L58.8,95.9
		c0-0.2-0.1-0.3-0.2-0.3C58.5,95.7,58.7,95.7,58.8,95.9z M60.9,98.2c-0.1-0.1-0.1-0.2-0.2-0.2c-0.1,0,0,0.2,0,0.3
		C60.7,98.3,60.9,98.3,60.9,98.2z M62.7,101c-0.1-0.1-0.2-0.3-0.4-0.5c0,0,0.1,0.2,0,0.2c0,0,0.1,0.1,0.2,0c-0.1,0.1,0.1,0.1,0,0.2
		c0,0,0,0,0,0C62.5,100.9,62.6,101,62.7,101z M63.5,102.4c0,0-0.1-0.1-0.1,0c0,0.1,0.1,0.2,0.2,0.3
		C63.6,102.5,63.6,102.4,63.5,102.4z M62.6,100.6c0.1,0.1,0.1,0,0.1-0.1C62.6,100.3,62.7,100.6,62.6,100.6z M61,97
		C61,97,60.9,97,61,97C60.6,97.2,60.8,97.1,61,97z M61.2,99.5c0,0,0.1,0,0.1,0c0-0.1,0-0.2-0.1-0.3c0.2,0.2,0-0.2-0.1-0.3
		c0,0.1,0.1,0.1,0.1,0.2c-0.1,0-0.2-0.1-0.3,0c0-0.1,0-0.1,0,0c0,0,0-0.1-0.1-0.1c0,0.1-0.2,0.1-0.3,0c0,0.1,0.1,0.2,0.2,0.2
		c0.1,0.1,0.1,0.1,0.1,0.3c0.1,0,0.4,0.2,0.3,0.3c0.1,0.2,0.1,0,0.2,0C61.5,99.7,61.3,99.5,61.2,99.5C61.3,99.6,61.3,99.6,61.2,99.5
		z M61.9,99.9c-0.1-0.1-0.1-0.1-0.2-0.1C61.8,99.9,61.8,100,61.9,99.9z M60.9,97.4c0-0.1-0.2-0.2-0.3-0.1
		C60.7,97.4,60.8,97.2,60.9,97.4z M62.7,99.8c0,0-0.2,0-0.1-0.1c-0.1-0.1-0.2,0-0.4,0c0,0.2,0.2,0.3,0.1,0.4c0,0,0.1,0,0.1,0
		c0-0.1,0-0.1-0.1-0.2c0.1,0,0.1,0,0.2,0c0.1,0.2,0.1,0.1,0.3,0.2C62.8,100,62.6,99.9,62.7,99.8z M63.7,104.8
		c0.3,0.1,0.3-0.3,0.5-0.2c0,0-0.1-0.1-0.2,0c-0.1,0,0,0.1,0,0.2s0,0-0.1,0c0-0.1,0-0.1-0.1-0.2c0-0.1,0-0.1,0.1-0.1
		c0,0-0.1-0.1-0.2,0c0.1,0.1,0.1,0.2,0.1,0.3c0,0-0.1,0-0.1-0.1C63.6,104.6,63.6,104.6,63.7,104.8z M63.2,102.3
		c-0.1,0-0.2,0-0.1,0.1C63.2,102.4,63.3,102.4,63.2,102.3z M63.5,103c0-0.1-0.1-0.2-0.2-0.2c0,0,0.1,0,0.1,0
		c-0.1-0.2-0.3,0.1-0.4-0.2c0,0-0.1,0-0.1,0.1c0,0-0.1,0-0.2-0.1c0,0.1,0.1,0.3,0.2,0.3c0-0.2,0.2,0.1,0.3,0c0,0.2,0.2,0.4,0,0.5
		c0,0-0.1-0.2-0.2-0.1c0,0.1,0.1,0.1,0.1,0.2C63.5,103.4,63.4,103,63.5,103z M64.6,105.8c-0.2-0.1,0,0.2,0.1,0.1
		C64.7,105.9,64.5,105.9,64.6,105.8z M63.2,100.6c0-0.1,0.2,0,0-0.3C63.2,100.4,63.2,100.5,63.2,100.6c-0.1-0.1-0.1-0.2-0.2-0.2
		c0,0,0,0.1,0,0.2C63.1,100.7,63.1,100.6,63.2,100.6c0,0.1,0,0.1,0,0.2c-0.1,0-0.1-0.2-0.2,0c0.1,0.1,0.3,0.1,0.5,0.2
		c0,0,0-0.1,0-0.1C63.4,100.7,63.3,100.8,63.2,100.6z M63.5,102.2c0-0.2-0.3-0.3-0.5-0.6c-0.1,0.1-0.2,0-0.2,0.1
		c0.2,0.1,0.3,0.5,0.5,0.5c0,0,0,0,0,0c0,0-0.1-0.1-0.1-0.2C63.2,101.9,63.4,102.2,63.5,102.2z M63,101.3c0,0-0.1-0.1-0.2-0.1
		c0,0.1,0.1,0.3,0.2,0.3c0.1,0,0.1-0.1,0.1-0.2c-0.1-0.1,0-0.1-0.1-0.2C62.9,101.1,63.1,101.2,63,101.3z M63.4,100.6
		c0.1,0.2,0.1,0,0.2,0C63.5,100.5,63.5,100.6,63.4,100.6z M59.2,95.4C59.2,95.3,59.1,95.3,59.2,95.4c-0.1-0.2-0.1-0.1-0.2,0
		C59,95.5,59.1,95.3,59.2,95.4z M66.1,106.5C66.1,106.4,66.1,106.4,66.1,106.5L66.1,106.5c0,0.1,0,0.1,0,0.2
		C66.2,106.6,66.1,106.5,66.1,106.5z M59.3,97c0,0.1-0.1,0.2-0.1,0.3c0.2-0.1,0.2,0.4,0.4,0.3c-0.2,0-0.1-0.3-0.3-0.4
		c0-0.1,0.1,0,0.1,0C59.4,97,59.4,97.1,59.3,97z M58.2,96.8c0,0-0.1-0.2,0-0.2C58.1,96.5,58.1,96.7,58.2,96.8z M59.3,94.3
		c0.1,0.1,0.2-0.1,0.3,0.1c0.1,0-0.1-0.1-0.1-0.2C59.4,94.2,59.4,94.2,59.3,94.3z M67,105.2c0.1,0.1,0.1,0.2,0.2,0.3
		c0-0.2-0.1-0.4-0.1-0.6C67,104.9,67.2,105.1,67,105.2z M61.5,99.6C61.9,99.7,61.5,99.8,61.5,99.6L61.5,99.6z M58.6,95.2
		c0,0.1,0,0.2,0.1,0.3C58.7,95.4,58.6,95.3,58.6,95.2z M58.8,94.5c0,0,0,0.1,0,0.1c0,0,0.1,0,0.1,0.1c0,0,0-0.1,0-0.1
		C58.9,94.6,58.9,94.6,58.8,94.5C58.8,94.5,58.8,94.5,58.8,94.5z M59.1,96c0-0.1-0.2-0.2-0.2-0.1C59,95.9,59,96,59.1,96z M58.8,93.9
		c0.1,0,0.1-0.2,0.2,0c0,0,0-0.1,0-0.2c0.1,0,0.2,0.1,0.3,0.2c0,0-0.1-0.2-0.1-0.2c0,0-0.1,0-0.1,0c-0.2,0.1-0.3,0.3-0.3,0.5
		c0,0.1,0.2,0.1,0.1,0c0,0,0.1,0.1,0.1,0c0,0.1,0,0.2-0.1,0.2c0,0,0,0,0.1,0c0,0,0,0.1,0.1,0.1c-0.1-0.2,0.2,0,0.1-0.1
		c0.1,0,0.1,0,0.2,0.1C59.2,94.3,59,94.2,58.8,93.9z M59.8,95.2c-0.2-0.1-0.2,0.1-0.4,0.1c0.1,0.2,0.2-0.1,0.3,0.1
		C59.8,95.3,59.8,95.2,59.8,95.2z M60.5,97.1c-0.2-0.1-0.5-0.3-0.7-0.2c0.1,0.1,0.1,0.2,0,0.2c0,0,0.1,0.1,0.1,0.2
		c0.1,0,0-0.1,0-0.2c0,0,0.1,0,0.1-0.1c0,0,0.1,0,0.1,0c0.1,0.1-0.1,0.1,0,0.2c0.1,0.1,0-0.2,0.2,0C60.5,97.3,60.4,97.2,60.5,97.1z
		 M58.4,94.5c0.1,0.1,0.1,0.1,0.2,0.2C58.7,94.7,58.4,94.6,58.4,94.5C58.4,94.3,58.5,94.5,58.4,94.5z M58.5,95c0,0-0.1-0.1-0.1-0.1
		l-0.1,0.1C58.4,94.9,58.5,95.1,58.5,95z M58.4,94.1L58.4,94.1c-0.1-0.2-0.1,0.1-0.2,0c0,0.1,0.2,0,0.3,0.1
		C58.6,94.3,58.5,94.2,58.4,94.1z M58.9,96c0,0.1,0,0.2-0.1,0.3c0.1,0,0.1-0.2,0.2-0.3C59,96,59,96.2,58.9,96z M58.3,94.6
		c0,0-0.2,0-0.1-0.2c-0.1,0-0.2,0.5,0,0.4C58,94.7,58.2,94.6,58.3,94.6z M57.9,95.3c-0.1,0-0.1-0.1-0.2-0.2c0,0,0,0-0.1,0.1
		c0.1,0.1,0.1,0.1,0.2,0.3C57.9,95.4,57.9,95.4,57.9,95.3z M52.5,91.8c0.1,0,0-0.1-0.1-0.2c0,0,0,0-0.1,0
		C52.2,91.7,52.5,91.7,52.5,91.8z M52.8,92.3c0,0,0.1,0,0.1-0.1c-0.1-0.1-0.2,0-0.3-0.1C52.6,92.1,52.8,92.2,52.8,92.3z M53.8,92.7
		c-0.1-0.1-0.1,0-0.2-0.1C53.6,92.7,53.8,92.8,53.8,92.7C53.8,92.8,53.8,92.8,53.8,92.7z M54.1,92.6C54.1,92.5,54.2,92.6,54.1,92.6
		C54.2,92.4,54,92.5,54.1,92.6C54.1,92.6,54.1,92.6,54.1,92.6z M52.1,91.8c0-0.1-0.1-0.1,0-0.2c0,0-0.1-0.1-0.2-0.1
		c0,0,0.1,0.1,0.1,0.1c-0.1,0-0.2-0.1-0.4-0.1c0,0,0.2,0.1,0.2,0.2C51.9,91.5,52,91.8,52.1,91.8z M53.6,92.2
		C53.6,92.2,53.6,92.3,53.6,92.2C53.5,92.2,53.6,92.3,53.6,92.2c0,0.1-0.1,0.1-0.1,0.1c0-0.1-0.1-0.2-0.2-0.2c0,0.1,0.3,0.2,0.4,0.3
		c0,0,0,0-0.1,0c0,0,0,0.1,0,0.1c0,0,0,0,0,0C53.7,92.5,53.5,92.3,53.6,92.2z M68.9,108.3L68.9,108.3
		C68.9,108.3,68.9,108.2,68.9,108.3z M62.7,98.2c0,0,0,0.1,0,0.2c0,0,0,0,0.1,0C62.8,98.3,62.7,98.3,62.7,98.2z M66.5,106
		c0,0,0.1,0.2,0.1,0.1c-0.1,0,0-0.2-0.1-0.3C66.4,105.8,66.6,106,66.5,106z M68.9,108.5L68.9,108.5L68.9,108.5z M54,92.9
		c0-0.1,0.1,0,0.2,0.1c0.1-0.1-0.2-0.2-0.1-0.2c-0.1,0-0.2,0-0.2,0.1c0.1,0.1,0.3,0.1,0.2,0.2c0.1,0.1,0.1,0,0.2,0.1
		C54.3,93.1,54.1,92.9,54,92.9z M56,93.3L56,93.3L56,93.3L56,93.3z M56,93.3C56,93.3,56.1,93.3,56,93.3C56.1,93.3,56.1,93.3,56,93.3
		z M70.1,108c-0.1-0.1,0,0.3-0.1,0.3c0,0,0.1,0,0,0c0.1,0,0.1,0,0.2,0.1c0,0,0.1-0.1,0.1-0.1c0,0-0.1,0-0.2,0
		C70.1,108.1,70,108,70.1,108z M68.3,108.4c0,0.1-0.1,0.1-0.2,0c0,0.1,0.1,0.2,0.1,0.3c0,0,0,0-0.1,0c0,0,0-0.1,0-0.1
		c0,0-0.1,0-0.1-0.1c-0.1,0.1,0.1,0.2,0.1,0.3c0-0.1,0.1-0.2,0.1-0.3c0.1,0.1,0.1,0,0.2,0C68.4,108.3,68.4,108.6,68.3,108.4z
		 M68,107.1c0,0-0.1,0-0.1,0c0,0,0,0.1,0,0.2c0-0.3,0.2,0.1,0.3,0.3C68.2,107.5,68.1,107.2,68,107.1C68,107,68,107.1,68,107.1z
		 M67.6,105.2c0.1,0.1,0.2,0.3,0.3,0.4c0-0.1-0.1-0.3-0.2-0.5L67.6,105.2z M69.1,107.7C69.1,107.8,69.2,107.7,69.1,107.7
		c0.1,0,0,0.1,0.1,0.2c0-0.1,0.1,0,0,0c0,0.1,0-0.1,0.1,0c0-0.2-0.2-0.6-0.4-0.6C69,107.5,69.1,107.7,69.1,107.7z M67.5,105.2
		L67.5,105.2C67.6,105.1,67.5,105.2,67.5,105.2z M67.8,105.9C67.7,105.9,67.7,105.8,67.8,105.9C67.7,105.8,67.7,105.8,67.8,105.9
		c-0.1-0.1-0.1-0.3-0.2-0.3c0.1,0,0.1,0.1,0.2,0.1c0,0,0-0.1,0-0.1c-0.1,0-0.1-0.1-0.2-0.4c0,0,0,0,0-0.1c0.1,0.3,0,0.3,0,0.5
		c0,0.1,0.1,0.1,0.1,0.1C67.5,105.5,67.7,106,67.8,105.9z M54.7,93.4c0-0.1,0,0,0-0.2C54.5,93.1,54.5,93.4,54.7,93.4z M73.3,111.6
		c-0.1-0.1-0.1-0.2-0.2-0.4l0,0c0,0.2,0,0.1,0.1,0.3C73.3,111.5,73.3,111.6,73.3,111.6z M69.8,107.9c-0.1,0-0.1,0,0,0.2
		C69.8,108.1,69.8,108,69.8,107.9z M54.6,92.9c0,0,0.1,0,0.1,0C54.6,92.8,54.5,92.8,54.6,92.9L54.6,92.9
		C54.6,92.9,54.6,92.9,54.6,92.9z M69.5,108.7c0-0.1-0.1-0.1-0.2-0.2c0.1,0,0.1,0.2,0.2,0c-0.1,0-0.2,0-0.1-0.2c0,0.1-0.1,0-0.2,0
		c0,0.1,0.1,0.2,0.2,0.3c0.1,0.1,0.2,0.2,0.2,0.4C69.6,108.8,69.6,108.8,69.5,108.7z M70.4,108.7c0-0.1-0.2,0-0.2-0.2
		c0,0,0,0.2,0.1,0.1c0,0,0,0.1,0,0.2c-0.1,0,0-0.2-0.2-0.1c0,0.1,0.1,0.1,0.2,0.3c0,0,0.1,0,0.1,0C70.3,109,70.2,108.6,70.4,108.7z
		 M47.8,87.9c0.1,0,0.1,0,0.1-0.1c0,0-0.1,0-0.1,0C47.2,87.4,47.6,87.6,47.8,87.9c-0.1-0.1-0.3-0.2-0.2,0c-0.2,0,0-0.1-0.1-0.2v0.1
		c-0.2-0.1-0.4-0.2-0.6-0.4c-0.2-0.1-0.5-0.3-0.8-0.4c0.2,0.1,0.4,0.3,0.7,0.5c0.3,0.1,0.6,0.3,0.8,0.5c0,0,0,0.1,0,0.1
		c0.1,0.2,0.4,0.2,0.6,0.2c0.1,0.1-0.1,0,0,0.1c0.1,0.1,0.1,0,0.3,0.1C48.2,88.2,48,88.1,47.8,87.9z M48,87.1
		c-0.1,0-0.3-0.1-0.5-0.2c0,0,0.1-0.1,0.2,0c0,0-0.2-0.1-0.2-0.2c-0.2,0-0.5-0.1-0.6,0c0.1,0.1,0.2,0.1,0.4,0.2c0-0.1-0.1-0.1,0-0.2
		c0.1,0.1,0.3,0.3,0.3,0.4c0.1,0.1,0.2,0,0.2-0.1C47.7,87.1,47.9,87.2,48,87.1z M48.1,87.5c0.1,0,0.3,0,0.4,0.1
		c0-0.1-0.3-0.4-0.4-0.3c0.1,0.1,0.1,0,0.2,0.1c0,0,0,0.1,0.1,0.1c-0.1,0-0.2,0-0.4-0.2C47.8,87.3,48.1,87.4,48.1,87.5z M46.7,86.4
		c-0.1,0,0,0.1,0,0.2c0,0,0.1,0,0.1,0c0,0,0-0.1,0,0C46.9,86.5,46.7,86.5,46.7,86.4z M46.5,86.4c0.1,0,0.1,0,0.2,0
		C46.7,86.3,46.5,86.3,46.5,86.4z M46.6,86.3c0,0-0.2-0.1-0.3-0.2c0,0,0,0.1,0,0c0,0,0,0,0,0c0,0,0,0.1,0,0.1
		C46.4,86.3,46.4,86.3,46.6,86.3C46.5,86.3,46.5,86.2,46.6,86.3z M46.3,85.9c0,0,0.2,0.1,0.1,0.1c0.2,0,0.4,0.2,0.5,0.1
		C46.7,86.2,46.6,86.1,46.3,85.9z M46.1,85.9c-0.1,0-0.1-0.1-0.2-0.1c0,0.1,0.1,0.3,0.2,0.3C46,86,46.2,86.1,46.1,85.9z M46.2,85.2
		c-0.1,0-0.2-0.1-0.3-0.1C45.9,85.2,46.3,85.4,46.2,85.2z M45.7,85.1c-0.3-0.1-0.6-0.2-0.8-0.6c-0.1,0-0.2-0.1-0.2,0
		C45.1,84.7,45.2,84.9,45.7,85.1C45.6,85.1,45.7,85.1,45.7,85.1C45.8,85.2,45.7,85.1,45.7,85.1z M45.1,84.2c-0.1,0-0.1,0-0.1,0
		c0.1,0,0.3,0.2,0.1,0.1c0.1,0.1,0.3,0,0.4,0.2C45.7,84.5,45,84.4,45.1,84.2z M46.4,80c-0.1,0,0.1,0.1,0.2,0.2
		C46.7,80.1,46.4,80,46.4,80z M44.6,84.2C44.6,84.3,44.5,84.2,44.6,84.2c0.1,0.1,0,0.2,0.1,0.3c0-0.1,0,0,0-0.1
		C44.6,84.3,44.7,84.3,44.6,84.2z M44.2,84c0-0.1,0.1,0,0.1,0c-0.1,0-0.1,0-0.3-0.1C44,84,44.1,84,44.2,84c-0.2,0.1-0.1,0-0.2-0.1
		c-0.1,0,0,0.1,0,0.1c0,0-0.1-0.1-0.1-0.2c-0.1-0.1-0.1,0.1-0.2,0c-0.1,0,0,0.3,0,0.5c0,0,0.1,0,0.1,0c0,0,0,0-0.1,0
		c0.1,0.1,0.1,0.2,0.4,0.4c0,0-0.1-0.1-0.2-0.2c0.3,0-0.3-0.5,0.1-0.4c0.1,0.1-0.1,0.1,0.1,0.2c0,0,0-0.1,0-0.1
		c0.2,0.2,0.5,0.4,0.9,0.7c-0.2-0.2-0.4-0.6-0.8-0.7C44.1,84.2,44.2,84.2,44.2,84c0,0,0.1,0.1,0.2,0.2C44.5,84.1,44.3,84,44.2,84z
		 M44.5,81.5C44.4,81.5,44.3,81.4,44.5,81.5C44.1,81.4,44.4,81.5,44.5,81.5C44.5,81.6,44.5,81.5,44.5,81.5z M44.4,81.2
		c0,0-0.1,0-0.1,0c0,0,0,0.1,0,0.1C44.3,81.3,44.4,81.4,44.4,81.2z M43.8,81.7c0.1,0,0.3,0.1,0.2,0.2c0.2,0,0.1-0.2,0.1-0.4
		C44.1,81.6,43.9,81.6,43.8,81.7z M43.6,82.2c0,0,0,0.1,0,0.2c0.1,0,0.1,0,0.2,0.1c0,0,0-0.1,0-0.1c0,0-0.1,0-0.1,0
		C43.6,82.3,43.6,82.3,43.6,82.2z M43.4,82.8c0,0.1,0,0.2,0.1,0.3c0,0,0-0.2,0.1-0.1c0,0,0,0,0-0.1C43.6,82.8,43.6,82.8,43.4,82.8z
		 M44.1,85.6c0.1,0.1,0.2,0.2,0.4,0.3c0,0-0.1-0.1,0-0.2c-0.2-0.1-0.2-0.2-0.3-0.2C44.1,85.5,44.2,85.6,44.1,85.6z M45.1,85.4
		c0,0,0,0.2,0.2,0.3c0.1,0.1,0.4,0.3,0.5,0.3c0-0.1-0.3-0.2-0.1-0.2c-0.1-0.1-0.2-0.1-0.4-0.3c0.1,0.1,0,0-0.1,0c-0.1,0,0.1,0,0-0.1
		C45.3,85.4,45.2,85.4,45.1,85.4C45.1,85.4,45.1,85.4,45.1,85.4z M48.9,87.9C48.9,87.8,49,87.8,48.9,87.9c0-0.2-0.2-0.3-0.3-0.3
		c0,0,0,0.1,0,0C48.6,87.7,48.8,87.8,48.9,87.9z M49.8,88.4c0-0.1-0.4-0.1-0.3-0.3c0,0-0.1,0-0.1,0c0,0,0-0.1-0.1-0.2c0,0,0,0,0,0.1
		c0,0,0-0.1-0.1-0.1C49.3,88.2,49.5,88.3,49.8,88.4z M50.1,88.8c0.2,0,0.1,0.1,0.3,0.3c0.1,0-0.3-0.3,0-0.1c0-0.1-0.3-0.2-0.3-0.3
		c0,0,0,0-0.1,0C50,88.7,50.1,88.7,50.1,88.8z M50.5,87.9c0,0,0,0.1,0,0.1c0,0,0.1,0.1,0.1,0.1C50.6,88.1,50.5,88,50.5,87.9
		c0.1,0.1,0.1,0.1,0.1,0.1C50.7,88,50.5,87.9,50.5,87.9z M50.8,89.6c0,0,0,0-0.1,0c-0.1,0,0.2,0.1,0.1,0.1
		C50.9,89.8,50.9,89.8,50.8,89.6C50.8,89.7,50.8,89.6,50.8,89.6c0-0.1,0.1-0.1,0.1-0.1c0,0-0.1-0.1-0.1-0.1c0,0,0,0,0,0
		c-0.1,0-0.1-0.1-0.2-0.1c0,0,0,0.1,0,0.1c-0.1-0.1-0.2-0.1-0.3-0.2C50.4,89.3,50.6,89.5,50.8,89.6z M51.2,89.7
		C51.1,89.7,51.1,89.7,51.2,89.7c0,0,0.1,0.1,0.2,0c-0.1,0-0.1-0.1-0.2-0.2C51.1,89.5,51,89.7,51.2,89.7z M51.3,90.6
		C51.3,90.6,51.3,90.6,51.3,90.6c-0.1-0.1-0.2,0-0.3-0.1C51,90.6,51.3,90.7,51.3,90.6z M51.6,91c0-0.1,0-0.1,0.1,0
		c0.1-0.1,0-0.2-0.2-0.3c0.1,0.2-0.1,0-0.3,0C51.2,90.8,51.5,90.9,51.6,91z M52.1,90.6c-0.1,0-0.2-0.2-0.2-0.3c0,0,0.1,0.1,0.1,0.1
		c0,0,0.1,0.1,0.1,0c0,0,0,0,0,0c0,0,0,0,0-0.1c-0.1,0-0.1,0-0.3-0.1c0,0.1,0.2,0.4-0.1,0.1c0,0.1,0.1,0.2,0.2,0.3
		C51.8,90.4,52,90.7,52.1,90.6z M51.4,90.5c0,0.1,0.2,0.1,0.3,0.2c0,0,0-0.1-0.1-0.2C51.6,90.5,51.5,90.6,51.4,90.5z M51.8,89.5
		C51.6,89.4,51.8,89.7,51.8,89.5c0,0.2,0.1,0.1,0.1,0.1C51.9,89.6,51.8,89.6,51.8,89.5z M52.8,90.7C52.9,90.6,52.8,90.6,52.8,90.7
		C52.8,90.6,52.9,90.6,52.8,90.7l-0.1-0.3C52.6,90.5,52.7,90.6,52.8,90.7z M53,91.5c0.1,0.1,0.1,0.1,0.2,0.1
		C53.2,91.6,53.2,91.5,53,91.5C53.1,91.4,53.1,91.4,53,91.5z M53.8,91.3C53.8,91.2,53.8,91.1,53.8,91.3c0.1,0,0.1,0.1,0.3,0.1
		c-0.1-0.1-0.1-0.2-0.2-0.3C53.8,91.1,53.6,91.1,53.8,91.3z M53.9,91.8c0-0.1,0,0,0.1,0c0-0.2-0.2-0.1-0.3-0.2
		C53.7,91.8,53.8,91.7,53.9,91.8z M54,91.9c-0.1-0.1-0.1,0-0.2,0C53.7,91.9,53.9,91.9,54,91.9z M53.9,92.2
		C53.9,92.1,53.9,92.1,53.9,92.2C54,92.1,53.9,92.1,53.9,92.2c0-0.2-0.1-0.2-0.2-0.2C53.7,92,53.8,92.1,53.9,92.2z M54.4,91.9
		c0,0,0-0.1,0-0.2C54.4,91.8,54.4,91.8,54.4,91.9C54.3,91.9,54.4,91.9,54.4,91.9z M54.6,92.1c0-0.1,0.5,0.2,0.4,0.4
		c0.1,0.1,0.2,0.1,0.2,0.2c0,0,0.2,0,0.1,0.1c0,0,0.1,0,0.1,0c0.1,0,0,0.1,0.1,0.2c0,0,0,0,0,0c0,0.1,0.1,0,0-0.1c0.1,0,0.1,0,0.2,0
		c0.1,0,0-0.1,0-0.2c-0.1,0,0-0.1-0.1-0.2c-0.1,0.1-0.1,0.1-0.1,0c0,0,0.1,0.2,0.1,0.2c0-0.1-0.2,0-0.3,0c0-0.1-0.1-0.2,0-0.3
		c-0.1,0-0.1,0.1-0.2,0c-0.1-0.1,0.3,0,0-0.1c0-0.1,0.2,0,0.2,0c-0.2-0.1-0.3-0.2-0.5-0.1c0,0,0-0.2,0.1-0.1c-0.1-0.2-0.3,0-0.1,0.2
		c-0.1,0-0.1-0.1-0.3-0.2C54.5,91.9,54.5,92,54.6,92.1z M54.9,92.6c0-0.1-0.1-0.1-0.2-0.1C54.6,92.5,54.9,92.7,54.9,92.6z
		 M55.5,93.3c0-0.1-0.2-0.1-0.2-0.2c0-0.1,0.2,0,0.2,0c-0.1-0.1-0.3,0-0.4-0.2c0.1,0,0.1,0,0.1,0.1c0-0.1-0.1-0.1-0.2-0.2
		c0.1,0.1,0,0-0.1,0.1C55.1,93.1,55.2,93.3,55.5,93.3z M56.1,93c0-0.2,0.2-0.2,0.3,0c0-0.2-0.2-0.2-0.5-0.5c0,0,0,0,0,0.1
		C55.8,92.5,55.8,92.8,56.1,93z M55.7,92.3c0,0-0.1,0-0.1-0.1c0,0.1,0,0.2,0.1,0.3C55.9,92.4,55.6,92.3,55.7,92.3z M56.7,92.2
		c0-0.1-0.1-0.2,0-0.2c-0.1,0-0.2-0.2-0.2-0.1c0-0.1-0.2-0.3,0-0.3c-0.2-0.2-0.3-0.2-0.5-0.4c0,0.1,0.2,0.2,0.2,0.3
		c0.1,0.1,0.1,0,0.2,0c0,0.1,0,0.2,0.1,0.3c0,0-0.1-0.1-0.1,0c0,0-0.1-0.1-0.1-0.1c-0.1-0.1,0,0.1,0,0.1c0,0-0.1,0-0.1,0.1
		c0,0-0.1-0.1-0.1-0.1c-0.1,0,0.1,0.2,0.3,0.3c-0.2-0.1,0,0,0,0.1c-0.1,0-0.1,0-0.2-0.1c0,0.1,0.2,0.4,0.3,0.5c0,0,0,0,0-0.1
		c0,0-0.1,0-0.1-0.1c0,0,0-0.1,0-0.1c0.1,0.1,0.3-0.1,0.1-0.3c0,0,0.1,0,0.2,0C56.6,92,56.5,92,56.7,92.2z M55.6,90.8
		c0,0,0.1,0.1,0.1,0.2c0,0,0.1,0,0.1,0C55.8,90.9,55.7,90.9,55.6,90.8z M56.9,92.1C56.9,92.2,57,92.1,56.9,92.1
		C56.9,92.1,57,92.1,56.9,92.1c0.1,0,0.1-0.1,0.1-0.1c0,0-0.1,0-0.1-0.1C56.8,91.9,56.9,92,56.9,92.1z M59.1,93.3
		C59.2,93.3,59.1,93.3,59.1,93.3c0,0,0.2,0.1,0.2,0c0,0.2,0.2,0.4,0.4,0.4c-0.1-0.1-0.1-0.1-0.1,0c-0.1-0.1,0-0.1,0-0.2
		c-0.1,0,0,0-0.2-0.2l-0.1,0.1c0,0-0.1-0.1,0-0.2c-0.1-0.1-0.1-0.1-0.3-0.2c0,0.2-0.2,0-0.2-0.1C58.6,92.9,59.1,93.3,59.1,93.3z
		 M59.6,93.3c0,0,0.1,0.1,0,0.1C59.6,93.4,59.6,93.2,59.6,93.3c-0.2-0.1-0.4-0.2-0.8-0.5c0,0.1,0.2,0.3,0.4,0.4
		c0.2,0.1,0.4,0.3,0.6,0.4C59.7,93.4,59.8,93.4,59.6,93.3z M60.1,94.2c0,0,0.1,0,0.1,0c0-0.1-0.2-0.1-0.3-0.2
		C59.9,94,60.1,94.1,60.1,94.2z M60.3,94.8C60.4,94.8,60.4,94.8,60.3,94.8C60.5,94.7,60.4,94.7,60.3,94.8L60.3,94.8
		C60.3,94.9,60.3,94.9,60.3,94.8z M61.2,96.7c0.1,0,0.3,0,0.3,0c0.1,0.1,0-0.1,0.1-0.2c-0.1-0.1-0.1,0-0.2-0.2c-0.1,0.1-0.3,0-0.5,0
		C60.9,96.6,61.2,96.5,61.2,96.7z M61.8,96.3c-0.1-0.1-0.1-0.1-0.2-0.2c0,0,0,0.1,0,0.2C61.7,96.4,61.7,96.4,61.8,96.3z M61.9,96.1
		c-0.1-0.1-0.2-0.2-0.3-0.1c0,0.1,0.2,0.1,0.1,0.2C61.8,96.2,61.9,96.1,61.9,96.1z M61.7,96.7c0,0,0.1,0.1,0.1,0.1
		c0.1,0.1,0-0.1,0-0.1c-0.1-0.1-0.1-0.2-0.2-0.2C61.6,96.6,61.7,96.7,61.7,96.7z M61.6,97.3c0.1,0.1,0.2,0,0.3,0.1
		c0.1,0.2,0,0.3,0,0.4c0,0.1,0.1,0.1,0.2,0.2c0.1,0,0-0.1,0.1-0.1c0-0.1-0.1-0.1-0.1,0c-0.1-0.1,0.1-0.2,0.1-0.4
		C62,97.2,61.7,97.1,61.6,97.3z M61.6,97.8c-0.1,0-0.2,0-0.3,0c0.1,0.1,0.1,0.3,0,0.3c0.2,0,0.4,0.1,0.7,0.3l0.1-0.1
		c-0.1-0.1-0.3-0.2-0.4-0.2c0,0,0-0.2-0.1-0.2c0.2,0,0.5,0.3,0.5,0.1C61.9,98,61.8,98,61.6,97.8z M61.3,98.6c0.1,0,0-0.1,0-0.1
		c0,0-0.1,0-0.2-0.1c0,0,0,0-0.1,0C61,98.4,61.2,98.5,61.3,98.6z M61.7,98.9c0,0-0.1-0.1-0.2-0.1C61.5,98.9,61.6,99,61.7,98.9z
		 M62.1,98.7c0.1-0.2,0,0,0.1,0.2c0,0,0,0,0.1,0c0.1,0.1,0,0.2,0.2,0.3c0,0,0-0.1,0-0.2c-0.2-0.1-0.3-0.5-0.5-0.4L62.1,98.7z
		 M63.1,99.4c0-0.1,0.1,0,0.2-0.1c-0.1-0.2-0.4-0.3-0.6-0.7c0,0,0,0-0.1,0c-0.1,0,0.1,0.1,0,0.1c0,0,0-0.1,0-0.1c0.1,0,0.2,0,0.2,0
		c0.1,0.1,0.2,0.3,0.3,0.3c0,0.2,0.1,0.2,0.3,0.5c0-0.2-0.1-0.4-0.2-0.5l0.1,0c0.1,0.1,0,0.1,0.1,0.2c0,0,0.1-0.1,0-0.1
		c0,0,0,0,0.1,0c0.1,0.1,0,0.2,0.2,0.3c0-0.1,0.1-0.2,0-0.4c0,0,0,0.1,0,0.1c-0.1,0-0.1-0.1-0.2-0.2c-0.2,0-0.3-0.1-0.5-0.1
		c0-0.1,0-0.1,0-0.2c0,0,0,0.1,0,0.1c0,0,0,0,0-0.1c0,0,0-0.1,0-0.1c-0.1-0.2-0.3-0.2-0.4-0.5c0,0,0,0,0,0.1c-0.1,0-0.1,0-0.1,0.1
		c0,0,0.2,0.1,0.2,0.2c-0.1,0-0.2,0.2-0.1,0.3c-0.1,0-0.2-0.1-0.3-0.2c0.1,0.3,0.5,0.7,0.9,0.7c0,0,0,0,0.1,0.1c0,0-0.1,0-0.1,0
		C62.9,99.2,63,99.3,63.1,99.4z M63.4,99.5c0-0.1-0.1-0.2-0.2-0.1C63.3,99.4,63.4,99.5,63.4,99.5z M63.5,99.4c0.1,0.1,0.1-0.2,0-0.2
		C63.4,99.3,63.5,99.4,63.5,99.4z M63.9,99.4c0.1,0.1,0,0.1,0.1,0.2c0.1,0,0.2,0.1,0.2,0C64.3,99.5,63.9,99.5,63.9,99.4
		c0,0,0,0-0.1-0.2c-0.2,0.2-0.3-0.3-0.5-0.2c0,0.2,0.2,0.3,0.3,0.4C63.8,99.4,63.8,99.4,63.9,99.4z M64.1,100.1c0,0-0.1-0.1,0-0.1
		c0,0-0.1-0.2-0.2-0.1C64,100,64,100.1,64.1,100.1z M63.5,98.2c0,0.1,0.1,0.2,0.2,0.3C63.7,98.4,63.5,98.4,63.5,98.2z M63.4,97.9
		c0.1,0.2,0.1,0,0.2,0.1C63.6,97.9,63.4,97.8,63.4,97.9z M63.3,98C63.3,98,63.2,98,63.3,98c0,0-0.1,0-0.2-0.1c0,0.1,0.1,0.1,0.1,0.2
		C63.3,98.1,63.2,98,63.3,98C63.3,98,63.3,98,63.3,98z M63.4,97.6c-0.2-0.1-0.1-0.2-0.3-0.3c-0.1,0,0,0.1,0,0.2c0,0-0.1-0.1-0.2-0.2
		c0,0.2-0.2,0.1-0.4-0.1c0,0,0,0.2,0.1,0.2c0,0.1-0.1-0.1-0.1,0c0.1,0.2,0.2,0.1,0.3,0.2c0,0,0-0.1,0-0.2c0.1,0,0.1,0.1,0.1,0.2
		c0.1,0,0.2-0.1,0.3,0.1c0.1,0,0-0.2,0.1,0C63.4,97.7,63.3,97.7,63.4,97.6z M62.6,96.7c0,0.1-0.2-0.2-0.3-0.1
		c0.1,0.2,0.1,0.1,0.2,0.3c0-0.1,0.2,0,0.1,0c0.1,0.1,0-0.1,0.1-0.1C62.6,96.8,62.7,96.8,62.6,96.7z M62.1,97.1
		c0.1,0,0.2,0.2,0.3,0.2c0,0-0.1-0.1,0-0.2c-0.1-0.1-0.2-0.2-0.3-0.3C62,97,62.2,97.1,62.1,97.1z M61.2,95.8c-0.1,0,0,0.1-0.1,0.1
		C61.2,96,61.3,95.9,61.2,95.8z M64.5,101.4c0-0.1,0-0.2,0-0.3c-0.1,0,0,0.2-0.1,0.1C64.3,101.2,64.5,101.2,64.5,101.4z M64.7,100.9
		c0-0.1-0.1,0-0.1-0.1C64.5,100.8,64.7,100.9,64.7,100.9C64.7,100.9,64.7,100.9,64.7,100.9z M64.9,100.8c0,0,0-0.1-0.1-0.1
		C64.6,100.7,64.7,100.7,64.9,100.8C64.9,100.8,64.9,100.8,64.9,100.8z M64.8,101.6C64.9,101.7,64.9,101.5,64.8,101.6
		c0-0.1-0.1-0.3-0.2-0.2C64.7,101.5,64.9,101.4,64.8,101.6z M65.2,100.9c0,0,0.1,0,0.1,0c0-0.1-0.2-0.1-0.1-0.2
		C65.1,100.7,65.1,100.8,65.2,100.9z M65,101.8c0,0,0,0,0.1,0.1c0,0,0,0,0-0.1C65.1,101.8,65.1,101.7,65,101.8
		C65,101.7,65,101.7,65,101.8C65,101.8,65,101.8,65,101.8z M65.1,103c0.2,0.2,0.2,0.2,0.4,0.4c0,0.1,0,0.2,0.1,0.4
		c0,0,0-0.3,0.2-0.1c0-0.1-0.1-0.3-0.2-0.2c0,0,0-0.1,0-0.1l-0.1,0c0,0,0-0.1,0-0.1c0,0,0,0-0.1,0c-0.1-0.2-0.2-0.2-0.2-0.4
		C65.2,103,65.1,102.9,65.1,103z M64.9,103.4c0,0.1-0.1,0.1-0.1,0.2c0.2,0.1,0.1-0.2,0.3,0C65,103.4,64.9,103.5,64.9,103.4z
		 M64.5,104.2c0,0-0.1,0,0,0.1C64.5,104.3,64.4,104.3,64.5,104.2c-0.1,0.1,0,0.2,0.1,0.1C64.6,104.3,64.6,104.2,64.5,104.2z
		 M64.9,104.4c-0.2-0.2-0.2,0.3,0,0.3C64.9,104.6,64.8,104.4,64.9,104.4z M64.7,105.1c0.1,0-0.1-0.2,0-0.2c0,0.2,0.1,0.3,0.2,0.6
		c0.1,0,0.3,0,0.1-0.1c-0.1,0,0,0.1-0.1,0c0-0.1,0-0.1,0-0.2c0,0,0.1,0,0.2,0c0,0,0,0.1,0,0.1c0,0,0-0.1,0.1-0.1
		c0,0-0.1-0.2-0.1-0.2c-0.1,0-0.6-0.1-0.5-0.3c0,0-0.1,0-0.2,0c0-0.1,0.1-0.1,0.1-0.1c-0.1-0.1-0.2-0.1-0.3-0.1
		C64.4,104.7,64.5,105,64.7,105.1z M65.6,104.3c0,0.1,0,0.2,0,0.2C65.8,104.6,65.6,104.4,65.6,104.3c0-0.1-0.1-0.2-0.2-0.2
		C65.6,104.1,65.6,104.2,65.6,104.3z M65.7,105.1c0-0.1,0-0.2-0.1-0.2C65.6,105,65.6,105.2,65.7,105.1z M66,104.4
		c0.1,0.1,0.1,0.3,0.2,0.2C66.2,104.5,66.2,104.5,66,104.4c0.1,0,0.1-0.1,0.1-0.2c0.1,0,0.1,0,0.2,0c0,0,0-0.1,0-0.1
		c-0.1,0-0.1-0.2-0.1,0c-0.1-0.1-0.1-0.2-0.2-0.2c0,0,0,0.1,0,0.2c0,0,0.1,0,0.1,0.1c0,0.1-0.1,0-0.1,0
		C66.1,104.2,66,104.2,66,104.4z M66.1,105C66.1,104.9,66.2,104.8,66.1,105c0.2,0,0-0.1,0.1-0.2c0,0,0,0,0,0c0,0-0.1,0-0.2-0.1
		C65.8,104.7,66,104.8,66.1,105z M66.5,105.1c0-0.1,0-0.2-0.1-0.3C66.3,104.8,66.5,105,66.5,105.1z M66.5,103
		c-0.1,0.1-0.1-0.1-0.2,0c0,0,0.1,0.1,0,0.1c0,0.1,0.1,0,0.1,0c0,0.1,0.1,0.1,0,0.2C66.7,103.3,66.6,103.1,66.5,103z M66.1,102.7
		c0.1,0.1,0.2,0.2,0.4,0.2C66.3,102.7,66.3,102.6,66.1,102.7z M65.9,104c0,0-0.1-0.1-0.1,0C65.8,104,65.8,103.9,65.9,104
		C65.9,104,65.8,104,65.9,104C65.9,104.1,65.8,104,65.9,104z M66.3,103.4C66.2,103.3,66.2,103.4,66.3,103.4
		C66.2,103.3,66.2,103.3,66.3,103.4c-0.1-0.1-0.1-0.1-0.1-0.1l0,0C66.2,103.4,66.3,103.5,66.3,103.4z M66.2,103.6
		C66.2,103.8,66.4,103.7,66.2,103.6C66.2,103.5,66.3,103.5,66.2,103.6z M65.6,103.3c0.1,0.2,0.2,0.1,0.3,0.3c0,0.1-0.1-0.2-0.2,0
		c0,0.1,0.1,0.1,0.1,0.2c0.1,0,0-0.2,0.1-0.3c-0.1-0.2-0.1,0-0.1-0.2C65.8,103.3,65.7,103.2,65.6,103.3z M65.5,103.1
		C65.5,103.1,65.5,103.1,65.5,103.1c0.1,0,0,0,0.1,0.1c0,0,0.1-0.1,0.1-0.2C65.6,102.8,65.5,103,65.5,103.1z M65.8,102.2
		c0.1,0.1,0,0.1,0.2,0.2C66.1,102.4,65.9,102.2,65.8,102.2z M64.8,102.4c-0.1,0.1,0.1,0.1,0.1,0.2c0,0,0.1,0,0.1,0
		C65,102.5,64.9,102.5,64.8,102.4z M64.2,103.1c-0.1-0.1,0,0-0.2,0c0.1,0.1,0,0.1,0.1,0.3C64.2,103.3,64.1,103.2,64.2,103.1z
		 M67.5,103.3c0,0,0.1,0,0.1,0c-0.1,0-0.3-0.4-0.4-0.4C67.3,102.9,67.4,103.1,67.5,103.3z M67.9,104.2
		C67.9,104.2,67.8,104.2,67.9,104.2C67.8,104.2,67.9,104.2,67.9,104.2z M67.7,104.5c0,0.1,0.1,0.3,0.2,0.4c0-0.1,0.1-0.2,0-0.3
		C67.9,104.9,67.9,104.7,67.7,104.5z M68.1,105.3c0-0.1,0-0.2-0.1-0.2c0-0.1,0.1-0.1,0.1-0.1c0-0.2-0.1-0.2-0.2-0.4
		c0,0.1,0.1,0.1,0.2,0.3c0,0.1-0.1-0.1-0.1,0C68,105,68,105.1,68.1,105.3z M68.6,105.9C68.6,105.9,68.6,105.8,68.6,105.9
		c0.1-0.1,0-0.2,0-0.2c-0.1,0.1-0.1-0.3-0.3-0.3C68.4,105.6,68.4,105.7,68.6,105.9z M68.8,106.2c0-0.1-0.1-0.1,0-0.2
		C68.5,105.8,68.6,106.3,68.8,106.2z M68.5,106.2c0.1,0.2,0.1,0.3,0.2,0.4C68.8,106.5,68.6,106.2,68.5,106.2z M69.2,107
		c0-0.2-0.3-0.4-0.4-0.7C68.8,106.5,69.1,106.9,69.2,107z M69.5,106.8C69.5,106.8,69.5,106.8,69.5,106.8L69.5,106.8v-0.2
		C69.4,106.6,69.5,106.7,69.5,106.8z M69.2,107.4c0.1,0.1,0.2,0,0.2,0.1c0,0,0-0.1,0-0.2c0-0.1-0.1-0.1-0.2-0.2c0,0,0,0.1,0,0.1
		c-0.1,0-0.1,0-0.2-0.1C69.2,107.3,69.3,107.4,69.2,107.4z M69.8,107.1c0-0.1-0.1,0-0.1-0.2c0,0-0.1,0.1-0.1,0.1
		C69.7,107.2,69.7,107,69.8,107.1z M69.6,106.8c0,0.1-0.1,0-0.1,0.2C69.6,107,69.7,107,69.6,106.8z M68.9,105.7c0,0,0,0.1,0,0.2
		c0,0,0.1,0.1,0.2,0.1C69.1,105.8,69,105.8,68.9,105.7z M68.6,104.9c0,0,0,0.2,0,0.3c0-0.1,0.1,0.2,0.2,0.1
		C68.7,105.1,68.7,105.2,68.6,104.9z M68.3,104.3c0-0.1,0-0.1,0-0.2c0,0.1,0,0.3,0.1,0.4C68.4,104.5,68.4,104.3,68.3,104.3z
		 M68.1,104.3c0.1,0.1,0.1,0.1,0.1,0.2C68.3,104.6,68.2,104.2,68.1,104.3z M68.3,107c0,0,0.1,0.4,0.2,0.4
		C68.4,107.2,68.3,107.1,68.3,107z M49.4,89.2c0,0,0-0.1,0-0.1c0.1,0,0.2,0.2,0.2,0.1c-0.1,0,0-0.1-0.1-0.2c-0.1-0.1-0.1,0-0.2-0.1
		c0,0.1-0.2,0-0.2,0c0,0,0.1,0,0.1,0c-0.1,0,0,0.1-0.1,0c0-0.1-0.1-0.1-0.1-0.2c-0.2-0.1-0.5-0.2-0.7-0.3c0.1,0,0.2,0.1,0.2,0.2
		c0,0-0.2-0.1-0.2-0.1c0.2,0.1,0.4,0.3,0.5,0.4c-0.1,0-0.4-0.1-0.6-0.3c-0.2-0.1-0.3-0.3-0.2-0.3c-0.3-0.3-0.7-0.4-1.1-0.6
		c-0.2-0.2-0.7-0.4-1-0.6c-0.2-0.1-0.3-0.3-0.5-0.6c-0.1-0.1-0.2-0.1-0.3-0.2c-0.1-0.1-0.2-0.1-0.2-0.2c-0.1,0-0.6-0.3-0.8-0.5
		c0-0.3-0.1-1-0.7-1.3c0-0.1-0.1-0.3-0.1-0.5c-0.1,0-0.2-0.1-0.3-0.2c0-0.2,0.5-0.1,0.3-0.4c0.2,0.1,0.6,0,0.4-0.1c0,0-0.1,0-0.2,0
		c0.1-0.1,0-0.2,0-0.3c0,0,0,0,0,0c0,0,0,0.1,0.1,0.1c-0.1,0.1-0.2,0-0.3,0c0.1,0,0.1-0.2,0-0.3c0.2,0.1,0.3,0,0.2-0.1
		c0.1,0.1,0.2,0,0.2,0c0,0,0-0.1-0.1-0.2c-0.1,0-0.3,0-0.3-0.1c0.2,0,0-0.2,0-0.3c0,0-0.1,0-0.1,0c0,0,0-0.1,0-0.2c0,0,0,0,0,0l0,0
		c0,0.2,0.1,0,0.2,0c0,0.1,0.4,0.3,0.3,0.5c0,0,0,0,0,0c-0.2-0.2,0.2-0.3-0.2-0.5c0.4,0,0-0.4,0.3-0.4c0,0.1-0.1,0.2,0,0.3
		c0-0.1,0-0.2,0.1-0.2c-0.1,0-0.1,0.1,0,0.2c0.1-0.1,0-0.3,0.1-0.4c-0.2,0-0.1,0-0.1-0.1c0,0-0.1,0-0.1,0c0,0,0.1-0.1,0.1-0.1
		c0.1,0,0.1,0.1,0.2,0.1c0-0.1,0-0.2,0-0.2c0,0,0.1-0.1,0.2-0.1c1-0.7,2.4-0.8,3.6-0.5c0,0,0,0,0.1,0l0,0h0c0,0,0,0.1,0,0.2
		c0.3,0.2,0.6,0.4,0.8,0.4c0,0.1,0.3,0.2,0.4,0.2c-0.2,0,0.1,0.1,0.1,0c0.1,0.2,0.3,0.3,0.5,0.1c0,0,0,0.1,0,0.1c0.1,0,0.1,0,0.2,0
		c1.1,0.7,2.1,1.6,3,2.6c5.3,5.5,10,11.7,13.9,18.4c0.1,0.2,0.3,0.5,0.4,0.7c0,0.1,0.1,0.3,0.2,0.3c0,0,0,0,0,0
		c0.7,1.1,1.4,2.2,2.2,3.3c0,0,0,0,0,0.1l0,0c0.2,0.2,0.3,0.5,0.5,0.8c0,0-0.1,0-0.2,0c0,0.1,0.2,0.2,0,0.2c0.1,0.1,0.2,0.3,0.3,0.5
		c0.1,0,0-0.1,0-0.2c0,0-0.1,0-0.1,0c0-0.2,0.1,0.1,0.2,0c-0.1-0.1-0.2-0.2-0.3-0.2c0-0.1,0.1,0,0.2,0c0,0,0,0,0,0
		c0,0,0.1,0.1,0.1,0.2c0,0.1,0,0.2,0,0.1c0.1,0,0,0.1,0.1,0.2c0,0,0.1,0,0.1,0c0,0.1,0.1,0.2,0,0.2c-0.1-0.1,0,0.1,0,0.1
		c-0.1-0.1,0-0.1-0.2-0.1c0-0.2-0.2-0.1-0.3-0.3c0,0-0.1,0-0.1,0.1c0.1,0,0.1,0.1,0.1,0.2c0-0.1,0.1,0,0.1,0.1c-0.1,0,0,0,0,0.1
		c0,0.1,0.1,0.2,0,0.2c-0.1-0.2-0.3-0.6-0.4-0.7c0,0.1,0.1,0,0.1,0c-0.2-0.1,0.1,0,0.1-0.2c-0.1,0-0.1,0-0.2,0c0-0.1,0-0.3-0.1-0.2
		c-0.1-0.1,0-0.1,0-0.2c0,0-0.1-0.2-0.1-0.2c0,0.1,0,0.5-0.1,0.3c0,0,0.1-0.1,0-0.2c0,0-0.1,0-0.1,0c0,0.1,0,0,0.1,0.1
		c0,0.2-0.2-0.2-0.2,0c0.1,0.1,0.2,0.2,0.3,0.4c0,0-0.1,0,0,0.1c-0.2,0-0.2-0.1-0.3,0.1c0,0,0.1,0,0,0.1c0-0.1,0,0-0.1,0
		c0-0.1-0.3-0.3-0.2-0.4c0,0,0,0.2,0.1,0.2c0-0.2-0.3-0.2-0.4-0.5c0,0,0,0.1,0.1,0.1c-0.1,0-0.1-0.1-0.2-0.1
		c0.1,0.2,0.1,0.5,0.2,0.6c0.2,0.5-0.1-0.1-0.2-0.3c0,0,0-0.1,0-0.1c0,0-0.1,0-0.1,0c0.1,0.2,0.2,0.3,0.2,0.5c0-0.4-0.1,0.1-0.2-0.1
		c0-0.1-0.2-0.5-0.2-0.5c0,0.2,0.1,0.3,0.2,0.5s0.1,0.2,0.2,0.4c0,0,0,0.2,0,0.2c-0.1-0.2-0.1-0.2-0.2-0.3c0.1-0.1-0.2-0.3-0.3-0.3
		c0.1,0,0.1,0,0.2,0c-0.1-0.2-0.3-0.2-0.5-0.5c0-0.1,0.1,0.1,0.2,0c-0.1-0.3-0.2-0.3-0.2-0.2c0-0.1,0-0.2,0-0.4
		c-0.1,0-0.1-0.2-0.1-0.3c0,0,0,0,0,0c0-0.1-0.2-0.2-0.1-0.2c0,0.1,0,0,0,0c0.1,0,0.1,0,0.1,0c0,0,0,0,0,0c0,0,0,0,0,0.1
		c0,0.1-0.2,0.1-0.2,0.1c0,0,0.2,0,0.2,0.2c0,0,0-0.1,0-0.1c0.1,0.4,0.2-0.2,0.2,0.1c-0.1,0,0,0.5,0.1,0.5c0-0.1,0-0.2,0.1,0
		c0,0-0.1-0.1-0.1,0c0.1,0,0.1,0.2,0.2,0.3h0c0-0.1-0.1-0.1-0.1-0.3c0.1,0,0.2,0.2,0.3,0c-0.1,0-0.1,0-0.1-0.2c0,0-0.1,0-0.2,0
		c0-0.1-0.1-0.1-0.2-0.3c0.1,0,0-0.1,0-0.1c0,0.3,0,0,0.1,0c0.1,0.2,0.2,0.3,0.4,0.6c0-0.2-0.2-0.3-0.1-0.3c-0.1-0.1-0.1,0.1-0.1,0
		c0.1-0.2-0.3-0.2-0.2-0.4c-0.1-0.1-0.1-0.1-0.1,0c0-0.1-0.1-0.1-0.1-0.2c0,0,0.1,0.1,0.1,0c0-0.1-0.1-0.2-0.2-0.3
		c0.1,0,0-0.1,0.1-0.1c0.1,0.2,0,0.2,0.1,0.3c0.1,0,0-0.2,0.1,0c-0.1-0.3-0.2-0.2-0.2-0.5c0,0-0.1,0-0.1,0c0-0.2-0.1-0.4-0.3-0.6
		c0,0.2,0.1,0.3,0.2,0.4c0,0-0.1,0-0.1,0c0,0.2,0.2,0.2,0.2,0.3c-0.1,0-0.1-0.2-0.3-0.3c0.1,0,0-0.1,0-0.2c-0.1,0-0.2-0.3-0.3-0.4
		c0,0,0.1,0,0.1,0c-0.1-0.1-0.1,0-0.2-0.1c0,0,0,0.1,0,0.1c-0.1,0-0.2,0-0.3-0.1c0.1,0,0.3,0,0.4-0.1c0.1,0,0,0.1,0.1,0.1
		c0-0.1-0.1-0.2-0.1-0.4c0,0,0,0,0.1,0c0-0.1,0-0.1,0-0.2c-0.2-0.2,0-0.3-0.2-0.2c0,0.1,0.1,0.3,0,0.1c0,0-0.1-0.2-0.2-0.1
		c0,0.1,0.1,0.1,0.1,0.2c0,0,0.1,0.1,0.1,0.1c0,0.1-0.1-0.1-0.2-0.1c0,0.1,0.1,0.1,0,0.1c0,0,0,0,0-0.1c0,0,0,0-0.1,0l0.1,0.2
		c-0.1,0-0.1-0.2-0.1-0.3c-0.1-0.1-0.3-0.3-0.4-0.5c0.1-0.2,0.3,0.2,0.4,0.2c0,0.1,0,0.2,0.1,0.3c0,0,0.1,0,0.1,0
		c-0.1-0.2-0.1-0.3-0.2-0.4c0.1,0.1,0-0.2,0-0.2c-0.1,0,0.1,0.3,0,0.1c-0.1-0.2-0.2-0.2-0.3-0.2c0.1,0.1,0,0.2,0,0.1
		c0.1-0.1,0,0-0.1-0.1c0.1-0.1,0.2,0,0.1-0.1c-0.1-0.1-0.2,0.1-0.3,0.1c0.1,0.1,0.1,0,0.2,0.2c-0.1,0-0.1,0-0.1,0.1
		c0.2,0.1,0.1,0.3,0.2,0.4c0,0,0,0,0.1,0c0,0.1,0.1,0.3,0.2,0.4c-0.1,0-0.2-0.2-0.3-0.2c0,0.1,0.2,0.4,0.2,0.4
		c-0.2-0.1-0.5-0.5-0.6-0.6c0,0,0,0-0.1,0c0,0.1,0.1,0.2,0.1,0.3c0,0-0.1-0.2-0.1-0.1c0,0,0,0,0,0c0,0.1-0.1,0.1,0.1,0.3
		c0,0,0.1-0.1,0.1,0c0,0.1-0.1,0-0.1,0.1c0.1,0,0.3,0.5,0.3,0.2c0,0,0,0,0,0.1c0,0,0,0,0,0c-0.1,0,0,0.3-0.1,0.1
		c-0.1-0.2-0.2-0.4-0.4-0.4c0,0,0,0.1,0,0.1c0.1,0,0,0.2,0.1,0.2c-0.1,0-0.1,0.1-0.2,0c0,0,0-0.1,0-0.1c0,0-0.1-0.1-0.2-0.1
		c0.1,0.2,0,0-0.1,0c0,0.1,0.1,0.1,0.1,0.2c-0.1,0,0,0.1-0.1,0.2c-0.1-0.1-0.2-0.1-0.2,0c-0.1-0.1-0.1-0.2-0.2-0.2c0,0,0,0.1,0,0.1
		c-0.1,0-0.1-0.1-0.1,0c-0.1-0.1-0.2-0.5-0.4-0.4c0.1,0,0,0.1,0,0.2c0,0.1,0.1,0,0.1,0.2c-0.2,0-0.1,0.2-0.1,0.3
		c-0.1,0-0.1,0-0.1,0.1c-0.1,0-0.1-0.1-0.2-0.1c0,0.1,0.1,0.1,0,0.2c-0.1-0.2-0.2-0.4-0.3-0.5c-0.1-0.1-0.2-0.3-0.4-0.5
		c0-0.1,0-0.3-0.1-0.3c0,0,0,0,0-0.1c0,0,0.1,0,0.1,0c0-0.1-0.1-0.1-0.1-0.3c0.1-0.1,0.1,0.1,0.2,0.1c0-0.1-0.1-0.2,0-0.2
		c0.1,0.2,0.2,0.3,0.3,0.2c0-0.1,0-0.1,0-0.2c0,0-0.1,0-0.1,0.1c-0.1-0.1,0.1-0.1,0-0.2c-0.1,0,0,0.2-0.1,0.1
		c-0.1-0.1,0.1-0.1,0-0.2c0,0,0,0-0.1,0c0,0.1,0,0.1-0.1,0.2c-0.1-0.2,0.1,0,0-0.1c0,0-0.1,0-0.1,0c0,0.1,0.1,0.3,0.2,0.3
		c0,0-0.1,0-0.2,0c0,0,0-0.1,0-0.1c0,0-0.1-0.2-0.1-0.1c0,0.1,0,0.1-0.1,0c0,0.1,0,0.2-0.1,0.3c0.1,0,0,0,0.1-0.1
		c0.1,0.1,0,0.1,0.1,0.2c0,0,0,0.1-0.1,0.2c-0.3-0.3,0-0.5-0.2-0.9c0.1,0,0.1-0.1,0.1-0.2c0,0.1,0.2,0.2,0.2,0c0-0.1-0.1,0-0.1-0.1
		c0,0,0,0,0-0.1c0.1,0,0.2,0.1,0.3,0c-0.1-0.1,0-0.1-0.2-0.3c0,0,0.1,0,0.2,0c-0.1,0-0.2-0.2-0.3-0.2c0-0.1-0.3-0.4-0.5-0.6
		c0.2,0,0.3,0.2,0.5,0.4c0.1,0.2,0.3,0.3,0.4,0.2c0,0,0.1,0.1,0.1,0.1c0,0,0-0.1,0-0.1c0-0.1-0.2,0-0.1-0.1c0.1,0,0.4,0.2,0.4,0.4
		c0,0-0.1-0.1-0.2-0.1c0,0.1,0,0.2,0,0.2c0,0-0.1-0.1-0.2,0c0,0,0.1,0,0.1,0.1c0,0-0.2-0.2-0.2-0.1c0.2,0.1,0.2,0.5,0.4,0.6
		c0-0.1,0.1-0.1,0.1-0.2c-0.1,0,0-0.3-0.2-0.3c0,0,0-0.1,0.1-0.1c0.1,0,0,0.2,0.1,0.1l0.1,0c-0.2-0.1,0.1-0.2-0.1-0.3
		c0.1,0,0.1,0,0-0.1c0.1-0.1,0.2,0,0.3-0.1c0,0.2,0.3,0.2,0.3,0.4c0.1,0,0-0.1,0.1-0.2c0,0,0.1,0.1,0.1,0.1c-0.1-0.1,0.1-0.1,0-0.2
		c-0.1-0.2-0.1,0.1-0.2,0c0,0,0.1,0,0-0.1c-0.1,0-0.1,0.1-0.2,0.2c0-0.2-0.2-0.3-0.3-0.4c0,0,0.1,0,0.1,0c-0.1-0.1,0-0.2,0-0.2
		c0,0,0,0-0.1,0c0,0.2-0.1,0.1-0.3,0c0,0.1,0.1,0.1,0.1,0.1c-0.1,0-0.1-0.1-0.2-0.1l0.1-0.1c0.1,0,0,0.2,0.2,0.1
		c-0.1-0.3-0.4-0.3-0.4-0.5c0,0-0.1,0-0.2,0c0.1,0.1,0.2,0.1,0.3,0.3c0,0-0.1,0.2-0.1,0c0.1-0.1-0.2-0.2-0.2-0.2c0,0,0,0.2-0.1,0.1
		c0,0,0,0,0-0.1c-0.1,0.1,0-0.1-0.2-0.1c0.1,0,0-0.1-0.1-0.1c0.1-0.1,0.2,0.1,0.3,0.1c0-0.1,0-0.2,0-0.2c0,0,0,0-0.1,0
		c0.1,0,0-0.1,0-0.2c0-0.1,0.1,0,0.2,0c0,0-0.1,0-0.1,0.1c0.1,0.1,0.1,0.2,0.2,0.2c0-0.2,0-0.3,0.1-0.5c-0.2-0.2-0.6-0.4-0.9-0.6
		c0.2,0.2,0.5,0.5,0.7,0.5c0,0.1,0,0.2,0,0.2c0-0.1-0.1-0.1-0.2-0.1c-0.2-0.3-0.3-0.3-0.5-0.5c0,0.1,0.2,0.2,0,0.2
		c0.1,0,0.1,0.2,0,0.1c0,0,0,0,0,0c0-0.1-0.1,0-0.2-0.1c0.1,0,0-0.1,0-0.2c0,0,0-0.1,0-0.2c-0.1-0.1-0.2-0.1-0.3-0.1
		c0,0.1,0.2,0.1,0.1,0.2c-0.1-0.1-0.1,0-0.2-0.2c0,0,0-0.1,0-0.1c-0.1-0.1-0.2-0.2-0.3-0.2c-0.1-0.1,0-0.2,0-0.3
		c-0.1-0.1-0.4,0-0.3,0c-0.1,0.1-0.2-0.1-0.2-0.1c0,0.1-0.1,0.1,0,0.2c-0.1,0,0,0.1-0.1,0.1c-0.1-0.1-0.2-0.2-0.3-0.3
		c0,0,0.1,0,0.1,0c0,0,0-0.1-0.1-0.1c-0.2,0-0.3-0.1-0.4-0.2c-0.1,0,0,0.2,0,0.2c-0.1-0.1-0.1-0.2,0-0.4c0,0,0.1,0.1,0.1,0
		c0-0.1,0-0.2,0-0.3c0,0,0,0-0.1,0c0.1-0.1,0-0.3,0.2-0.2c-0.1-0.1-0.2-0.2-0.2-0.3c0,0,0.1,0,0.1,0c0,0,0.1,0.2,0.2,0.2
		c0,0,0,0,0-0.1c0,0-0.1,0-0.1-0.1c0.1,0,0.1,0,0.3-0.1c0.1,0.1,0.3,0.3,0.4,0.3c0-0.1-0.1-0.2-0.2-0.2c0-0.2-0.1-0.3-0.2-0.5
		c0-0.1,0.1,0.1,0.2,0.1c-0.1-0.1-0.1-0.2-0.1-0.3c0,0.1-0.3-0.1-0.2,0.1c-0.1,0-0.3-0.4-0.4-0.2c-0.1-0.2-0.3-0.2-0.1-0.3
		c0,0-0.1,0-0.1-0.1c0.1-0.1,0.1-0.3,0-0.3c0-0.1,0.2-0.2,0.3-0.1c0-0.1,0-0.2,0.1-0.3c-0.1-0.2-0.3-0.4-0.5-0.4c0,0.1,0,0-0.1,0
		c0.1,0.1,0.1,0.2,0.2,0.2c0,0-0.1-0.1,0-0.1c0,0,0,0,0,0h0c-0.1,0.1,0.2,0.2,0.1,0.3c-0.2-0.2-0.1,0-0.2,0
		c-0.1-0.1-0.2-0.2-0.2-0.1c-0.1-0.2-0.1-0.4-0.3-0.5c0,0,0,0.1,0,0c0-0.1-0.2,0-0.2-0.2c0.1,0,0.1,0,0-0.2c0.1,0.1,0.2,0.2,0.3,0.1
		c-0.1-0.2-0.2-0.2-0.4-0.4c0-0.1,0.2,0.1,0.2,0c-0.1-0.1-0.2-0.1-0.3-0.1c0.1,0,0-0.1,0-0.1c0,0,0,0.2,0,0c0-0.1,0-0.1,0-0.2
		c-0.1,0.1-0.3-0.2-0.5-0.3c0,0,0,0,0-0.1c0,0-0.1-0.2-0.2-0.1c0,0.1,0.2,0.2,0.1,0.2c-0.1-0.2-0.1,0-0.3-0.1c0-0.1,0.1-0.1,0.1-0.2
		c0,0,0,0-0.1,0c0,0.2-0.1,0-0.3,0c0.1,0.2,0.2,0.2,0.3,0.5c-0.2-0.1-0.3-0.2-0.4-0.2c0,0.1-0.1,0.2,0,0.3c-0.1,0.1-0.2-0.3-0.4-0.1
		c0,0,0-0.1,0-0.1c0.1-0.1,0.2,0,0.3,0c-0.1-0.1-0.1-0.3-0.3-0.2c0.2,0,0.1-0.2,0.3-0.2c-0.1-0.1,0-0.1,0-0.2c0,0,0,0-0.1,0
		c0,0.1,0,0.1-0.1,0.1c0.1,0.1,0.1,0.2,0,0.2c-0.1-0.1-0.1,0-0.2-0.1c0.2-0.1,0,0-0.1-0.2c0,0,0.1,0.1,0.2,0c0-0.1,0.1-0.1,0-0.2
		c-0.1,0,0,0-0.1,0.1c-0.1,0-0.1-0.2-0.3-0.2c0.1,0.1,0,0.1,0,0.1c0,0.1,0.1,0.1,0.1,0.1c-0.1,0,0,0.1,0,0.2c0,0.1-0.2,0.1-0.1,0
		c0,0,0.1,0.1,0.1,0c-0.1-0.1-0.2-0.1-0.4-0.2c-0.1,0,0,0.1,0,0.2c-0.1-0.1-0.1-0.3-0.1-0.4c0.1,0.1,0.1,0,0.2,0
		c-0.2-0.1,0-0.1,0-0.2c-0.2,0-0.2,0-0.3,0c-0.1,0,0-0.1,0-0.1c-0.1,0-0.1,0-0.1,0.1c-0.1-0.1-0.1,0.1-0.3-0.1c0,0.1-0.1,0.1,0,0.2
		c0.2,0.1,0.2,0.3,0.5,0.4c0,0,0.1,0.3,0,0.2c0,0,0-0.2-0.1-0.2c0,0,0.1,0.2,0,0.1c0-0.1-0.2-0.4-0.3-0.4c0.2,0.1,0,0.2,0,0.2
		c-0.1-0.1,0,0.1-0.2,0c0,0,0,0.1,0,0.2c0,0,0.1,0.1,0.2,0.1c0,0-0.1,0.1-0.2,0c0-0.1-0.1-0.1-0.2-0.2c0.1-0.1,0.1,0.1,0.2,0
		c-0.2-0.1-0.2-0.3-0.4-0.2c0.2,0.1,0,0.2,0.2,0.3c0,0-0.1,0.1,0,0.1c0.4,0.1,0.1,0.3,0.5,0.6c0.1-0.1,0.3-0.2,0.2-0.5
		c-0.1,0-0.3,0-0.3-0.1c0.1-0.1,0.3,0.2,0.5,0.3c0.1-0.1-0.1-0.1,0-0.2c0.2,0.1,0.1-0.2,0.3-0.1c0,0.1,0,0.1,0,0.2c0,0,0.1,0,0.1,0
		c0,0,0-0.1,0-0.1c0.1,0.1,0,0.1,0.2,0.1c-0.1,0-0.1,0.2-0.1,0.1c0,0,0-0.1,0-0.1c-0.1,0-0.1,0-0.2,0c0.1,0.1-0.1,0.1,0,0.2
		c0.1,0,0.2,0.1,0.2,0.2c0,0,0-0.1,0-0.1c0.1,0.1,0.1,0,0.2,0.1c0,0-0.1,0,0,0.1c0.3,0.1,0.6,0.9,0.8,0.6c0,0.1,0.1,0.2,0.1,0.2
		c-0.2-0.2-0.2,0.2,0,0.2c0,0.1-0.1,0-0.2,0.1c0,0-0.1-0.1-0.1-0.1c0,0,0.1-0.1,0.1-0.2c-0.2-0.1-0.3-0.2-0.5-0.4
		c0-0.3-0.3-0.4-0.4-0.4c0.2,0,0-0.2-0.1-0.2c0-0.1,0-0.2-0.2-0.3c0,0.1,0,0.2-0.2,0.2c0.1,0.1,0.1,0.1,0.1,0.2c0.1,0,0.1,0,0.2,0.1
		c-0.1,0,0.2,0.2,0.1,0.3c-0.2-0.1-0.4-0.3-0.5-0.5c-0.1-0.1-0.1-0.2-0.2-0.2c-0.1,0-0.2-0.1-0.3-0.1c0.1-0.1-0.2-0.3-0.3-0.3
		c0.1,0.1,0.1,0.2,0.1,0.2c-0.1,0-0.2,0-0.3-0.1c0,0,0,0,0-0.1c-0.3-0.3-0.8-0.7-1-1c-0.1,0.1-0.1,0.1-0.1,0.3c0,0,0,0-0.1,0
		c0,0-0.1-0.1-0.1-0.2c0-0.2,0.3-0.1,0.2-0.3c-0.1,0-0.1,0-0.2,0c0-0.1-0.1-0.4-0.1-0.4c0.1,0.1,0,0.2,0.1,0.3c-0.1,0-0.1,0-0.3,0
		c-0.2-0.3-0.6-0.2-0.7-0.4c0.5,0.2,0-0.2-0.1-0.4c0,0,0,0-0.1,0c0,0,0.1,0.1,0,0.1c-0.1,0-0.2-0.1-0.2-0.2c0,0,0.1,0,0.1,0
		c-0.1-0.1,0-0.1-0.1-0.2c0,0-0.1,0-0.1,0c0.1,0.1,0.1,0.2,0.1,0.3c-0.2-0.1-0.2-0.1-0.4-0.2c0.1,0.1,0.2,0.1,0.2,0.2
		c0.1-0.1,0,0,0,0c0.1,0,0.1-0.1,0.2,0c0,0.1-0.1,0-0.1,0c0.2,0.1,0.3,0.2,0.4,0.2c-0.1,0.1,0.2,0.2,0.1,0.3c0,0-0.1-0.1-0.1,0
		c0.1,0.1,0.2,0.2,0.3,0.2c0,0,0.2,0.3,0.1,0.2c-0.1-0.2-0.7-0.5-0.8-0.6c0.1,0,0-0.1,0.2-0.1c-0.4-0.3-0.5-0.4-0.8-0.5
		c0,0,0-0.1,0-0.2c0,0-0.1,0-0.2,0c0.1,0.1,0.3,0.2,0.2,0.2c-0.1,0-0.2,0-0.3,0c-0.1-0.2-0.2-0.2-0.2-0.4c0.1,0.1,0.1,0.1,0.3,0.2
		c0,0,0.1,0,0.1,0c-0.2-0.2-0.3-0.3-0.5-0.4l0,0c-0.1-0.2-0.3-0.1-0.4-0.4c0,0,0.1,0.1,0,0.1c-0.1-0.1,0-0.1,0-0.2
		c0.1,0,0,0.2,0.2,0.2c0-0.1-0.1-0.4-0.3-0.6c-0.1-0.2-0.4-0.3-0.6-0.3c0.1,0.1-0.1,0-0.2,0c0-0.1,0.3,0.1,0.3,0
		c-0.1-0.1-0.3-0.1-0.3-0.2c0.2,0,0.1-0.1,0.3,0c0,0-0.1,0-0.1-0.1c0,0.1,0,0,0,0.1c-0.2-0.1-0.1-0.1-0.3-0.3c0,0,0.1,0,0.2,0
		c-0.2-0.1-0.3-0.2-0.4-0.3c0-0.1,0-0.2-0.1-0.4c0.1,0.1,0,0.1-0.1,0c0,0,0-0.1,0-0.1c-0.2,0-0.5-0.3-0.7-0.5c0,0,0.1,0,0.1,0
		c-0.1,0-0.1-0.1-0.2-0.1c0,0.1-0.1,0-0.1,0c0,0.2,0.3,0.2,0.4,0.4c-0.2-0.1-0.4-0.3-0.5-0.4c0,0-0.2,0-0.2,0c0,0,0.2,0,0.1,0
		c-0.3-0.2-0.1,0-0.4-0.1c0.1,0.2,0.5,0.3,0.7,0.5c-0.2,0-0.3-0.2-0.4-0.1c0.1,0,0.1,0.1,0.1,0.1c0,0,0,0,0-0.1
		c0.3,0.3,0.8,0.2,1,0.4c-0.2,0,0.2,0.1,0.3,0.3c-0.2,0-0.2,0-0.4-0.1c0,0.1-0.1,0-0.1,0c0.2,0.1,0.3,0.2,0.4,0.3c0.1,0,0,0,0-0.1
		c0.1,0,0.3,0.3,0.3,0.1l0.1,0.1C50.3,89.3,50.1,89,50,89c0.2,0.2,0.3,0.2,0.4,0.4c-0.3-0.2-0.1,0.1,0,0.2
		C49.6,89.2,49.5,89.3,49.4,89.2z"/>
</g>
<path class="st6" d="M52.7,111.5c0-1.7,0.8-3.4,1.6-4.9c1-2,2.3-5,4.1-6.5c1.6-1.4,1.7,0.8,1.4,2c-0.4,1.9-1.7,3.9-2.8,5.5
	c-0.6,0.9-1.2,1.7-2,2.4C52.9,112.4,52.7,111.5,52.7,111.5z M73.4,133.4L73.4,133.4C73.4,133.4,73.4,133.4,73.4,133.4
	C73.4,133.5,73.3,133.5,73.4,133.4C73.3,133.4,73.4,133.4,73.4,133.4z M73.4,133.4C73.4,133.3,73.4,133.4,73.4,133.4L73.4,133.4
	C73.4,133.3,73.4,133.3,73.4,133.4z M73.3,133.8C73.3,133.8,73.2,133.8,73.3,133.8C73.3,133.8,73.3,133.8,73.3,133.8z M73.2,134.1
	C73.2,134,73.2,134,73.2,134.1L73.2,134.1L73.2,134.1z M73,134.4C73,134.5,73,134.5,73,134.4C73,134.5,73,134.4,73,134.4L73,134.4
	C73.1,134.5,73,134.5,73,134.4C73,134.5,73,134.5,73,134.4C73,134.5,73,134.5,73,134.4z M73.1,134.3
	C73.1,134.2,73.1,134.2,73.1,134.3C73.1,134.2,73.1,134.2,73.1,134.3C73.1,134.3,73.1,134.3,73.1,134.3z M73,134.4L73,134.4
	C73,134.3,73,134.3,73,134.4C73,134.3,73,134.4,73,134.4z M72.4,135.8C72.4,135.9,72.3,136,72.4,135.8L72.4,135.8z M73.2,134
	C73.2,134,73.2,133.9,73.2,134L73.2,134C73.2,133.9,73.2,133.9,73.2,134C73.2,133.9,73.3,133.9,73.2,134
	C73.2,133.9,73.3,133.9,73.2,134C73.2,133.9,73.2,134,73.2,134z M73.2,134C73.2,134.1,73.1,134.1,73.2,134
	C73.1,134.1,73.1,134.1,73.2,134C73.1,134.1,73.1,134.1,73.2,134C73.1,134,73.1,134.1,73.2,134C73.1,134.1,73.1,134.1,73.2,134
	L73.2,134L73.2,134C73.1,134.1,73.1,134.1,73.2,134C73.1,134.1,73.1,134,73.2,134z M73.1,133.9C73.1,133.9,73.1,133.9,73.1,133.9
	L73.1,133.9C73.1,134,73.1,133.9,73.1,133.9z M74.4,131.9C74.5,131.9,74.4,131.8,74.4,131.9L74.4,131.9z M72.5,135.4
	c0,0,0,0.3-0.1,0.2c0,0,0,0,0,0C72.4,135.6,72.4,135.5,72.5,135.4C72.5,135.5,72.4,135.4,72.5,135.4z M74.7,131.5L74.7,131.5
	C74.7,131.4,74.6,131.5,74.7,131.5C74.6,131.5,74.7,131.5,74.7,131.5C74.7,131.4,74.7,131.4,74.7,131.5
	C74.7,131.5,74.7,131.5,74.7,131.5z M74.4,131.9L74.4,131.9C74.5,131.8,74.4,131.8,74.4,131.9z M74.1,132.6
	C74.1,132.5,74.1,132.5,74.1,132.6C74.1,132.5,74.1,132.6,74.1,132.6z M73.9,132.9C73.9,132.9,73.9,132.9,73.9,132.9
	C73.9,132.9,73.9,132.8,73.9,132.9z M72.3,135.6C72.3,135.7,72.3,135.7,72.3,135.6C72.3,135.7,72.3,135.7,72.3,135.6
	C72.3,135.7,72.3,135.6,72.3,135.6z M74.8,131.4L74.8,131.4L74.8,131.4C74.9,131.4,74.8,131.5,74.8,131.4
	C74.8,131.5,74.8,131.5,74.8,131.4C74.8,131.4,74.8,131.3,74.8,131.4C74.9,131.3,74.8,131.4,74.8,131.4z M72.2,135.8
	C72.1,136,72.2,135.8,72.2,135.8C72.2,135.8,72.2,135.8,72.2,135.8z M70.9,136.5C70.9,136.5,71,136.5,70.9,136.5
	C71,136.4,71,136.5,70.9,136.5C70.9,136.5,70.8,136.5,70.9,136.5C70.8,136.5,70.8,136.5,70.9,136.5c-0.1,0-0.1,0-0.1,0
	C70.8,136.5,70.8,136.5,70.9,136.5z M72,136C72,136,72,136,72,136L72,136z M71.9,136.3C71.8,136.3,71.8,136.3,71.9,136.3
	C71.8,136.2,71.9,136.2,71.9,136.3z M71.7,136.4C71.6,136.4,71.6,136.3,71.7,136.4C71.7,136.3,71.7,136.4,71.7,136.4z M75.7,129.5
	C75.7,129.5,75.6,129.5,75.7,129.5C75.6,129.5,75.6,129.5,75.7,129.5z M73.1,133.8C73.2,133.8,73.2,133.8,73.1,133.8
	C73.2,133.8,73.2,133.8,73.1,133.8L73.1,133.8C73.1,133.8,73.1,133.8,73.1,133.8z M74.7,131.6L74.7,131.6
	C74.6,131.6,74.6,131.7,74.7,131.6C74.7,131.6,74.6,131.7,74.7,131.6C74.6,131.6,74.6,131.7,74.7,131.6
	C74.6,131.6,74.6,131.6,74.7,131.6C74.7,131.6,74.6,131.6,74.7,131.6z M75,131.3L75,131.3C74.9,131.3,74.9,131.3,75,131.3z
	 M76,129.1L76,129.1C76,129,76,129,76,129.1z M75.5,130.6C75.5,130.6,75.6,130.6,75.5,130.6L75.5,130.6c0.1,0,0.1,0,0.1,0v0
	C75.6,130.6,75.6,130.7,75.5,130.6C75.5,130.6,75.5,130.6,75.5,130.6C75.5,130.6,75.4,130.6,75.5,130.6z M75.9,129.7L75.9,129.7
	L75.9,129.7C75.9,129.7,75.9,129.7,75.9,129.7C75.8,129.7,75.8,129.7,75.9,129.7C75.8,129.7,75.8,129.6,75.9,129.7
	C75.9,129.6,75.8,129.7,75.9,129.7C75.9,129.6,75.9,129.6,75.9,129.7C75.9,129.7,75.9,129.7,75.9,129.7
	C75.9,129.7,75.9,129.8,75.9,129.7z M75.8,129.4C75.8,129.3,75.8,129.4,75.8,129.4C75.7,129.3,75.7,129.3,75.8,129.4
	C75.7,129.3,75.8,129.3,75.8,129.4z M75.9,129.3C75.9,129.2,75.9,129.2,75.9,129.3C75.9,129.2,76,129.3,75.9,129.3z M75.9,129.3
	C75.9,129.3,75.8,129.3,75.9,129.3C75.8,129.3,75.9,129.2,75.9,129.3C75.9,129.3,75.8,129.3,75.9,129.3z M75.9,129.5
	C76,129.5,76,129.5,75.9,129.5C75.9,129.5,75.9,129.5,75.9,129.5z M75.4,130.1C75.5,130.1,75.4,130.1,75.4,130.1c0.1,0,0.1,0,0.1,0
	C75.5,130.1,75.5,130.1,75.4,130.1L75.4,130.1C75.4,130.2,75.4,130.1,75.4,130.1C75.4,130.1,75.4,130.1,75.4,130.1z M75.5,129.9
	C75.5,129.8,75.6,129.8,75.5,129.9C75.6,129.8,75.5,129.9,75.5,129.9C75.6,129.9,75.5,129.9,75.5,129.9
	C75.5,129.9,75.5,129.9,75.5,129.9C75.5,129.9,75.5,129.9,75.5,129.9z M75.7,130.4L75.7,130.4L75.7,130.4
	C75.6,130.4,75.6,130.4,75.7,130.4C75.7,130.4,75.7,130.4,75.7,130.4z M75.5,130.5C75.5,130.5,75.5,130.5,75.5,130.5
	C75.5,130.5,75.5,130.5,75.5,130.5C75.5,130.5,75.4,130.5,75.5,130.5z M76,129.1C76,129.1,76,129.1,76,129.1c0,0,0-0.1,0-0.1
	C76.1,129,76,129,76,129.1z M76.3,128.2C76.3,128.1,76.3,128.1,76.3,128.2C76.3,128.1,76.3,128.2,76.3,128.2z M76,128.9
	C76,128.9,75.9,128.9,76,128.9C76,129,76,128.8,76,128.9C76.1,128.9,76,128.9,76,128.9z M76.2,128.9
	C76.2,128.9,76.1,128.9,76.2,128.9C76.2,128.9,76.2,128.8,76.2,128.9C76.2,128.8,76.2,128.9,76.2,128.9L76.2,128.9z M76.4,129
	L76.4,129C76.4,129,76.3,129,76.4,129C76.3,129,76.4,129,76.4,129C76.3,129,76.4,129,76.4,129C76.4,129,76.4,129,76.4,129z
	 M75.6,130.8C75.6,130.8,75.6,130.8,75.6,130.8C75.7,130.7,75.7,130.9,75.6,130.8z M76.1,128.5C76.2,128.5,76.1,128.4,76.1,128.5
	C76.2,128.4,76.2,128.5,76.1,128.5C76.1,128.5,76.1,128.5,76.1,128.5z M76.4,128.5C76.4,128.5,76.4,128.4,76.4,128.5L76.4,128.5
	C76.4,128.5,76.4,128.5,76.4,128.5z M75.9,130.1L75.9,130.1C75.8,130.1,75.9,130.1,75.9,130.1C75.9,130.1,75.9,130.1,75.9,130.1z
	 M75.9,129.5L75.9,129.5C76,129.4,76,129.5,75.9,129.5C76,129.4,75.9,129.5,75.9,129.5z M75.5,130.5L75.5,130.5
	C75.5,130.4,75.5,130.5,75.5,130.5z M76,130.1C76,130.1,76,130.1,76,130.1L76,130.1L76,130.1z M75.7,130.1L75.7,130.1L75.7,130.1
	C75.7,130,75.7,130,75.7,130.1z M75.8,130.1C75.7,130,75.8,130,75.8,130.1L75.8,130.1c0-0.1,0-0.1,0-0.2c0,0,0,0,0,0c0,0,0,0,0,0
	s0,0,0,0C75.8,130,75.8,129.9,75.8,130.1C75.8,130,75.7,130,75.8,130.1L75.8,130.1L75.8,130.1C75.8,130,75.8,130,75.8,130.1
	C75.8,130,75.8,130,75.8,130.1C75.8,130,75.8,130,75.8,130.1C75.8,130,75.8,130,75.8,130.1z M75.9,129.4c0,0-0.1,0.1-0.1,0.1v0
	C75.8,129.5,75.8,129.4,75.9,129.4C75.8,129.4,75.9,129.4,75.9,129.4z M75.6,129.9C75.6,129.8,75.6,129.8,75.6,129.9L75.6,129.9
	C75.7,129.8,75.7,129.8,75.6,129.9L75.6,129.9z M75.6,130C75.6,130,75.6,130,75.6,130L75.6,130C75.6,130,75.6,130,75.6,130z
	 M75.5,130.3C75.5,130.3,75.5,130.3,75.5,130.3C75.5,130.3,75.4,130.3,75.5,130.3C75.4,130.3,75.5,130.3,75.5,130.3z M75.4,130.5
	L75.4,130.5C75.4,130.5,75.4,130.4,75.4,130.5C75.4,130.5,75.4,130.5,75.4,130.5L75.4,130.5z M75.6,130
	C75.6,129.9,75.6,129.9,75.6,130C75.7,130,75.7,130,75.6,130C75.6,130,75.7,130,75.6,130L75.6,130z M75.5,130
	C75.4,130,75.5,129.9,75.5,130C75.5,130,75.5,130,75.5,130z M76.3,128.6C76.3,128.6,76.3,128.6,76.3,128.6
	C76.4,128.5,76.3,128.6,76.3,128.6z M76,129.6C76,129.6,75.9,129.6,76,129.6C76,129.6,76,129.6,76,129.6z M75.9,129.8
	C75.8,129.8,75.8,129.8,75.9,129.8C75.8,129.8,75.8,129.8,75.9,129.8C75.8,129.8,75.7,129.8,75.9,129.8
	C75.8,129.8,75.8,129.8,75.9,129.8L75.9,129.8C75.9,129.8,75.9,129.8,75.9,129.8C75.9,129.8,75.9,129.8,75.9,129.8L75.9,129.8z
	 M76,129.6L76,129.6C76,129.6,76,129.6,76,129.6L76,129.6z M75.8,129.8C75.8,129.8,75.7,129.8,75.8,129.8
	C75.7,129.7,75.8,129.7,75.8,129.8z M76,129.7C76,129.7,76,129.8,76,129.7C76,129.7,76,129.7,76,129.7
	C75.9,129.7,75.9,129.7,76,129.7C75.9,129.7,76,129.7,76,129.7z M75.6,129.9L75.6,129.9C75.5,129.9,75.6,129.9,75.6,129.9z
	 M75.7,129.9C75.7,129.8,75.8,129.8,75.7,129.9C75.8,129.8,75.8,129.8,75.7,129.9C75.8,129.8,75.8,129.8,75.7,129.9
	C75.8,129.8,75.7,129.9,75.7,129.9z M75.7,129.7C75.7,129.7,75.7,129.7,75.7,129.7C75.6,129.7,75.7,129.7,75.7,129.7z M75.8,129.6
	C75.8,129.7,75.7,129.6,75.8,129.6C75.7,129.6,75.7,129.6,75.8,129.6C75.7,129.6,75.8,129.6,75.8,129.6z M76.1,129.8
	C76.1,129.8,76.1,129.9,76.1,129.8C76.1,129.9,76,129.8,76.1,129.8z M75.9,129.5C75.9,129.5,75.9,129.5,75.9,129.5L75.9,129.5
	C75.9,129.5,75.8,129.4,75.9,129.5C75.9,129.4,75.9,129.5,75.9,129.5z M75.9,130.8C75.8,130.8,75.8,130.8,75.9,130.8
	C75.8,130.7,75.8,130.7,75.9,130.8C75.9,130.7,75.9,130.8,75.9,130.8z M75.8,130.7C75.8,130.7,75.7,130.7,75.8,130.7
	C75.7,130.7,75.8,130.7,75.8,130.7C75.8,130.7,75.8,130.8,75.8,130.7C75.7,130.7,75.7,130.7,75.8,130.7z M75.7,130.9
	C75.8,130.9,75.7,130.9,75.7,130.9C75.7,130.9,75.7,130.9,75.7,130.9z M76.1,130C76,130,75.9,130,76.1,130L76.1,130z M75.7,130.1
	C75.8,130.1,75.7,130.1,75.7,130.1C75.8,130.1,75.8,130.1,75.7,130.1C75.8,130.1,75.8,130.2,75.7,130.1z M75.6,131.2
	C75.5,131.2,75.5,131.3,75.6,131.2L75.6,131.2c-0.1,0-0.1,0-0.1,0c0,0,0,0,0,0C75.4,131.2,75.5,131.3,75.6,131.2
	C75.5,131.2,75.5,131.2,75.6,131.2C75.5,131.2,75.5,131.2,75.6,131.2C75.5,131.1,75.5,131.2,75.6,131.2l-0.1-0.1
	C75.4,131.1,75.5,131.1,75.6,131.2z M76.1,129.7C76.1,129.7,76.1,129.7,76.1,129.7C76.1,129.7,76.1,129.7,76.1,129.7
	C76.1,129.7,76.1,129.7,76.1,129.7C76.1,129.7,76.2,129.7,76.1,129.7z M75,131.4C75,131.5,74.9,131.4,75,131.4
	C74.9,131.4,75,131.4,75,131.4z M75.1,131.3C75.1,131.3,75.1,131.3,75.1,131.3c0.1,0,0.1-0.1,0.2,0c0,0,0,0,0,0s0,0,0,0
	C75.1,131.3,75.1,131.3,75.1,131.3C75.2,131.4,75.1,131.4,75.1,131.3c0.1,0.1,0,0.1,0,0.1C75.1,131.5,75.1,131.4,75.1,131.3
	L75.1,131.3C75.1,131.4,75,131.3,75.1,131.3C75,131.3,75,131.3,75.1,131.3z M70.9,136.3C70.9,136.3,70.9,136.3,70.9,136.3
	C70.9,136.3,71,136.3,70.9,136.3C70.9,136.3,70.9,136.3,70.9,136.3z M71.2,136L71.2,136L71.2,136C71.3,136,71.3,136,71.2,136
	L71.2,136z M71.2,136.1C71.2,136.1,71.2,136.2,71.2,136.1C71.2,136.1,71.2,136.1,71.2,136.1C71.2,136.1,71.2,136.2,71.2,136.1
	L71.2,136.1c0.1,0,0.2-0.1,0.2-0.1C71.4,136.1,71.3,136.1,71.2,136.1c0.1,0,0.1,0,0.1,0C71.3,136.2,71.3,136.2,71.2,136.1
	c0.1,0.2,0.2,0,0.2,0.1l0,0c0,0-0.1,0-0.1,0.1c0,0,0,0,0,0c0,0,0,0,0,0c0,0-0.1,0-0.1,0c0,0,0,0,0,0c0,0,0,0,0,0h0c0,0,0.1,0,0,0h0
	C71.2,136.2,71.2,136.2,71.2,136.1z M71.6,136C71.6,135.9,71.6,136,71.6,136C71.6,135.9,71.6,135.9,71.6,136
	C71.6,135.9,71.6,135.9,71.6,136c0.1,0,0.1-0.1,0.1-0.1C71.7,135.9,71.6,136,71.6,136C71.6,136,71.6,136,71.6,136L71.6,136z
	 M71.8,135.7L71.8,135.7C71.7,135.8,71.8,135.8,71.8,135.7C71.7,135.7,71.7,135.7,71.8,135.7C71.7,135.7,71.7,135.7,71.8,135.7
	C71.8,135.7,71.8,135.7,71.8,135.7L71.8,135.7z M71.8,135.7C71.8,135.7,71.8,135.7,71.8,135.7C71.8,135.7,71.8,135.7,71.8,135.7z
	 M71.9,135.7L71.9,135.7C71.8,135.7,71.8,135.6,71.9,135.7C71.8,135.6,71.9,135.6,71.9,135.7C71.9,135.6,71.9,135.7,71.9,135.7z
	 M71.8,135.5C71.9,135.5,71.9,135.5,71.8,135.5C71.9,135.6,71.9,135.6,71.8,135.5C71.8,135.6,71.8,135.5,71.8,135.5
	C71.9,135.5,71.8,135.4,71.8,135.5C71.9,135.5,71.9,135.5,71.8,135.5c0-0.1,0.1-0.1,0.1-0.2C72,135.3,71.9,135.4,71.8,135.5
	c0.1-0.1,0.2,0,0.1,0C71.9,135.5,71.9,135.5,71.8,135.5z M72,135.4C72,135.3,72,135.3,72,135.4C72,135.3,72,135.3,72,135.4
	C71.9,135.3,71.9,135.3,72,135.4c0-0.1,0-0.1,0-0.1C72,135.3,72,135.3,72,135.4C72,135.3,72,135.4,72,135.4z M71.7,136.1
	C71.8,136.1,71.8,136.1,71.7,136.1C71.8,136.2,71.7,136.2,71.7,136.1C71.7,136.2,71.7,136.2,71.7,136.1
	C71.7,136.2,71.7,136.2,71.7,136.1z M72,135.2L72,135.2C72,135.2,72,135.1,72,135.2L72,135.2C72.1,135.2,72,135.2,72,135.2z
	 M72.1,135.1C72.1,135.1,72.1,135.1,72.1,135.1C72.1,135.1,72.1,135.1,72.1,135.1C72.1,135.1,72.1,135.1,72.1,135.1
	C72.1,135.1,72.1,135.1,72.1,135.1L72.1,135.1c0.1-0.1,0.1-0.1,0.1-0.1s0,0,0,0C72.2,135,72.2,135.1,72.1,135.1z M72.2,134.9
	C72.3,134.9,72.3,134.8,72.2,134.9C72.2,134.9,72.3,134.8,72.2,134.9C72.3,134.8,72.2,134.8,72.2,134.9
	C72.3,134.8,72.3,134.9,72.2,134.9C72.3,134.9,72.3,134.9,72.2,134.9z M72.4,134.7L72.4,134.7L72.4,134.7
	C72.4,134.7,72.4,134.7,72.4,134.7L72.4,134.7c0.1,0,0.1,0,0.1,0s0,0,0,0c0,0,0,0,0,0v0C72.5,134.8,72.5,134.8,72.4,134.7
	C72.4,134.8,72.4,134.7,72.4,134.7C72.4,134.7,72.4,134.7,72.4,134.7z M72.6,134.5C72.6,134.4,72.6,134.4,72.6,134.5L72.6,134.5
	C72.6,134.4,72.6,134.4,72.6,134.5L72.6,134.5C72.7,134.4,72.6,134.5,72.6,134.5C72.6,134.4,72.6,134.4,72.6,134.5
	C72.6,134.5,72.7,134.4,72.6,134.5c0.1,0,0,0,0.1,0H72.6C72.7,134.4,72.6,134.5,72.6,134.5z M72.7,134.5L72.7,134.5
	C72.7,134.5,72.7,134.6,72.7,134.5C72.7,134.6,72.7,134.5,72.7,134.5z M72.8,134.2C72.8,134.1,72.9,134.1,72.8,134.2
	C72.9,134.1,72.9,134.2,72.8,134.2C72.9,134.2,72.9,134.2,72.8,134.2z M73,134L73,134C73,134,73,134,73,134C73,134,73,134,73,134
	C73,134,72.9,134,73,134z M72.9,134L72.9,134L72.9,134z M73.2,133.7C73.2,133.6,73.2,133.6,73.2,133.7
	C73.2,133.6,73.2,133.7,73.2,133.7z M74.8,131.1L74.8,131.1C74.9,131.1,74.9,131.1,74.8,131.1C74.9,131,75,131,74.8,131.1
	C75,131,75,131,75,131C75,131.1,74.9,131.1,74.8,131.1C74.8,131.2,74.9,131.1,74.8,131.1C74.8,131.1,74.8,131.1,74.8,131.1
	C74.9,131.1,74.9,131.1,74.8,131.1C74.9,131.1,74.8,131.1,74.8,131.1z M75,130.9C75.1,130.9,75,130.9,75,130.9
	C75,130.9,75.1,130.9,75,130.9C75.1,130.9,75,130.9,75,130.9z M75,131.1C75.1,131.2,75.1,131.1,75,131.1
	C75.1,131.2,75.1,131.1,75,131.1C75,131.1,75,131.1,75,131.1z M75.2,130.6C75.2,130.6,75.1,130.7,75.2,130.6
	C75.1,130.7,75.1,130.7,75.2,130.6C75.2,130.7,75.2,130.6,75.2,130.6z M75.2,130.5C75.2,130.5,75.2,130.6,75.2,130.5L75.2,130.5
	L75.2,130.5C75.2,130.5,75.2,130.4,75.2,130.5C75.2,130.5,75.2,130.5,75.2,130.5z M75.2,130.4L75.2,130.4L75.2,130.4L75.2,130.4z
	 M71.5,135.8C71.5,135.8,71.5,135.7,71.5,135.8C71.5,135.8,71.5,135.8,71.5,135.8C71.4,135.8,71.5,135.8,71.5,135.8z M71.3,136.1
	C71.3,136.1,71.3,136.1,71.3,136.1C71.2,136.1,71.3,136.1,71.3,136.1C71.3,136,71.3,136.1,71.3,136.1L71.3,136.1z M71.5,135.9
	c0,0.1-0.1,0.1-0.1,0.2c0,0,0,0,0,0C71.4,136,71.4,135.9,71.5,135.9L71.5,135.9L71.5,135.9z M74.9,131L74.9,131L74.9,131z
	 M72.5,134.6C72.5,134.6,72.4,134.6,72.5,134.6C72.5,134.6,72.5,134.6,72.5,134.6C72.5,134.6,72.5,134.6,72.5,134.6L72.5,134.6z
	 M71.7,135.8C71.7,135.8,71.7,135.8,71.7,135.8C71.7,135.8,71.7,135.9,71.7,135.8C71.7,135.8,71.7,135.8,71.7,135.8z M71.7,135.6
	C71.8,135.7,71.7,135.7,71.7,135.6C71.7,135.7,71.7,135.8,71.7,135.6C71.7,135.7,71.7,135.6,71.7,135.6z M72.1,135.4L72.1,135.4
	C72.2,135.4,72.2,135.4,72.1,135.4c0.1,0,0.1-0.1,0.1-0.1c0,0,0,0,0,0C72.3,135.4,72.3,135.3,72.1,135.4
	C72.2,135.4,72.2,135.5,72.1,135.4C72.2,135.5,72.2,135.5,72.1,135.4c0,0.2-0.1,0.4-0.2,0.4C72,135.7,72.1,135.6,72.1,135.4
	L72.1,135.4C72.1,135.5,72.1,135.5,72.1,135.4C72.1,135.5,72.2,135.4,72.1,135.4C72.1,135.5,72.1,135.6,72.1,135.4z M72.7,134.6
	L72.7,134.6C72.8,134.6,72.8,134.7,72.7,134.6C72.8,134.6,72.7,134.6,72.7,134.6z M72.8,134.6C72.8,134.6,72.8,134.5,72.8,134.6
	c0-0.1,0-0.1,0-0.1C72.8,134.5,72.8,134.5,72.8,134.6C72.8,134.5,72.8,134.6,72.8,134.6z M75.3,130.6
	C75.4,130.6,75.3,130.7,75.3,130.6C75.3,130.6,75.3,130.6,75.3,130.6z M75.3,130.9C75.3,130.9,75.3,130.9,75.3,130.9
	C75.4,130.9,75.2,130.9,75.3,130.9z M75.3,131L75.3,131C75.3,131,75.3,131,75.3,131C75.3,131,75.3,131,75.3,131
	C75.3,131,75.3,131,75.3,131z M75.4,130.7C75.4,130.8,75.4,130.7,75.4,130.7C75.4,130.7,75.5,130.7,75.4,130.7L75.4,130.7
	L75.4,130.7L75.4,130.7C75.5,130.7,75.5,130.8,75.4,130.7C75.5,130.7,75.5,130.7,75.4,130.7c0,0.1,0,0.1,0,0.1c0,0,0,0,0,0
	c0,0,0,0.1-0.1,0.1c0,0,0,0,0-0.1c0,0,0,0,0,0l0,0C75.5,130.9,75.4,130.8,75.4,130.7z M69.9,136.8c0.2,0.1,0.6,0,0.8-0.3
	c0,0,0.1-0.1,0.1-0.1s0,0,0,0c0,0,0,0,0,0l0,0c0,0,0,0,0,0c0,0,0,0,0.1,0c0,0,0,0,0-0.1c0,0,0,0,0,0l0,0c0,0,0,0,0.1,0v0
	c0,0,0.1,0,0,0.1c0.1,0,0,0,0.1,0.1c0,0,0,0,0-0.1c0,0,0.1,0,0.1,0c0-0.1,0.2-0.1,0.3-0.1c0,0,0.1-0.1,0.1-0.2c0,0,0-0.1,0.1-0.1
	c0,0,0.1,0,0.1-0.1c0,0,0.1-0.1,0.1-0.2s0-0.2,0.1-0.2c0,0.1,0.1-0.1,0.1-0.2c0,0,0,0-0.1,0.1v0c0,0,0,0,0,0c0,0,0-0.1,0-0.1
	c0,0,0,0,0,0c0,0,0,0,0,0c0,0,0,0,0,0c0,0,0,0,0,0v0h0v0h0c0,0,0,0,0-0.1c0,0-0.1,0,0,0c0,0,0,0-0.1,0.1c0,0,0-0.1,0-0.1v0
	c0,0,0,0,0,0c0,0,0,0,0,0c0,0,0,0,0,0.1c0,0,0,0,0,0c0,0,0,0,0-0.1c0,0,0,0.1,0,0c0,0,0,0.1,0,0.2c0,0,0,0,0,0c0,0,0,0,0,0
	c0,0,0,0,0-0.1c0,0,0,0.1-0.1,0.1c0,0,0,0,0-0.1v0c0,0,0,0,0,0c0,0,0,0,0.1-0.1c0,0,0,0.1-0.1,0.1c0,0,0,0,0,0c0,0,0,0,0,0l0,0
	c0,0,0.1-0.1,0.1-0.1h0c0,0,0,0,0,0c0,0,0,0,0.1,0c0,0,0,0,0-0.1v0c0,0,0,0,0,0c0,0,0,0,0,0c0,0,0,0,0,0c0,0,0,0,0,0.1
	c0,0,0,0,0-0.1c0,0,0,0,0,0.1v0c0-0.1,0.1-0.2,0.2-0.2c0,0,0,0,0,0c0,0,0,0,0,0c0,0,0,0,0,0c0,0,0,0,0.1-0.1h0c0,0,0,0,0.1-0.1v0
	c0,0,0,0,0,0c0,0,0,0,0.1,0c0,0,0,0,0-0.1c0,0,0,0,0,0v0c0,0,0,0,0,0c0,0,0-0.1,0.1-0.2c0,0,0,0,0,0c0,0,0-0.2,0.1-0.2h0
	c0,0,0,0,0,0.1c0,0,0,0,0,0c0,0,0,0,0,0c0,0,0,0,0,0.1v0c0,0,0,0,0,0s0,0,0,0c0,0,0,0,0,0c0,0,0,0,0-0.1c0,0,0,0-0.1,0v0
	c0,0,0,0,0,0v0c0,0,0,0,0,0h0l0,0c0,0,0.1-0.1,0.1,0c0,0,0-0.1,0-0.2c0,0,0,0,0-0.1l0,0c0,0,0,0,0,0c0,0,0,0,0,0v0c0,0,0,0,0,0
	c0,0,0,0.1,0.1,0c0,0,0,0,0,0l0,0c0,0,0,0-0.1,0c0,0,0.1-0.2,0.2-0.2c0,0,0,0,0,0c0,0,0,0,0-0.1l0,0c0-0.1,0.1-0.1,0.1-0.2v0h0
	c0,0,0,0,0,0l0,0c0.1-0.2,0.3-0.4,0.4-0.6c0,0,0,0,0.1,0c0,0,0.1,0,0-0.1c0,0,0,0-0.1,0.1l0,0c0.1-0.1,0.1-0.2,0.2-0.4c0,0,0,0,0,0
	h0c0,0,0,0,0,0c0,0,0,0,0,0c0,0,0,0,0,0.1c0,0,0,0,0,0c0,0,0,0,0,0c0,0,0,0,0,0.1c0,0,0-0.1,0.1-0.1c0,0,0-0.1,0-0.1c0,0,0,0,0,0
	c0,0,0,0,0,0c0,0,0,0,0,0c0,0,0,0,0,0c0,0,0,0-0.1,0c0,0,0,0,0,0c0-0.1,0.1-0.2,0.1-0.3l0,0l0,0c0,0,0-0.1,0-0.1l0,0v0
	c0-0.1,0.1-0.2,0.2-0.3l0,0l0,0c0,0,0-0.1,0-0.1c0,0,0,0,0,0c0.1,0-0.1,0.2,0,0.3c0,0,0-0.1,0.1-0.1c0,0,0,0,0-0.1c0,0,0,0,0,0
	c0,0,0,0,0,0c0,0,0,0,0,0.1c0,0,0,0,0,0v0c0,0,0,0,0,0c0,0,0,0,0.1,0c0.1,0,0.1,0,0.2-0.1c0,0,0,0,0,0c0,0,0,0,0,0c0,0,0,0,0,0
	c0,0,0,0-0.1,0c0,0,0,0,0,0c0,0,0,0,0,0h0v0l0,0v0c0,0,0,0,0,0c0,0,0,0-0.1,0c0,0,0,0,0,0c0,0,0,0,0.1,0c0,0,0,0,0,0c0,0,0,0,0,0
	c0,0,0,0,0,0c0,0,0,0,0,0c0,0,0,0,0,0.1h0c0,0,0,0,0,0s0,0,0,0c0,0,0,0,0,0c0,0,0,0,0,0c0,0,0,0,0.1,0c0-0.1,0.1-0.2,0.1-0.2
	c0,0,0,0,0,0c0,0,0,0,0-0.1c0,0,0,0,0,0c0,0-0.1,0-0.1,0c0,0,0,0,0,0s0,0,0,0c0,0,0-0.1,0-0.1c0,0,0,0,0,0c0,0,0,0,0,0
	c0,0,0,0,0-0.1c0,0,0,0,0,0h0c0,0,0,0,0,0c0,0,0-0.1,0,0c0,0,0,0,0,0h0l0,0c0-0.1,0.1-0.3,0.2-0.5l0,0l0,0c0,0,0,0,0-0.1
	c0,0,0,0,0,0c0-0.1,0-0.1,0-0.2c0,0,0,0,0,0c0,0,0-0.1,0-0.1c0,0,0,0,0-0.1h0c0,0,0,0,0,0c0-0.1,0.1-0.2,0.1-0.3l0,0l0,0
	c0,0,0,0,0-0.1c0,0,0,0,0,0v0c0,0,0,0,0,0v0c0.7-1.7,1.4-4-0.6-2.7c-0.4,0.3-0.7,0.7-0.9,1.1c-1.7,2.7-3.3,5.5-4.5,8.5
	C69.7,136.2,69.6,136.7,69.9,136.8z M50.6,85.8c0,0.2-0.1,0.5-0.2,0.7c-1.4,2.6-3.2,5.2-5.6,6.9c-0.4-1.1,0-2.3,0.5-3.4
	C45.6,89.4,50.5,83.9,50.6,85.8z M48,102.3c-0.2,0.2-0.5,0.4-0.8,0.2c-0.8-0.5,4.7-11.1,6.9-10.2C57.3,93.7,49,101.4,48,102.3z
	 M62,116.9c-1,1.3-2.2,2.7-3.8,2.9c0-3,1.8-5.6,3.5-8.1c0.6-0.8,3.9-5.4,4.1-2.4C66,112,63.4,115,62,116.9z M70.6,117.2
	c-1.7-1.1-4.9,4.8-5.5,6c-0.5,0.9-0.9,1.8-1,2.8c0,0.4,0.1,1,0.5,1.1c0.2,0,0.5,0,0.7-0.1c1.1-0.6,2-1.7,2.8-2.8
	C68.8,123.2,72.7,118.6,70.6,117.2z"/>
<path class="st7" d="M109.3,134.6l-1,45.9c0,0,0.1,2.1-0.3,3.4c-0.5,1.5-1.1,2.3-2,3.5c-0.5,0.8-0.9,1.2-1.7,1.8
	c-0.2,0.2-0.7,0.5-0.7,0.5H46.2c0,0-0.5-0.1-0.7-0.3c-0.7-0.7-1.1-1.3-1.7-2.2c-0.9-1.3-1.3-2.1-1.8-3.7c-0.4-1.3-0.5-3.4-0.5-3.4
	l-0.8-45.5L109.3,134.6L109.3,134.6z"/>
<path class="st8" d="M34.7,123.5c0-1.1,0.9-2,2-2h78.9v13.1H36.7c-1.1,0-2-0.9-2-2V123.5z"/>
<path class="st9" d="M115.6,121.5h3.7c1.1,0,2,0.9,2,2v9.1c0,1.1-0.9,2-2,2h-3.7V121.5z"/>
<path class="st10" d="M109.2,134.7h6.2L114,181c0,0-0.5,4.7-1.8,6.3c-0.8,1.1-2.2,2.2-2.2,2.2h-6.2c0,0,3-2.6,3.9-4.9
	c0.5-1.4,0.6-3.8,0.6-3.8L109.2,134.7z"/>
<path class="st11" d="M71.1,121.4c1.1,0,1.8,1.3,1,2.2l-15.8,20c-0.5,0.7-1.6,0.7-2.1,0l-15.8-20c-0.7-0.9,0-2.2,1-2.2L71.1,121.4z"
	/>
<path class="st10" d="M67,121.4h8.9l-19.3,25.2l-4.6-5.9L67,121.4z"/>
<path class="st11" d="M66.6,165.1c-1.4,0-2.7-0.2-3.8-0.7c-1.1-0.5-2-1.2-2.6-2.1c-0.6-0.9-1-1.9-1-3h4.2c0,0.5,0.2,0.9,0.4,1.3
	c0.3,0.3,0.7,0.6,1.2,0.8c0.5,0.2,1,0.3,1.6,0.3c0.6,0,1.2-0.1,1.7-0.3c0.5-0.2,0.8-0.5,1.1-0.9s0.4-0.8,0.4-1.4s-0.1-1-0.4-1.4
	c-0.3-0.4-0.7-0.7-1.2-0.9c-0.5-0.2-1.2-0.3-1.9-0.3h-1.8v-3.1h1.8c0.6,0,1.2-0.1,1.6-0.3c0.5-0.2,0.8-0.5,1.1-0.9
	c0.2-0.4,0.4-0.8,0.4-1.4c0-0.5-0.1-0.9-0.3-1.3c-0.2-0.4-0.5-0.7-1-0.9c-0.4-0.2-0.9-0.3-1.4-0.3c-0.5,0-1.1,0.1-1.5,0.3
	c-0.4,0.2-0.8,0.5-1.1,0.8c-0.3,0.4-0.4,0.8-0.4,1.3h-4c0-1.1,0.3-2.1,1-3c0.6-0.8,1.5-1.5,2.5-2c1.1-0.5,2.3-0.7,3.6-0.7
	s2.5,0.2,3.6,0.7c1,0.5,1.8,1.1,2.4,2c0.5,0.8,0.8,1.8,0.8,2.8c0,1.1-0.3,2-1,2.8c-0.7,0.7-1.6,1.2-2.7,1.4v0.1
	c1.4,0.2,2.5,0.7,3.3,1.5c0.7,0.8,1.1,1.8,1.1,3.1c0,1.1-0.3,2.1-1,3c-0.6,0.9-1.5,1.5-2.7,2.1C69.3,164.9,68.1,165.1,66.6,165.1z"
	/>
<path class="st11" d="M84.8,165.3c-1.6,0-3.1-0.4-4.3-1.2c-1.2-0.8-2.1-2-2.7-3.5c-0.6-1.5-0.9-3.4-0.9-5.5c0-2.1,0.3-4,0.9-5.5
	c0.6-1.5,1.5-2.7,2.7-3.5c1.2-0.8,2.6-1.2,4.3-1.2s3.1,0.4,4.2,1.2c1.2,0.8,2.1,1.9,2.7,3.5c0.6,1.5,0.9,3.3,0.9,5.5s-0.3,4-0.9,5.5
	c-0.6,1.5-1.5,2.7-2.7,3.5C87.8,164.9,86.4,165.3,84.8,165.3z M84.8,161.9c1.1,0,2-0.5,2.7-1.7c0.7-1.1,1-2.8,1-5.1
	c0-1.5-0.1-2.7-0.4-3.7c-0.3-1-0.7-1.7-1.3-2.2c-0.5-0.5-1.2-0.7-1.9-0.7c-1.1,0-2,0.5-2.7,1.7c-0.7,1.1-1,2.8-1,5
	c0,1.5,0.1,2.8,0.4,3.8c0.3,1,0.7,1.8,1.3,2.3C83.4,161.6,84,161.9,84.8,161.9z"/>
<path class="st11" d="M65.4,181.7c0,2.1-0.8,3.5-2.4,4.1c-0.4,0.1-0.8,0.2-1.2,0.2c-0.7,0-1.3-0.1-2-0.5v-1c0.6,0.3,1.2,0.5,1.8,0.5
	c0.5,0,0.9-0.1,1.3-0.3c0.8-0.5,1.2-1.4,1.2-2.8v-6.2l1.2-0.6C65.4,175,65.4,181.7,65.4,181.7z"/>
<path class="st11" d="M71.5,182.6c-1,0-1.8-0.3-2.3-1c-0.4-0.5-0.7-1.2-0.7-2.1v-7.7l1.2-0.6v8.3c0,1.3,0.6,2,1.9,2h0.6v1.1
	L71.5,182.6L71.5,182.6z"/>
<path class="st11" d="M74.9,172.6c-0.5,0-0.7-0.2-0.7-0.7c0-0.5,0.2-0.7,0.7-0.7c0.4,0,0.7,0.2,0.7,0.7
	C75.6,172.4,75.3,172.6,74.9,172.6z M77.6,181.4h0.6v1.1h-0.7c-1,0-1.8-0.3-2.4-1.1c-0.5,0.7-1.3,1.1-2.4,1.1h-0.7v-1.1h0.6
	c1.3,0,1.9-0.7,1.9-2v-3.9l1.2-0.6v4.5C75.7,180.8,76.3,181.4,77.6,181.4z"/>
<path class="st11" d="M77.9,182.6v-1.1h0.6c1.3,0,1.9-0.7,1.9-2v-3.9l1.2-0.6v4.5c0,1-0.3,1.8-0.8,2.3c-0.5,0.5-1.2,0.7-2.1,0.7
	L77.9,182.6L77.9,182.6z M78.4,185.9c-0.5,0-0.7-0.2-0.7-0.7s0.2-0.7,0.7-0.7c0.4,0,0.7,0.2,0.7,0.7
	C79.1,185.6,78.9,185.9,78.4,185.9z M80.5,185.9c-0.5,0-0.7-0.2-0.7-0.7s0.2-0.7,0.7-0.7c0.4,0,0.7,0.2,0.7,0.7
	C81.2,185.6,80.9,185.9,80.5,185.9z"/>
<path class="st11" d="M83.4,182.6l0.5-1.1h3.3c0.5,0,0.9-0.1,1.1-0.4c0.2-0.2,0.3-0.7,0.3-1.4c0-1.7-0.7-3-2.3-3.9l0.5-1
	c1.9,1.1,2.9,2.8,2.9,4.9c0,1.9-0.8,2.9-2.5,2.9H83.4z"/>
<path class="st7" d="M59,144.2h35.3v22.5H59V144.2z"/>
<path class="st11" d="M69.3,145.2V167h-4.6v-17.5h-0.1l-5,3.1v-4.1l5.4-3.4H69.3z"/>
<path class="st11" d="M82.5,167.3c-1.5,0-2.8-0.3-4-0.8c-1.2-0.5-2.1-1.3-2.8-2.3c-0.7-1-1-2.1-1.1-3.4H79c0,0.8,0.4,1.5,1,2.1
	s1.4,0.8,2.3,0.8c0.7,0,1.4-0.1,1.9-0.5c0.5-0.3,1-0.8,1.3-1.3c0.3-0.6,0.5-1.2,0.5-2s-0.1-1.4-0.5-2c-0.3-0.6-0.7-1-1.3-1.4
	c-0.5-0.3-1.2-0.5-1.9-0.5c-0.6,0-1.2,0.1-1.9,0.4c-0.6,0.2-1,0.6-1.4,1.1l-4.1-0.7l1-11.5h13.3v3.8h-9.5l-0.5,5.5h0.1
	c0.4-0.5,0.9-1,1.7-1.3c0.8-0.3,1.6-0.5,2.6-0.5c1.3,0,2.5,0.3,3.5,0.9c1,0.6,1.8,1.5,2.4,2.6c0.6,1.1,0.9,2.3,0.9,3.7
	c0,1.5-0.3,2.8-1,3.9c-0.7,1.1-1.6,2-2.9,2.7C85.5,167,84.1,167.3,82.5,167.3z"/>
<path class="st7" d="M59.6,144.5h36.6v24.7H59.6C59.6,169.2,59.6,144.5,59.6,144.5z"/>
<path class="st11" d="M60.3,166l7.7-15.3v-0.1h-9v-3.2h13.1v3.3l-7.7,15.4L60.3,166L60.3,166z"/>
<path class="st11" d="M73.8,166.2c-0.6,0-1.1-0.2-1.5-0.6c-0.4-0.4-0.6-0.9-0.6-1.5c0-0.6,0.2-1.1,0.6-1.5c0.4-0.4,0.9-0.6,1.5-0.6
	c0.6,0,1.1,0.2,1.5,0.6c0.4,0.4,0.6,0.9,0.6,1.5c0,0.4-0.1,0.8-0.3,1.1c-0.2,0.3-0.4,0.6-0.8,0.8C74.6,166.1,74.2,166.2,73.8,166.2z
	"/>
<path class="st11" d="M85.8,166.2c-1.3,0-2.4-0.2-3.4-0.7c-1-0.5-1.8-1.1-2.4-2c-0.6-0.8-0.9-1.8-0.9-2.9h3.8c0,0.7,0.3,1.3,0.9,1.8
	c0.5,0.4,1.2,0.7,2,0.7c0.6,0,1.1-0.1,1.6-0.4c0.5-0.3,0.8-0.6,1.1-1.1c0.3-0.5,0.4-1.1,0.4-1.7s-0.1-1.2-0.4-1.7
	c-0.3-0.5-0.6-0.9-1.1-1.2c-0.5-0.3-1-0.4-1.7-0.4c-0.5,0-1.1,0.1-1.6,0.3c-0.5,0.2-0.9,0.5-1.2,0.9l-3.5-0.6l0.9-9.8h11.4v3.2h-8.1
	l-0.5,4.7h0.1c0.3-0.4,0.8-0.8,1.5-1.1c0.6-0.3,1.4-0.4,2.2-0.4c1.1,0,2.1,0.2,3,0.8c0.9,0.5,1.6,1.2,2.1,2.2c0.5,0.9,0.7,2,0.7,3.2
	c0,1.2-0.3,2.4-0.9,3.4c-0.6,1-1.4,1.7-2.4,2.3C88.4,165.9,87.2,166.2,85.8,166.2z"/>
<path class="st7" d="M58.4,146.7h35V167h-35V146.7z"/>
<path class="st11" d="M77.9,142.1v21.8h-4.6v-17.4h-0.1l-4.9,3.1v-4.1l5.3-3.4L77.9,142.1L77.9,142.1z"/>
</svg>
