<?xml version="1.0" encoding="utf-8"?>
<!-- Generator: Adobe Illustrator 26.5.0, SVG Export Plug-In . SVG Version: 6.00 Build 0)  -->
<svg version="1.1" id="Layer_1" xmlns="http://www.w3.org/2000/svg" xmlns:xlink="http://www.w3.org/1999/xlink" x="0px" y="0px"
	 viewBox="0 0 160 190" style="enable-background:new 0 0 160 190;" xml:space="preserve">
<style type="text/css">
	.st0{fill:#B68148;}
	.st1{fill:#C29666;}
	.st2{fill:#D6D6D6;}
	.st3{fill:#B2B2B2;}
	.st4{fill:#FFCD2E;}
	.st5{fill:#FDDE64;}
	.st6{fill:#DCA97A;}
	.st7{fill:#D6A076;}
	.st8{fill:#F5871F;}
	.st9{fill:#DD2E44;}
	.st10{fill:#77B255;}
	.st11{fill:#662113;}
	.st12{fill:#9E9083;}
	.st13{fill:#F16236;}
	.st14{fill:#CB3F14;}
	.st15{fill:#685A4D;}
	.st16{fill:#FFFFFF;}
</style>
<g>
	<path class="st0" d="M80.8,120.8l-9.6,0.2l-0.9-51.1c0-2.7,2.1-4.8,4.7-4.9c2.7,0,4.8,2.1,4.9,4.7L80.8,120.8L80.8,120.8z"/>
	<path class="st1" d="M72.9,70.1c0-2.4,1.7-4.4,4-4.8C76.3,65.1,75.6,65,75,65c-2.7,0-4.8,2.2-4.7,4.9l0.9,51.1l2.6,0L72.9,70.1z"/>
	<path class="st2" d="M106.7,95.8v-4.8h10.4v4.8c3.6,1.9,5.9,5.8,5.9,10.1v21.9h-21.6v-18.2C101.4,105.3,103.1,97.7,106.7,95.8z"/>
	<path class="st3" d="M114.2,95.8v-4.8h2.9v4.8c3.6,1.9,5.9,5.8,5.9,10.1v21.9h-2.9V106C120,101.6,117.8,97.7,114.2,95.8z"/>
	<g>
		<path class="st4" d="M114.2,84.7h-7.6v6.5h7.6V84.7z"/>
	</g>
	<g>
		<path class="st5" d="M117.1,84.7h-2.9v6.4h2.9V84.7z"/>
	</g>
	<g>
		<path class="st6" d="M35.3,80.3c-1.9,3.6-1.8,7.9-0.8,11.9c1,3.9,3,7.5,4.6,11.2c1.1,2.3,2,4.6,3.2,6.8c1.5,2.8,3.3,5.4,5.2,7.9
			c3.2,4.5,6.4,8.9,10.1,12.9c1.3,1.3,2.6,2.6,4.3,3.4c1.7,0.8,3.7,0.9,5.3,0c1.2-0.7,1.9-1.9,2.4-3.2c0.7-2.3,0.4-4.7,0-7.1
			c-0.8-5.3-2.8-10.9-5.4-15.8c-2.2-4-4.6-6.8-6.7-10.3c0,0-2.2-3-3.3-4.7c-1.2-1.8-3.3-4.6-5.3-6.2c-2-1.6-6.5-6.9-6.6-7.3
			c-0.2-0.4-0.1-0.9-0.1-0.9c-0.3-0.2-0.5-0.3-0.8-0.4c-0.3-0.1-0.7-0.3-1-0.4l0,0c0,0-0.4,0.1-1.3-0.2c-0.2,0-0.4,0-0.5,0
			c0,0.3-0.3,0.8-1.7,0.6C36.2,78.7,35.7,79.5,35.3,80.3z"/>
	</g>
	<g>
		<path class="st7" d="M61.1,104.7c-0.1-0.1-0.1-0.2-0.2-0.4c0,0.1,0,0-0.1,0c0.1,0.1,0.1,0,0.1,0.3c0.1,0,0.1,0.1,0.1,0.1
			c0,0,0,0,0,0.1c-0.1-0.1-0.2-0.3-0.3-0.4c0-0.1,0-0.1,0.1-0.1c-0.1-0.1-0.1,0-0.1,0.1s0,0.3,0.1,0.3c-0.1,0.2-0.1,0.1-0.2,0
			s-0.1-0.3-0.2-0.5c0,0.1,0,0.2,0,0.3c0,0,0,0,0-0.1c0,0.2,0.1,0.4,0.2,0.5C60.7,104.6,61,105.1,61.1,104.7z M61.5,103.7
			C61.5,103.6,61.5,103.6,61.5,103.7c-0.1,0-0.1,0-0.2,0c0.1-0.1,0-0.2-0.1-0.1c0,0,0.1,0.2,0.2,0.2c0,0,0,0.1,0,0.1
			c-0.1-0.1-0.1,0-0.1,0c0,0,0-0.1,0-0.2c0-0.1-0.1-0.1-0.2,0c0-0.1,0-0.2,0-0.2c-0.1-0.1-0.1,0-0.1,0c0,0-0.1,0-0.1-0.1
			c0-0.1,0.2,0.1,0.2-0.1c-0.1,0-0.2-0.1-0.2,0c0,0-0.1-0.3-0.2-0.2c0,0,0,0.1,0,0.1c0.1,0.1,0.2,0.5,0.4,0.5c0,0.1,0,0.1,0,0.3
			c0.3,0.2,0.3,0,0.5,0c0,0,0-0.1,0-0.1C61.4,103.9,61.5,103.9,61.5,103.7z M60.6,103.3c0,0,0.1,0.2,0.1,0.4
			C60.8,103.6,60.7,103.4,60.6,103.3z M61.1,105.3C61.1,105.2,61,105.1,61.1,105.3c-0.1,0-0.1,0-0.1-0.2c0-0.1,0,0,0.1,0
			c0,0,0-0.1-0.1-0.2c-0.1,0,0,0.2,0,0.4C61,105.3,61,105.3,61.1,105.3z M60,104.7c-0.1,0,0,0.1-0.1,0.2
			C59.9,104.9,60.1,104.9,60,104.7z M60.1,104.6c0.1,0.2,0.1-0.1,0.1-0.2C60.2,104.4,60.2,104.5,60.1,104.6z M60.3,105.5
			c0.1-0.1-0.1-0.4,0-0.5c-0.1,0,0,0.2-0.1,0.3C60.3,105.4,60.2,105.4,60.3,105.5z M59.7,106.2c0-0.1,0.1-0.1,0.1-0.2
			c0-0.1,0,0.1-0.1,0C59.7,106.1,59.7,106.2,59.7,106.2C59.7,106.2,59.7,106.2,59.7,106.2C59.8,106.4,59.8,106.2,59.7,106.2z
			 M61.4,105.1c0-0.2,0.1-0.1,0-0.4C61.4,104.8,61.4,105,61.4,105.1c-0.1-0.1-0.1-0.1-0.1-0.1C61.2,105,61.3,105.1,61.4,105.1z
			 M60.2,105.9C60.2,106,60.3,105.9,60.2,105.9C60.4,106,60.2,105.8,60.2,105.9C60.3,105.8,60.2,105.8,60.2,105.9
			C60.2,105.8,60.3,105.9,60.2,105.9z M60.9,107.4c0,0.1-0.1,0.1,0,0.3c0,0,0,0,0.1,0C61,107.6,60.8,107.5,60.9,107.4z M60.1,104.4
			C59.9,104.3,59.9,103.9,60.1,104.4L60.1,104.4z M60.9,107.2c0,0-0.1-0.1-0.1-0.2s0-0.1-0.1-0.1C60.8,107,60.8,107.3,60.9,107.2z
			 M61.7,106.3c0-0.2,0,0-0.1-0.1c0,0,0.1,0.4,0.2,0.4C61.8,106.5,61.6,106.3,61.7,106.3z M61.1,103.3c0-0.1,0-0.1,0-0.2
			c0,0,0-0.1-0.1-0.1c0,0.1,0.1,0.4,0.2,0.5C61.3,103.5,61.2,103.2,61.1,103.3z M61.1,106.5c0.1,0.2,0.1,0.4,0.3,0.4
			c0-0.2-0.3-0.3-0.1-0.4C61.2,106.5,61.2,106.5,61.1,106.5z M61.8,106.1c0-0.1,0-0.4-0.2-0.4C61.8,105.8,61.8,106,61.8,106.1z
			 M56.5,100.4C56.5,100.4,56.5,100.4,56.5,100.4c-0.1,0-0.1,0-0.1,0c0,0,0.1,0.1,0.2,0.2C56.7,100.6,56.4,100.4,56.5,100.4z
			 M62.1,107.2C62.1,107.3,62.2,107.3,62.1,107.2c0.1-0.2,0-0.1,0-0.3C62,107,62,107.1,62.1,107.2z M56.2,100.8
			c-0.2-0.1,0-0.3,0-0.3c-0.1-0.1-0.2-0.1-0.3,0c0,0,0,0,0-0.1C55.7,100.4,56.1,100.7,56.2,100.8C56.1,100.8,56.2,100.9,56.2,100.8
			C56.2,100.9,56.2,100.8,56.2,100.8C56.1,100.8,56.2,100.8,56.2,100.8z M61.8,108.1c0.1,0.1,0-0.2,0-0.3
			C61.7,107.9,61.9,108.1,61.8,108.1z M56.3,100.5c0,0-0.1,0.1,0,0.2c0-0.1,0-0.1,0.1-0.1C56.4,100.6,56.4,100.7,56.3,100.5z
			 M60,103.9c0,0.1,0.1,0.3,0,0.3c0.2,0.2,0-0.1,0.1-0.2C60.1,103.9,60,103.8,60,103.9z M55.6,101.1c-0.1,0,0.1,0.2,0.1,0.2
			c0,0,0.1,0,0.1,0c0-0.1-0.1-0.1-0.2-0.1C55.6,101.2,55.6,101.2,55.6,101.1z M55.3,101.2c0,0.1,0,0.2-0.1,0.2
			c0.1,0.1,0.2,0.1,0.3,0.1C55.4,101.4,55.5,101.3,55.3,101.2z M55.6,100.8c-0.1-0.1-0.2-0.1-0.3-0.2
			C55.3,100.7,55.6,101.1,55.6,100.8z M60.4,103.6C60.4,103.7,60.5,103.8,60.4,103.6c0.1,0.2,0.1,0.2,0.1,0.2c0,0.1-0.1,0-0.1,0.2
			c0,0,0.1,0,0.1-0.1c-0.1-0.2-0.1-0.4-0.2-0.5C60.3,103.4,60.6,103.8,60.4,103.6z M60.2,103.8c0,0.2,0.2,0,0.2,0
			C60.3,103.6,60.3,103.9,60.2,103.8z M62,106.3c0,0,0,0.2,0,0.3C62.1,106.6,62,106.3,62,106.3z M56.5,100.8c0,0.1,0.1,0.3,0.2,0.2
			C56.6,100.8,56.5,100.9,56.5,100.8z M62,104.4C62,104.4,62,104.4,62,104.4c-0.1,0-0.1-0.1-0.1-0.2l0,0c0,0,0,0.1,0,0.1
			c0.1,0,0.1,0.2,0.1,0.3c0-0.1,0.1,0,0.1,0.1c0.1,0,0-0.1,0-0.2C62,104.5,62,104.5,62,104.4z M60.9,102.8
			C60.9,102.7,60.9,102.7,60.9,102.8C60.9,102.7,60.9,102.8,60.9,102.8z M61,103C61,103,61,102.9,61,103C61,102.9,61,102.9,61,103
			C61,103,61,103,61,103z M60.7,102.5L60.7,102.5C60.7,102.4,60.7,102.5,60.7,102.5C60.7,102.5,60.7,102.5,60.7,102.5z M60.7,103.1
			c0,0,0-0.1,0-0.1c0,0,0,0,0.1,0C60.8,103.1,60.8,103.1,60.7,103.1c0.2-0.1,0.3,0,0.3,0.1c0.1,0,0-0.1-0.1-0.3c0,0.3-0.2-0.1-0.4,0
			C60.6,103.1,60.6,103.1,60.7,103.1z M57.7,101.5c0.1,0.1,0.1,0.2,0.1,0.2C58,101.9,57.8,101.4,57.7,101.5z M57.6,101.9
			c0,0.1,0,0.1-0.1,0.1c0,0,0.1,0,0.1,0.1C57.6,102,57.7,102,57.6,101.9z M57.2,102.9C57.2,102.9,57.1,102.9,57.2,102.9
			c-0.1-0.1-0.2-0.2-0.2-0.2C57,102.8,57.1,103,57.2,102.9z M57.4,102.1c0,0.1,0.1,0.1,0.2,0.1C57.6,102.2,57.6,102.2,57.4,102.1
			L57.4,102.1z M59.8,105c0.2,0.2,0.2,0.5,0.4,0.5c-0.1-0.2-0.2-0.5-0.3-0.7C59.7,104.8,59.9,105,59.8,105z M58,101.2
			c-0.1-0.1-0.1-0.2-0.2-0.4c0,0-0.1,0-0.1,0.1C57.8,101,57.9,101.2,58,101.2z M57.4,100.6c0,0.1,0.1,0.2,0.2,0.3
			C57.6,100.8,57.5,100.7,57.4,100.6c0.2,0.1,0.1-0.1,0.2,0.1c0,0,0-0.1,0-0.1C57.5,100.4,57.5,100.5,57.4,100.6z M57.4,101.3
			c0,0.1,0.1,0.2,0.2,0.3c0-0.1,0-0.2,0-0.2c0-0.1-0.1-0.1-0.2-0.3c0.1,0,0.1,0.1,0.2,0c0-0.1-0.1-0.1-0.1,0c0-0.1-0.1-0.2-0.2-0.3
			c0,0,0,0.1-0.1,0.1C57.3,101.2,57.3,101.2,57.4,101.3z M57.2,102.5C57.2,102.5,57.1,102.5,57.2,102.5c0,0.2,0,0.1,0.1,0.2
			C57.3,102.7,57.2,102.5,57.2,102.5z M58,103.3c0-0.1,0-0.1,0-0.2c0,0,0.1,0,0.1,0.1c0-0.1-0.1-0.2,0-0.2c0-0.2-0.1,0-0.2-0.1
			c0,0,0.1,0.1,0.1,0.2c0,0-0.1-0.1-0.2,0C57.9,103.1,58,103.3,58,103.3C57.9,103.3,58,103.2,58,103.3z M57.2,103.3
			C57.4,103.4,57.6,103.1,57.2,103.3L57.2,103.3z M57.5,102.4C57.5,102.5,57.5,102.4,57.5,102.4C57.6,102.5,57.6,102.5,57.5,102.4
			C57.5,102.5,57.6,102.5,57.5,102.4l0.1,0.1L57.5,102.4c0.1-0.1,0.1,0,0.2,0c0,0.1,0,0.1,0,0.2c0,0,0,0,0.1,0c0-0.1,0-0.2,0-0.3
			c0.1,0,0.1-0.1,0.3,0c-0.1-0.2-0.2,0-0.3,0c0,0,0-0.1-0.1-0.1C57.6,102.5,57.6,102.3,57.5,102.4C57.5,102.4,57.5,102.4,57.5,102.4
			z M58,102.6C58,102.7,58,102.7,58,102.6c0,0.1,0.1,0.3,0.2,0.2c0-0.1,0-0.1-0.1,0C58,102.7,58.1,102.7,58,102.6
			C58,102.5,58,102.5,58,102.6z M57.8,102.1C57.7,102.1,57.7,102.1,57.8,102.1C57.8,102.3,57.8,102.2,57.8,102.1
			C57.8,102.1,57.9,102.1,57.8,102.1C57.8,102,57.8,102.1,57.8,102.1z M57.9,103.7c0-0.1-0.2,0-0.2-0.1
			C57.6,103.7,57.8,103.6,57.9,103.7z M57.9,102l0.1,0.2C58.1,102.2,58,101.9,57.9,102z M58.1,102.3
			C58.1,102.3,58.1,102.3,58.1,102.3L58.1,102.3c0,0,0,0,0,0.1C58.2,102.5,58,102.3,58.1,102.3z M57.2,102.4c0,0,0-0.1,0.1-0.1
			c0-0.1,0,0-0.1-0.1C57.1,102.2,57.2,102.3,57.2,102.4z M58.8,104.1C58.8,104.2,58.9,104.2,58.8,104.1c0,0,0-0.1,0-0.1
			C58.7,103.8,59,104.2,58.8,104.1z M58.9,103.2c-0.1,0.1,0.1,0.4,0.1,0.6c0,0,0-0.1,0.1,0c0,0,0-0.2-0.1-0.3c0-0.1-0.1-0.2,0-0.2
			C59.1,103.3,59,103.3,58.9,103.2z M58.9,103.8c0,0,0.1,0.1,0.1,0.1C59,103.8,58.9,103.8,58.9,103.8c0-0.1,0-0.1,0-0.1
			C58.7,103.7,58.9,103.8,58.9,103.8z M59.3,103.7c0.1,0.2,0.1-0.1,0.1,0.1c0-0.1-0.1-0.2-0.1-0.3C59.3,103.5,59.4,103.6,59.3,103.7
			z M59.6,104.6c0-0.2-0.2-0.2-0.2-0.3C59.3,104.4,59.5,104.3,59.6,104.6z M60.1,102.4c0,0-0.1-0.2-0.1-0.2
			C59.9,102.2,60,102.4,60.1,102.4z M59.5,104.2c0.1,0-0.2-0.2-0.1-0.2c-0.1-0.1,0,0.1,0,0.1C59.4,104,59.5,104.1,59.5,104.2z
			 M59.8,104c0-0.1-0.1-0.3-0.2-0.4C59.6,103.7,59.7,103.8,59.8,104z M58.5,103.8c0,0.1,0.1,0.1,0.2,0
			C58.6,103.7,58.5,103.8,58.5,103.8z M58.1,104.2C58.1,104.2,58.1,104.1,58.1,104.2C58.1,104.2,58.1,104.2,58.1,104.2
			c0,0,0-0.1,0-0.2C58,104.1,58.1,104.1,58.1,104.2z M58.3,102.5c0.2,0.2,0,0.2,0.1,0.3C58.5,102.8,58.5,102.4,58.3,102.5z
			 M58.2,102.7c0,0,0,0.1,0,0.1C58.3,103,58.3,102.8,58.2,102.7z M58.3,103.6c0,0,0-0.1,0-0.1C58.3,103.5,58.3,103.5,58.3,103.6
			c-0.1-0.1-0.1-0.1-0.2-0.2C58.1,103.5,58.2,103.7,58.3,103.6z M58,101.4c0,0,0,0.2,0,0.2c0,0,0.1,0,0.1,0
			C58.2,101.6,58.1,101.4,58,101.4z M58.4,104c0,0,0.1,0,0.2,0.1C58.5,103.9,58.4,104,58.4,104C58.4,103.9,58.4,104,58.4,104z
			 M58.7,103.7c0,0.2,0,0.2,0.1,0.1C58.8,103.7,58.7,103.7,58.7,103.7z M58.6,103.1c0.1,0,0-0.2,0.1,0c0,0,0,0,0,0
			C58.7,103,58.5,103,58.6,103.1z M50.9,91c-0.1-0.1-0.4-0.1-0.2-0.3c-0.1-0.1-0.1,0-0.2-0.1c0.2,0.3,0.4,0.4,0.4,0.5
			C50.9,91.1,50.9,91,50.9,91z M47.6,90.4c-0.2,0,0-0.1-0.3-0.3c-0.1,0.1-0.1,0.1-0.1,0.2c0.2,0,0.2,0.1,0.3,0.2
			C47.6,90.4,47.6,90.4,47.6,90.4z M47.8,90.4C47.7,90.4,47.7,90.5,47.8,90.4c0,0.2,0,0.1,0.1,0.2C47.9,90.6,47.6,90.5,47.8,90.4z
			 M49.1,90.2c0.2,0.1,0.1-0.1,0.1-0.2C49.1,90,49.2,90.2,49.1,90.2z M48.7,89.3c0,0.1,0,0.1-0.1,0c-0.1,0-0.2,0-0.2,0
			c0.2,0.1,0.2,0.3,0.3,0.4c0-0.2,0-0.2,0-0.4c0,0,0.2,0.1,0.2,0L48.7,89.3z M48.2,90.8C48.2,90.8,48.2,90.8,48.2,90.8
			C48.2,90.7,48.2,90.8,48.2,90.8c-0.1,0-0.2-0.2-0.2-0.2c0,0,0,0.1,0,0.2C48.1,90.8,48.1,90.7,48.2,90.8z M54,96.6
			c0.3,0.1,0.6,0.6,0.8,0.7c0-0.1,0-0.4-0.2-0.4c0.1,0,0.1,0.1,0.1,0.2c-0.1-0.1-0.2,0-0.3-0.2c0-0.1,0.2,0,0.2-0.2
			c-0.1,0-0.2,0.1-0.4,0.1c-0.1-0.2-0.1-0.2-0.2-0.4C54.1,96.5,54.1,96.6,54,96.6z M54.4,97.2c0.1,0,0.2,0.1,0.3,0.1
			C54.6,97.2,54.5,97.1,54.4,97.2z M48,89.4C48,89.4,48,89.4,48,89.4c0,0.1,0,0.1,0.1,0.2C48.3,89.6,48,89.5,48,89.4z M48.1,88.8
			c0,0.1,0,0.1,0,0.2c0.1,0,0.1,0,0.2,0C48.2,88.9,48.1,88.8,48.1,88.8z M50.2,93.4c0.1,0,0.2,0.2,0.3,0.1
			C50.4,93.5,50.3,93.4,50.2,93.4z M50.4,92.6c0.1,0.1,0.1,0.2,0.1,0.3c0.1,0,0.3,0.1,0.3,0.1c-0.1-0.1-0.4-0.2-0.2-0.4
			C50.6,92.6,50.5,92.5,50.4,92.6C50.5,92.5,50.4,92.5,50.4,92.6z M48.7,91.1c-0.1-0.1-0.2-0.1-0.2,0C48.7,91.1,48.7,91.2,48.7,91.1
			z M50.6,92.3c0.1,0,0-0.1,0.1-0.1c0,0-0.1-0.1-0.2-0.1C50.4,92.2,50.5,92.3,50.6,92.3z M49.1,91.6c0,0,0.1,0.1,0.2,0.2
			c0,0,0-0.1,0-0.1C49.3,91.6,49.2,91.6,49.1,91.6z M51.1,91.6c0.1,0.1,0.1,0.1,0.2,0.2c0.1-0.1,0-0.1,0-0.2
			C51.2,91.5,51.1,91.6,51.1,91.6z M51.2,91.3c-0.1-0.1,0,0-0.1-0.2c0,0-0.1,0.1-0.1,0C50.8,91.1,51.2,91.5,51.2,91.3z M51.1,92.3
			c0,0,0,0.1-0.1,0.1c0.2,0.1,0.3,0.3,0.4,0C51.3,92.3,51.2,92.4,51.1,92.3z M50.9,92c-0.1-0.1-0.2,0.1-0.1,0.1
			C50.9,92.2,50.8,92,50.9,92z M36.6,83C36.7,83,36.8,83,36.6,83C36.6,82.8,36.7,82.9,36.6,83z M36.1,82.4c0.1,0,0.2,0,0.3,0
			C36.4,82.4,36.2,82.3,36.1,82.4z M36.4,78.7L36.4,78.7C36.4,78.7,36.4,78.7,36.4,78.7C36.4,78.7,36.4,78.7,36.4,78.7z M38.6,84.5
			c0,0,0.1,0,0.1,0C38.6,84.3,38,84.2,38.6,84.5z M38.6,84.9C38.4,85,38.2,84.7,38.6,84.9L38.6,84.9z M37.6,83.5
			C37.9,83.6,37.8,83.8,37.6,83.5L37.6,83.5z M39.1,84.8c0.1,0,0.1,0,0.2,0c0,0-0.1-0.1-0.2-0.2C39.1,84.7,39.2,84.8,39.1,84.8z
			 M39.2,85.1c-0.2,0.1,0.8,0.5,1,0.5c0-0.1-0.3,0-0.3-0.2c-0.1,0-0.4-0.2-0.5,0C39.4,85.3,39.2,85.2,39.2,85.1z M57.2,100
			c0,0,0-0.4-0.2-0.3C57.2,99.8,57.2,99.9,57.2,100z M60.4,102.8C60.4,102.7,60.5,102.8,60.4,102.8c0.2,0,0,0,0-0.2l-0.1,0
			C60.3,102.7,60.3,102.8,60.4,102.8z M58.1,100.8c0.1,0.1,0.1,0.2,0.2,0.3c0,0.1,0.1,0.2,0.2,0.3c0-0.1-0.1-0.2-0.2-0.4
			c0-0.1,0.1,0,0.1,0c-0.1-0.1,0-0.2-0.1-0.3c0,0,0,0.1,0,0.1C58.2,100.9,58.2,100.8,58.1,100.8C58.1,100.8,58.1,100.8,58.1,100.8
			C58,100.6,58.2,100.8,58.1,100.8z M55,97.3c0.1,0,0.1,0.1,0.2,0C55.2,97.3,55.1,97.2,55,97.3z M35.7,80.2c-0.1,0-0.2-0.1-0.3-0.2
			c0-0.1,0.1-0.2,0.1-0.3c0,0.1-0.1,0.1-0.1,0.2c0,0.1,0.2,0.3,0.1,0.4C35.6,80.4,35.8,80.4,35.7,80.2z M36.2,78.8
			c0,0.1-0.1,0.2,0,0.3c0.2,0,0.1-0.1,0.2-0.2C36.3,78.9,36.3,78.8,36.2,78.8C36.3,78.8,36.3,78.8,36.2,78.8z M35.9,79.8
			c-0.1-0.1-0.1,0.1-0.2,0C35.7,79.9,35.9,79.9,35.9,79.8z M36.5,78.7c0.1,0,0.1,0,0.2-0.1c-0.1,0-0.1,0-0.2-0.1l0,0
			C36.6,78.6,36.6,78.6,36.5,78.7z M40.6,77.8c0,0,0,0,0.3,0.2C40.7,77.9,40.6,77.8,40.6,77.8z M49.9,91.9L49.9,91.9
			c0-0.2-0.1-0.3-0.2-0.3C49.7,91.7,49.8,91.7,49.9,91.9z M51.8,94c-0.1-0.1-0.1-0.2-0.2-0.2c-0.1,0,0,0.2,0,0.3
			C51.7,94.1,51.8,94.1,51.8,94z M53.4,96.5c-0.1-0.1-0.2-0.3-0.4-0.4c0,0,0.1,0.2,0,0.2c0,0,0.1,0.1,0.2,0c-0.1,0.1,0.1,0.1,0,0.2
			c0,0,0,0,0,0C53.3,96.4,53.3,96.5,53.4,96.5z M54.1,97.7c0,0-0.1-0.1-0.1,0c0,0.1,0.1,0.2,0.2,0.3C54.2,97.8,54.2,97.7,54.1,97.7z
			 M53.3,96.1c0.1,0.1,0.1,0,0.1-0.1C53.3,95.8,53.4,96.1,53.3,96.1z M51.9,92.9C51.9,92.9,51.8,92.8,51.9,92.9
			C51.5,93,51.8,93,51.9,92.9z M52.1,95.1c0,0,0.1,0,0.1,0c0-0.1,0-0.2-0.1-0.3c0.2,0.2,0-0.2-0.1-0.3c0,0.1,0.1,0.1,0.1,0.2
			c-0.1,0-0.2-0.1-0.3,0c0-0.1,0-0.1,0,0c0,0,0-0.1-0.1-0.1c0,0.1-0.2,0.1-0.3,0c0,0.1,0.1,0.2,0.2,0.2c0.1,0.1,0.1,0.1,0.1,0.3
			c0.1,0,0.4,0.2,0.3,0.3c0.1,0.1,0.1,0,0.2,0C52.4,95.3,52.2,95.1,52.1,95.1C52.2,95.2,52.2,95.1,52.1,95.1z M52.7,95.5
			c-0.1-0.1-0.1-0.1-0.2-0.1C52.6,95.5,52.6,95.5,52.7,95.5z M51.8,93.2c0-0.1-0.2-0.2-0.3-0.1C51.7,93.2,51.8,93.1,51.8,93.2z
			 M53.4,95.4c0,0-0.2,0-0.1-0.1c-0.1-0.1-0.2,0-0.4,0c0,0.2,0.2,0.3,0.1,0.4c0,0,0.1,0,0.1,0c0-0.1,0-0.1-0.1-0.2
			c0.1,0,0.1,0,0.2,0c0.1,0.2,0.1,0.1,0.3,0.2C53.5,95.5,53.3,95.4,53.4,95.4z M54.3,99.9c0.3,0.1,0.3-0.3,0.4-0.2
			c0,0-0.1-0.1-0.2,0c-0.1,0,0,0.1,0,0.2c0,0,0,0-0.1,0c0-0.1,0-0.1-0.1-0.2c0-0.1,0-0.1,0.1-0.1c0-0.1-0.1-0.1-0.2,0
			c0.1,0.1,0.1,0.2,0.1,0.3c0,0-0.1,0-0.1-0.1C54.2,99.7,54.2,99.7,54.3,99.9z M53.8,97.6c-0.1,0-0.2,0-0.1,0.1
			C53.8,97.7,54,97.7,53.8,97.6z M54.1,98.2c0-0.1-0.1-0.2-0.2-0.2c0,0,0.1,0,0.1,0c-0.1-0.2-0.3,0.1-0.4-0.2c0,0-0.1,0-0.1,0.1
			c0,0-0.1,0-0.2-0.1c0,0.1,0.1,0.3,0.2,0.3c0-0.2,0.2,0.1,0.3,0c0,0.2,0.2,0.4,0,0.4c0,0-0.1-0.2-0.2-0.1c0,0.1,0.1,0.1,0.1,0.2
			C54.1,98.6,54,98.3,54.1,98.2z M55.1,100.7c-0.2-0.1,0,0.2,0.1,0.1C55.2,100.8,55.1,100.8,55.1,100.7z M53.9,96.1
			c0-0.1,0.2,0,0-0.3C53.9,95.9,53.8,96,53.9,96.1c-0.1-0.1-0.1-0.2-0.2-0.2c0,0,0,0.1,0,0.2C53.7,96.2,53.8,96.1,53.9,96.1
			c0,0.1,0,0.1,0,0.2c-0.1,0-0.1-0.2-0.2,0c0.1,0.1,0.3,0.1,0.4,0.2c0,0,0-0.1,0-0.1C54,96.2,53.9,96.2,53.9,96.1z M54.1,97.5
			c0-0.2-0.3-0.3-0.4-0.6c0,0.1-0.2,0-0.2,0.1c0.2,0.1,0.3,0.4,0.5,0.4c0,0,0,0,0,0c0,0-0.1-0.1-0.1-0.2
			C53.9,97.3,54,97.5,54.1,97.5z M53.7,96.7c0,0-0.1-0.1-0.2-0.1c0,0.1,0.1,0.3,0.2,0.3c0.1,0,0.1-0.1,0.1-0.2
			c-0.1-0.1,0-0.1-0.1-0.2C53.6,96.5,53.7,96.6,53.7,96.7z M54.1,96.1c0.1,0.2,0.1,0,0.2,0C54.1,95.9,54.1,96.1,54.1,96.1z
			 M50.3,91.4C50.3,91.4,50.3,91.3,50.3,91.4c-0.1-0.2-0.1-0.1-0.2,0C50.2,91.5,50.2,91.3,50.3,91.4z M56.5,101.3
			C56.5,101.3,56.4,101.3,56.5,101.3L56.5,101.3c0,0.1,0,0.1,0,0.2C56.5,101.5,56.4,101.4,56.5,101.3z M50.4,92.8
			c0,0.1-0.1,0.2-0.1,0.3c0.2-0.1,0.2,0.4,0.4,0.3c-0.2,0-0.1-0.3-0.3-0.4c0-0.1,0.1,0,0.1,0C50.5,92.9,50.5,92.9,50.4,92.8z
			 M49.4,92.7c0,0-0.1-0.2,0-0.2C49.3,92.4,49.3,92.6,49.4,92.7z M50.4,90.4c0.1,0.1,0.2-0.1,0.3,0.1c0.1,0-0.1-0.1-0.1-0.2
			C50.5,90.4,50.5,90.4,50.4,90.4z M57.3,100.2c0.1,0.1,0.1,0.2,0.2,0.3c0-0.2-0.1-0.4-0.1-0.5C57.3,100,57.4,100.1,57.3,100.2z
			 M52.4,95.2C52.7,95.3,52.4,95.4,52.4,95.2L52.4,95.2z M49.7,91.2c0,0.1,0,0.2,0.1,0.3C49.9,91.5,49.8,91.3,49.7,91.2z M49.9,90.6
			c0,0,0,0.1,0,0.1c0,0,0.1,0,0.1,0.1c0,0,0-0.1,0-0.1C50,90.7,50,90.7,49.9,90.6C49.9,90.7,49.9,90.7,49.9,90.6z M50.3,92
			c0-0.1-0.2-0.2-0.2-0.1C50.1,91.9,50.2,92,50.3,92z M49.9,90.1c0.1,0,0.1-0.2,0.2,0c0,0,0-0.1,0-0.2c0.1,0,0.2,0.1,0.3,0.2
			c0,0-0.1-0.2-0.1-0.2c0,0-0.1,0-0.1,0c-0.2,0.1-0.3,0.3-0.3,0.4c0,0.1,0.2,0.1,0.1,0c0,0,0.1,0.1,0.1,0c0,0.1,0,0.2-0.1,0.2
			c0,0,0,0,0.1,0c0,0,0,0.1,0.1,0.1c-0.1-0.2,0.2,0,0.1-0.1c0.1,0,0.1,0,0.2,0.1C50.3,90.4,50.1,90.4,49.9,90.1z M50.9,91.2
			c-0.2-0.1-0.2,0.1-0.4,0.1c0.1,0.2,0.2-0.1,0.3,0.1C50.9,91.4,50.8,91.3,50.9,91.2z M51.4,93c-0.2-0.1-0.4-0.3-0.7-0.2
			c0.1,0.1,0.1,0.2,0,0.2c0,0,0.1,0.1,0.1,0.2c0.1,0,0-0.1,0-0.2c0,0,0.1,0,0.1-0.1c0,0,0.1,0,0.1,0c0.1,0.1-0.1,0.1,0,0.2
			c0.1,0.1,0-0.2,0.2,0C51.4,93.1,51.4,93,51.4,93z M49.5,90.7c0.1,0.1,0.1,0.1,0.2,0.2C49.9,90.8,49.5,90.7,49.5,90.7
			C49.5,90.5,49.6,90.7,49.5,90.7z M49.7,91c0,0-0.1-0.1-0.1-0.1L49.5,91C49.5,91,49.6,91.2,49.7,91z M49.6,90.3L49.6,90.3
			c-0.1-0.2-0.1,0.1-0.2,0c0,0.1,0.2,0,0.3,0.1C49.7,90.4,49.6,90.4,49.6,90.3z M50,92c0,0.1,0,0.2-0.1,0.3c0.1,0,0.1-0.2,0.2-0.3
			C50.1,91.9,50.1,92.1,50,92z M49.5,90.8c0,0-0.2,0-0.1-0.2c-0.1,0-0.2,0.4,0,0.4C49.2,90.8,49.4,90.8,49.5,90.8z M49.1,91.4
			c-0.1,0-0.1-0.1-0.2-0.2c0,0,0,0-0.1,0.1c0.1,0.1,0.1,0.1,0.2,0.3C49.1,91.5,49.1,91.4,49.1,91.4z M44.3,88.2c0.1,0,0-0.1-0.1-0.2
			c0,0,0,0-0.1,0C44.1,88.1,44.3,88.1,44.3,88.2z M44.6,88.6c0,0,0.1,0,0.1-0.1c-0.1-0.1-0.2,0-0.3-0.1
			C44.4,88.5,44.5,88.6,44.6,88.6z M45.5,89c-0.1-0.1-0.1,0-0.2-0.1C45.3,89,45.4,89.1,45.5,89C45.5,89.1,45.4,89.1,45.5,89z
			 M45.7,88.9C45.7,88.8,45.8,88.9,45.7,88.9C45.8,88.7,45.6,88.8,45.7,88.9C45.7,88.9,45.7,88.9,45.7,88.9z M44,88.2
			c0-0.1-0.1-0.1,0-0.2c0,0-0.1-0.1-0.2-0.1c0,0,0.1,0.1,0.1,0.1c-0.1,0-0.2-0.1-0.4-0.1c0,0,0.2,0.1,0.2,0.2
			C43.7,87.9,43.8,88.2,44,88.2z M45.3,88.6C45.3,88.5,45.3,88.6,45.3,88.6C45.2,88.6,45.3,88.6,45.3,88.6c0,0.1-0.1,0.1-0.1,0.1
			c0-0.1-0.1-0.2-0.2-0.2c0,0.1,0.3,0.2,0.4,0.3c0,0,0,0-0.1,0c0,0,0,0.1,0,0.1c0,0,0,0,0,0C45.3,88.8,45.2,88.7,45.3,88.6z M59,103
			L59,103C59,103,59,102.9,59,103z M53.4,94c0,0,0,0.1,0,0.2c0,0,0,0,0.1,0C53.5,94,53.4,94,53.4,94z M56.8,100.9
			c0,0,0.1,0.2,0.1,0.1c-0.1,0,0-0.2-0.1-0.3C56.8,100.8,56.9,100.9,56.8,100.9z M59,103.1L59,103.1L59,103.1z M45.7,89.2
			c0-0.1,0.1,0,0.2,0.1c0.1-0.1-0.2-0.2-0.1-0.2c-0.1,0-0.2,0-0.2,0.1c0.1,0.1,0.3,0.1,0.2,0.2c0.1,0.1,0.1,0,0.2,0.1
			C45.9,89.3,45.7,89.2,45.7,89.2z M47.5,89.6L47.5,89.6L47.5,89.6L47.5,89.6z M47.5,89.6C47.5,89.6,47.5,89.6,47.5,89.6
			C47.5,89.6,47.5,89.6,47.5,89.6z M60,102.7c-0.1-0.1,0,0.3-0.1,0.3c0,0,0.1,0,0,0c0.1,0,0.1,0,0.2,0.1c0,0,0.1-0.1,0.1-0.1
			c0,0-0.1,0-0.2,0C60,102.8,59.9,102.7,60,102.7z M58.4,103.1c0,0.1-0.1,0.1-0.2,0c0,0.1,0.1,0.2,0.1,0.3c0,0,0,0-0.1,0
			c0,0,0-0.1,0-0.1c0,0-0.1,0-0.1-0.1c-0.1,0.1,0.1,0.2,0.1,0.3c0-0.1,0.1-0.2,0.1-0.3c0.1,0.1,0.1,0,0.2,0
			C58.5,103,58.5,103.2,58.4,103.1z M58.2,101.9c0,0-0.1,0-0.1,0c0,0,0,0.1,0,0.2c0-0.3,0.2,0.1,0.3,0.3
			C58.3,102.2,58.2,102,58.2,101.9C58.1,101.8,58.2,101.9,58.2,101.9z M57.8,100.2c0.1,0.1,0.2,0.3,0.3,0.4c0-0.1-0.1-0.3-0.2-0.4
			L57.8,100.2z M59.1,102.5C59.2,102.6,59.2,102.4,59.1,102.5c0.1,0,0,0.1,0.1,0.2c0-0.1,0.1,0,0,0c0,0.1,0-0.1,0.1,0
			c0-0.2-0.2-0.6-0.4-0.6C59.1,102.3,59.2,102.4,59.1,102.5z M57.7,100.2L57.7,100.2C57.8,100.1,57.7,100.1,57.7,100.2z M58,100.8
			C57.9,100.8,57.9,100.8,58,100.8C57.9,100.7,57.9,100.8,58,100.8c-0.1-0.1-0.1-0.3-0.2-0.3c0.1,0,0.1,0.1,0.2,0.1c0,0,0-0.1,0-0.1
			c-0.1,0-0.1-0.1-0.2-0.4c0,0,0,0,0-0.1c0.1,0.3,0,0.3,0,0.5c0,0.1,0.1,0.1,0.1,0.1C57.7,100.5,57.9,100.9,58,100.8z M46.3,89.7
			c0-0.1,0,0,0-0.2C46.1,89.3,46.1,89.7,46.3,89.7z M63,105.9c-0.1-0.1-0.1-0.2-0.2-0.4l0,0c0,0.2,0,0.1,0.1,0.3
			C62.9,105.8,62.9,105.9,63,105.9z M59.8,102.6c-0.1,0-0.1,0,0,0.2C59.8,102.7,59.8,102.7,59.8,102.6z M46.2,89.2c0,0,0.1,0,0.1,0
			C46.2,89.1,46.1,89.1,46.2,89.2L46.2,89.2C46.2,89.2,46.2,89.2,46.2,89.2z M59.5,103.3c0-0.1-0.1-0.1-0.2-0.2c0.1,0,0.1,0.2,0.2,0
			c-0.1,0-0.2,0-0.1-0.2c0,0.1-0.1,0-0.2,0c0,0.1,0.1,0.2,0.2,0.3s0.2,0.2,0.2,0.4C59.6,103.5,59.6,103.4,59.5,103.3z M60.3,103.3
			c0-0.1-0.2,0-0.2-0.2c0,0,0,0.2,0.1,0.1c0,0,0,0.1,0,0.2c-0.1,0,0-0.2-0.2-0.1c0,0.1,0.1,0.1,0.2,0.3c0,0,0.1,0,0.1,0
			C60.3,103.6,60.2,103.2,60.3,103.3z M40.1,84.7c0.1,0,0.1,0,0.1-0.1c0,0-0.1,0-0.1,0C39.6,84.3,39.9,84.5,40.1,84.7
			c-0.1-0.1-0.3-0.2-0.2,0c-0.2,0,0-0.1-0.1-0.2v0.1c-0.2-0.1-0.4-0.2-0.6-0.4c-0.2-0.1-0.5-0.3-0.8-0.4c0.2,0.1,0.4,0.3,0.7,0.4
			c0.3,0.1,0.5,0.3,0.8,0.4c0,0,0,0.1,0,0.1c0.1,0.2,0.4,0.2,0.5,0.2c0.1,0.1-0.1,0,0,0.1c0.1,0.1,0.1,0,0.3,0.1
			C40.4,85,40.3,84.8,40.1,84.7z M40.3,84c-0.1,0-0.3-0.1-0.5-0.2c0,0,0.1-0.1,0.2,0c0,0-0.2-0.1-0.2-0.2c-0.2,0-0.5-0.1-0.5,0
			c0.1,0.1,0.2,0.1,0.4,0.2c0-0.1-0.1-0.1,0-0.2c0.1,0.1,0.3,0.3,0.3,0.4c0.1,0.1,0.2,0,0.2-0.1C40,83.9,40.2,84.1,40.3,84z
			 M40.3,84.3c0.1,0,0.3,0,0.4,0.1c0-0.1-0.3-0.4-0.4-0.3c0.1,0,0.1,0,0.2,0.1c0,0,0,0.1,0.1,0.1c-0.1,0-0.2,0-0.4-0.2
			C40.1,84.2,40.4,84.3,40.3,84.3z M39.1,83.4c-0.1,0,0,0.1,0,0.2c0,0,0.1,0,0.1,0c0,0,0-0.1,0,0C39.3,83.5,39.1,83.5,39.1,83.4z
			 M38.9,83.4c0.1,0,0.1,0,0.2,0C39.1,83.3,39,83.3,38.9,83.4z M39,83.3c0,0-0.2-0.1-0.3-0.2c0,0,0,0.1,0,0c0,0,0,0,0,0
			c0,0,0,0.1,0,0.1C38.8,83.3,38.9,83.3,39,83.3C38.9,83.3,38.9,83.2,39,83.3z M38.7,83c0,0,0.2,0.1,0.1,0.1c0.2,0,0.4,0.2,0.4,0.1
			C39.1,83.2,39,83.1,38.7,83z M38.6,82.9c-0.1,0-0.1-0.1-0.2-0.1c0,0.1,0.1,0.3,0.2,0.3C38.5,83,38.7,83.1,38.6,82.9z M38.7,82.4
			c-0.1,0-0.2-0.1-0.3-0.1C38.4,82.3,38.7,82.5,38.7,82.4z M38.3,82.2c-0.3-0.1-0.5-0.2-0.7-0.5c-0.1,0-0.2-0.1-0.2,0
			C37.7,81.9,37.8,82.1,38.3,82.2C38.1,82.2,38.2,82.2,38.3,82.2C38.3,82.3,38.3,82.3,38.3,82.2z M37.7,81.5c-0.1,0-0.1,0-0.1,0
			c0.1,0,0.3,0.2,0.1,0.1c0.1,0.1,0.3,0,0.4,0.2C38.3,81.7,37.6,81.6,37.7,81.5z M38.8,77.7c-0.1,0,0.1,0.1,0.2,0.2
			C39.1,77.8,38.8,77.7,38.8,77.7z M37.2,81.4C37.2,81.6,37.2,81.5,37.2,81.4c0.1,0.1,0,0.2,0.1,0.3c0-0.1,0,0,0-0.1
			C37.2,81.6,37.3,81.5,37.2,81.4z M36.9,81.2c0-0.1,0.1,0,0.1,0c-0.1,0-0.1,0-0.3-0.1C36.7,81.2,36.8,81.2,36.9,81.2
			c-0.2,0.1-0.1,0-0.2-0.1c-0.1,0,0,0.1,0,0.1c0,0-0.1-0.1-0.1-0.2c-0.1-0.1-0.1,0.1-0.2,0c-0.1,0,0,0.3,0,0.4c0,0,0.1,0,0.1,0
			c0,0,0,0-0.1,0c0.1,0.1,0.1,0.2,0.4,0.4c0,0-0.1-0.1-0.2-0.2c0.3,0-0.3-0.4,0.1-0.4c0.1,0.1-0.1,0.1,0.1,0.2c0,0,0-0.1,0-0.1
			c0.2,0.2,0.4,0.4,0.8,0.7c-0.2-0.2-0.4-0.5-0.7-0.6C36.8,81.4,36.8,81.4,36.9,81.2c0,0,0.1,0.1,0.2,0.2
			C37.2,81.3,37,81.3,36.9,81.2z M37.1,78.9C37,78.9,37,78.9,37.1,78.9C36.8,78.9,37.1,78.9,37.1,78.9C37.1,79.1,37.2,79,37.1,78.9z
			 M37.1,78.8c0,0-0.1,0-0.1,0c0,0,0,0,0,0.1C36.9,78.8,37.1,78.9,37.1,78.8z M36.5,79.2c0.1,0,0.3,0.1,0.2,0.2
			c0.2,0,0.1-0.2,0.1-0.4C36.8,79.1,36.6,79.1,36.5,79.2z M36.3,79.7c0,0,0,0.1,0,0.2c0.1,0,0.1,0,0.2,0.1c0,0,0-0.1,0-0.1
			c0,0-0.1,0-0.1,0C36.4,79.7,36.4,79.7,36.3,79.7z M36.2,80.1c0,0.1,0,0.2,0.1,0.3c0,0,0-0.2,0.1-0.1c0,0,0,0,0-0.1
			C36.3,80.1,36.3,80.1,36.2,80.1z M36.8,82.7c0.1,0.1,0.2,0.2,0.4,0.3c0,0-0.1-0.1,0-0.2c-0.2-0.1-0.2-0.2-0.3-0.2
			C36.8,82.6,36.9,82.7,36.8,82.7z M37.7,82.5c0,0,0,0.2,0.2,0.3c0.1,0.1,0.4,0.3,0.5,0.3c0-0.1-0.3-0.2-0.1-0.2
			c-0.1-0.1-0.2-0.1-0.4-0.3c0.1,0.1,0,0-0.1,0c-0.1,0,0.1,0,0-0.1C37.9,82.5,37.8,82.4,37.7,82.5C37.7,82.5,37.7,82.5,37.7,82.5z
			 M41.1,84.7C41.1,84.7,41.1,84.7,41.1,84.7c0-0.2-0.2-0.3-0.3-0.3c0,0,0,0.1,0,0C40.8,84.5,41,84.6,41.1,84.7z M41.9,85.1
			c0-0.1-0.4-0.1-0.3-0.3c0,0-0.1,0-0.1,0c0,0,0-0.1-0.1-0.2c0,0,0,0,0,0.1c0,0,0-0.1-0.1-0.1C41.4,85,41.6,85.1,41.9,85.1z
			 M42.2,85.5c0.2,0,0.1,0.1,0.3,0.3c0.1,0-0.3-0.3,0-0.1c0-0.1-0.3-0.2-0.3-0.3c0,0,0,0-0.1,0C42.1,85.4,42.2,85.4,42.2,85.5z
			 M42.5,84.7c0,0,0,0.1,0,0.1c0,0,0.1,0.1,0.1,0.1C42.6,84.9,42.6,84.8,42.5,84.7c0.1,0.1,0.1,0.1,0.1,0.1
			C42.7,84.8,42.6,84.7,42.5,84.7z M42.8,86.3c0,0,0,0-0.1,0c-0.1,0,0.2,0.1,0.1,0.1C42.9,86.5,42.9,86.4,42.8,86.3
			C42.8,86.3,42.8,86.2,42.8,86.3c0-0.1,0.1-0.1,0.1-0.1c0,0-0.1-0.1-0.1-0.1c0,0,0,0,0,0c-0.1,0-0.1-0.1-0.2-0.1c0,0,0,0.1,0,0.1
			c-0.1-0.1-0.2-0.1-0.3-0.2C42.5,86,42.6,86.2,42.8,86.3z M43.1,86.3C43.1,86.3,43.1,86.4,43.1,86.3c0,0,0.1,0.1,0.2,0
			c-0.1,0-0.1-0.1-0.2-0.2C43,86.2,43,86.3,43.1,86.3z M43.3,87.1C43.2,87.1,43.2,87.1,43.3,87.1c-0.1-0.1-0.2,0-0.3-0.1
			C43,87.1,43.2,87.2,43.3,87.1z M43.5,87.5c0-0.1,0-0.1,0.1,0c0.1-0.1,0-0.2-0.2-0.3c0.1,0.2-0.1,0-0.3-0.1
			C43.1,87.4,43.4,87.4,43.5,87.5z M43.9,87.1c-0.1,0-0.2-0.2-0.2-0.3c0,0,0.1,0.1,0.1,0.1c0,0,0.1,0.1,0.1,0c0,0,0,0,0,0
			c0,0,0,0,0-0.1c-0.1,0-0.1,0-0.3-0.1c0,0.1,0.2,0.4-0.1,0.1c0,0.1,0.1,0.2,0.2,0.3C43.7,87,43.8,87.2,43.9,87.1z M43.3,87
			c0,0.1,0.2,0.1,0.3,0.2c0,0,0-0.1-0.1-0.2C43.5,87,43.4,87.1,43.3,87z M43.7,86.2C43.5,86.1,43.7,86.4,43.7,86.2
			c0,0.2,0.1,0.1,0.1,0.1C43.8,86.3,43.7,86.3,43.7,86.2z M44.6,87.2C44.6,87.2,44.6,87.2,44.6,87.2C44.6,87.1,44.6,87.2,44.6,87.2
			L44.5,87C44.4,87,44.5,87.1,44.6,87.2z M44.8,87.9c0.1,0.1,0.1,0.1,0.2,0.1C44.9,88,44.9,87.9,44.8,87.9
			C44.8,87.8,44.8,87.9,44.8,87.9z M45.4,87.8C45.5,87.7,45.4,87.6,45.4,87.8c0.1,0,0.1,0.1,0.3,0.1c-0.1-0.1-0.1-0.2-0.2-0.3
			C45.5,87.6,45.3,87.6,45.4,87.8z M45.5,88.2c0-0.1,0,0,0.1,0c0-0.2-0.2-0.1-0.3-0.2C45.3,88.2,45.5,88.1,45.5,88.2z M45.6,88.2
			c-0.1-0.1-0.1,0-0.2,0C45.3,88.3,45.6,88.3,45.6,88.2z M45.5,88.5C45.5,88.5,45.6,88.5,45.5,88.5C45.6,88.5,45.6,88.5,45.5,88.5
			c0-0.2-0.1-0.2-0.2-0.2C45.4,88.4,45.4,88.5,45.5,88.5z M46,88.3c0,0,0-0.1,0-0.2C46,88.2,46,88.2,46,88.3
			C46,88.2,46,88.3,46,88.3z M46.2,88.5c0-0.1,0.5,0.2,0.4,0.4c0.1,0.1,0.2,0.1,0.2,0.2c0,0,0.2,0,0.1,0.1c0,0,0.1,0,0.1,0
			c0.1,0,0,0.1,0.1,0.2c0,0,0,0,0,0c0,0.1,0.1,0,0-0.1c0.1,0,0.1,0,0.2,0c0.1,0,0-0.1,0-0.2c-0.1,0,0-0.1-0.1-0.2
			c-0.1,0.1-0.1,0.1-0.1,0c0,0,0.1,0.2,0.1,0.2c0-0.1-0.2,0-0.3,0c0-0.1-0.1-0.2,0-0.3c-0.1,0-0.1,0.1-0.2,0c-0.1-0.1,0.3,0,0-0.1
			c0-0.1,0.2,0,0.2,0c-0.2-0.1-0.3-0.2-0.4-0.1c0,0,0-0.2,0.1-0.1c-0.1-0.2-0.3,0-0.1,0.2c-0.1,0-0.1-0.1-0.3-0.2
			C46.1,88.3,46.1,88.4,46.2,88.5z M46.4,88.9c0-0.1-0.1-0.1-0.2-0.1C46.2,88.8,46.4,89,46.4,88.9z M47,89.6c0-0.1-0.2-0.1-0.2-0.2
			c0-0.1,0.2,0,0.2,0c-0.1-0.1-0.3,0-0.4-0.2c0.1,0,0.1,0,0.1,0.1c0-0.1-0.1-0.1-0.2-0.2c0.1,0.1,0,0-0.1,0.1
			C46.6,89.3,46.7,89.5,47,89.6z M47.6,89.3c0-0.2,0.2-0.2,0.3,0c0-0.2-0.2-0.2-0.4-0.4c0,0,0,0,0,0.1
			C47.3,88.9,47.3,89.1,47.6,89.3z M47.2,88.6c0,0-0.1,0-0.1,0c0,0.1,0,0.2,0.1,0.3C47.3,88.8,47.1,88.7,47.2,88.6z M48.1,88.5
			c0-0.1-0.1-0.2,0-0.2c-0.1,0-0.2-0.2-0.2-0.1c0-0.1-0.2-0.3,0-0.3c-0.2-0.2-0.3-0.2-0.5-0.4c0,0.1,0.2,0.2,0.2,0.3
			c0.1,0.1,0.1,0,0.2,0c0,0.1,0,0.2,0.1,0.3c0,0-0.1-0.1-0.1,0c0,0-0.1-0.1-0.1-0.1c-0.1-0.1,0,0.1,0,0.1c0,0-0.1,0-0.1,0.1
			c0,0-0.1-0.1-0.1-0.1c-0.1,0,0.1,0.2,0.3,0.3c-0.2-0.1,0,0,0,0.1c-0.1,0-0.1,0-0.2-0.1c0,0.1,0.2,0.4,0.3,0.4c0,0,0,0,0-0.1
			c0,0-0.1,0-0.1-0.1c0,0,0-0.1,0-0.1c0.1,0.1,0.3-0.1,0.1-0.3c0,0,0.1,0,0.2,0C48,88.4,47.9,88.4,48.1,88.5z M47.1,87.4
			c0,0,0.1,0.1,0.1,0.2c0,0,0.1,0,0.1,0C47.2,87.4,47.2,87.4,47.1,87.4z M48.3,88.5C48.3,88.6,48.3,88.5,48.3,88.5
			C48.3,88.5,48.3,88.5,48.3,88.5c0.1,0,0.1-0.1,0.1-0.1c0,0-0.1,0-0.1-0.1C48.2,88.3,48.2,88.4,48.3,88.5z M50.3,89.6
			C50.3,89.6,50.3,89.6,50.3,89.6c0,0,0.2,0.1,0.2,0c0,0.2,0.2,0.4,0.4,0.4c-0.1-0.1-0.1-0.1-0.1,0c-0.1-0.1,0-0.1,0-0.2
			c-0.1,0,0,0-0.2-0.2l-0.1,0.1c0,0-0.1-0.1,0-0.2c-0.1-0.1-0.1-0.1-0.3-0.2c0,0.2-0.2,0-0.2-0.1C49.8,89.2,50.3,89.5,50.3,89.6z
			 M50.7,89.5c0,0,0.1,0.1,0,0.1C50.7,89.7,50.7,89.5,50.7,89.5c-0.2-0.1-0.4-0.2-0.7-0.4c0,0.1,0.2,0.3,0.4,0.4
			c0.2,0.1,0.4,0.3,0.5,0.4C50.7,89.7,50.9,89.7,50.7,89.5z M51.1,90.4c0,0,0.1,0,0.1,0c0-0.1-0.2-0.1-0.3-0.2
			C51,90.2,51.1,90.3,51.1,90.4z M51.3,90.9C51.3,90.9,51.4,90.9,51.3,90.9C51.4,90.8,51.4,90.8,51.3,90.9L51.3,90.9
			C51.3,91,51.3,91,51.3,90.9z M52.1,92.6c0.1,0,0.3,0,0.3,0c0.1,0.1,0-0.1,0.1-0.2c-0.1-0.1-0.1,0-0.2-0.2c-0.1,0.1-0.3,0-0.4,0
			C51.8,92.5,52.1,92.4,52.1,92.6z M52.6,92.2c-0.1-0.1-0.1-0.1-0.2-0.2c0,0,0,0.1,0,0.2C52.5,92.3,52.6,92.3,52.6,92.2z M52.7,92
			c-0.1-0.1-0.2-0.2-0.3-0.1c0,0.1,0.2,0.1,0.1,0.2C52.6,92.2,52.7,92,52.7,92z M52.6,92.6c0,0,0.1,0.1,0.1,0.1c0.1,0.1,0-0.1,0-0.1
			c-0.1-0.1-0.1-0.2-0.2-0.2C52.5,92.5,52.5,92.6,52.6,92.6z M52.5,93.1c0.1,0.1,0.2,0,0.3,0.1c0.1,0.2,0,0.3,0,0.4
			c0,0.1,0.1,0.1,0.2,0.2c0.1,0,0-0.1,0.1-0.1c0-0.1-0.1-0.1-0.1,0c-0.1-0.1,0.1-0.2,0.1-0.4C52.8,93.1,52.5,92.9,52.5,93.1z
			 M52.4,93.5c-0.1,0-0.2,0-0.3,0c0.1,0.1,0.1,0.3,0,0.3c0.2,0,0.4,0.1,0.7,0.3l0.1-0.1c-0.1-0.1-0.3-0.2-0.4-0.2c0,0,0-0.2-0.1-0.2
			c0.2,0,0.4,0.3,0.5,0.1C52.7,93.7,52.6,93.8,52.4,93.5z M52.2,94.3c0.1,0,0-0.1,0-0.1c0,0-0.1,0-0.2-0.1c0,0,0,0-0.1,0
			C51.9,94.1,52.1,94.2,52.2,94.3z M52.5,94.6c0,0-0.1-0.1-0.2-0.1C52.3,94.6,52.5,94.7,52.5,94.6z M52.9,94.4c0.1-0.2,0,0,0.1,0.2
			c0,0,0,0,0.1,0c0.1,0.1,0,0.2,0.2,0.3c0,0,0-0.1,0-0.2c-0.2-0.1-0.3-0.4-0.5-0.4L52.9,94.4z M53.7,95c0-0.1,0.1,0,0.2-0.1
			c-0.1-0.2-0.4-0.3-0.6-0.6c0,0,0,0-0.1,0c-0.1,0,0.1,0.1,0,0.1c0,0,0-0.1,0-0.1c0.1,0,0.2,0,0.2,0c0.1,0.1,0.2,0.3,0.3,0.3
			c0,0.2,0.1,0.2,0.3,0.4c0-0.2-0.1-0.4-0.2-0.5l0.1,0c0.1,0.1,0,0.1,0.1,0.2c0,0,0.1-0.1,0-0.1c0,0,0,0,0.1,0
			c0.1,0.1,0,0.2,0.2,0.3c0-0.1,0.1-0.2,0-0.4c0,0,0,0.1,0,0.1c-0.1,0-0.1-0.1-0.2-0.2c-0.2,0-0.3-0.1-0.4-0.1c0-0.1,0-0.1,0-0.2
			c0,0,0,0.1,0,0.2c0,0,0,0,0-0.1c0,0,0-0.1,0-0.1c-0.1-0.2-0.3-0.2-0.4-0.4c0,0,0,0,0,0.1c-0.1,0-0.1,0-0.1,0.1
			c0,0,0.2,0.1,0.2,0.2c-0.1,0-0.2,0.2-0.1,0.3c-0.1,0-0.2-0.1-0.3-0.2c0.1,0.3,0.5,0.6,0.8,0.7c0,0,0,0,0.1,0.1c0,0-0.1,0-0.1,0
			C53.6,94.8,53.7,94.9,53.7,95z M54.1,95.1c0-0.1-0.1-0.2-0.2-0.1C54,95.1,54,95.1,54.1,95.1z M54.1,95.1c0.1,0.1,0.1-0.2,0-0.2
			C54,94.9,54.1,95,54.1,95.1z M54.5,95c0.1,0.1,0,0.1,0.1,0.2c0.1,0,0.2,0.1,0.2,0C54.9,95.1,54.5,95.1,54.5,95c0,0,0,0-0.1-0.2
			c-0.2,0.2-0.3-0.3-0.4-0.2c0,0.2,0.2,0.3,0.3,0.4C54.4,95.1,54.5,95.1,54.5,95z M54.7,95.7c0,0-0.1-0.1,0-0.1c0,0-0.1-0.2-0.2-0.1
			C54.6,95.5,54.6,95.7,54.7,95.7z M54.1,94c0,0.1,0.1,0.2,0.2,0.3C54.3,94.2,54.1,94.1,54.1,94z M54,93.6c0.1,0.2,0.1,0,0.2,0.1
			C54.2,93.6,54.1,93.6,54,93.6z M53.9,93.8C53.9,93.7,53.9,93.7,53.9,93.8c0,0-0.1,0-0.2-0.1c0,0.1,0.1,0.1,0.1,0.2
			C54,93.9,53.8,93.7,53.9,93.8C53.9,93.8,53.9,93.8,53.9,93.8z M54,93.4c-0.2-0.1-0.1-0.2-0.3-0.3c0,0,0,0.1,0,0.2
			c0,0-0.1-0.1-0.2-0.2c0,0.2-0.2,0.1-0.4-0.1c0,0,0,0.2,0.1,0.2c0,0.1-0.1-0.1-0.1,0c0.1,0.2,0.2,0.1,0.3,0.2c0,0,0-0.1,0-0.2
			c0.1,0,0.1,0.1,0.1,0.2c0.1,0,0.2-0.1,0.3,0.1c0.1,0,0-0.2,0.1,0C54,93.5,54,93.5,54,93.4z M53.3,92.6c0,0.1-0.2-0.2-0.3-0.1
			c0.1,0.2,0.1,0.1,0.2,0.3c0-0.1,0.2,0,0.1,0c0.1,0.1,0-0.1,0.1-0.1C53.3,92.7,53.4,92.7,53.3,92.6z M52.9,93
			c0.1,0,0.2,0.2,0.3,0.2c0,0-0.1-0.1,0-0.1c-0.1-0.1-0.2-0.2-0.3-0.3C52.8,92.8,53,93,52.9,93z M52.1,91.8c-0.1,0,0,0.1-0.1,0.1
			C52.1,92,52.2,91.9,52.1,91.8z M55,96.8c0-0.1,0-0.2,0-0.3c-0.1,0,0,0.2-0.1,0.1C54.9,96.6,55,96.6,55,96.8z M55.3,96.3
			c0-0.1-0.1,0-0.1-0.1C55.1,96.2,55.2,96.3,55.3,96.3C55.2,96.4,55.2,96.3,55.3,96.3z M55.4,96.2c0,0,0-0.1-0.1-0.1
			C55.1,96.1,55.3,96.2,55.4,96.2C55.4,96.3,55.4,96.3,55.4,96.2z M55.3,97C55.4,97,55.4,96.9,55.3,97c0-0.1-0.1-0.3-0.2-0.2
			C55.3,96.9,55.4,96.8,55.3,97z M55.7,96.4c0,0,0.1,0,0.1,0c0-0.1-0.2-0.1-0.1-0.2C55.6,96.1,55.6,96.3,55.7,96.4z M55.5,97.1
			c0,0,0,0,0.1,0.1c0,0,0,0,0-0.1C55.6,97.1,55.6,97.1,55.5,97.1C55.5,97,55.5,97.1,55.5,97.1C55.5,97.2,55.5,97.1,55.5,97.1z
			 M55.6,98.3c0.2,0.2,0.2,0.2,0.4,0.4c0,0.1,0,0.2,0.1,0.4c0,0,0-0.3,0.2-0.1c0-0.1-0.1-0.3-0.2-0.2c0,0,0-0.1,0-0.1l-0.1,0
			c0,0,0-0.1,0-0.1c0,0,0,0-0.1,0c-0.1-0.2-0.2-0.2-0.2-0.4C55.7,98.2,55.6,98.2,55.6,98.3z M55.4,98.6c0,0.1-0.1,0.1-0.1,0.2
			c0.2,0.1,0.1-0.2,0.3,0C55.5,98.6,55.4,98.7,55.4,98.6z M55.1,99.3c0,0-0.1,0,0,0.1C55,99.4,55,99.4,55.1,99.3
			c-0.1,0.1,0,0.2,0.1,0.1C55.1,99.4,55.1,99.3,55.1,99.3z M55.4,99.4c-0.2-0.2-0.2,0.3,0,0.3C55.4,99.7,55.3,99.5,55.4,99.4z
			 M55.2,100.1c0.1,0-0.1-0.2,0-0.2c0,0.2,0.1,0.3,0.2,0.5c0.1,0,0.3,0,0.1-0.1c-0.1,0,0,0.1-0.1,0c0-0.1,0-0.1,0-0.2
			c0,0,0.1,0,0.2,0c0,0,0,0.1,0,0.1c0,0,0-0.1,0.1-0.1c0,0-0.1-0.2-0.1-0.2c-0.1,0-0.6-0.1-0.4-0.3c0,0-0.1,0-0.2,0
			c0-0.1,0.1-0.1,0.1-0.1c-0.1-0.1-0.2-0.1-0.3-0.1C54.9,99.8,55,100,55.2,100.1z M56,99.4c0,0.1,0,0.2,0,0.2
			C56.2,99.7,56,99.5,56,99.4c0-0.1-0.1-0.2-0.2-0.2C56,99.3,56,99.3,56,99.4z M56.1,100.1c0-0.1,0-0.2-0.1-0.2
			C56,100,56,100.2,56.1,100.1z M56.4,99.5c0.1,0.1,0.1,0.3,0.2,0.2C56.6,99.6,56.5,99.6,56.4,99.5c0.1,0,0.1-0.1,0.1-0.2
			c0.1,0,0.1,0,0.2,0c0,0,0-0.1,0-0.1c-0.1,0-0.1-0.2-0.1,0c-0.1-0.1-0.1-0.2-0.2-0.2c0,0,0,0.1,0,0.2c0,0,0.1,0,0.1,0.1
			c0,0.1-0.1,0-0.1,0C56.4,99.3,56.4,99.3,56.4,99.5z M56.5,100C56.5,99.9,56.6,99.8,56.5,100c0.2,0,0-0.1,0.1-0.2c0,0,0,0,0,0
			c0,0-0.1,0-0.2-0.1C56.2,99.8,56.4,99.9,56.5,100z M56.8,100.1c0-0.1,0-0.2-0.1-0.3C56.7,99.9,56.8,100,56.8,100.1z M56.8,98.2
			c-0.1,0.1-0.1-0.1-0.2,0c0,0,0.1,0.1,0,0.1c0,0.1,0.1,0,0.1,0c0,0.1,0.1,0.1,0,0.2C57,98.5,56.9,98.3,56.8,98.2z M56.4,97.9
			c0.1,0.1,0.2,0.2,0.4,0.2C56.6,98,56.6,97.9,56.4,97.9z M56.3,99.1c0,0-0.1-0.1-0.1,0C56.2,99.1,56.2,99.1,56.3,99.1
			C56.3,99.1,56.2,99.2,56.3,99.1C56.3,99.2,56.2,99.1,56.3,99.1z M56.6,98.5C56.6,98.5,56.6,98.5,56.6,98.5
			C56.5,98.5,56.5,98.5,56.6,98.5c-0.1-0.1-0.1-0.1-0.1-0.1l0,0C56.5,98.6,56.6,98.7,56.6,98.5z M56.5,98.8
			C56.6,98.9,56.8,98.9,56.5,98.8C56.5,98.7,56.6,98.7,56.5,98.8z M56,98.5c0.1,0.2,0.2,0.1,0.3,0.3c0,0.1-0.1-0.2-0.2,0
			c0,0.1,0.1,0.1,0.1,0.2c0.1,0,0-0.2,0.1-0.3c-0.1-0.2-0.1,0-0.1-0.2C56.2,98.5,56.1,98.5,56,98.5z M55.9,98.3
			C55.9,98.3,56,98.3,55.9,98.3c0.1,0,0,0,0.1,0.1c0,0,0.1-0.1,0.1-0.2C56,98.1,55.9,98.2,55.9,98.3z M56.2,97.5
			c0.1,0.1,0,0.1,0.2,0.2C56.4,97.7,56.3,97.5,56.2,97.5z M55.3,97.7c-0.1,0.1,0.1,0.1,0.1,0.2c0,0,0.1,0,0.1,0
			C55.5,97.7,55.4,97.8,55.3,97.7z M54.8,98.4c-0.1-0.1,0,0-0.2,0c0.1,0.1,0,0.1,0.1,0.3C54.8,98.5,54.7,98.4,54.8,98.4z M57.7,98.5
			c0,0,0.1,0,0.1,0c-0.1,0-0.3-0.4-0.4-0.4C57.5,98.1,57.6,98.4,57.7,98.5z M58,99.3C58,99.3,58,99.3,58,99.3
			C58,99.3,58,99.3,58,99.3z M57.9,99.6c0,0.1,0.1,0.3,0.2,0.4c0-0.1,0.1-0.2,0-0.3C58,99.9,58,99.7,57.9,99.6z M58.3,100.3
			c0-0.1,0-0.2-0.1-0.2c0-0.1,0.1-0.1,0.1-0.1c0-0.2-0.1-0.2-0.2-0.4c0,0.1,0.1,0.1,0.2,0.3c0,0.1-0.1-0.1-0.1,0
			C58.2,100,58.1,100.1,58.3,100.3z M58.7,100.8C58.7,100.8,58.7,100.8,58.7,100.8c0.1-0.1,0-0.2,0-0.2c-0.1,0.1-0.1-0.3-0.3-0.3
			C58.5,100.6,58.5,100.7,58.7,100.8z M58.9,101.1c0-0.1-0.1-0.1,0-0.2C58.7,100.8,58.7,101.2,58.9,101.1z M58.6,101.1
			c0.1,0.2,0.1,0.3,0.2,0.4C58.9,101.3,58.7,101.1,58.6,101.1z M59.2,101.8c0-0.2-0.3-0.4-0.4-0.6C58.9,101.4,59.1,101.7,59.2,101.8
			z M59.5,101.6C59.5,101.6,59.5,101.6,59.5,101.6L59.5,101.6v-0.2C59.4,101.5,59.5,101.6,59.5,101.6z M59.3,102.2
			c0.1,0.1,0.2,0,0.2,0.1c0,0,0-0.1,0-0.2c0-0.1-0.1-0.1-0.2-0.2c0,0,0,0.1,0,0.1c-0.1,0-0.1,0-0.2-0.1
			C59.2,102,59.3,102.2,59.3,102.2z M59.8,101.9c0-0.1-0.1,0-0.1-0.2c0,0-0.1,0.1-0.1,0.1C59.7,102,59.7,101.8,59.8,101.9z
			 M59.6,101.6c0,0.1-0.1,0-0.1,0.2C59.6,101.8,59.7,101.7,59.6,101.6z M59,100.6c0,0,0,0.1,0,0.2c0,0,0.1,0.1,0.2,0.1
			C59.1,100.7,59.1,100.7,59,100.6z M58.7,99.9c0,0,0,0.2,0,0.3c0-0.1,0.1,0.2,0.2,0.1C58.8,100.1,58.8,100.2,58.7,99.9z M58.4,99.4
			c0-0.1,0-0.1,0-0.2c0,0.1,0,0.3,0.1,0.4C58.5,99.6,58.5,99.4,58.4,99.4z M58.3,99.4c0.1,0.1,0.1,0.1,0.1,0.2
			C58.4,99.7,58.3,99.3,58.3,99.4z M58.4,101.8c0,0,0.1,0.4,0.2,0.4C58.5,102,58.4,101.9,58.4,101.8z M41.5,85.9c0,0,0-0.1,0-0.1
			c0.1,0,0.2,0.2,0.2,0.1c-0.1,0,0-0.1-0.1-0.2c-0.1-0.1-0.1,0-0.2-0.1c0,0.1-0.2,0-0.2,0c0,0,0.1,0,0.1,0c-0.1,0,0,0.1-0.1,0
			c0-0.1-0.1-0.1-0.1-0.2c-0.2-0.1-0.4-0.2-0.6-0.3c0.1,0,0.2,0.1,0.2,0.2c0,0-0.2-0.1-0.2-0.1c0.2,0.1,0.4,0.3,0.4,0.4
			c-0.1,0-0.4-0.1-0.5-0.3c-0.2-0.1-0.3-0.3-0.2-0.3c-0.3-0.3-0.7-0.4-1-0.6c-0.2-0.2-0.7-0.4-0.9-0.6c-0.2-0.1-0.3-0.3-0.5-0.5
			c-0.1-0.1-0.2-0.1-0.3-0.2c-0.1-0.1-0.2-0.1-0.2-0.2c-0.1,0-0.6-0.3-0.7-0.4c0-0.3-0.1-0.9-0.6-1.2c0-0.1-0.1-0.3-0.1-0.4
			c-0.1,0-0.2-0.1-0.3-0.2c0-0.2,0.4-0.1,0.3-0.4c0.2,0.1,0.5,0,0.4-0.1c0,0-0.1,0-0.2,0c0.1-0.1,0-0.2,0-0.3c0,0,0,0,0,0
			s0,0.1,0.1,0.1c-0.1,0.1-0.2,0-0.3,0c0.1,0,0.1-0.2,0-0.3c0.2,0.1,0.3,0,0.2-0.1c0.1,0.1,0.2,0,0.2,0c0,0,0-0.1-0.1-0.2
			c-0.1,0-0.3,0-0.3-0.1c0.2,0,0-0.2,0-0.3c0,0-0.1,0-0.1,0c0,0,0-0.1,0-0.2c0,0,0,0,0,0l0,0c0,0.2,0.1,0,0.2,0
			c0,0.1,0.4,0.3,0.3,0.4c0,0,0,0,0,0c-0.2-0.2,0.2-0.3-0.2-0.5c0.4,0,0-0.4,0.3-0.4c0,0.1-0.1,0.2,0,0.3c0-0.1,0-0.2,0.1-0.2
			c-0.1,0-0.1,0.1,0,0.2c0.1-0.1,0-0.3,0.1-0.4c-0.2,0-0.1,0-0.1-0.1c0,0-0.1,0-0.1,0c0,0,0.1-0.1,0.1-0.1c0.1,0,0.1,0.1,0.2,0.1
			c0-0.1,0-0.2,0-0.2c0,0,0.1-0.1,0.2-0.1c0.9-0.6,2.1-0.7,3.2-0.4c0,0,0,0,0.1,0l0,0h0c0,0,0,0.1,0,0.2c0.3,0.2,0.5,0.4,0.7,0.4
			c0,0.1,0.3,0.2,0.4,0.2c-0.2-0.2,0,0,0-0.2c0.1,0.2,0.3,0.3,0.5,0.1c0,0,0,0.1,0,0.1c0.1,0,0.1,0,0.2,0c1,0.6,1.9,1.5,2.7,2.3
			c4.8,5,8.9,10.5,12.4,16.5c0.1,0.2,0.3,0.4,0.4,0.7c0,0.1,0.1,0.3,0.2,0.3c0,0,0,0,0,0c0.6,1,1.3,2,2,3c0,0,0,0,0,0.1l0,0
			c0.2,0.2,0.3,0.5,0.5,0.7c0,0-0.1,0-0.2,0c0,0.1,0.2,0.2,0,0.2c0.1,0.1,0.2,0.3,0.3,0.4c0.1,0,0-0.1,0-0.2c0,0-0.1,0-0.1,0
			c0-0.2,0.1,0.1,0.2,0c-0.1-0.1-0.2-0.2-0.3-0.2c0-0.1,0.1,0,0.2,0c0,0,0,0,0,0c0,0,0.1,0.1,0.1,0.2c0,0.1,0,0.2,0,0.1
			c0.1,0,0,0.1,0.1,0.2c0,0,0.1,0,0.1,0c0,0.1,0.1,0.2,0,0.2c-0.1-0.1,0,0.1,0,0.1c-0.1-0.1,0-0.1-0.2-0.1c0-0.2-0.2-0.1-0.3-0.3
			c0,0-0.1,0-0.1,0.1c0.1,0,0.1,0.1,0.1,0.2c0-0.1,0.1,0,0.1,0.1c-0.1,0,0,0,0,0.1c0,0.1,0.1,0.2,0,0.2c-0.1-0.2-0.3-0.5-0.4-0.7
			c0,0.1,0.1,0,0.1,0c-0.2-0.1,0.1,0,0.1-0.2c-0.1,0-0.1,0-0.2,0c0-0.1,0-0.3-0.1-0.2c-0.1-0.1,0-0.1,0-0.2c0,0-0.1-0.2-0.1-0.2
			c0,0.1,0,0.5-0.1,0.3c0,0,0.1-0.1,0-0.2c0,0-0.1,0-0.1,0c0,0.1,0,0,0.1,0.1c0,0.2-0.2-0.2-0.2,0c0.1,0.1,0.2,0.2,0.3,0.4
			c0,0-0.1,0,0,0.1c-0.2,0-0.2-0.1-0.3,0.1c0,0,0.1,0,0,0.1c0-0.1,0,0-0.1,0c0-0.1-0.3-0.3-0.2-0.4c0,0,0,0.2,0.1,0.2
			c0-0.2-0.3-0.2-0.4-0.4c0,0,0,0.1,0.1,0.1c-0.1,0-0.1-0.1-0.2-0.1c0.1,0.2,0.1,0.4,0.2,0.5c0.2,0.5-0.1-0.1-0.2-0.3
			c0,0,0-0.1,0-0.1c0,0-0.1,0-0.1,0c0.1,0.2,0.2,0.3,0.2,0.5c0-0.4-0.1,0.1-0.2-0.1c0-0.1-0.2-0.4-0.2-0.5c0,0.2,0.1,0.3,0.2,0.4
			s0.1,0.2,0.2,0.4c0,0,0,0.2,0,0.2c-0.1-0.2-0.1-0.2-0.2-0.3c0.1-0.1-0.2-0.3-0.3-0.3c0.1,0,0.1,0,0.2,0c-0.1-0.2-0.3-0.2-0.5-0.5
			c0-0.1,0.1,0.1,0.2,0c-0.1-0.3-0.2-0.3-0.2-0.2c0-0.1,0-0.2,0-0.4c-0.1,0-0.1-0.2-0.1-0.3c0,0,0,0,0,0c0-0.1-0.2-0.2-0.1-0.2
			c0,0,0,0,0,0c0.1,0,0.1,0,0.1,0c0,0,0,0,0,0c0,0,0,0,0,0.1c0,0.1-0.2,0.1-0.2,0.1c0,0,0.2,0,0.2,0.2c0,0,0-0.1,0-0.1
			c0.1,0.4,0.2-0.2,0.2,0.1c-0.1,0,0,0.5,0.1,0.5c0-0.1,0-0.2,0.1,0c0,0-0.1-0.1-0.1,0c0.1,0,0.1,0.2,0.2,0.3h0
			c0-0.1-0.1-0.1-0.1-0.3c0.1,0,0.2,0.2,0.3,0c-0.1,0-0.1,0-0.1-0.2c0,0-0.1,0-0.2,0c0-0.1-0.1-0.1-0.2-0.3c0.1,0,0-0.1,0-0.1
			c0,0.3,0,0,0.1,0c0.1,0.2,0.2,0.3,0.4,0.6c0-0.2-0.2-0.3-0.1-0.3c-0.1-0.1-0.1,0.1-0.1,0c0.1-0.2-0.3-0.2-0.2-0.4
			c-0.1-0.1-0.1-0.1-0.1,0c0-0.1-0.1-0.1-0.1-0.2c0,0,0.1,0.1,0.1,0c0-0.1-0.1-0.2-0.2-0.3c0.1,0,0-0.1,0.1-0.1
			c0.1,0.2,0,0.2,0.1,0.3c0.1,0,0-0.2,0.1,0c-0.1-0.3-0.2-0.2-0.2-0.4c0,0-0.1,0-0.1,0c0-0.2-0.1-0.4-0.3-0.5c0,0.2,0.1,0.3,0.2,0.4
			c0,0-0.1,0-0.1,0c0,0.2,0.2,0.2,0.2,0.3c-0.1,0-0.1-0.2-0.3-0.3c0.1,0,0-0.1,0-0.2c-0.1,0-0.2-0.3-0.3-0.4c0,0,0.1,0,0.1,0
			c-0.1-0.1-0.1,0-0.2-0.1c0,0,0,0.1,0,0.1c-0.1,0-0.2,0-0.3-0.1c0.1,0,0.3,0,0.4-0.1c0.1,0,0,0.1,0.1,0.1c0-0.1-0.1-0.2-0.1-0.4
			c0,0,0,0,0.1,0c0-0.1,0-0.1,0-0.2c-0.2-0.2,0-0.3-0.2-0.2c0,0.1,0.1,0.3,0,0.1c0,0-0.1-0.2-0.2-0.1c0,0.1,0.1,0.1,0.1,0.2
			c0,0,0.1,0.1,0.1,0.1c0,0.1-0.1-0.1-0.2-0.1c0,0.1,0.1,0.1,0,0.1c0,0,0,0,0-0.1c0,0,0,0-0.1,0l0.1,0.2c-0.1,0-0.1-0.2-0.1-0.3
			c-0.1-0.1-0.3-0.3-0.4-0.4c0.1-0.2,0.3,0.2,0.4,0.2c0,0.1,0,0.2,0.1,0.3c0,0,0.1,0,0.1,0c-0.1-0.2-0.1-0.3-0.2-0.4
			c0.1,0.1,0-0.2,0-0.2c-0.1,0,0.1,0.3,0,0.1c-0.1-0.2-0.2-0.2-0.3-0.2c0.1,0.1,0,0.2,0,0.1c0.1-0.1,0,0-0.1-0.1
			c0.1-0.1,0.2,0,0.1-0.1c-0.1-0.1-0.2,0.1-0.3,0.1c0.1,0.1,0.1,0,0.2,0.2c-0.1,0-0.1,0-0.1,0.1c0.2,0.1,0.1,0.3,0.2,0.4
			c0,0,0,0,0.1,0c0,0.1,0.1,0.3,0.2,0.4c-0.1,0-0.2-0.2-0.3-0.2c0,0.1,0.2,0.4,0.2,0.4c-0.2-0.1-0.4-0.5-0.5-0.6c0,0,0,0-0.1,0
			c0,0.1,0.1,0.2,0.1,0.3c0,0-0.1-0.2-0.1-0.1c0,0,0,0,0,0c0,0.1-0.1,0.1,0.1,0.3c0,0,0.1-0.1,0.1,0c0,0.1-0.1,0-0.1,0.1
			c0.1,0,0.3,0.5,0.3,0.2c0,0,0,0,0,0.1c0,0,0,0,0,0c-0.1,0,0,0.3-0.1,0.1c-0.1-0.2-0.2-0.4-0.4-0.4c0,0,0,0.1,0,0.1
			c0.1-0.1,0,0.2,0.1,0.2c-0.1,0-0.1,0.1-0.2,0c0,0,0-0.1,0-0.1c0,0-0.1-0.1-0.2,0c0.1,0.2,0,0-0.1,0c0,0.1,0.1,0.1,0.1,0.2
			c-0.1,0,0,0.1-0.1,0.2c-0.1-0.1-0.2-0.1-0.2,0c-0.1-0.1-0.1-0.2-0.2-0.2c0,0,0,0.1,0,0.1c-0.1,0-0.1-0.1-0.1,0
			c-0.1-0.1-0.2-0.4-0.4-0.4c0.1,0,0,0.1,0,0.2c0,0.1,0.1,0,0.1,0.2c-0.2,0-0.1,0.2-0.1,0.3c-0.1,0-0.1,0-0.1,0.1
			c-0.1,0-0.1-0.1-0.2-0.1c0,0.1,0.1,0.1,0,0.2c-0.1-0.2-0.2-0.4-0.3-0.5c-0.1-0.1-0.2-0.3-0.4-0.4c0-0.1,0-0.3-0.1-0.3
			c0,0,0,0,0-0.1c0,0,0.1,0,0.1,0c0-0.1-0.1-0.1-0.1-0.3c0.1-0.1,0.1,0.1,0.2,0.1c0-0.1-0.1-0.2,0-0.2c0.1,0.2,0.2,0.3,0.3,0.2
			c0-0.1,0-0.1,0-0.2c0,0-0.1,0-0.1,0.1c-0.1-0.1,0.1-0.1,0-0.2c-0.1,0,0,0.2-0.1,0.1c-0.1-0.1,0.1-0.1,0-0.2c0,0,0,0-0.1,0
			c0,0.1,0,0.1-0.1,0.2c-0.1-0.2,0.1,0,0-0.1c0,0-0.1,0-0.1,0c0,0.1,0.1,0.3,0.2,0.3c0,0-0.1,0-0.2,0c0,0,0-0.1,0-0.1
			c0,0-0.1-0.2-0.1-0.2c0,0.1,0,0.1-0.1,0c0,0.1,0,0.2-0.1,0.3c0.1,0,0,0,0.1-0.1c0.1,0.1,0,0.1,0.1,0.2c0-0.1,0,0,0,0
			c-0.3-0.3,0-0.4-0.2-0.8c0.1,0,0.1-0.1,0.1-0.2c0,0.1,0.2,0.2,0.2,0c0-0.1-0.1,0-0.1-0.1c0,0,0,0,0-0.1c0.1,0,0.2,0.1,0.3,0
			c-0.1-0.1,0-0.1-0.2-0.3c0,0,0.1,0,0.2,0c-0.1,0-0.2-0.2-0.3-0.2c0-0.1-0.3-0.4-0.5-0.6c0.2,0,0.3,0.2,0.5,0.4
			c0.1,0.2,0.3,0.3,0.4,0.2c0,0,0.1,0.1,0.1,0.1c0,0,0-0.1,0-0.1c0-0.1-0.2,0-0.1-0.1c0.1,0,0.4,0.2,0.4,0.4c0,0-0.1-0.1-0.2-0.1
			c0,0.1,0,0.2,0,0.2c0,0-0.1-0.1-0.2,0c0,0,0.1,0,0.1,0.1c0,0-0.2-0.2-0.2-0.1c0.2,0.1,0.2,0.5,0.4,0.5c0-0.1,0.1-0.1,0.1-0.2
			c-0.1,0.1,0-0.3-0.2-0.3c0,0,0-0.1,0.1-0.1c0.1,0,0,0.2,0.1,0.1l0.1,0c-0.2-0.1,0.1-0.2-0.1-0.3c0.1,0,0.1,0,0-0.1
			c0.1-0.1,0.2,0,0.3-0.1c0,0.2,0.3,0.2,0.3,0.4c0.1,0,0-0.1,0.1-0.2c0,0,0.1,0.1,0.1,0.1c-0.1-0.1,0.1-0.1,0-0.2
			c-0.1-0.2-0.1,0.1-0.2,0c0,0,0.1,0,0-0.1c-0.1,0-0.1,0.1-0.2,0.2c0-0.2-0.2-0.3-0.3-0.4c0,0,0.1,0,0.1,0c-0.1-0.1,0-0.2,0-0.2
			c0,0,0,0-0.1,0c0,0.2-0.1,0.1-0.3,0c0,0.1,0.1,0.1,0.1,0.1c-0.1,0-0.1-0.1-0.2-0.1l0.1-0.1c0.1,0,0,0.2,0.2,0.1
			c-0.1-0.3-0.4-0.3-0.4-0.5c0,0-0.1,0-0.2,0c0.1,0.1,0.2,0.1,0.3,0.3c0,0-0.1,0.2-0.1,0c0.1-0.1-0.2-0.2-0.2-0.2c0,0,0,0.2-0.1,0.1
			c0,0,0,0,0-0.1c-0.1,0.1,0-0.1-0.2-0.1c0.1,0,0-0.1-0.1-0.1c0.1-0.1,0.2,0.1,0.3,0.1c0-0.1,0-0.2,0-0.2c0,0,0,0-0.1,0
			c0.1,0,0-0.1,0-0.2c0-0.1,0.1,0,0.2,0c0,0-0.1,0-0.1,0.1c0.1,0.1,0.1,0.2,0.2,0.2c0-0.2,0-0.3,0.1-0.4c-0.2-0.2-0.5-0.4-0.8-0.5
			c0.2,0.2,0.4,0.4,0.7,0.5c0,0.1,0,0.2,0,0.2c0-0.1-0.1-0.1-0.2-0.1c-0.2-0.3-0.3-0.3-0.5-0.4c0,0.1,0.2,0.2,0,0.2
			c0.1,0,0.1,0.2,0,0.1c0,0,0,0,0,0c0-0.1-0.1,0-0.2-0.1c0.1,0,0-0.1,0-0.2c0,0,0-0.1,0-0.2c-0.1-0.1-0.2-0.1-0.3-0.1
			c0,0.1,0.2,0.1,0.1,0.2c-0.1-0.1-0.1,0-0.2-0.2c0,0,0-0.1,0-0.1c-0.1-0.1-0.2-0.2-0.3-0.2c-0.1-0.1,0-0.2,0-0.3
			c-0.1-0.1-0.4,0-0.3,0c-0.1,0.1-0.2-0.1-0.2-0.1c0,0.1-0.1,0.1,0,0.2c-0.1,0,0,0.1-0.1,0.1c-0.1-0.1-0.2-0.2-0.3-0.3
			c0,0,0.1,0,0.1,0c0,0,0-0.1-0.1-0.1c-0.2,0-0.3-0.1-0.4-0.2c-0.1,0,0,0.2,0,0.2c-0.1-0.1-0.1-0.2,0-0.4c0,0,0.1,0.1,0.1,0
			c0-0.1,0-0.2,0-0.3c0,0,0,0-0.1,0c0.1-0.1,0-0.3,0.2-0.2c-0.1-0.1-0.2-0.2-0.2-0.3c0,0,0.1,0,0.1,0c0,0,0.1,0.2,0.2,0.2
			c0,0,0,0,0-0.1c0,0-0.1,0-0.1-0.1c0.1,0,0.1,0,0.3-0.1c0.1,0.1,0.3,0.3,0.4,0.3c0-0.1-0.1-0.2-0.2-0.2c0-0.2-0.1-0.3-0.2-0.4
			c0-0.1,0.1,0.1,0.2,0.1c-0.1-0.1-0.1-0.2-0.1-0.3c0,0.1-0.3-0.1-0.2,0.1c-0.1,0-0.3-0.4-0.4-0.2c-0.1-0.2-0.3-0.2-0.1-0.3
			c0,0-0.1,0-0.1-0.1c0.1-0.1,0.1-0.3,0-0.3c0-0.1,0.2-0.2,0.3-0.1c0-0.1,0-0.2,0.1-0.3c-0.1-0.2-0.3-0.4-0.4-0.4c0,0.1,0,0-0.1,0
			c0.1,0.1,0.1,0.2,0.2,0.2c0,0-0.1-0.1,0-0.1c0,0,0,0,0,0h0c-0.1,0.1,0.2,0.2,0.1,0.3c-0.2-0.2-0.1,0-0.2,0
			c-0.1-0.1-0.2-0.2-0.2-0.1c-0.1-0.2-0.1-0.4-0.3-0.4c0,0,0,0.1,0,0c0-0.1-0.2,0-0.2-0.2c0.1,0,0.1,0,0-0.2
			c0.1,0.1,0.2,0.2,0.3,0.1c-0.1-0.2-0.2-0.2-0.4-0.4c0-0.1,0.2,0.1,0.2,0c-0.1-0.1-0.2-0.1-0.3-0.1c0.1,0,0-0.1,0-0.1
			c0,0,0,0.2,0,0c0-0.1,0-0.1,0-0.2c-0.1,0.1-0.3-0.2-0.4-0.3c0,0,0,0,0-0.1c0,0-0.1-0.2-0.2-0.1c0,0.1,0.2,0.2,0.1,0.2
			c-0.1-0.2-0.1,0-0.3-0.1c0-0.1,0.1-0.1,0.1-0.2c0,0,0,0-0.1,0c0,0.2-0.1,0-0.3,0c0.1,0.2,0.2,0.2,0.3,0.4
			c-0.2-0.1-0.3-0.2-0.4-0.2c0,0.1-0.1,0.2,0,0.3c-0.1,0.1-0.2-0.3-0.4-0.1c0,0,0-0.1,0-0.1c0.1-0.1,0.2,0,0.3,0
			c-0.1-0.1-0.1-0.3-0.3-0.2c0.2,0,0.1-0.2,0.3-0.2c-0.1-0.1,0-0.1,0-0.2c0,0,0,0-0.1,0c0,0.1,0,0.1-0.1,0.1c0.1,0.1,0.1,0.2,0,0.2
			c-0.1-0.1-0.1,0-0.2-0.1c0.2-0.1,0,0-0.1-0.2c0,0,0.1,0.1,0.2,0c0-0.1,0.1-0.1,0-0.2c-0.1,0,0,0-0.1,0.1c-0.1,0-0.1-0.2-0.3-0.2
			c0.1,0.1,0,0.1,0,0.1c0,0.1,0.1,0.1,0.1,0.1c-0.1,0,0,0.1,0,0.2c0,0.1-0.2,0.1-0.1,0c0,0,0.1,0.1,0.1,0c-0.1-0.1-0.2-0.1-0.4-0.2
			c-0.1,0,0,0.2,0,0.2c-0.1-0.1-0.1-0.3-0.1-0.4c0.1,0.1,0.1,0,0.2,0c-0.2-0.1,0-0.1,0-0.2c-0.2,0-0.2,0-0.3,0c-0.1,0,0-0.1,0-0.1
			c-0.1,0-0.1,0-0.1,0.1c-0.1-0.1-0.1,0.1-0.3-0.1c0,0.1-0.1,0.1,0,0.2c0.2,0.1,0.2,0.3,0.4,0.4c0,0,0.1,0.3,0,0.2
			c0,0,0-0.2-0.1-0.2c0,0,0.1,0.2,0,0.1c0-0.1-0.2-0.4-0.3-0.4c0.2,0.1,0,0.2,0,0.2c-0.1-0.1,0,0.1-0.2,0c0,0,0,0.1,0,0.2
			c0,0,0.1,0.1,0.2,0.1c0,0-0.1,0.1-0.2,0c0-0.1-0.1-0.1-0.2-0.2c0.1-0.1,0.1,0.1,0.2,0c-0.2-0.1-0.2-0.3-0.4-0.2
			c0.2,0.1,0,0.2,0.2,0.3c0,0-0.1,0.1,0,0.1c0.4,0.1,0.1,0.3,0.4,0.6c0.1-0.1,0.3-0.2,0.2-0.4c-0.1,0-0.3,0-0.3-0.1
			c0.1-0.1,0.3,0.2,0.4,0.3c0.1-0.1-0.1-0.1,0-0.2c0.2,0.1,0.1-0.2,0.3-0.1c0,0.1,0,0.1,0,0.2c0,0,0.1,0,0.1,0c0,0,0-0.1,0-0.1
			c0.1,0.1,0,0.1,0.2,0.1c-0.1,0-0.1,0.2-0.1,0.1c0,0,0-0.1,0-0.1c-0.1,0-0.1,0-0.2,0c0.1,0.1-0.1,0.1,0,0.2c0.1,0,0.2,0.1,0.2,0.2
			c0,0,0-0.1,0-0.1c0.1,0.1,0.1,0,0.2,0.1c0,0-0.1,0,0,0.1c0.3,0.1,0.6,0.8,0.7,0.6c0,0.1,0.1,0.2,0.1,0.2c-0.2-0.2-0.2,0.2,0,0.2
			c0,0.1-0.1,0-0.2,0.1c0,0-0.1-0.1-0.1-0.1c0,0,0.1-0.1,0.1-0.2c-0.2-0.1-0.3-0.2-0.4-0.4c0-0.3-0.3-0.4-0.4-0.4
			c0.2,0,0-0.2-0.1-0.2c0-0.1,0-0.2-0.2-0.3c0,0.1,0,0.2-0.2,0.2c0.1,0.1,0.1,0.1,0.1,0.2c0.1,0,0.1,0,0.2,0.1
			c-0.1,0,0.2,0.2,0.1,0.3c-0.2-0.1-0.4-0.3-0.5-0.4c-0.1-0.1-0.1-0.2-0.2-0.2s-0.2-0.1-0.3-0.1c0.1-0.1-0.2-0.3-0.3-0.3
			c0.1,0.1,0.1,0.2,0.1,0.2c-0.1,0-0.2,0-0.3-0.1c0,0,0,0,0-0.1c-0.3-0.3-0.7-0.7-0.9-0.9c-0.1,0.1-0.1,0.1-0.1,0.3c0,0,0,0-0.1,0
			c0,0-0.1-0.1-0.1-0.2c0-0.2,0.3-0.1,0.2-0.3c-0.1,0-0.1,0-0.2,0c0-0.1-0.1-0.4-0.1-0.4c0.1,0.1,0,0.2,0.1,0.3c-0.1,0-0.1,0-0.3,0
			c-0.2-0.3-0.6-0.2-0.7-0.4c0.5,0.2,0-0.2-0.1-0.4c0,0,0,0-0.1,0c0,0,0.1,0.1,0,0.1c-0.1,0-0.2-0.1-0.2-0.2c0,0,0.1,0,0.1,0
			c-0.1-0.1,0-0.1-0.1-0.2c0,0-0.1,0-0.1,0c0.1,0.1,0.1,0.2,0.1,0.3c-0.2-0.1-0.2-0.1-0.4-0.2c0.1,0.1,0.2,0.1,0.2,0.2
			c0.1-0.1,0,0,0,0c0.1,0,0.1-0.1,0.2,0c0,0.1-0.1,0-0.1,0c0.2,0.1,0.3,0.2,0.4,0.2c-0.1,0.1,0.2,0.2,0.1,0.3c0,0-0.1-0.1-0.1,0
			c0.1,0.1,0.2,0.2,0.3,0.2c0,0,0.2,0.3,0.1,0.2c-0.1-0.2-0.6-0.4-0.8-0.5c0.1,0,0-0.1,0.2-0.1c-0.4-0.3-0.5-0.4-0.7-0.4
			c0,0,0-0.1,0-0.2c0,0-0.1,0-0.2,0c0.1,0.1,0.3,0.2,0.2,0.2c-0.1,0-0.2,0-0.3,0c-0.1-0.2-0.2-0.2-0.2-0.4c0.1,0.1,0.1,0.1,0.3,0.2
			c0,0,0.1,0,0.1,0c-0.2-0.2-0.3-0.3-0.5-0.4l0,0c-0.1-0.2-0.3-0.1-0.4-0.4c0,0,0.1,0.1,0,0.1c-0.1-0.1,0-0.1,0-0.2
			c0.1,0,0,0.2,0.2,0.2c0-0.1-0.1-0.4-0.3-0.5c-0.1-0.2-0.4-0.3-0.5-0.3c0.1,0.1-0.1,0-0.2,0c0-0.1,0.3,0.1,0.3,0
			c-0.1-0.1-0.3-0.1-0.3-0.2c0.2,0,0.1-0.1,0.3,0c0,0-0.1,0-0.1-0.1c0,0.1,0,0,0,0.1c-0.2-0.1-0.1-0.1-0.3-0.3c0,0,0.1,0,0.2,0
			c-0.2-0.1-0.3-0.2-0.4-0.3c0-0.1,0-0.2-0.1-0.4c0.1,0.1,0,0.1-0.1,0c0,0,0-0.1,0-0.1c-0.2,0-0.4-0.3-0.6-0.4c0,0,0.1,0,0.1,0
			c-0.1,0-0.1-0.1-0.2-0.1c0,0.1-0.1,0-0.1,0c0,0.2,0.3,0.2,0.4,0.4c-0.2-0.1-0.4-0.3-0.5-0.4c0,0-0.2,0-0.2,0c0,0,0.2,0,0.1,0
			c-0.3-0.2-0.1,0-0.4-0.1c0.1,0.2,0.5,0.3,0.6,0.4c-0.2,0-0.3-0.2-0.4-0.1c0.1,0,0.1,0.1,0.1,0.1c0,0,0,0,0-0.1
			c0.3,0.3,0.7,0.2,0.9,0.4c-0.2,0,0.2,0.1,0.3,0.3c-0.2,0-0.2,0-0.4-0.1c0,0.1-0.1,0-0.1,0c0.2,0.1,0.3,0.2,0.4,0.3
			c0.1,0,0,0,0-0.1c0.1,0,0.3,0.3,0.3,0.1l0.1,0.1c-0.1,0.2-0.3-0.1-0.4-0.1c0.2,0.2,0.3,0.2,0.4,0.4c-0.3-0.2-0.1,0.1,0,0.2
			C41.7,85.9,41.6,86,41.5,85.9z"/>
	</g>
	<path class="st8" d="M44.5,105.8c0-1.5,0.7-3,1.5-4.4c0.9-1.8,2-4.5,3.7-5.8c1.5-1.2,1.5,0.7,1.3,1.8c-0.4,1.7-1.5,3.5-2.5,4.9
		c-0.5,0.8-1.1,1.5-1.8,2.2C44.6,106.7,44.5,105.8,44.5,105.8z M63,125.4L63,125.4C63,125.4,63,125.4,63,125.4
		C63,125.5,63,125.5,63,125.4C63,125.4,63,125.4,63,125.4z M63,125.4C63,125.4,63,125.4,63,125.4C63,125.4,63,125.4,63,125.4
		C63,125.4,63,125.4,63,125.4z M62.9,125.8C62.9,125.8,62.8,125.8,62.9,125.8C62.9,125.8,62.9,125.8,62.9,125.8z M62.8,126
		C62.8,126,62.8,126,62.8,126L62.8,126C62.8,126,62.8,126,62.8,126z M62.6,126.3C62.6,126.4,62.6,126.4,62.6,126.3L62.6,126.3
		L62.6,126.3C62.7,126.4,62.6,126.4,62.6,126.3C62.6,126.4,62.6,126.4,62.6,126.3C62.6,126.4,62.6,126.4,62.6,126.3z M62.7,126.2
		C62.7,126.2,62.7,126.2,62.7,126.2C62.7,126.1,62.7,126.1,62.7,126.2C62.7,126.2,62.7,126.2,62.7,126.2z M62.6,126.3L62.6,126.3
		C62.6,126.2,62.6,126.2,62.6,126.3C62.6,126.2,62.6,126.3,62.6,126.3z M62.1,127.6C62.1,127.6,62,127.7,62.1,127.6L62.1,127.6z
		 M62.8,125.9C62.8,125.9,62.8,125.9,62.8,125.9L62.8,125.9C62.8,125.9,62.8,125.9,62.8,125.9C62.8,125.9,62.9,125.8,62.8,125.9
		C62.9,125.9,62.9,125.9,62.8,125.9C62.8,125.9,62.8,125.9,62.8,125.9z M62.8,126L62.8,126C62.7,126,62.7,126,62.8,126
		C62.7,126,62.7,126,62.8,126C62.7,126,62.7,126.1,62.8,126C62.7,126,62.7,126,62.8,126L62.8,126L62.8,126
		C62.7,126,62.7,126,62.8,126C62.7,126,62.7,126,62.8,126z M62.7,125.8C62.7,125.8,62.7,125.9,62.7,125.8L62.7,125.8
		C62.7,125.9,62.7,125.9,62.7,125.8z M63.9,124.1C64,124.1,63.9,124,63.9,124.1L63.9,124.1z M62.2,127.2c0,0,0,0.3-0.1,0.2
		c0,0,0,0,0,0C62.1,127.3,62.1,127.3,62.2,127.2C62.2,127.3,62.1,127.2,62.2,127.2z M64.1,123.8L64.1,123.8
		C64.1,123.7,64.1,123.8,64.1,123.8C64.1,123.7,64.1,123.7,64.1,123.8C64.1,123.7,64.2,123.7,64.1,123.8
		C64.2,123.7,64.1,123.8,64.1,123.8z M63.9,124.1L63.9,124.1C64,124,63.9,124,63.9,124.1z M63.6,124.7
		C63.6,124.7,63.6,124.7,63.6,124.7C63.7,124.7,63.6,124.7,63.6,124.7z M63.5,124.9C63.5,125,63.4,125,63.5,124.9
		C63.4,125,63.5,124.9,63.5,124.9z M62,127.4C62,127.4,62,127.4,62,127.4C62,127.4,62,127.5,62,127.4C62,127.4,62,127.4,62,127.4z
		 M64.3,123.7L64.3,123.7L64.3,123.7C64.4,123.7,64.3,123.7,64.3,123.7C64.2,123.8,64.3,123.7,64.3,123.7
		C64.3,123.7,64.3,123.6,64.3,123.7C64.3,123.6,64.3,123.6,64.3,123.7z M61.9,127.6C61.8,127.7,61.9,127.6,61.9,127.6
		C61.9,127.5,61.9,127.6,61.9,127.6z M60.7,128.2C60.7,128.2,60.8,128.2,60.7,128.2C60.8,128.1,60.9,128.2,60.7,128.2
		C60.8,128.2,60.7,128.2,60.7,128.2C60.7,128.2,60.7,128.2,60.7,128.2c-0.1,0-0.1,0-0.1,0C60.7,128.2,60.7,128.2,60.7,128.2z
		 M61.7,127.8C61.8,127.7,61.7,127.7,61.7,127.8L61.7,127.8z M61.6,128C61.6,128,61.6,128,61.6,128C61.6,128,61.6,128,61.6,128z
		 M61.4,128.1C61.4,128.1,61.4,128.1,61.4,128.1C61.4,128.1,61.4,128.1,61.4,128.1z M65,121.9C65,121.9,65,121.9,65,121.9
		C65,121.9,65,121.9,65,121.9z M62.7,125.7C62.8,125.8,62.8,125.8,62.7,125.7C62.8,125.8,62.8,125.8,62.7,125.7L62.7,125.7
		C62.7,125.8,62.7,125.8,62.7,125.7z M64.1,123.9L64.1,123.9C64.1,123.9,64.1,123.9,64.1,123.9C64.1,123.9,64.1,123.9,64.1,123.9
		C64.1,123.9,64.1,123.9,64.1,123.9C64.1,123.9,64.1,123.9,64.1,123.9C64.1,123.8,64.1,123.8,64.1,123.9z M64.4,123.5L64.4,123.5
		C64.3,123.6,64.4,123.5,64.4,123.5z M65.3,121.6L65.3,121.6C65.3,121.5,65.3,121.5,65.3,121.6z M64.9,122.9
		C64.9,122.9,64.9,122.9,64.9,122.9L64.9,122.9c0.1,0,0.1,0,0.1,0v0C64.9,122.9,64.9,123,64.9,122.9
		C64.9,122.9,64.9,122.9,64.9,122.9C64.9,122.9,64.8,122.9,64.9,122.9z M65.2,122.1L65.2,122.1L65.2,122.1
		C65.3,122.1,65.2,122.1,65.2,122.1C65.2,122.1,65.2,122.1,65.2,122.1C65.2,122.1,65.2,122,65.2,122.1
		C65.2,122,65.1,122.1,65.2,122.1C65.2,122,65.2,122,65.2,122.1C65.3,122.1,65.3,122.1,65.2,122.1C65.2,122.1,65.3,122.2,65.2,122.1
		z M65.1,121.8C65.1,121.8,65.1,121.8,65.1,121.8C65.1,121.8,65.1,121.7,65.1,121.8C65.1,121.8,65.2,121.8,65.1,121.8z M65.3,121.7
		C65.3,121.7,65.3,121.6,65.3,121.7C65.3,121.7,65.3,121.7,65.3,121.7z M65.2,121.7C65.2,121.8,65.2,121.8,65.2,121.7
		C65.2,121.8,65.2,121.7,65.2,121.7L65.2,121.7z M65.3,121.9C65.3,121.9,65.3,122,65.3,121.9C65.3,122,65.2,122,65.3,121.9z
		 M64.8,122.4C64.9,122.4,64.8,122.5,64.8,122.4c0.1,0,0.1,0,0.1,0C64.9,122.4,64.9,122.5,64.8,122.4L64.8,122.4
		C64.8,122.5,64.8,122.5,64.8,122.4C64.8,122.5,64.8,122.5,64.8,122.4z M64.9,122.2C64.9,122.2,64.9,122.1,64.9,122.2
		C64.9,122.2,64.9,122.3,64.9,122.2C64.9,122.3,64.9,122.3,64.9,122.2C64.9,122.3,64.9,122.3,64.9,122.2
		C64.9,122.2,64.9,122.3,64.9,122.2z M65,122.7L65,122.7L65,122.7C65,122.7,65,122.7,65,122.7C65,122.7,65,122.7,65,122.7z
		 M64.9,122.8C64.9,122.8,64.9,122.8,64.9,122.8C64.9,122.8,64.9,122.8,64.9,122.8C64.9,122.8,64.8,122.8,64.9,122.8z M65.3,121.6
		C65.3,121.5,65.3,121.6,65.3,121.6c0,0,0-0.1,0-0.1C65.4,121.5,65.3,121.5,65.3,121.6z M65.6,120.8
		C65.6,120.7,65.6,120.7,65.6,120.8C65.6,120.7,65.6,120.8,65.6,120.8z M65.3,121.4C65.3,121.4,65.3,121.4,65.3,121.4
		C65.3,121.5,65.3,121.3,65.3,121.4C65.4,121.4,65.3,121.4,65.3,121.4z M65.5,121.4C65.5,121.4,65.4,121.4,65.5,121.4
		C65.5,121.4,65.5,121.3,65.5,121.4C65.5,121.3,65.5,121.3,65.5,121.4L65.5,121.4z M65.6,121.5L65.6,121.5
		C65.6,121.5,65.6,121.5,65.6,121.5L65.6,121.5C65.6,121.5,65.6,121.5,65.6,121.5C65.6,121.5,65.6,121.5,65.6,121.5z M65,123.1
		C65,123.1,65,123.1,65,123.1C65.1,123,65,123.1,65,123.1z M65.4,121C65.5,121.1,65.4,121,65.4,121C65.5,121,65.5,121,65.4,121
		L65.4,121z M65.6,121C65.7,121,65.7,121,65.6,121L65.6,121C65.7,121,65.7,121,65.6,121z M65.2,122.5L65.2,122.5
		C65.2,122.5,65.2,122.4,65.2,122.5L65.2,122.5z M65.3,121.9L65.3,121.9C65.3,121.9,65.3,121.9,65.3,121.9
		C65.3,121.9,65.3,122,65.3,121.9z M64.9,122.7L64.9,122.7C64.9,122.7,64.9,122.8,64.9,122.7z M65.3,122.4
		C65.3,122.5,65.3,122.5,65.3,122.4L65.3,122.4L65.3,122.4z M65.1,122.4L65.1,122.4L65.1,122.4C65.1,122.4,65.1,122.4,65.1,122.4z
		 M65.1,122.4C65.1,122.3,65.1,122.3,65.1,122.4L65.1,122.4c0-0.1,0-0.1,0-0.2c0,0,0,0,0,0c0,0,0,0,0,0s0,0,0,0
		S65.1,122.3,65.1,122.4C65.1,122.3,65.1,122.3,65.1,122.4L65.1,122.4L65.1,122.4C65.2,122.3,65.2,122.3,65.1,122.4
		C65.1,122.3,65.1,122.3,65.1,122.4L65.1,122.4L65.1,122.4z M65.2,121.9c0,0-0.1,0.1-0.1,0.1v0C65.1,122,65.2,121.8,65.2,121.9
		C65.2,121.9,65.2,121.9,65.2,121.9z M65,122.2L65,122.2L65,122.2C65,122.2,65,122.2,65,122.2L65,122.2z M64.9,122.4
		C64.9,122.3,65,122.4,64.9,122.4L64.9,122.4C65,122.4,65,122.4,64.9,122.4z M64.9,122.6C64.9,122.6,64.9,122.7,64.9,122.6
		C64.9,122.6,64.8,122.7,64.9,122.6C64.8,122.7,64.9,122.7,64.9,122.6z M64.8,122.8L64.8,122.8C64.8,122.8,64.8,122.7,64.8,122.8
		C64.8,122.7,64.8,122.8,64.8,122.8L64.8,122.8z M65,122.3L65,122.3C65,122.3,65,122.3,65,122.3C65,122.3,65,122.3,65,122.3
		C65,122.3,65,122.3,65,122.3z M64.9,122.3C64.8,122.3,64.9,122.3,64.9,122.3C64.9,122.3,64.9,122.3,64.9,122.3z M65.6,121.1
		C65.6,121.1,65.6,121.1,65.6,121.1C65.7,121.1,65.6,121.1,65.6,121.1z M65.3,122C65.3,122,65.3,122,65.3,122
		C65.3,122,65.3,122,65.3,122z M65.2,122.2C65.2,122.2,65.2,122.2,65.2,122.2C65.2,122.2,65.2,122.2,65.2,122.2
		C65.2,122.2,65.1,122.2,65.2,122.2C65.1,122.2,65.1,122.2,65.2,122.2L65.2,122.2C65.2,122.2,65.3,122.2,65.2,122.2L65.2,122.2
		C65.3,122.2,65.2,122.2,65.2,122.2z M65.3,122C65.3,122,65.3,122,65.3,122S65.3,122,65.3,122L65.3,122z M65.1,122.2
		C65.1,122.2,65.1,122.2,65.1,122.2C65.1,122.1,65.2,122.1,65.1,122.2z M65.3,122.1C65.3,122.1,65.3,122.2,65.3,122.1
		C65.3,122.1,65.3,122.1,65.3,122.1C65.3,122.1,65.3,122.1,65.3,122.1C65.3,122.1,65.3,122.1,65.3,122.1z M65,122.3L65,122.3
		C64.9,122.3,65,122.3,65,122.3z M65.1,122.2C65.1,122.2,65.1,122.2,65.1,122.2C65.1,122.2,65.1,122.2,65.1,122.2
		C65.1,122.2,65.1,122.2,65.1,122.2C65.1,122.2,65.1,122.3,65.1,122.2z M65.1,122.1C65.1,122.1,65,122.1,65.1,122.1
		C65,122.1,65,122.1,65.1,122.1z M65.1,122C65.1,122.1,65.1,122,65.1,122C65.1,122,65.1,122,65.1,122C65.1,122,65.1,122,65.1,122z
		 M65.4,122.2C65.4,122.2,65.4,122.3,65.4,122.2C65.4,122.3,65.3,122.2,65.4,122.2z M65.2,121.9C65.2,121.9,65.2,122,65.2,121.9
		L65.2,121.9C65.2,121.9,65.2,121.9,65.2,121.9C65.3,121.9,65.2,121.9,65.2,121.9z M65.2,123.1C65.2,123.1,65.2,123.1,65.2,123.1
		C65.1,123,65.2,123,65.2,123.1C65.2,123,65.2,123.1,65.2,123.1z M65.1,123C65.1,123,65.1,122.9,65.1,123
		C65.1,122.9,65.1,123,65.1,123S65.1,123,65.1,123C65.1,123,65.1,123,65.1,123z M65.1,123.1C65.1,123.1,65,123.2,65.1,123.1
		C65.1,123.1,65,123.1,65.1,123.1z M65.4,122.4C65.3,122.3,65.3,122.3,65.4,122.4L65.4,122.4z M65.1,122.5
		C65.1,122.5,65.1,122.5,65.1,122.5C65.1,122.5,65.1,122.4,65.1,122.5C65.1,122.5,65.1,122.5,65.1,122.5z M64.9,123.4
		C64.9,123.4,64.9,123.5,64.9,123.4L64.9,123.4c-0.1,0-0.1,0-0.1,0c0,0,0,0,0,0C64.8,123.4,64.9,123.5,64.9,123.4
		C64.9,123.4,64.9,123.4,64.9,123.4C64.9,123.4,64.9,123.4,64.9,123.4C64.9,123.3,64.9,123.4,64.9,123.4l-0.1-0.1
		C64.8,123.4,64.9,123.4,64.9,123.4z M65.4,122.1C65.4,122.1,65.4,122.1,65.4,122.1C65.4,122.1,65.4,122.1,65.4,122.1
		C65.4,122.1,65.4,122.1,65.4,122.1C65.4,122.1,65.5,122.1,65.4,122.1z M64.4,123.6C64.4,123.7,64.4,123.6,64.4,123.6
		C64.4,123.6,64.4,123.6,64.4,123.6z M64.5,123.6C64.5,123.6,64.5,123.5,64.5,123.6c0.1,0,0.1-0.1,0.2,0c0,0,0,0,0,0s0,0,0,0
		C64.5,123.5,64.5,123.6,64.5,123.6C64.6,123.6,64.5,123.7,64.5,123.6c0.1,0.1,0,0.1,0,0.1C64.5,123.7,64.5,123.7,64.5,123.6
		L64.5,123.6C64.5,123.7,64.4,123.6,64.5,123.6C64.5,123.6,64.5,123.6,64.5,123.6z M60.7,128.1C60.7,128.1,60.8,128.1,60.7,128.1
		C60.8,128,60.8,128,60.7,128.1C60.8,128.1,60.8,128.1,60.7,128.1z M61,127.7L61,127.7L61,127.7C61.1,127.7,61.1,127.7,61,127.7
		L61,127.7z M61,127.9C61,127.9,61,127.9,61,127.9C61,127.9,61,127.8,61,127.9C61,127.9,61,127.9,61,127.9L61,127.9
		c0.1,0,0.2-0.1,0.2-0.1C61.2,127.8,61.1,127.9,61,127.9c0.1,0,0.1,0,0.1,0C61.1,128,61.1,127.9,61,127.9c0.1,0.2,0.2,0,0.2,0.1l0,0
		c0,0-0.1,0-0.1,0.1c0,0,0,0,0,0c0,0,0,0,0,0c0,0-0.1,0-0.1,0c0,0,0,0,0,0c0,0,0,0,0,0h0c0,0,0.1,0,0,0h0
		C61,127.9,61,127.9,61,127.9z M61.4,127.7C61.4,127.7,61.4,127.7,61.4,127.7C61.4,127.7,61.4,127.7,61.4,127.7
		C61.4,127.7,61.4,127.6,61.4,127.7c0.1,0,0.1-0.1,0.1-0.1C61.5,127.7,61.4,127.7,61.4,127.7C61.4,127.7,61.4,127.7,61.4,127.7
		C61.4,127.7,61.4,127.7,61.4,127.7z M61.5,127.5L61.5,127.5C61.5,127.5,61.5,127.5,61.5,127.5C61.5,127.5,61.5,127.5,61.5,127.5
		C61.5,127.5,61.5,127.4,61.5,127.5L61.5,127.5L61.5,127.5z M61.6,127.5C61.6,127.5,61.5,127.4,61.6,127.5
		C61.5,127.4,61.6,127.4,61.6,127.5z M61.6,127.4L61.6,127.4C61.6,127.4,61.6,127.3,61.6,127.4C61.6,127.4,61.6,127.4,61.6,127.4
		C61.6,127.4,61.6,127.4,61.6,127.4z M61.6,127.3C61.6,127.3,61.6,127.3,61.6,127.3C61.7,127.3,61.7,127.3,61.6,127.3
		C61.6,127.4,61.6,127.3,61.6,127.3C61.6,127.3,61.6,127.2,61.6,127.3C61.6,127.3,61.6,127.3,61.6,127.3c0-0.1,0.1-0.1,0.1-0.2
		C61.7,127.1,61.7,127.2,61.6,127.3c0.1-0.1,0.2,0,0.1,0C61.7,127.3,61.6,127.3,61.6,127.3z M61.7,127.2
		C61.8,127.1,61.7,127.1,61.7,127.2C61.7,127.1,61.7,127.1,61.7,127.2C61.7,127.1,61.7,127.1,61.7,127.2c0-0.1,0-0.1,0-0.1
		C61.7,127.1,61.8,127.1,61.7,127.2C61.7,127.1,61.7,127.2,61.7,127.2z M61.5,127.9C61.5,127.9,61.5,127.9,61.5,127.9
		C61.5,127.9,61.5,127.9,61.5,127.9C61.5,127.9,61.5,128,61.5,127.9C61.4,127.9,61.5,127.9,61.5,127.9z M61.8,127
		C61.8,127,61.8,127,61.8,127C61.8,127,61.8,127,61.8,127L61.8,127C61.8,127,61.8,127,61.8,127z M61.8,127
		C61.8,126.9,61.8,126.9,61.8,127C61.8,126.9,61.8,126.9,61.8,127C61.8,126.9,61.8,126.9,61.8,127C61.8,126.9,61.8,126.9,61.8,127
		L61.8,127c0.1-0.1,0.1-0.1,0.1-0.1c0,0,0,0,0,0C61.9,126.8,61.9,126.9,61.8,127z M61.9,126.7C62,126.7,62,126.6,61.9,126.7
		C61.9,126.7,62,126.6,61.9,126.7C62,126.7,61.9,126.7,61.9,126.7C62,126.7,62,126.7,61.9,126.7C62,126.7,62,126.7,61.9,126.7z
		 M62.1,126.6L62.1,126.6L62.1,126.6C62.1,126.6,62.1,126.6,62.1,126.6L62.1,126.6c0.1,0,0.1,0,0.1,0s0,0,0,0c0,0,0,0,0,0v0
		C62.2,126.6,62.2,126.7,62.1,126.6C62.1,126.6,62.1,126.6,62.1,126.6C62.1,126.6,62.1,126.6,62.1,126.6z M62.2,126.4
		C62.2,126.3,62.2,126.3,62.2,126.4L62.2,126.4C62.2,126.3,62.2,126.3,62.2,126.4L62.2,126.4C62.3,126.3,62.3,126.4,62.2,126.4
		C62.3,126.3,62.2,126.3,62.2,126.4C62.3,126.4,62.3,126.3,62.2,126.4c0.1,0,0,0,0.1,0H62.2C62.4,126.3,62.3,126.4,62.2,126.4z
		 M62.3,126.4L62.3,126.4C62.4,126.4,62.4,126.5,62.3,126.4C62.4,126.4,62.3,126.4,62.3,126.4z M62.5,126.1
		C62.5,126.1,62.5,126.1,62.5,126.1C62.5,126.1,62.5,126.1,62.5,126.1C62.5,126.1,62.5,126.1,62.5,126.1z M62.6,125.9
		C62.6,125.9,62.6,125.9,62.6,125.9C62.6,125.9,62.6,125.9,62.6,125.9C62.6,125.9,62.6,125.9,62.6,125.9
		C62.6,126,62.6,125.9,62.6,125.9z M62.6,125.9L62.6,125.9L62.6,125.9z M62.8,125.7C62.8,125.6,62.8,125.6,62.8,125.7
		C62.8,125.6,62.8,125.6,62.8,125.7z M64.3,123.3L64.3,123.3C64.3,123.3,64.3,123.3,64.3,123.3C64.3,123.3,64.4,123.3,64.3,123.3
		c0.1-0.1,0.1-0.1,0.1,0S64.3,123.3,64.3,123.3C64.3,123.4,64.3,123.4,64.3,123.3C64.3,123.4,64.3,123.4,64.3,123.3
		C64.3,123.4,64.3,123.3,64.3,123.3C64.3,123.3,64.3,123.3,64.3,123.3z M64.5,123.2C64.5,123.2,64.5,123.1,64.5,123.2
		C64.5,123.2,64.5,123.2,64.5,123.2C64.5,123.2,64.5,123.2,64.5,123.2z M64.5,123.4C64.5,123.4,64.5,123.4,64.5,123.4
		C64.5,123.4,64.5,123.4,64.5,123.4C64.5,123.4,64.4,123.4,64.5,123.4z M64.6,122.9C64.6,122.9,64.5,123,64.6,122.9
		C64.5,123,64.5,123,64.6,122.9C64.6,122.9,64.6,122.9,64.6,122.9z M64.6,122.8C64.6,122.8,64.6,122.9,64.6,122.8L64.6,122.8
		L64.6,122.8C64.6,122.8,64.6,122.7,64.6,122.8C64.6,122.8,64.6,122.8,64.6,122.8z M64.6,122.7L64.6,122.7L64.6,122.7L64.6,122.7z
		 M61.3,127.5C61.3,127.5,61.3,127.5,61.3,127.5C61.3,127.5,61.3,127.6,61.3,127.5C61.2,127.5,61.3,127.5,61.3,127.5z M61.1,127.8
		C61.1,127.9,61.1,127.8,61.1,127.8C61,127.9,61.1,127.8,61.1,127.8C61.1,127.8,61.1,127.8,61.1,127.8L61.1,127.8z M61.3,127.6
		c0,0.1-0.1,0.1-0.1,0.2c0,0,0,0,0,0C61.2,127.7,61.2,127.7,61.3,127.6C61.3,127.6,61.3,127.6,61.3,127.6L61.3,127.6z M64.3,123.3
		L64.3,123.3L64.3,123.3z M62.2,126.5C62.2,126.5,62.1,126.5,62.2,126.5C62.2,126.5,62.2,126.5,62.2,126.5
		C62.2,126.5,62.2,126.5,62.2,126.5L62.2,126.5z M61.4,127.5C61.5,127.5,61.5,127.6,61.4,127.5C61.5,127.6,61.4,127.6,61.4,127.5
		C61.4,127.6,61.4,127.5,61.4,127.5z M61.5,127.4C61.5,127.4,61.5,127.4,61.5,127.4C61.4,127.4,61.5,127.5,61.5,127.4
		C61.4,127.4,61.5,127.4,61.5,127.4z M61.8,127.2L61.8,127.2C61.9,127.2,61.9,127.2,61.8,127.2c0.1,0,0.1-0.1,0.1-0.1c0,0,0,0,0,0
		C62,127.2,62,127.1,61.8,127.2C61.9,127.2,61.9,127.3,61.8,127.2C61.9,127.3,61.9,127.3,61.8,127.2c0,0.2-0.1,0.4-0.2,0.4
		C61.7,127.5,61.8,127.4,61.8,127.2L61.8,127.2C61.8,127.3,61.8,127.3,61.8,127.2C61.8,127.3,61.9,127.2,61.8,127.2
		C61.8,127.3,61.8,127.3,61.8,127.2z M62.4,126.5L62.4,126.5C62.4,126.5,62.4,126.6,62.4,126.5C62.4,126.5,62.4,126.5,62.4,126.5z
		 M62.4,126.5C62.4,126.5,62.5,126.4,62.4,126.5c0-0.1,0-0.1,0-0.1C62.4,126.4,62.5,126.4,62.4,126.5
		C62.5,126.4,62.5,126.5,62.4,126.5z M64.7,122.9C64.8,122.9,64.7,123,64.7,122.9C64.7,122.9,64.7,122.9,64.7,122.9z M64.7,123.1
		C64.7,123.2,64.7,123.1,64.7,123.1C64.8,123.2,64.6,123.2,64.7,123.1z M64.7,123.2L64.7,123.2C64.7,123.2,64.7,123.3,64.7,123.2
		C64.7,123.2,64.7,123.2,64.7,123.2L64.7,123.2z M64.8,123C64.8,123.1,64.8,123,64.8,123C64.8,123,64.9,123,64.8,123L64.8,123
		L64.8,123L64.8,123C64.9,123,64.9,123.1,64.8,123C64.9,123,64.9,123,64.8,123c0,0.1,0,0.1,0,0.1c0,0,0,0,0,0c0,0,0,0.1-0.1,0.1
		c0,0,0,0,0-0.1c0,0,0,0,0,0l0,0C64.9,123.2,64.8,123.1,64.8,123z M59.9,128.5c0.2,0.1,0.5,0,0.7-0.3c0,0,0.1-0.1,0.1-0.1s0,0,0,0
		c0,0,0,0,0,0l0,0c0,0,0,0,0,0c0,0,0,0,0.1,0c0,0,0,0,0-0.1c0,0,0,0,0,0l0,0c0,0,0,0,0.1,0v0c0,0,0.1,0,0,0.1c0.1,0,0,0,0.1,0.1
		c0,0,0,0,0-0.1c0,0,0.1,0,0.1,0c0-0.1,0.2-0.1,0.3-0.1c0,0,0.1-0.1,0.1-0.2c0,0,0-0.1,0.1-0.1c0,0,0.1,0,0.1-0.1
		c0,0,0.1-0.1,0.1-0.2c0-0.1,0-0.2,0.1-0.2c0,0.1,0.1-0.1,0.1-0.2c0,0,0,0-0.1,0.1v0c0,0,0,0,0,0c0,0,0-0.1,0-0.1c0,0,0,0,0,0
		c0,0,0,0,0,0c0,0,0,0,0,0c0,0,0-0.1,0,0v0h0v0h0c0,0,0,0,0-0.1c0,0-0.1,0,0,0c0,0,0,0-0.1,0.1c0,0,0-0.1,0-0.1v0c0,0,0,0,0,0h0
		c0,0,0,0,0,0.1v0c0,0,0,0,0-0.1c0,0,0,0.1,0,0c0,0,0,0.1,0,0.2c0,0,0,0,0,0c0,0,0,0,0,0c0,0,0,0,0-0.1c0,0,0,0.1-0.1,0.1
		c0,0,0,0,0-0.1v0c0,0,0,0,0,0c0,0,0,0,0.1-0.1c0,0,0,0.1-0.1,0.1c0,0,0,0,0,0c0,0,0,0,0,0l0,0c0,0,0.1-0.1,0.1-0.1h0c0,0,0,0,0,0
		c0,0,0,0,0.1,0c0,0,0,0,0-0.1v0c0,0,0,0,0,0c0,0,0,0,0,0c0,0,0,0,0,0c0,0,0,0,0,0.1c0,0,0,0,0-0.1c0,0,0,0,0,0.1v0
		c0-0.1,0.1-0.2,0.2-0.2c0,0,0,0,0,0c0,0,0,0,0,0c0,0,0,0,0,0c0,0,0,0,0.1-0.1h0c0,0,0,0,0.1-0.1v0c0,0,0,0,0,0c0,0,0,0,0.1,0
		c0,0,0,0,0-0.1c0,0,0,0,0,0v0c0,0,0,0,0,0c0,0,0-0.1,0.1-0.2c0,0,0,0,0,0c0,0,0-0.2,0.1-0.2h0c0,0,0,0,0,0.1v0c0,0,0,0,0,0
		c0,0,0,0,0,0.1v0c0,0,0,0,0,0s0,0,0,0c0,0,0,0,0,0c0,0,0,0,0-0.1c0,0,0,0-0.1,0v0c0,0,0,0,0,0v0c0,0,0,0,0,0h0l0,0
		c0,0,0.1-0.1,0.1,0c0,0,0-0.1,0-0.2c0,0,0,0,0-0.1l0,0c0,0,0,0,0,0c0,0,0,0,0,0v0c0,0,0,0,0,0c0,0,0,0.1,0.1,0c0,0,0,0,0,0l0,0
		c0,0,0,0-0.1,0c0,0,0.1-0.2,0.2-0.2c0,0,0,0,0,0c0,0,0,0,0-0.1l0,0c0-0.1,0.1-0.1,0.1-0.2v0h0c0,0,0,0,0,0l0,0
		c0.1-0.2,0.3-0.4,0.4-0.6c0,0,0,0,0.1,0c0,0,0.1,0,0-0.1c0,0,0,0-0.1,0.1l0,0c0.1-0.1,0.1-0.2,0.2-0.4c0,0,0,0,0,0h0c0,0,0,0,0,0
		c0,0,0,0,0,0c0,0,0,0,0,0.1c0,0,0,0,0,0c0,0,0,0,0,0c0,0,0,0,0,0.1c0,0,0-0.1,0.1-0.1c0,0,0-0.1,0-0.1c0,0,0,0,0,0c0,0,0,0,0,0
		c0,0,0,0,0,0c0,0,0,0,0,0c0,0,0,0-0.1,0c0,0,0,0,0,0c0-0.1,0.1-0.2,0.1-0.3l0,0l0,0c0,0,0-0.1,0-0.1l0,0v0c0-0.1,0.1-0.2,0.2-0.3
		l0,0l0,0c0,0,0-0.1,0-0.1c0,0,0,0,0,0c0.1,0-0.1,0.2,0,0.3c0,0,0-0.1,0.1-0.1c0,0,0,0,0-0.1c0,0,0,0,0,0c0,0,0,0,0,0c0,0,0,0,0,0.1
		c0,0,0,0,0,0v0c0,0,0,0,0,0c0,0,0,0,0.1,0c0.1,0,0.1,0,0.2-0.1c0,0,0,0,0,0c0,0,0,0,0,0c0,0,0,0,0,0c0,0,0,0-0.1,0c0,0,0,0,0,0
		c0,0,0,0,0,0h0v0l0,0v0c0,0,0,0,0,0c0,0,0,0-0.1,0c0,0,0,0,0,0c0,0,0,0,0.1,0c0,0,0,0,0,0c0,0,0,0,0,0c0,0,0,0,0,0c0,0,0,0,0,0
		c0,0,0,0,0,0.1h0c0,0,0,0,0,0s0,0,0,0c0,0,0,0,0,0c0,0,0,0,0,0c0,0,0,0,0.1,0c0-0.1,0.1-0.2,0.1-0.2c0,0,0,0,0,0c0,0,0,0,0-0.1
		c0,0,0,0,0,0c0,0-0.1,0-0.1,0c0,0,0,0,0,0s0,0,0,0c0,0,0-0.1,0-0.1c0,0,0,0,0,0c0,0,0,0,0,0c0,0,0,0,0-0.1c0,0,0,0,0,0h0
		c0,0,0,0,0,0c0,0,0-0.1,0,0c0,0,0,0,0,0h0c0,0,0,0,0,0c0-0.1,0.1-0.3,0.2-0.4l0,0l0,0c0,0,0,0,0-0.1c0,0,0,0,0,0c0-0.1,0-0.1,0-0.2
		c0,0,0,0,0,0c0,0,0-0.1,0-0.1c0,0,0,0,0-0.1h0c0,0,0,0,0,0c0-0.1,0.1-0.2,0.1-0.3l0,0l0,0c0,0,0,0,0-0.1c0,0,0,0,0,0v0l0,0v0
		c0.6-1.5,1.2-3.6-0.5-2.4c-0.4,0.3-0.6,0.6-0.8,1c-1.5,2.4-2.9,5-4,7.6C59.7,128,59.6,128.4,59.9,128.5z M42.6,82.9
		c0,0.2-0.1,0.5-0.2,0.7c-1.3,2.3-2.8,4.7-5,6.2c-0.4-1,0-2.1,0.5-3C38.2,86.1,42.5,81.2,42.6,82.9z M40.3,97.6
		c-0.2,0.2-0.5,0.4-0.7,0.2c-0.7-0.4,4.2-9.9,6.2-9.1C48.6,89.9,41.1,96.8,40.3,97.6z M52.8,110.7c-0.9,1.2-1.9,2.4-3.4,2.6
		c0-2.7,1.6-5,3.1-7.2c0.5-0.8,3.5-4.9,3.7-2.1C56.4,106.2,54.1,109,52.8,110.7z M60.5,111c-1.5-1-4.4,4.3-4.9,5.4
		c-0.4,0.8-0.8,1.6-0.9,2.5c0,0.4,0.1,0.9,0.4,1c0.2,0,0.4,0,0.6-0.1c1-0.6,1.8-1.5,2.5-2.5C58.9,116.3,62.4,112.2,60.5,111z"/>
	<path class="st6" d="M33.7,84.5C33.7,84.5,33.7,84.5,33.7,84.5C33.8,84.4,33.7,84.3,33.7,84.5c0,0,0.1,0,0.2,0
		C33.9,84.6,33.8,84.5,33.7,84.5z M33.3,85.4L33.3,85.4C33.3,85.4,33.3,85.4,33.3,85.4L33.3,85.4C33.3,85.4,33.3,85.4,33.3,85.4z
		 M33.1,85.9C33.1,85.9,33.1,85.9,33.1,85.9C33.1,85.9,33,85.8,33.1,85.9C33.1,85.8,33.1,85.8,33.1,85.9
		C33.1,85.8,33.1,85.8,33.1,85.9z M33.7,84.6C33.7,84.6,33.7,84.6,33.7,84.6L33.7,84.6C33.7,84.6,33.7,84.5,33.7,84.6z M33.4,85.1
		C33.4,85.1,33.5,85.1,33.4,85.1C33.4,85.2,33.4,85.1,33.4,85.1C33.4,85.1,33.5,85.1,33.4,85.1C33.5,85.1,33.5,85.1,33.4,85.1z
		 M33.9,84.9C34,85,33.9,85,33.9,84.9C33.9,85,33.9,84.9,33.9,84.9z M34.1,84.9C34,84.9,34,84.9,34.1,84.9
		C34.1,85,34,84.8,34.1,84.9C34.1,84.8,34.1,84.9,34.1,84.9C34.1,84.9,34.1,84.8,34.1,84.9c0.1,0,0,0,0,0.1C34,85,34,84.9,34.1,84.9
		C34,84.9,34,84.8,34.1,84.9z M33.7,85.2C33.8,85.2,33.8,85.3,33.7,85.2C33.8,85.2,33.7,85.2,33.7,85.2z M33.7,85.1
		C33.7,85.2,33.7,85.2,33.7,85.1C33.7,85.2,33.7,85.3,33.7,85.1C33.7,85.2,33.6,85.1,33.7,85.1z M33.4,85.8
		C33.4,85.8,33.4,85.9,33.4,85.8C33.4,85.9,33.4,85.9,33.4,85.8C33.4,85.8,33.4,85.8,33.4,85.8z M33.6,85C33.7,85,33.7,85,33.6,85
		L33.6,85C33.7,85,33.6,85,33.6,85z M33.7,85C33.7,85,33.7,85,33.7,85C33.7,84.9,33.7,85,33.7,85c-0.1,0-0.2-0.2-0.1-0.2
		C33.6,84.8,33.7,84.9,33.7,85c-0.1-0.2-0.1-0.2,0-0.3c0,0,0,0.1,0,0.1C33.8,84.8,33.8,84.9,33.7,85c0.1-0.1,0-0.1,0-0.2
		c0,0,0.1,0,0.1,0c0,0-0.1-0.1,0-0.1c0,0,0,0-0.1,0c0,0,0,0,0,0c0,0,0,0,0,0c0,0,0,0,0.1,0c0,0,0,0.1,0,0.1c0,0,0.1,0,0.1,0
		c0,0,0,0,0,0c0,0,0,0,0,0v0c0,0,0,0,0,0c0,0,0,0-0.1,0C33.8,84.8,33.7,84.9,33.7,85z M33.7,85.4C33.7,85.4,33.7,85.4,33.7,85.4
		L33.7,85.4C33.7,85.4,33.7,85.4,33.7,85.4z M33.5,86C33.5,86,33.5,86.1,33.5,86C33.5,86.1,33.4,86,33.5,86C33.4,86,33.4,86,33.5,86
		z M33.5,85.9c0,0,0-0.1,0.1,0c0,0,0,0,0,0C33.6,86,33.6,86.1,33.5,85.9C33.5,86,33.6,85.9,33.5,85.9z M33.3,85.6L33.3,85.6
		L33.3,85.6C33.4,85.7,33.3,85.7,33.3,85.6C33.3,85.7,33.2,85.7,33.3,85.6C33.3,85.7,33.4,85.8,33.3,85.6c0.1,0.1,0,0.2,0.1,0.2
		c0,0-0.1,0-0.1,0c0.1,0,0-0.1-0.1-0.1C33.3,85.7,33.3,85.7,33.3,85.6z M33.4,84c0,0-0.1,0-0.1,0C33.3,83.9,33.3,83.9,33.4,84
		C33.4,83.9,33.4,83.9,33.4,84C33.4,84,33.4,84,33.4,84C33.4,83.9,33.5,84,33.4,84z M32.3,85.6L32.3,85.6L32.3,85.6
		C32.4,85.6,32.4,85.6,32.3,85.6L32.3,85.6C32.3,85.7,32.3,85.7,32.3,85.6z M31.9,86.8C31.8,86.7,31.8,86.6,31.9,86.8
		C31.8,86.7,31.9,86.7,31.9,86.8z M31.8,86.7C31.8,86.7,31.8,86.8,31.8,86.7C31.8,86.8,31.8,86.8,31.8,86.7
		C31.8,86.8,31.8,86.8,31.8,86.7C31.8,86.8,31.8,86.7,31.8,86.7z M33.1,84.2C33.2,84.3,33.2,84.3,33.1,84.2
		C33.1,84.3,33.1,84.3,33.1,84.2C33.1,84.3,33.1,84.2,33.1,84.2z M33,85.9C33,85.9,33,85.9,33,85.9C33,85.9,33,85.8,33,85.9
		C33,85.9,33,85.9,33,85.9c0,0,0.1,0.1,0.1,0c0,0,0,0,0,0.1c0-0.1,0,0.1,0,0v0c0,0-0.1,0.1-0.2,0.1C33,86,33,86,33,85.9
		C33,86,33,86,33,85.9C33,85.9,33,85.9,33,85.9z M32.2,86.3L32.2,86.3C32.2,86.3,32.2,86.4,32.2,86.3C32.1,86.3,32.2,86.3,32.2,86.3
		c0,0,0,0,0,0.1c0,0,0,0-0.1,0C32.2,86.4,32.2,86.4,32.2,86.3z M31.9,86.7C31.9,86.7,31.9,86.6,31.9,86.7c0.1,0,0.1,0,0.1,0v0
		C31.9,86.7,31.9,86.7,31.9,86.7z M31.9,86.5C32,86.5,32,86.4,31.9,86.5C32,86.4,32,86.5,31.9,86.5c0.1,0,0.2,0,0.2-0.1
		c0,0,0,0.1,0,0.1c0,0,0.1,0.1,0,0.1C32.1,86.5,32,86.6,31.9,86.5c0,0.1,0.1,0.1,0.1,0.1c0,0,0,0.1-0.1,0.1
		C31.9,86.6,32,86.6,31.9,86.5z M32.8,85.9C32.7,86,32.9,85.9,32.8,85.9C32.8,86.1,32.7,85.9,32.8,85.9C32.7,86,32.7,86,32.8,85.9
		C32.7,86,32.7,86,32.8,85.9C32.7,86,32.8,85.9,32.8,85.9z M33,85.5C33,85.6,33,85.5,33,85.5C33,85.6,33.1,85.6,33,85.5
		C33,85.6,32.9,85.6,33,85.5z M32.5,86.2L32.5,86.2C32.4,86.1,32.5,86.2,32.5,86.2C32.5,86.2,32.5,86.1,32.5,86.2
		c0.1,0,0-0.2,0.1-0.1C32.6,86.2,32.6,86.2,32.5,86.2C32.4,86.2,32.4,86.2,32.5,86.2z M32.3,86.3L32.3,86.3
		C32.3,86.2,32.3,86.2,32.3,86.3l0.1,0C32.4,86.3,32.3,86.3,32.3,86.3z M31.6,87.4C31.7,87.4,31.7,87.4,31.6,87.4
		C31.7,87.4,31.6,87.4,31.6,87.4C31.6,87.4,31.6,87.4,31.6,87.4L31.6,87.4z M33.4,84.2C33.3,84.2,33.4,84.2,33.4,84.2
		C33.3,84.1,33.3,84.1,33.4,84.2C33.3,84.1,33.3,84.2,33.4,84.2c-0.1,0-0.1,0-0.2,0c0,0,0-0.1,0.1-0.1
		C33.3,84.2,33.4,84.1,33.4,84.2c0-0.1,0-0.1,0-0.2c0,0,0,0,0.1,0c0,0,0,0-0.1,0C33.4,84.1,33.4,84.1,33.4,84.2c0.1-0.1,0.2,0,0.2,0
		c0,0,0,0,0,0v0l0,0c0,0-0.1,0.1-0.2,0c0,0,0,0,0,0C33.4,84.3,33.4,84.3,33.4,84.2c0,0.1,0,0.2,0,0.1h0
		C33.4,84.3,33.4,84.3,33.4,84.2C33.4,84.3,33.3,84.3,33.4,84.2C33.3,84.2,33.3,84.2,33.4,84.2z M34.5,82.1
		C34.5,82,34.5,82,34.5,82.1C34.5,82,34.5,82,34.5,82.1z M35.4,83C35.3,82.9,35.4,82.9,35.4,83C35.4,82.9,35.4,83,35.4,83z
		 M35.6,81.9C35.5,81.9,35.5,81.9,35.6,81.9c0,0-0.1,0-0.1,0C35.5,81.8,35.5,81.8,35.6,81.9z M35.6,81.6
		C35.6,81.6,35.5,81.6,35.6,81.6C35.6,81.6,35.6,81.6,35.6,81.6C35.5,81.6,35.5,81.6,35.6,81.6L35.6,81.6
		C35.5,81.6,35.6,81.6,35.6,81.6z M35.5,81.7C35.4,81.6,35.5,81.7,35.5,81.7C35.4,81.7,35.5,81.7,35.5,81.7
		C35.5,81.6,35.6,81.7,35.5,81.7z M35.8,81.2C35.8,81.2,35.7,81.2,35.8,81.2C35.8,81.2,35.8,81.2,35.8,81.2L35.8,81.2
		C35.7,81.2,35.7,81.2,35.8,81.2C35.7,81.2,35.8,81.2,35.8,81.2z M34.7,82.2C34.6,82.2,34.6,82.2,34.7,82.2
		C34.6,82.2,34.7,82.2,34.7,82.2L34.7,82.2C34.6,82.1,34.6,82.1,34.7,82.2C34.6,82.2,34.6,82.2,34.7,82.2z M34.6,82.1
		C34.7,82.1,34.6,82,34.6,82.1C34.7,82,34.7,82.1,34.6,82.1z M36.7,82C36.7,81.9,36.7,81.9,36.7,82C36.7,82,36.6,82,36.7,82L36.7,82
		C36.7,81.9,36.7,82,36.7,82z M36.7,81.8c0,0.1-0.1,0.1-0.1,0C36.6,81.8,36.7,81.7,36.7,81.8z M36.7,81.6
		C36.8,81.6,36.8,81.6,36.7,81.6c0.1,0,0.1,0,0.1,0C36.8,81.6,36.8,81.6,36.7,81.6c0.1,0,0.1,0,0.1,0.1c0,0,0,0,0.1,0c0,0,0,0,0,0
		c0,0,0.1,0,0.1,0.1c0,0-0.1,0.1-0.2,0.1c0,0.1,0,0,0.1,0c0,0.1,0,0.1-0.1,0.2c0,0-0.1-0.1,0-0.1l0.1,0c0,0-0.1,0-0.1-0.1
		C36.9,81.9,36.7,81.6,36.7,81.6z M35.9,81.2C35.8,81.2,35.8,81.2,35.9,81.2C35.8,81.1,35.9,81.2,35.9,81.2z M35.8,80.5
		C35.8,80.4,35.8,80.4,35.8,80.5C35.9,80.4,35.8,80.4,35.8,80.5z M36.3,80.3c0,0,0-0.1,0-0.1C36.4,80.2,36.4,80.3,36.3,80.3z
		 M36.5,81.5C36.5,81.4,36.5,81.4,36.5,81.5C36.6,81.4,36.6,81.5,36.5,81.5z M36.4,82C36.4,82.1,36.4,82,36.4,82c-0.1,0-0.2,0-0.1,0
		C36.4,82.1,36.4,82,36.4,82z M36,81.5L36,81.5C36,81.5,36,81.5,36,81.5L36,81.5C36,81.4,36,81.4,36,81.5c0-0.1,0-0.2,0-0.2
		C36,81.4,36.1,81.4,36,81.5C36.1,81.5,36.1,81.5,36,81.5c0,0,0,0,0,0.1C36,81.6,36,81.6,36,81.5C36,81.6,36,81.6,36,81.5z
		 M35.9,81.5C35.9,81.5,35.9,81.5,35.9,81.5C35.9,81.5,35.8,81.4,35.9,81.5C35.8,81.4,35.9,81.4,35.9,81.5
		C35.9,81.5,35.9,81.4,35.9,81.5z M35.9,81.6L35.9,81.6C35.9,81.6,35.9,81.8,35.9,81.6C35.9,81.7,35.8,81.7,35.9,81.6z M36.3,81.2
		C36.3,81.2,36.4,81.2,36.3,81.2C36.4,81.2,36.4,81.3,36.3,81.2C36.3,81.2,36.3,81.2,36.3,81.2C36.3,81.2,36.3,81.2,36.3,81.2
		C36.3,81.2,36.3,81.1,36.3,81.2z M36.4,81.4C36.4,81.4,36.3,81.4,36.4,81.4C36.3,81.4,36.3,81.4,36.4,81.4
		C36.3,81.4,36.4,81.3,36.4,81.4z M36.2,81.1C36.2,81.1,36.3,81.1,36.2,81.1C36.3,81.1,36.3,81.1,36.2,81.1z M36.2,81.2
		c0,0,0,0-0.1,0c0,0,0,0,0,0v0H36c0,0,0-0.1,0-0.1c-0.1,0,0,0,0,0h0c0,0,0.1,0,0.1,0.1C36.1,81.2,36.2,81.2,36.2,81.2
		C36.2,81.2,36.2,81.2,36.2,81.2C36.3,81.2,36.2,81.2,36.2,81.2z M36.4,81.8c0,0-0.1,0-0.1,0c0,0,0,0,0-0.1
		C36.2,81.8,36.3,81.7,36.4,81.8z M36.1,81.4C36.1,81.4,36.1,81.3,36.1,81.4C36.1,81.3,36.1,81.3,36.1,81.4
		C36.2,81.4,36.1,81.3,36.1,81.4L36.1,81.4z M36,81.3C36,81.3,36,81.4,36,81.3C35.9,81.3,36,81.3,36,81.3C35.9,81.3,36,81.4,36,81.3
		c-0.1,0-0.1,0-0.2,0c0,0,0,0,0-0.1C35.9,81.3,36,81.3,36,81.3z M34.9,82.4L34.9,82.4C34.9,82.4,34.9,82.4,34.9,82.4
		C34.9,82.4,34.8,82.4,34.9,82.4z M34.7,82.2c0.1,0.1,0,0.1,0.1,0.2c0,0,0,0-0.1,0c0,0,0,0,0.1,0l0,0l0,0c0,0,0,0.1-0.1,0.1
		c0,0,0,0,0,0c0,0,0,0,0.1,0.1c0,0,0,0,0,0c0,0,0.1,0.1,0.2,0.1c0,0,0,0.1,0,0.1c0.1,0,0.1-0.2,0.1-0.3c0,0,0,0,0,0c0,0,0,0,0,0.1
		c0,0,0-0.1,0-0.1c0,0,0,0-0.1-0.1c0,0,0,0.2-0.1,0.2c0,0,0,0,0,0c0,0,0,0,0,0h0c0,0,0-0.1-0.1-0.1c0,0,0.1,0,0-0.1
		c0.1,0,0,0,0.1-0.1c-0.1,0-0.1,0-0.2,0l0,0c0,0,0,0,0.1,0c0,0-0.1,0,0,0c0,0,0,0,0,0c0,0,0,0,0.1,0c-0.1,0-0.1,0-0.2,0c0,0,0,0,0,0
		C34.8,82.2,34.8,82.1,34.7,82.2z M34.8,82.7C34.8,82.6,34.8,82.6,34.8,82.7C34.9,82.7,34.9,82.6,34.8,82.7
		C34.9,82.7,34.9,82.7,34.8,82.7c0,0-0.1,0-0.1,0c0,0,0,0.1,0,0.1c-0.1,0-0.1-0.1,0-0.2C34.7,82.6,34.8,82.7,34.8,82.7z M34.5,82.6
		C34.5,82.6,34.5,82.7,34.5,82.6C34.4,82.6,34.4,82.6,34.5,82.6C34.4,82.6,34.5,82.6,34.5,82.6z M34.4,82.5
		C34.4,82.5,34.4,82.4,34.4,82.5C34.5,82.5,34.5,82.4,34.4,82.5C34.5,82.5,34.5,82.5,34.4,82.5C34.5,82.5,34.5,82.6,34.4,82.5z
		 M35.1,82.3C35.1,82.2,35.1,82.2,35.1,82.3C35.2,82.2,35.2,82.3,35.1,82.3z M35.2,82.6L35.2,82.6C35.2,82.7,35.1,82.7,35.2,82.6
		l0,0.1C35,82.7,35.1,82.6,35.2,82.6C35.2,82.5,35.2,82.5,35.2,82.6C35.3,82.6,35.2,82.6,35.2,82.6z M35.3,83
		C35.3,83.1,35.3,83.1,35.3,83c-0.1,0.1-0.1,0-0.1,0c0,0,0,0,0-0.1C35.3,83,35.3,83,35.3,83z M35,82.9C35,82.8,35,82.8,35,82.9
		c0-0.1,0-0.1,0.1-0.2l0.1,0c0,0.1,0,0.2,0,0.3C35.1,82.9,35.1,82.9,35,82.9C35,82.9,35,82.8,35,82.9c0-0.1,0-0.2,0-0.3
		C35,82.7,34.9,82.8,35,82.9z M35.3,81.8C35.3,81.8,35.3,81.7,35.3,81.8C35.3,81.7,35.3,81.7,35.3,81.8
		C35.3,81.8,35.3,81.8,35.3,81.8z M34,83C34,83,33.9,83,34,83C34,83,34,83,34,83L34,83C33.9,83,33.9,83,34,83z M33.8,85.2
		C33.8,85.3,33.8,85.3,33.8,85.2C33.9,85.3,33.9,85.3,33.8,85.2C33.8,85.3,33.8,85.3,33.8,85.2C33.8,85.3,33.8,85.2,33.8,85.2z
		 M32.4,86.8C32.4,86.7,32.5,86.8,32.4,86.8C32.4,86.8,32.5,86.7,32.4,86.8C32.4,86.7,32.3,86.8,32.4,86.8l0-0.1c0,0,0.1,0,0.1,0.1
		c0,0,0.1,0,0.2,0c0,0,0,0.1,0,0.1s0-0.1,0,0c0,0,0,0.2-0.1,0.1l0,0c-0.1,0.1-0.2,0.3-0.4,0.3C32.2,87,32.4,86.9,32.4,86.8
		L32.4,86.8z M34.2,82.3C34.2,82.3,34.2,82.3,34.2,82.3C34.2,82.3,34.3,82.3,34.2,82.3C34.2,82.3,34.2,82.4,34.2,82.3
		C34.2,82.4,34.2,82.4,34.2,82.3C34.2,82.4,34.3,82.3,34.2,82.3z M34.2,82.7C34.2,82.7,34.2,82.6,34.2,82.7
		C34.3,82.6,34.3,82.6,34.2,82.7C34.3,82.7,34.2,82.7,34.2,82.7z M34.1,82.5C34.1,82.5,34.2,82.5,34.1,82.5c0,0,0,0.1,0,0.1
		C34.1,82.6,34.1,82.5,34.1,82.5z M34.2,82.8C34.2,82.8,34.2,82.8,34.2,82.8C34.2,82.8,34.2,82.8,34.2,82.8z M34.4,82.2
		C34.4,82.2,34.4,82.2,34.4,82.2C34.4,82.1,34.4,82.2,34.4,82.2c0-0.1,0-0.1,0-0.2c0,0,0,0,0.1,0c0,0,0,0,0,0.1c0,0,0,0.1,0,0.1
		c0,0-0.1,0-0.1,0c0,0,0,0,0.1,0c0,0,0,0.1,0,0.1c0,0,0,0,0-0.1c0,0,0,0,0,0C34.5,82.4,34.5,82.3,34.4,82.2z M34.4,82.7
		C34.4,82.7,34.5,82.7,34.4,82.7c0.1,0,0.1,0.1,0.1,0.2c-0.1,0,0,0.1-0.1,0.1C34.4,82.9,34.4,82.8,34.4,82.7
		C34.4,82.8,34.4,82.8,34.4,82.7z M35.7,80.4C35.7,80.4,35.7,80.4,35.7,80.4c0,0,0.1,0,0.1,0C35.7,80.5,35.7,80.4,35.7,80.4
		C35.7,80.4,35.7,80.4,35.7,80.4C35.6,80.4,35.7,80.5,35.7,80.4C35.7,80.4,35.6,80.4,35.7,80.4z M36,79.9c0,0,0,0.2-0.1,0.2
		C36,80.1,35.9,79.9,36,79.9z M35.8,80.4C35.7,80.5,35.7,80.5,35.8,80.4C35.7,80.5,35.8,80.5,35.8,80.4
		C35.7,80.4,35.7,80.4,35.8,80.4z M35.8,80.1C35.9,80.1,35.9,80.1,35.8,80.1C36,80.1,35.8,80.2,35.8,80.1z M35.9,80.2
		c0,0.1,0,0.1-0.1,0.1C35.7,80.2,35.9,80.2,35.9,80.2C35.8,80.1,35.8,80.1,35.9,80.2C35.8,80.2,35.8,80.1,35.9,80.2z M36,80.1
		c0,0,0,0.1,0,0.1C36,80.1,36,80.1,36,80.1z M36.1,79.8L36.1,79.8C36.1,79.9,36.1,79.9,36.1,79.8C36.1,79.9,36.1,79.9,36.1,79.8
		L36.1,79.8z M35.2,82C35.1,82,35.2,82,35.2,82C35.2,81.9,35.2,81.9,35.2,82C35.2,82,35.1,82,35.2,82z M35.5,81.2
		C35.5,81.3,35.5,81.3,35.5,81.2C35.4,81.3,35.5,81.2,35.5,81.2z M35.6,81.1C35.6,81,35.6,81,35.6,81.1C35.6,81,35.6,81.1,35.6,81.1
		C35.6,81.1,35.7,81.1,35.6,81.1C35.6,81.1,35.6,81.1,35.6,81.1C35.6,81.1,35.6,81.1,35.6,81.1z M35.1,82.2
		C35.1,82.1,35.1,82.2,35.1,82.2C35,82.1,35.1,82.1,35.1,82.2z M35.5,81.1c0,0,0,0.1,0,0.2C35.5,81.2,35.5,81.1,35.5,81.1z
		 M35.5,80.5L35.5,80.5C35.6,80.5,35.6,80.5,35.5,80.5z M35.2,81.7L35.2,81.7C35.2,81.7,35.3,81.7,35.2,81.7
		C35.2,81.7,35.3,81.8,35.2,81.7z M34.9,82.2c-0.1-0.1,0.1-0.1,0-0.2c0.1,0,0,0,0-0.1c0.1,0,0-0.1,0-0.1c0,0,0,0.1,0,0.1
		c0,0,0,0,0,0c0,0,0,0,0.1,0.1C35,82.1,35,82.2,34.9,82.2z M35.1,81.5C35.2,81.6,35.1,81.4,35.1,81.5C35.2,81.5,35.2,81.5,35.1,81.5
		C35.2,81.6,35.1,81.5,35.1,81.5z M44.1,98.9C44,98.9,44,98.9,44.1,98.9C44,98.9,44,98.9,44.1,98.9C44,98.9,43.9,98.8,44.1,98.9
		C44,98.9,44,98.9,44.1,98.9c0-0.1,0-0.1,0-0.2C44.1,98.7,44,98.8,44.1,98.9C44.1,98.8,44,98.9,44.1,98.9c0-0.1,0-0.1,0-0.1
		c0,0,0,0,0.1,0c0,0,0-0.1,0-0.1c0,0,0,0,0,0c0,0,0,0,0,0c0,0,0,0,0,0c0,0,0,0,0,0c0,0,0,0,0,0c0,0,0.1,0,0,0l0,0c0,0,0,0,0,0v0l0,0
		C44.1,98.8,44.1,98.8,44.1,98.9C44.1,98.8,44,98.9,44.1,98.9z M44.2,98.8C44.2,98.8,44.2,98.9,44.2,98.8
		C44.1,98.9,44.1,98.9,44.2,98.8z M44.3,98.8C44.2,98.8,44.2,98.8,44.3,98.8C44.3,98.8,44.3,98.8,44.3,98.8
		C44.3,98.7,44.3,98.8,44.3,98.8C44.3,98.8,44.3,98.7,44.3,98.8C44.4,98.8,44.3,98.8,44.3,98.8C44.3,98.8,44.3,98.8,44.3,98.8
		C44.2,98.8,44.2,98.8,44.3,98.8z M44.1,98.5L44.1,98.5C44.1,98.5,44.1,98.5,44.1,98.5c0,0,0,0,0.1,0C44.2,98.6,44.1,98.6,44.1,98.5
		z M43.7,99.7L43.7,99.7C43.7,99.7,43.7,99.7,43.7,99.7C43.7,99.7,43.7,99.7,43.7,99.7z M43.8,99.6C43.8,99.6,43.8,99.5,43.8,99.6
		C43.8,99.6,43.9,99.6,43.8,99.6C43.8,99.6,43.8,99.7,43.8,99.6C43.8,99.7,43.8,99.6,43.8,99.6z M44,99C44.1,99,44.1,99.1,44,99
		C44,99.1,44,99.1,44,99z M44,99.2C44,99.2,44,99.3,44,99.2C43.9,99.3,43.9,99.3,44,99.2C43.9,99.3,44,99.2,44,99.2z M44.1,99.1
		L44.1,99.1C44.1,99.1,44.1,99.1,44.1,99.1C44.1,99.1,44.1,99.1,44.1,99.1C44.1,99.1,44.1,99.1,44.1,99.1z M42.2,101
		C42.2,101,42.2,101,42.2,101C42.2,101,42.2,101,42.2,101C42.2,101,42.2,101,42.2,101S42.2,101,42.2,101z M42.2,101.2
		C42.2,101.2,42.2,101.2,42.2,101.2c0,0-0.1,0-0.1,0c0,0,0,0,0,0C42.1,101.2,42.1,101.2,42.2,101.2l-0.1,0
		C42.1,101.2,42.2,101.2,42.2,101.2l-0.1,0C42.1,101.1,42.1,101.1,42.2,101.2C42.2,101.1,42.1,101.2,42.2,101.2
		C42.1,101.1,42.1,101.1,42.2,101.2C42.2,101.1,42.1,101.2,42.2,101.2C42.2,101.2,42.2,101.2,42.2,101.2c0-0.1,0.1-0.2,0.2-0.2
		C42.3,101.1,42.2,101.2,42.2,101.2C42.2,101.2,42.2,101.2,42.2,101.2C42.2,101.2,42.2,101.2,42.2,101.2
		C42.2,101.3,42.2,101.2,42.2,101.2h0.1C42.3,101.2,42.2,101.2,42.2,101.2C42.2,101.2,42.2,101.2,42.2,101.2z M44.3,97.5
		C44.3,97.5,44.3,97.5,44.3,97.5C44.3,97.5,44.3,97.6,44.3,97.5C44.3,97.5,44.3,97.5,44.3,97.5z M42.4,100.8c0,0.1-0.1,0.1-0.2,0.2
		c0,0,0,0,0,0C42.3,100.9,42.3,100.8,42.4,100.8C42.4,100.8,42.4,100.8,42.4,100.8C42.4,100.8,42.4,100.8,42.4,100.8z M44,99
		C44,99,44,99.1,44,99C44,99.1,44,99.1,44,99C44,99.1,43.9,99,44,99z M42.4,100.7C42.4,100.7,42.4,100.7,42.4,100.7
		C42.5,100.7,42.4,100.8,42.4,100.7z M44.1,97.8C44.1,97.8,44.1,97.8,44.1,97.8c0-0.1,0-0.1,0-0.1h0l0,0c0,0,0,0,0,0h0c0,0,0,0,0,0
		c0,0,0,0.1-0.1,0.1c0,0,0,0,0,0c0,0,0,0,0,0C44.1,97.7,44.1,97.9,44.1,97.8z M43.5,99.7L43.5,99.7C43.5,99.7,43.5,99.7,43.5,99.7
		C43.5,99.7,43.5,99.7,43.5,99.7C43.6,99.7,43.5,99.7,43.5,99.7z M43.7,99.3C43.7,99.3,43.7,99.3,43.7,99.3
		C43.7,99.3,43.7,99.3,43.7,99.3L43.7,99.3L43.7,99.3z M43.9,98.3L43.9,98.3C43.9,98.2,43.9,98.2,43.9,98.3
		C43.9,98.3,43.9,98.3,43.9,98.3C43.9,98.3,44,98.3,43.9,98.3C43.9,98.3,43.9,98.3,43.9,98.3z M44.1,98.6
		C44.1,98.6,44.1,98.6,44.1,98.6L44.1,98.6C44.1,98.6,44.1,98.6,44.1,98.6z M43.8,99C43.8,99.1,43.8,99.1,43.8,99
		C43.8,99.1,43.8,99.1,43.8,99C43.8,99,43.9,99,43.8,99C43.9,99,43.8,99,43.8,99z M42.6,101.1C42.6,101.2,42.6,101.2,42.6,101.1
		c-0.1,0-0.1,0.1-0.1,0.1C42.5,101.2,42.6,101.2,42.6,101.1C42.6,101.2,42.6,101.1,42.6,101.1z M43,100.4L43,100.4
		C43,100.4,43,100.3,43,100.4L43,100.4C42.9,100.3,43,100.4,43,100.4C42.9,100.3,43,100.3,43,100.4C43,100.3,43,100.3,43,100.4z
		 M43.1,99.8C43,99.7,43,99.7,43.1,99.8C43.1,99.7,43.1,99.7,43.1,99.8L43.1,99.8C43.1,99.7,43.1,99.7,43.1,99.8L43.1,99.8z
		 M42.9,100.4C42.9,100.4,43,100.4,42.9,100.4L42.9,100.4C42.9,100.5,42.9,100.4,42.9,100.4c0,0.1,0,0.1,0,0.2
		C42.8,100.5,42.8,100.5,42.9,100.4C42.8,100.4,42.8,100.4,42.9,100.4C42.8,100.4,42.8,100.4,42.9,100.4
		C42.9,100.4,42.9,100.4,42.9,100.4C42.9,100.4,42.9,100.4,42.9,100.4z M43,100.2L43,100.2C43,100.2,43,100.1,43,100.2L43,100.2
		C43,100.2,43,100.2,43,100.2z M44.2,97.6c0,0.1-0.1,0.3-0.2,0.3C44.1,97.7,44.1,97.7,44.2,97.6C44.1,97.7,44.2,97.6,44.2,97.6
		L44.2,97.6C44.1,97.6,44.1,97.6,44.2,97.6z M42.7,100.7C42.7,100.7,42.7,100.7,42.7,100.7C42.7,100.7,42.7,100.7,42.7,100.7
		L42.7,100.7L42.7,100.7C42.6,100.7,42.7,100.6,42.7,100.7C42.7,100.7,42.7,100.7,42.7,100.7z M43.2,100c0,0,0,0.1-0.1,0.2
		c0,0,0,0,0,0c0,0,0,0,0,0c0,0,0,0,0,0S43.1,100.1,43.2,100C43.2,100.1,43.2,100,43.2,100z M42.2,100.9
		C42.2,100.8,42.2,100.9,42.2,100.9C42.2,100.9,42.2,100.9,42.2,100.9C42.2,100.9,42.2,100.8,42.2,100.9
		C42.2,100.8,42.2,100.9,42.2,100.9z M43.9,98.4C43.8,98.4,43.9,98.3,43.9,98.4C43.9,98.4,43.9,98.4,43.9,98.4
		C44,98.4,43.9,98.4,43.9,98.4C43.9,98.4,43.9,98.4,43.9,98.4C43.9,98.3,44,98.4,43.9,98.4l0.1,0c0,0,0,0,0,0c0,0,0,0,0,0
		C44.1,98.4,44,98.5,43.9,98.4C44,98.5,44,98.4,43.9,98.4C43.9,98.4,43.9,98.5,43.9,98.4C43.9,98.5,43.9,98.5,43.9,98.4
		C43.8,98.5,43.8,98.5,43.9,98.4C43.8,98.5,43.9,98.4,43.9,98.4C43.8,98.4,43.8,98.5,43.9,98.4C43.8,98.4,43.8,98.4,43.9,98.4
		C43.8,98.5,43.9,98.4,43.9,98.4C43.8,98.4,43.8,98.4,43.9,98.4L43.9,98.4c-0.1,0.1-0.1,0.1-0.2,0.1C43.7,98.5,43.7,98.4,43.9,98.4
		C43.8,98.4,43.9,98.4,43.9,98.4z M43.7,98.5C43.7,98.5,43.7,98.6,43.7,98.5C43.7,98.5,43.7,98.5,43.7,98.5S43.7,98.5,43.7,98.5z
		 M43.7,99.6C43.7,99.6,43.7,99.7,43.7,99.6C43.7,99.6,43.7,99.6,43.7,99.6C43.7,99.6,43.7,99.6,43.7,99.6z M43.4,99.8
		C43.4,99.9,43.3,99.9,43.4,99.8c-0.1,0-0.1,0.1-0.1,0.1l0,0C43.3,99.9,43.3,99.8,43.4,99.8C43.3,99.9,43.4,99.8,43.4,99.8z
		 M43.4,99.5C43.5,99.5,43.5,99.5,43.4,99.5C43.5,99.5,43.5,99.5,43.4,99.5C43.5,99.5,43.4,99.6,43.4,99.5z M43.4,99.7L43.4,99.7
		C43.4,99.7,43.5,99.7,43.4,99.7C43.5,99.7,43.5,99.7,43.4,99.7C43.5,99.7,43.5,99.7,43.4,99.7l0.1,0C43.5,99.7,43.5,99.8,43.4,99.7
		L43.4,99.7c0,0.1,0,0.1,0,0.1C43.4,99.8,43.4,99.8,43.4,99.7L43.4,99.7C43.4,99.7,43.5,99.7,43.4,99.7z M44,98.9
		C44,98.9,44,98.9,44,98.9C44,98.9,44,98.9,44,98.9L44,98.9z M43.7,99.5C43.7,99.5,43.7,99.5,43.7,99.5
		C43.7,99.5,43.7,99.5,43.7,99.5C43.7,99.5,43.7,99.5,43.7,99.5L43.7,99.5C43.7,99.5,43.7,99.5,43.7,99.5c0.1,0,0,0,0.1,0
		C43.7,99.5,43.7,99.6,43.7,99.5C43.7,99.5,43.7,99.5,43.7,99.5C43.7,99.5,43.7,99.5,43.7,99.5z M42.6,100.7
		C42.6,100.8,42.6,100.8,42.6,100.7L42.6,100.7C42.6,100.7,42.6,100.8,42.6,100.7z M42.5,100.9C42.6,100.8,42.6,100.8,42.5,100.9
		c0.1,0,0.1-0.1,0.1-0.1C42.6,100.9,42.5,101,42.5,100.9L42.5,100.9C42.5,100.9,42.5,100.9,42.5,100.9
		C42.5,100.9,42.5,100.9,42.5,100.9C42.5,100.9,42.6,100.8,42.5,100.9z M42.7,100.6C42.7,100.6,42.8,100.6,42.7,100.6L42.7,100.6
		C42.8,100.6,42.8,100.6,42.7,100.6C42.8,100.6,42.7,100.6,42.7,100.6z M42.7,100.6C42.7,100.7,42.7,100.7,42.7,100.6
		C42.7,100.7,42.7,100.6,42.7,100.6z M42.6,100.7C42.6,100.7,42.6,100.7,42.6,100.7c0,0,0-0.1,0-0.1
		C42.7,100.6,42.6,100.6,42.6,100.7z M46,95.1C46,95.1,46,95.1,46,95.1C46,95.1,46,95.1,46,95.1C46,95.1,46,95.1,46,95.1z
		 M45.9,95.8C45.9,95.9,45.8,95.9,45.9,95.8C45.8,95.9,45.9,95.8,45.9,95.8z M43,100.5C43,100.4,43.1,100.5,43,100.5
		C43,100.5,43.1,100.4,43,100.5C43,100.4,43,100.5,43,100.5c0-0.1,0-0.1,0-0.1C43.1,100.4,43.1,100.4,43,100.5
		c0.1-0.1,0.1-0.2,0.2-0.2c0,0,0,0,0,0.1c0,0,0,0,0,0C43.2,100.4,43.2,100.5,43,100.5C43.1,100.5,43.1,100.5,43,100.5
		c0,0.1,0,0.3-0.1,0.4C43,100.7,43,100.6,43,100.5C43.1,100.5,43,100.5,43,100.5z M45.4,97.1L45.4,97.1
		C45.5,97.1,45.5,97.1,45.4,97.1z M45.9,95.7C45.9,95.7,45.9,95.8,45.9,95.7C45.9,95.8,45.9,95.7,45.9,95.7z M45.8,96.1L45.8,96.1
		C45.8,96.1,45.8,96.1,45.8,96.1L45.8,96.1C45.8,96.1,45.8,96.1,45.8,96.1L45.8,96.1z M45.3,97.2L45.3,97.2
		C45.3,97.2,45.3,97.3,45.3,97.2C45.3,97.3,45.3,97.3,45.3,97.2L45.3,97.2z M46,95.7C45.9,95.7,46,95.7,46,95.7
		C46,95.6,46,95.6,46,95.7C46,95.6,46,95.7,46,95.7C46,95.7,46,95.7,46,95.7L46,95.7z M45.8,96.2C45.7,96.2,45.8,96.2,45.8,96.2
		C45.7,96.2,45.8,96.2,45.8,96.2S45.8,96.2,45.8,96.2z M45.1,96.6C45.2,96.6,45.2,96.6,45.1,96.6C45.2,96.6,45.1,96.6,45.1,96.6z
		 M45,96.6L45,96.6L45,96.6z M45.5,96.4C45.5,96.4,45.5,96.4,45.5,96.4C45.5,96.4,45.5,96.4,45.5,96.4
		C45.4,96.5,45.5,96.4,45.5,96.4z M45.9,95.4C45.8,95.4,45.8,95.4,45.9,95.4C45.8,95.4,45.9,95.4,45.9,95.4L45.9,95.4z M45.4,96.6
		C45.4,96.6,45.4,96.6,45.4,96.6C45.4,96.6,45.4,96.6,45.4,96.6z M45.6,96.2L45.6,96.2L45.6,96.2C45.6,96.2,45.6,96.3,45.6,96.2z
		 M45.3,96.5L45.3,96.5c0,0.1,0,0.1,0,0.1C45.3,96.6,45.4,96.5,45.3,96.5C45.3,96.5,45.3,96.5,45.3,96.5s0-0.1,0-0.1
		C45.4,96.3,45.4,96.4,45.3,96.5C45.4,96.5,45.4,96.5,45.3,96.5z M45.7,95.4C45.8,95.4,45.8,95.4,45.7,95.4
		C45.8,95.4,45.8,95.4,45.7,95.4z M45.7,95.3C45.8,95.3,45.7,95.3,45.7,95.3C45.8,95.3,45.8,95.3,45.7,95.3
		C45.7,95.4,45.7,95.4,45.7,95.3z M46.1,95.7C46,95.7,46,95.7,46.1,95.7L46.1,95.7L46.1,95.7C46,95.8,46,95.7,46.1,95.7
		C46,95.7,46,95.7,46.1,95.7z M46.4,95.8C46.4,95.8,46.4,95.7,46.4,95.8C46.4,95.8,46.3,95.8,46.4,95.8
		C46.3,95.8,46.4,95.8,46.4,95.8z M46.3,96C46.3,96.1,46.3,96,46.3,96C46.3,96.1,46.3,96.1,46.3,96C46.3,96,46.2,96,46.3,96z
		 M46.5,95.8C46.5,95.8,46.5,95.8,46.5,95.8C46.6,95.8,46.5,95.8,46.5,95.8z M46.4,96.2C46.4,96.3,46.3,96.2,46.4,96.2
		C46.3,96.2,46.3,96.3,46.4,96.2C46.3,96.3,46.3,96.2,46.4,96.2z M46.7,94.8L46.7,94.8C46.6,94.9,46.6,94.9,46.7,94.8z M46.6,96.1
		L46.6,96.1c0,0,0-0.2,0-0.2l0,0c0,0,0,0,0,0h0v0c0,0,0,0,0,0c0,0,0,0,0,0c0,0,0,0,0,0c0,0-0.1,0.1-0.1,0.1c0,0,0,0,0,0
		c0,0.1,0,0.1-0.1,0.2c0,0,0,0,0-0.1C46.6,96,46.6,96.1,46.6,96.1z M46.5,96.1L46.5,96.1C46.5,96.1,46.5,96.1,46.5,96.1L46.5,96.1
		L46.5,96.1z M46.6,96C46.6,96,46.5,96.1,46.6,96C46.5,96,46.5,96,46.6,96z M46.4,95.6C46.4,95.6,46.4,95.6,46.4,95.6
		C46.4,95.7,46.4,95.7,46.4,95.6C46.4,95.7,46.4,95.7,46.4,95.6C46.4,95.6,46.4,95.6,46.4,95.6C46.4,95.6,46.4,95.6,46.4,95.6z
		 M46.1,95.7C46.1,95.7,46.1,95.7,46.1,95.7C46.1,95.7,46.2,95.7,46.1,95.7z M46.1,95.8C46.1,95.8,46.1,95.8,46.1,95.8
		C46.1,95.8,46.1,95.8,46.1,95.8C46.1,95.8,46.1,95.8,46.1,95.8C46.1,95.8,46.2,95.8,46.1,95.8C46.1,95.8,46.2,95.8,46.1,95.8
		C46.1,95.8,46.2,95.8,46.1,95.8z M46.1,95.9C46.1,95.9,46.1,95.9,46.1,95.9L46.1,95.9C46.1,95.9,46,95.9,46.1,95.9
		C46.1,95.8,46.1,95.9,46.1,95.9z M46,96.1L46,96.1C46,96.1,46,96.2,46,96.1C46,96.1,46,96.1,46,96.1z M46.1,95.9
		C46.2,95.9,46.2,95.9,46.1,95.9L46.1,95.9C46.2,95.8,46.2,95.8,46.1,95.9C46.1,95.8,46.2,95.8,46.1,95.9c0,0,0.1,0,0.1,0
		C46.3,95.9,46.2,95.9,46.1,95.9c0,0,0,0.1,0,0.1C46.1,96,46.1,96,46.1,95.9C46.1,96,46.1,96,46.1,95.9
		C46.2,95.9,46.1,95.9,46.1,95.9z M46.4,95.6C46.4,95.5,46.4,95.5,46.4,95.6C46.4,95.5,46.4,95.6,46.4,95.6z M46.3,95.7L46.3,95.7
		C46.2,95.7,46.2,95.7,46.3,95.7L46.3,95.7C46.2,95.7,46.2,95.7,46.3,95.7c0-0.1,0-0.1,0-0.1c0,0,0,0,0,0
		C46.3,95.6,46.4,95.6,46.3,95.7l0.1,0c0,0,0,0,0,0c0,0,0,0,0,0.1C46.3,95.7,46.3,95.7,46.3,95.7z M46.3,95.8
		C46.3,95.8,46.3,95.8,46.3,95.8C46.2,95.8,46.3,95.8,46.3,95.8L46.3,95.8C46.3,95.8,46.3,95.8,46.3,95.8z M45.7,96.3
		C45.7,96.3,45.7,96.3,45.7,96.3C45.7,96.2,45.8,96.2,45.7,96.3C45.7,96.3,45.8,96.3,45.7,96.3z M45.2,97c0,0,0,0.1,0,0.1
		C45.2,97.1,45.3,97.1,45.2,97C45.3,97.1,45.3,97,45.2,97h0.1c0,0.1,0,0.1,0,0.2c0,0-0.1,0-0.1,0C45.2,97.1,45.2,97.1,45.2,97
		C45.2,97.1,45.2,97,45.2,97z M45.2,96.8C45.2,96.8,45.2,96.8,45.2,96.8C45.2,96.8,45.2,96.8,45.2,96.8
		C45.2,96.8,45.2,96.8,45.2,96.8z M45.2,96.9C45.2,97,45.3,97,45.2,96.9c0.1,0.1,0.1,0.1,0,0.1c0,0,0.1-0.2,0.1-0.3c0,0,0,0,0,0
		c0,0,0,0,0,0c0,0,0,0,0-0.1c0,0,0,0,0,0c0,0,0,0.1-0.1,0.2c0,0,0,0,0,0c0,0,0,0,0,0c0,0,0,0,0,0C45.3,96.8,45.3,96.8,45.2,96.9
		c0.1-0.1,0.2-0.1,0.1-0.2c0,0,0,0,0.1-0.1c0,0-0.1,0-0.1,0.1l0,0c0,0,0,0,0,0c0,0,0,0,0,0c0,0,0,0,0,0c0,0,0,0,0,0c0,0,0,0-0.1,0h0
		c0,0,0,0,0,0c0,0,0,0.1,0,0.1h0h0l0,0h0c0,0,0,0.1-0.1,0.1C45,96.9,45,96.9,45.2,96.9C45.1,97,45.1,97,45.2,96.9
		C45.1,97,45.1,96.9,45.2,96.9z M45.1,97L45.1,97L45.1,97C45.2,97,45.2,97,45.1,97C45.1,97,45.1,97,45.1,97C45,97.1,45,97.1,45,97.1
		C45,97.1,45,97,45.1,97C45.1,97,45.1,97,45.1,97z M45.7,96.2L45.7,96.2L45.7,96.2C45.7,96.2,45.6,96.2,45.7,96.2z M46,95.3L46,95.3
		L46,95.3z M45.3,96.9L45.3,96.9C45.3,97,45.3,97,45.3,96.9l0,0.1C45.3,97,45.3,97,45.3,96.9C45.3,96.9,45.4,96.9,45.3,96.9
		C45.4,96.9,45.4,96.9,45.3,96.9z M45.1,96.7L45.1,96.7L45.1,96.7C45.1,96.7,45.1,96.6,45.1,96.7C45.1,96.7,45.1,96.7,45.1,96.7
		C45.1,96.7,45.1,96.7,45.1,96.7z M46.1,95.1C46.1,95.2,46.1,95.1,46.1,95.1C46,95.2,46.1,95.1,46.1,95.1z M44.5,97.4
		C44.5,97.4,44.5,97.4,44.5,97.4L44.5,97.4L44.5,97.4C44.5,97.4,44.5,97.4,44.5,97.4z M44.9,97C44.9,97,44.9,97,44.9,97
		C44.9,97,45,96.9,44.9,97C45,97,44.9,97,44.9,97C44.9,97,44.9,97,44.9,97z M44.8,96.9C44.8,96.9,44.8,96.9,44.8,96.9
		C44.8,96.8,44.9,96.8,44.8,96.9C44.8,96.9,44.8,96.9,44.8,96.9C44.8,97,44.8,97,44.8,96.9C44.8,97,44.8,96.9,44.8,96.9z M44.7,97.1
		C44.7,97,44.7,97.1,44.7,97.1C44.6,97.1,44.7,97.1,44.7,97.1C44.7,97,44.7,97.1,44.7,97.1z M46.1,95C46.1,95,46.1,95,46.1,95
		C46.2,94.9,46.1,95,46.1,95C46.1,95,46.1,95.1,46.1,95z M44.7,97.3C44.7,97.3,44.7,97.3,44.7,97.3C44.7,97.2,44.7,97.2,44.7,97.3z
		 M44.8,97.1L44.8,97.1C44.9,97.1,44.9,97.2,44.8,97.1c0,0.1,0,0.2,0,0.2C44.8,97.3,44.8,97.2,44.8,97.1
		C44.8,97.2,44.8,97.2,44.8,97.1z M44.8,97.1C44.8,97.1,44.8,97.1,44.8,97.1C44.8,97.1,44.8,97.2,44.8,97.1
		C44.7,97.1,44.7,97.1,44.8,97.1z M44.9,97C44.9,97,44.9,97.1,44.9,97C44.8,97.1,44.9,97.1,44.9,97C44.9,97,44.9,97,44.9,97z
		 M44.9,96.7C44.9,96.7,44.9,96.8,44.9,96.7C44.9,96.7,44.9,96.7,44.9,96.7L44.9,96.7C45,96.7,45,96.6,44.9,96.7
		C45,96.7,45,96.7,44.9,96.7C45,96.8,45,96.8,44.9,96.7L44.9,96.7c0.1,0.1,0.1,0.1,0,0.2c0,0,0,0,0,0l0,0C45,96.9,45,96.8,44.9,96.7
		C44.9,96.8,44.9,96.7,44.9,96.7z M46.5,94.7c0,0,0,0.1-0.1,0.2C46.4,94.8,46.4,94.7,46.5,94.7z M46.4,94.4
		C46.4,94.4,46.4,94.4,46.4,94.4C46.3,94.4,46.3,94.4,46.4,94.4C46.3,94.3,46.3,94.4,46.4,94.4C46.3,94.4,46.3,94.3,46.4,94.4
		L46.4,94.4c0-0.1,0-0.1,0-0.1C46.4,94.3,46.4,94.3,46.4,94.4l0-0.1c0,0,0,0,0,0C46.4,94.3,46.4,94.4,46.4,94.4
		C46.4,94.4,46.4,94.4,46.4,94.4z M46.4,94.6C46.4,94.7,46.4,94.6,46.4,94.6L46.4,94.6z M46.4,94.7C46.4,94.7,46.4,94.7,46.4,94.7
		C46.4,94.7,46.4,94.7,46.4,94.7L46.4,94.7L46.4,94.7z M46.3,94.9C46.3,94.9,46.2,94.9,46.3,94.9C46.2,94.9,46.2,94.8,46.3,94.9
		L46.3,94.9z M45.6,96.1C45.6,96.1,45.6,96.1,45.6,96.1C45.6,96.1,45.5,96.1,45.6,96.1C45.6,96.1,45.6,96.1,45.6,96.1z M46.4,94.6
		C46.4,94.6,46.4,94.6,46.4,94.6C46.4,94.6,46.4,94.6,46.4,94.6C46.4,94.6,46.4,94.6,46.4,94.6z M46,95.1L46,95.1
		C45.9,95.1,46,95.1,46,95.1C46,95.1,45.9,95.1,46,95.1z M46.2,94.6L46.2,94.6L46.2,94.6C46.2,94.6,46.2,94.6,46.2,94.6
		C46.2,94.6,46.2,94.6,46.2,94.6z M46,95C46,95,46,95,46,95L46,95C46,95,46,95,46,95C46,95,46,94.9,46,95C46,95,46,95,46,95z
		 M46.2,95.2C46.2,95.2,46.2,95.3,46.2,95.2C46.1,95.2,46.2,95.2,46.2,95.2C46.1,95.2,46.2,95.2,46.2,95.2z M46.2,95.1L46.2,95.1
		C46.2,95.1,46.2,95.1,46.2,95.1C46.2,95.2,46.2,95.2,46.2,95.1C46.1,95.2,46.2,95.1,46.2,95.1C46.1,95.2,46.2,95.2,46.2,95.1
		C46.1,95.2,46.1,95.1,46.2,95.1z M46.3,95C46.3,95,46.3,94.9,46.3,95C46.3,95,46.3,94.9,46.3,95c0,0.1,0,0.1,0,0.1
		C46.2,95.1,46.3,95,46.3,95z M46.3,94.9C46.4,94.9,46.4,94.9,46.3,94.9C46.4,94.9,46.3,95,46.3,94.9z M46.2,95.2
		C46.2,95.1,46.3,95.1,46.2,95.2C46.3,95.1,46.3,95.2,46.2,95.2z M45.4,96.6C45.4,96.6,45.4,96.6,45.4,96.6
		C45.4,96.6,45.4,96.6,45.4,96.6z M46.4,95C46.4,95,46.4,94.9,46.4,95C46.4,94.9,46.4,94.9,46.4,95z M46.5,94.7
		C46.5,94.7,46.5,94.7,46.5,94.7C46.6,94.7,46.5,94.7,46.5,94.7L46.5,94.7C46.5,94.6,46.5,94.7,46.5,94.7
		C46.5,94.7,46.5,94.7,46.5,94.7C46.5,94.7,46.5,94.7,46.5,94.7z"/>
	<g>
		<path class="st9" d="M87,100.6c-2.4,0-2.4,0.8-4.9,0.8c-2.4,0-2.4-0.8-4.9-0.8c-3.3,0-7.3,1.6-7.3,7.3c0,8.9,4.9,16.3,8.1,16.3
			c2.4,0,2.4-0.8,4.1-0.8s1.6,0.8,4.1,0.8c3.3,0,8.1-7.3,8.1-16.3C94.4,102.3,90.3,100.6,87,100.6z"/>
	</g>
	<g>
		<path class="st10" d="M82.9,100.6c0,0,2.4-3.3,6.5-3.3c3.3,0,4.9,1.6,4.9,1.6s-3.3,2.4-5.7,2.4C86.2,101.5,82.9,100.6,82.9,100.6z
			"/>
	</g>
	<g>
		<path class="st11" d="M82.1,103.1c-0.4,0-0.8-0.4-0.8-0.8c0-2.8,1-5.4,2.7-7.1c0.3-0.3,0.8-0.3,1.2,0c0.3,0.3,0.3,0.8,0,1.2
			c-1.4,1.4-2.2,3.5-2.2,5.9C82.9,102.7,82.6,103.1,82.1,103.1z"/>
	</g>
	<path class="st12" d="M117.9,132.1l-1.1,48.1c0,0,0.1,2.2-0.4,3.5c-0.5,1.5-1.2,2.3-2.1,3.7c-0.6,0.8-1,1.3-1.8,1.9
		c-0.3,0.2-0.7,0.5-0.7,0.5H51.2c0,0-0.5-0.1-0.7-0.4c-0.8-0.8-1.2-1.4-1.8-2.3c-1-1.4-1.4-2.2-1.9-3.9c-0.4-1.3-0.5-3.5-0.5-3.5
		l-0.9-47.8H117.9L117.9,132.1z"/>
	<path class="st13" d="M39,120.5c0-1.2,0.9-2.1,2.1-2.1h83.4v13.8H41.1c-1.2,0-2.1-0.9-2.1-2.1V120.5z"/>
	<path class="st14" d="M124.6,118.4h3.9c1.2,0,2.1,0.9,2.1,2.1v9.5c0,1.2-0.9,2.1-2.1,2.1h-3.9V118.4z"/>
	<path class="st15" d="M117.8,132.3h6.6l-0.8,24.3l-0.8,24.3c0,0-0.5,4.9-1.9,6.6c-0.9,1.2-2.3,2.3-2.3,2.3h-6.6
		c0,0,3.2-2.7,4.1-5.1c0.5-1.5,0.7-4,0.7-4L117.8,132.3z"/>
	<path class="st16" d="M77.6,118.3c1.2,0,1.9,1.4,1.1,2.3l-16.7,21c-0.6,0.7-1.7,0.7-2.2,0l-16.7-21c-0.8-0.9-0.1-2.3,1.1-2.3H77.6z
		"/>
	<path class="st15" d="M73.1,118.3h9.3l-20.4,26.5l-4.9-6.2L73.1,118.3z"/>
	<path class="st16" d="M72.7,164.2c-1.5,0-2.9-0.3-4-0.8c-1.2-0.5-2.1-1.2-2.8-2.2c-0.7-0.9-1-2-1.1-3.2h4.4c0,0.5,0.2,0.9,0.5,1.3
		c0.3,0.4,0.7,0.7,1.2,0.9s1.1,0.3,1.7,0.3c0.7,0,1.2-0.1,1.8-0.4c0.5-0.2,0.9-0.6,1.2-1c0.3-0.4,0.4-0.9,0.4-1.5
		c0-0.5-0.1-1-0.5-1.5c-0.3-0.4-0.8-0.8-1.3-1c-0.6-0.2-1.2-0.4-2-0.4h-1.9v-3.2h1.9c0.7,0,1.2-0.1,1.8-0.4c0.5-0.2,0.9-0.5,1.2-0.9
		c0.3-0.4,0.4-0.9,0.4-1.4c0-0.5-0.1-1-0.4-1.4s-0.6-0.7-1-0.9c-0.4-0.2-0.9-0.4-1.5-0.4c-0.6,0-1.2,0.1-1.6,0.3
		c-0.5,0.2-0.9,0.5-1.2,0.9c-0.3,0.4-0.4,0.8-0.5,1.4h-4.2c0-1.2,0.4-2.3,1-3.1c0.7-0.9,1.5-1.6,2.7-2.1c1.1-0.5,2.4-0.8,3.8-0.8
		s2.7,0.3,3.8,0.8c1.1,0.5,1.9,1.2,2.5,2.1c0.6,0.9,0.9,1.9,0.9,3c0,1.2-0.4,2.1-1.1,2.9c-0.7,0.8-1.7,1.3-2.8,1.5v0.2
		c1.5,0.2,2.7,0.7,3.5,1.6c0.8,0.8,1.2,1.9,1.2,3.2c0,1.2-0.4,2.2-1,3.1c-0.7,0.9-1.6,1.6-2.8,2.2C75.6,163.9,74.3,164.2,72.7,164.2
		z"/>
	<path class="st16" d="M92,164.4c-1.7,0-3.2-0.4-4.5-1.3c-1.2-0.8-2.2-2.1-2.9-3.7s-1-3.5-1-5.8c0-2.3,0.4-4.2,1-5.8
		c0.7-1.6,1.6-2.8,2.9-3.6s2.7-1.2,4.5-1.2c1.7,0,3.2,0.4,4.5,1.2c1.2,0.8,2.2,2,2.9,3.6c0.7,1.6,1,3.5,1,5.8s-0.4,4.2-1,5.8
		s-1.6,2.8-2.9,3.7C95.2,164,93.7,164.4,92,164.4z M92,160.8c1.2,0,2.1-0.6,2.8-1.8s1.1-3,1.1-5.4c0-1.5-0.2-2.9-0.5-3.9
		c-0.3-1.1-0.8-1.8-1.4-2.3c-0.6-0.5-1.3-0.8-2-0.8c-1.2,0-2.1,0.6-2.8,1.8s-1.1,2.9-1.1,5.3c0,1.6,0.2,2.9,0.5,4
		c0.3,1.1,0.8,1.9,1.4,2.4C90.5,160.5,91.2,160.8,92,160.8z"/>
	<path class="st16" d="M71.4,181.5c0,2.3-0.8,3.7-2.5,4.2c-0.4,0.1-0.8,0.2-1.3,0.2c-0.7,0-1.4-0.2-2.1-0.5v-1.1
		c0.6,0.4,1.3,0.5,1.9,0.5c0.5,0,1-0.1,1.4-0.4c0.9-0.5,1.3-1.5,1.3-2.9v-6.5l1.2-0.7C71.4,174.5,71.4,181.5,71.4,181.5z"/>
	<path class="st16" d="M77.9,182.5c-1.1,0-1.9-0.4-2.4-1c-0.5-0.6-0.7-1.3-0.7-2.2v-8.1l1.2-0.7v8.7c0,1.4,0.7,2.1,2,2.1h0.7v1.2
		L77.9,182.5L77.9,182.5z"/>
	<path class="st16" d="M81.5,172c-0.5,0-0.8-0.3-0.8-0.8c0-0.5,0.3-0.8,0.8-0.8c0.5,0,0.7,0.3,0.7,0.8C82.2,171.8,82,172,81.5,172z
		 M84.4,181.3h0.7v1.2h-0.8c-1.1,0-1.9-0.4-2.5-1.2c-0.6,0.8-1.4,1.2-2.5,1.2h-0.8v-1.2h0.7c1.4,0,2-0.7,2-2.1v-4l1.2-0.7v4.7
		C82.3,180.6,83,181.3,84.4,181.3z"/>
	<path class="st16" d="M84.7,182.5v-1.2h0.7c1.4,0,2-0.7,2-2.1v-4l1.2-0.7v4.7c0,1.1-0.3,1.9-0.9,2.4c-0.6,0.5-1.3,0.8-2.3,0.8H84.7
		z M85.3,185.9c-0.5,0-0.8-0.3-0.8-0.8c0-0.5,0.3-0.8,0.8-0.8c0.5,0,0.7,0.3,0.7,0.8C86,185.7,85.8,185.9,85.3,185.9z M87.4,185.9
		c-0.5,0-0.8-0.3-0.8-0.8c0-0.5,0.3-0.8,0.8-0.8s0.7,0.3,0.7,0.8C88.2,185.7,87.9,185.9,87.4,185.9z"/>
	<path class="st16" d="M90.5,182.5l0.6-1.2h3.5c0.6,0,1-0.1,1.2-0.4c0.2-0.3,0.4-0.8,0.4-1.5c0-1.8-0.8-3.2-2.4-4.1l0.6-1
		c2,1.2,3.1,2.9,3.1,5.1c0,2-0.9,3.1-2.6,3.1H90.5z"/>
	<path class="st12" d="M64.7,142.2H102v23.6H64.7V142.2z"/>
	<path class="st16" d="M75.6,143.2v23h-4.9v-18.4h-0.1l-5.3,3.3v-4.3l5.7-3.6L75.6,143.2L75.6,143.2z"/>
	<path class="st16" d="M89.5,166.5c-1.6,0-3-0.3-4.2-0.9c-1.2-0.6-2.2-1.4-3-2.4c-0.8-1.1-1.1-2.2-1.2-3.5h4.8
		c0,0.9,0.4,1.6,1.1,2.2c0.7,0.5,1.5,0.8,2.5,0.8c0.8,0,1.5-0.2,2-0.5c0.6-0.4,1.1-0.8,1.4-1.4c0.4-0.6,0.5-1.3,0.5-2.1
		c0-0.8-0.2-1.5-0.5-2.1c-0.4-0.6-0.8-1.1-1.4-1.4c-0.6-0.4-1.3-0.5-2.1-0.5c-0.7,0-1.3,0.1-1.9,0.4c-0.6,0.3-1.1,0.7-1.5,1.2
		l-4.3-0.8l1.1-12.1h14.1v4h-10l-0.6,5.8h0.1c0.4-0.6,1-1,1.8-1.4c0.8-0.4,1.7-0.6,2.7-0.6c1.4,0,2.6,0.3,3.7,1
		c1.1,0.7,1.9,1.5,2.6,2.7c0.6,1.2,0.9,2.4,0.9,3.9c0,1.5-0.4,2.9-1.1,4.1c-0.7,1.2-1.7,2.1-3,2.8C92.7,166.2,91.2,166.5,89.5,166.5
		z"/>
	<path class="st12" d="M65.3,142.6h38.7v25.9H65.4L65.3,142.6L65.3,142.6z"/>
	<path class="st16" d="M66,165.1l8.1-16.1v-0.1h-9.5v-3.4h13.8v3.5l-8.1,16.1H66z"/>
	<path class="st16" d="M80.4,165.3c-0.6,0-1.2-0.2-1.6-0.7c-0.4-0.4-0.7-1-0.7-1.6c0-0.6,0.2-1.2,0.7-1.6c0.4-0.4,1-0.7,1.6-0.7
		c0.6,0,1.2,0.2,1.6,0.7c0.4,0.4,0.7,1,0.7,1.6c0,0.4-0.1,0.8-0.3,1.2c-0.2,0.4-0.5,0.6-0.8,0.8C81.2,165.2,80.8,165.3,80.4,165.3z"
		/>
	<path class="st16" d="M93,165.4c-1.4,0-2.6-0.3-3.6-0.8s-1.9-1.2-2.5-2.1c-0.6-0.9-0.9-1.9-1-3h4c0,0.8,0.4,1.4,1,1.9
		c0.6,0.5,1.3,0.7,2.1,0.7c0.7,0,1.2-0.1,1.7-0.4c0.5-0.3,0.9-0.7,1.2-1.2c0.3-0.5,0.4-1.1,0.4-1.8s-0.1-1.3-0.4-1.8
		c-0.3-0.5-0.7-0.9-1.2-1.2c-0.5-0.3-1.1-0.4-1.8-0.4c-0.6,0-1.2,0.1-1.7,0.4s-1,0.6-1.2,1l-3.7-0.7l0.9-10.4h12v3.4h-8.6l-0.5,4.9
		h0.1c0.4-0.5,0.9-0.9,1.5-1.2c0.7-0.3,1.5-0.5,2.3-0.5c1.2,0,2.3,0.3,3.2,0.8c0.9,0.6,1.7,1.3,2.2,2.3c0.5,1,0.8,2.1,0.8,3.3
		c0,1.3-0.3,2.5-0.9,3.5c-0.6,1-1.5,1.8-2.6,2.4C95.8,165,94.5,165.4,93,165.4z"/>
</g>
</svg>
