<svg width="115" height="57" viewBox="0 0 115 57" fill="none" xmlns="http://www.w3.org/2000/svg">
<path d="M36.3097 26.2044C36.2866 22.2648 38.2019 19.2914 42.0786 17.1015C39.9095 14.214 36.6328 12.6253 32.3061 12.314C28.2101 12.0134 23.7334 14.536 22.095 14.536C20.3644 14.536 16.3953 12.4213 13.2801 12.4213C6.84196 12.5179 0 17.1982 0 26.7196C0 29.532 0.553818 32.4375 1.66145 35.436C3.1383 39.3755 8.4688 49.0366 14.0301 48.8755C16.9376 48.8111 18.9913 46.9541 22.7758 46.9541C26.4448 46.9541 28.3486 48.8755 31.5907 48.8755C37.1981 48.8004 42.021 40.0196 43.4286 36.0693C35.9059 32.7739 36.3097 26.4083 36.3097 26.2044ZM29.7793 8.57838C32.9291 5.10042 32.6407 1.93375 32.5484 0.795898C29.7677 0.946181 26.5487 2.55635 24.7141 4.54223C22.695 6.66765 21.5066 9.29759 21.7604 12.2603C24.7718 12.475 27.5178 11.0366 29.7793 8.57838Z" fill="black"/>
<path d="M66.8998 23.4442C66.8998 25.6032 66.1554 27.4024 64.6664 28.8418C63.2022 30.2563 60.9563 30.9636 57.9287 30.9636H52.9407V41.7959H49.5532V15.8504H57.9287C60.8571 15.8504 63.0781 16.5577 64.5919 17.9722C66.1305 19.3868 66.8998 21.2108 66.8998 23.4442ZM57.9287 28.1717C59.8148 28.1717 61.2045 27.7623 62.0979 26.9433C62.9913 26.1244 63.438 24.958 63.438 23.4442C63.438 20.2429 61.6016 18.6423 57.9287 18.6423H52.9407V28.1717H57.9287ZM69.8444 31.5219C69.8444 29.4374 70.2662 27.6134 71.11 26.0499C71.9538 24.4617 73.1077 23.2333 74.5719 22.3647C76.0609 21.4961 77.7111 21.0619 79.5227 21.0619C81.3095 21.0619 82.8605 21.4465 84.1758 22.2158C85.4911 22.9851 86.4713 23.953 87.1165 25.1193V21.3969H90.5412V41.7959H87.1165V37.999C86.4465 39.1902 85.4414 40.1828 84.1013 40.977C82.7861 41.7463 81.2475 42.1309 79.4855 42.1309C77.6739 42.1309 76.036 41.6842 74.5719 40.7908C73.1077 39.8974 71.9538 38.6442 71.11 37.0312C70.2662 35.4181 69.8444 33.5817 69.8444 31.5219ZM87.1165 31.5592C87.1165 30.0206 86.8063 28.6805 86.1859 27.5389C85.5655 26.3974 84.7218 25.5288 83.6546 24.9332C82.6124 24.3128 81.4584 24.0026 80.1928 24.0026C78.9271 24.0026 77.7732 24.3004 76.7309 24.896C75.6886 25.4916 74.8573 26.3601 74.2369 27.5017C73.6164 28.6432 73.3062 29.9833 73.3062 31.5219C73.3062 33.0854 73.6164 34.4503 74.2369 35.6166C74.8573 36.7582 75.6886 37.6392 76.7309 38.2596C77.7732 38.8552 78.9271 39.153 80.1928 39.153C81.4584 39.153 82.6124 38.8552 83.6546 38.2596C84.7218 37.6392 85.5655 36.7582 86.1859 35.6166C86.8063 34.4503 87.1165 33.0978 87.1165 31.5592ZM113.836 21.3969L101.551 51.3998H98.0524L102.073 41.5726L93.846 21.3969H97.6057L104.008 37.9246L110.336 21.3969H113.836Z" fill="black"/>
</svg>
