<svg width="191" height="57" viewBox="0 0 191 57" fill="none" xmlns="http://www.w3.org/2000/svg">
<path fill-rule="evenodd" clip-rule="evenodd" d="M147.972 50.186C143.416 54.3724 137.506 56.8996 131.047 56.8996C116.637 56.8996 104.955 44.3172 104.955 28.7959C104.955 13.2746 116.637 0.692139 131.047 0.692139C137.506 0.692139 143.416 3.21939 147.972 7.40579C152.529 3.21939 158.439 0.692139 164.897 0.692139C179.308 0.692139 190.99 13.2746 190.99 28.7959C190.99 44.3172 179.308 56.8996 164.897 56.8996C158.439 56.8996 152.529 54.3724 147.972 50.186Z" fill="#ED0006"/>
<path fill-rule="evenodd" clip-rule="evenodd" d="M147.972 50.1857C153.582 45.0309 157.139 37.3609 157.139 28.7959C157.139 20.2309 153.582 12.5608 147.972 7.40607C152.528 3.2195 158.439 0.692139 164.897 0.692139C179.308 0.692139 190.99 13.2746 190.99 28.7959C190.99 44.3172 179.308 56.8996 164.897 56.8996C158.439 56.8996 152.528 54.3723 147.972 50.1857Z" fill="#F9A000"/>
<path fill-rule="evenodd" clip-rule="evenodd" d="M147.972 50.1862C153.583 45.0315 157.14 37.3612 157.14 28.796C157.14 20.2309 153.583 12.5606 147.972 7.40588C142.362 12.5606 138.805 20.2309 138.805 28.7961C138.805 37.3612 142.362 45.0315 147.972 50.1862Z" fill="#FF5E00"/>
<path fill-rule="evenodd" clip-rule="evenodd" d="M23.6355 46.5272H15.5279L9.44812 21.8316C9.15955 20.6956 8.54683 19.6913 7.64554 19.218C5.39628 18.0285 2.91773 17.0818 0.213867 16.6043V15.6536H13.2746C15.0772 15.6536 16.4292 17.0818 16.6545 18.7405L19.809 36.5543L27.9127 15.6536H35.795L23.6355 46.5272Z" fill="#172B85"/>
<path fill-rule="evenodd" clip-rule="evenodd" d="M40.3014 46.5272H32.6444L38.9495 15.6536H46.6065L40.3014 46.5272Z" fill="#172B85"/>
<path fill-rule="evenodd" clip-rule="evenodd" d="M56.5122 24.2065C56.7375 22.5437 58.0895 21.5929 59.6667 21.5929C62.1453 21.3542 64.8452 21.8316 67.0984 23.017L68.4503 16.3698C66.1971 15.419 63.7186 14.9415 61.4693 14.9415C54.0376 14.9415 48.6299 19.218 48.6299 25.1532C48.6299 29.6684 52.4604 32.0392 55.1642 33.4674C58.0895 34.8915 59.2161 35.8423 58.9908 37.2664C58.9908 39.4026 56.7375 40.3534 54.4883 40.3534C51.7844 40.3534 49.0806 39.6413 46.606 38.4518L45.254 45.1032C47.9579 46.2886 50.8831 46.766 53.587 46.766C61.92 47.0006 67.0984 42.7283 67.0984 36.3156C67.0984 28.2401 56.5122 27.7668 56.5122 24.2065Z" fill="#172B85"/>
<path fill-rule="evenodd" clip-rule="evenodd" d="M93.8965 46.5272L87.8168 15.6536H81.2864C79.9344 15.6536 78.5825 16.6043 78.1319 18.0285L66.8737 46.5272H74.756L76.3293 42.0162H86.0142L86.9155 46.5272H93.8965Z" fill="#172B85"/>
<path fill-rule="evenodd" clip-rule="evenodd" d="M82.413 23.9678L84.6622 35.6035H78.3572L82.413 23.9678Z" fill="white"/>
</svg>
